<?xml version="1.0" encoding="UTF-8" standalone="no"?>
<!DOCTYPE svg PUBLIC "-//W3C//DTD SVG 1.1//EN"
 "http://www.w3.org/Graphics/SVG/1.1/DTD/svg11.dtd">
<!-- Generated by graphviz version 2.38.0 (20140413.2041)
 -->
<!-- Title: %3 Pages: 1 -->
<svg width="1069pt" height="2087pt"
 viewBox="0.00 0.00 1068.69 2086.66" xmlns="http://www.w3.org/2000/svg" xmlns:xlink="http://www.w3.org/1999/xlink">
<g id="graph0" class="graph" transform="scale(1 1) rotate(0) translate(4 2082.66)">
<title>%3</title>
<polygon fill="white" stroke="none" points="-4,4 -4,-2082.66 1064.69,-2082.66 1064.69,4 -4,4"/>
<!-- 0 -->
<g id="node1" class="node"><title>0</title>
<ellipse fill="none" stroke="black" cx="984" cy="-2030.58" rx="58.8803" ry="48.1667"/>
<text text-anchor="middle" x="984" y="-2049.38" font-family="Times New Roman,serif" font-size="14.00">State 0</text>
<text text-anchor="middle" x="984" y="-2034.38" font-family="Times New Roman,serif" font-size="14.00">Inflow 0 0</text>
<text text-anchor="middle" x="984" y="-2019.38" font-family="Times New Roman,serif" font-size="14.00">Volume 0 0</text>
<text text-anchor="middle" x="984" y="-2004.38" font-family="Times New Roman,serif" font-size="14.00">Outflow 0 0</text>
</g>
<!-- 0&#45;&gt;0 -->
<g id="edge1" class="edge"><title>0&#45;&gt;0</title>
<path fill="none" stroke="black" d="M1034.52,-2055.26C1049.27,-2054.4 1060.69,-2046.18 1060.69,-2030.58 1060.69,-2018.76 1054.13,-2011.17 1044.54,-2007.82"/>
<polygon fill="black" stroke="black" points="1045,-2004.35 1034.52,-2005.91 1043.69,-2011.22 1045,-2004.35"/>
</g>
<!-- 1 -->
<g id="node2" class="node"><title>1</title>
<ellipse fill="none" stroke="black" cx="897" cy="-1898.41" rx="58.8803" ry="48.1667"/>
<text text-anchor="middle" x="897" y="-1917.21" font-family="Times New Roman,serif" font-size="14.00">State 1</text>
<text text-anchor="middle" x="897" y="-1902.21" font-family="Times New Roman,serif" font-size="14.00">Inflow 0 +</text>
<text text-anchor="middle" x="897" y="-1887.21" font-family="Times New Roman,serif" font-size="14.00">Volume 0 0</text>
<text text-anchor="middle" x="897" y="-1872.21" font-family="Times New Roman,serif" font-size="14.00">Outflow 0 0</text>
</g>
<!-- 0&#45;&gt;1 -->
<g id="edge2" class="edge"><title>0&#45;&gt;1</title>
<path fill="none" stroke="black" d="M956.233,-1988.04C948.072,-1975.83 939.056,-1962.34 930.572,-1949.64"/>
<polygon fill="black" stroke="black" points="933.268,-1947.38 924.801,-1941.01 927.448,-1951.27 933.268,-1947.38"/>
</g>
<!-- 2 -->
<g id="node3" class="node"><title>2</title>
<ellipse fill="none" stroke="black" cx="584" cy="-1766.25" rx="60.2083" ry="48.1667"/>
<text text-anchor="middle" x="584" y="-1785.05" font-family="Times New Roman,serif" font-size="14.00">State 2</text>
<text text-anchor="middle" x="584" y="-1770.05" font-family="Times New Roman,serif" font-size="14.00">Inflow + +</text>
<text text-anchor="middle" x="584" y="-1755.05" font-family="Times New Roman,serif" font-size="14.00">Volume 0 +</text>
<text text-anchor="middle" x="584" y="-1740.05" font-family="Times New Roman,serif" font-size="14.00">Outflow 0 +</text>
</g>
<!-- 1&#45;&gt;2 -->
<g id="edge3" class="edge"><title>1&#45;&gt;2</title>
<path fill="none" stroke="black" d="M844.963,-1875.77C790.376,-1853.07 704.584,-1817.39 646.397,-1793.2"/>
<polygon fill="black" stroke="black" points="647.524,-1789.87 636.946,-1789.27 644.836,-1796.34 647.524,-1789.87"/>
</g>
<!-- 3 -->
<g id="node4" class="node"><title>3</title>
<ellipse fill="none" stroke="black" cx="347" cy="-1634.08" rx="60.623" ry="48.1667"/>
<text text-anchor="middle" x="347" y="-1652.88" font-family="Times New Roman,serif" font-size="14.00">State 3</text>
<text text-anchor="middle" x="347" y="-1637.88" font-family="Times New Roman,serif" font-size="14.00">Inflow + +</text>
<text text-anchor="middle" x="347" y="-1622.88" font-family="Times New Roman,serif" font-size="14.00">Volume + +</text>
<text text-anchor="middle" x="347" y="-1607.88" font-family="Times New Roman,serif" font-size="14.00">Outflow + +</text>
</g>
<!-- 2&#45;&gt;3 -->
<g id="edge4" class="edge"><title>2&#45;&gt;3</title>
<path fill="none" stroke="black" d="M534.893,-1738.28C497.204,-1717.58 445.055,-1688.94 405.257,-1667.08"/>
<polygon fill="black" stroke="black" points="406.901,-1663.99 396.451,-1662.24 403.531,-1670.12 406.901,-1663.99"/>
</g>
<!-- 3&#45;&gt;3 -->
<g id="edge5" class="edge"><title>3&#45;&gt;3</title>
<path fill="none" stroke="black" d="M399.295,-1658.73C414.267,-1657.77 425.811,-1649.55 425.811,-1634.08 425.811,-1622.24 419.044,-1614.65 409.152,-1611.3"/>
<polygon fill="black" stroke="black" points="409.773,-1607.86 399.295,-1609.43 408.465,-1614.73 409.773,-1607.86"/>
</g>
<!-- 4 -->
<g id="node5" class="node"><title>4</title>
<ellipse fill="none" stroke="black" cx="516" cy="-1501.92" rx="60.2083" ry="48.1667"/>
<text text-anchor="middle" x="516" y="-1520.72" font-family="Times New Roman,serif" font-size="14.00">State 4</text>
<text text-anchor="middle" x="516" y="-1505.72" font-family="Times New Roman,serif" font-size="14.00">Inflow + +</text>
<text text-anchor="middle" x="516" y="-1490.72" font-family="Times New Roman,serif" font-size="14.00">Volume + 0</text>
<text text-anchor="middle" x="516" y="-1475.72" font-family="Times New Roman,serif" font-size="14.00">Outflow + 0</text>
</g>
<!-- 3&#45;&gt;4 -->
<g id="edge6" class="edge"><title>3&#45;&gt;4</title>
<path fill="none" stroke="black" d="M387.089,-1597.51C409.584,-1579.52 437.878,-1557.72 462.257,-1539.58"/>
<polygon fill="black" stroke="black" points="464.407,-1542.34 470.361,-1533.58 460.242,-1536.72 464.407,-1542.34"/>
</g>
<!-- 5 -->
<g id="node6" class="node"><title>5</title>
<ellipse fill="none" stroke="black" cx="346" cy="-841.082" rx="71.3357" ry="48.1667"/>
<text text-anchor="middle" x="346" y="-859.882" font-family="Times New Roman,serif" font-size="14.00">State 5</text>
<text text-anchor="middle" x="346" y="-844.882" font-family="Times New Roman,serif" font-size="14.00">Inflow + +</text>
<text text-anchor="middle" x="346" y="-829.882" font-family="Times New Roman,serif" font-size="14.00">Volume Max 0</text>
<text text-anchor="middle" x="346" y="-814.882" font-family="Times New Roman,serif" font-size="14.00">Outflow Max 0</text>
</g>
<!-- 3&#45;&gt;5 -->
<g id="edge7" class="edge"><title>3&#45;&gt;5</title>
<path fill="none" stroke="black" d="M291.042,-1614.59C201.997,-1581.24 38,-1501.99 38,-1370.75 38,-1370.75 38,-1370.75 38,-1236.58 38,-1077.07 196.384,-943.464 285.998,-880.638"/>
<polygon fill="black" stroke="black" points="288.223,-883.354 294.448,-874.78 284.235,-877.601 288.223,-883.354"/>
</g>
<!-- 6 -->
<g id="node7" class="node"><title>6</title>
<ellipse fill="none" stroke="black" cx="279" cy="-1369.75" rx="60.623" ry="48.1667"/>
<text text-anchor="middle" x="279" y="-1388.55" font-family="Times New Roman,serif" font-size="14.00">State 6</text>
<text text-anchor="middle" x="279" y="-1373.55" font-family="Times New Roman,serif" font-size="14.00">Inflow + 0</text>
<text text-anchor="middle" x="279" y="-1358.55" font-family="Times New Roman,serif" font-size="14.00">Volume + +</text>
<text text-anchor="middle" x="279" y="-1343.55" font-family="Times New Roman,serif" font-size="14.00">Outflow + +</text>
</g>
<!-- 3&#45;&gt;6 -->
<g id="edge8" class="edge"><title>3&#45;&gt;6</title>
<path fill="none" stroke="black" d="M329.978,-1587.69C316.64,-1543.33 298.959,-1475.66 288.086,-1427.71"/>
<polygon fill="black" stroke="black" points="291.468,-1426.8 285.874,-1417.8 284.635,-1428.32 291.468,-1426.8"/>
</g>
<!-- 7 -->
<g id="node8" class="node"><title>7</title>
<ellipse fill="none" stroke="black" cx="467" cy="-180.25" rx="60.2083" ry="48.1667"/>
<text text-anchor="middle" x="467" y="-199.05" font-family="Times New Roman,serif" font-size="14.00">State 7</text>
<text text-anchor="middle" x="467" y="-184.05" font-family="Times New Roman,serif" font-size="14.00">Inflow + 0</text>
<text text-anchor="middle" x="467" y="-169.05" font-family="Times New Roman,serif" font-size="14.00">Volume + 0</text>
<text text-anchor="middle" x="467" y="-154.05" font-family="Times New Roman,serif" font-size="14.00">Outflow + 0</text>
</g>
<!-- 3&#45;&gt;7 -->
<g id="edge9" class="edge"><title>3&#45;&gt;7</title>
<path fill="none" stroke="black" d="M286.196,-1631.28C222.131,-1626.15 122.21,-1608.5 61,-1550 0.162387,-1491.86 0,-1454.9 0,-1370.75 0,-1370.75 0,-1370.75 0,-1236.58 0,-854.074 23.8112,-742.45 187,-396.5 216.099,-334.811 213.449,-308.996 265,-264.333 270.684,-259.408 346.919,-228.672 404.068,-206.012"/>
<polygon fill="black" stroke="black" points="405.411,-209.245 413.419,-202.309 402.833,-202.737 405.411,-209.245"/>
</g>
<!-- 8 -->
<g id="node9" class="node"><title>8</title>
<ellipse fill="none" stroke="black" cx="365" cy="-973.249" rx="71.3357" ry="48.1667"/>
<text text-anchor="middle" x="365" y="-992.049" font-family="Times New Roman,serif" font-size="14.00">State 8</text>
<text text-anchor="middle" x="365" y="-977.049" font-family="Times New Roman,serif" font-size="14.00">Inflow + 0</text>
<text text-anchor="middle" x="365" y="-962.049" font-family="Times New Roman,serif" font-size="14.00">Volume Max 0</text>
<text text-anchor="middle" x="365" y="-947.049" font-family="Times New Roman,serif" font-size="14.00">Outflow Max 0</text>
</g>
<!-- 3&#45;&gt;8 -->
<g id="edge10" class="edge"><title>3&#45;&gt;8</title>
<path fill="none" stroke="black" d="M352.625,-1586.14C357.543,-1542.59 364.306,-1475.94 367,-1417.83 372.442,-1300.45 363.095,-1270.99 361,-1153.5 360.238,-1110.76 359.972,-1100.06 361,-1057.33 361.198,-1049.12 361.505,-1040.46 361.863,-1031.95"/>
<polygon fill="black" stroke="black" points="365.372,-1031.83 362.322,-1021.69 358.379,-1031.52 365.372,-1031.83"/>
</g>
<!-- 4&#45;&gt;3 -->
<g id="edge11" class="edge"><title>4&#45;&gt;3</title>
<path fill="none" stroke="black" d="M476.34,-1538.14C453.864,-1556.13 425.497,-1577.99 401.026,-1596.21"/>
<polygon fill="black" stroke="black" points="398.843,-1593.47 392.891,-1602.23 403.01,-1599.09 398.843,-1593.47"/>
</g>
<!-- 4&#45;&gt;6 -->
<g id="edge12" class="edge"><title>4&#45;&gt;6</title>
<path fill="none" stroke="black" d="M465.138,-1475.97C426.881,-1455.79 374.577,-1427.17 335.112,-1404.87"/>
<polygon fill="black" stroke="black" points="336.816,-1401.82 326.39,-1399.93 333.363,-1407.9 336.816,-1401.82"/>
</g>
<!-- 5&#45;&gt;5 -->
<g id="edge13" class="edge"><title>5&#45;&gt;5</title>
<path fill="none" stroke="black" d="M407.85,-865.536C423.597,-863.929 435.418,-855.778 435.418,-841.082 435.418,-829.716 428.346,-822.265 417.857,-818.729"/>
<polygon fill="black" stroke="black" points="418.356,-815.257 407.85,-816.628 416.918,-822.108 418.356,-815.257"/>
</g>
<!-- 5&#45;&gt;8 -->
<g id="edge14" class="edge"><title>5&#45;&gt;8</title>
<path fill="none" stroke="black" d="M359.317,-888.755C360.78,-897.195 362.146,-906.085 363.322,-914.791"/>
<polygon fill="black" stroke="black" points="359.872,-915.411 364.609,-924.888 366.816,-914.525 359.872,-915.411"/>
</g>
<!-- 6&#45;&gt;3 -->
<g id="edge18" class="edge"><title>6&#45;&gt;3</title>
<path fill="none" stroke="black" d="M295.956,-1415.93C309.315,-1460.32 327.056,-1528.21 337.944,-1576.25"/>
<polygon fill="black" stroke="black" points="334.566,-1577.18 340.159,-1586.18 341.398,-1575.66 334.566,-1577.18"/>
</g>
<!-- 6&#45;&gt;4 -->
<g id="edge19" class="edge"><title>6&#45;&gt;4</title>
<path fill="none" stroke="black" d="M330.401,-1395.98C368.533,-1416.1 420.402,-1444.48 459.654,-1466.66"/>
<polygon fill="black" stroke="black" points="458.412,-1469.98 468.838,-1471.87 461.865,-1463.89 458.412,-1469.98"/>
</g>
<!-- 6&#45;&gt;5 -->
<g id="edge20" class="edge"><title>6&#45;&gt;5</title>
<path fill="none" stroke="black" d="M228.021,-1343.29C206.232,-1329.48 183.07,-1310.18 171,-1285.67 152.12,-1247.32 162.359,-1231.36 171,-1189.5 172.617,-1181.67 281.025,-932.104 285,-925.166 291.317,-914.139 298.823,-902.837 306.373,-892.26"/>
<polygon fill="black" stroke="black" points="309.364,-894.098 312.415,-883.952 303.703,-889.981 309.364,-894.098"/>
</g>
<!-- 6&#45;&gt;6 -->
<g id="edge15" class="edge"><title>6&#45;&gt;6</title>
<path fill="none" stroke="black" d="M331.295,-1394.4C346.267,-1393.44 357.811,-1385.22 357.811,-1369.75 357.811,-1357.91 351.044,-1350.31 341.152,-1346.97"/>
<polygon fill="black" stroke="black" points="341.773,-1343.53 331.295,-1345.1 340.465,-1350.4 341.773,-1343.53"/>
</g>
<!-- 6&#45;&gt;7 -->
<g id="edge16" class="edge"><title>6&#45;&gt;7</title>
<path fill="none" stroke="black" d="M226.77,-1344.57C202.135,-1330.64 174.396,-1310.87 157,-1285.67 110.458,-1218.24 114,-1188.34 114,-1106.42 114,-1106.42 114,-1106.42 114,-972.249 114,-642.11 135.285,-524.125 339,-264.333 356.685,-241.78 382.281,-223.451 405.943,-209.804"/>
<polygon fill="black" stroke="black" points="407.872,-212.736 414.897,-204.804 404.459,-206.624 407.872,-212.736"/>
</g>
<!-- 6&#45;&gt;8 -->
<g id="edge17" class="edge"><title>6&#45;&gt;8</title>
<path fill="none" stroke="black" d="M309.429,-1328.09C317.398,-1315.19 324.901,-1300.43 329,-1285.67 356.154,-1187.88 306.896,-1156.6 328,-1057.33 330.069,-1047.6 333.36,-1037.63 337.147,-1028.12"/>
<polygon fill="black" stroke="black" points="340.418,-1029.37 341.072,-1018.8 333.966,-1026.66 340.418,-1029.37"/>
</g>
<!-- 9 -->
<g id="node10" class="node"><title>9</title>
<ellipse fill="none" stroke="black" cx="241" cy="-1237.58" rx="60.623" ry="48.1667"/>
<text text-anchor="middle" x="241" y="-1256.38" font-family="Times New Roman,serif" font-size="14.00">State 9</text>
<text text-anchor="middle" x="241" y="-1241.38" font-family="Times New Roman,serif" font-size="14.00">Inflow + &#45;</text>
<text text-anchor="middle" x="241" y="-1226.38" font-family="Times New Roman,serif" font-size="14.00">Volume + +</text>
<text text-anchor="middle" x="241" y="-1211.38" font-family="Times New Roman,serif" font-size="14.00">Outflow + +</text>
</g>
<!-- 6&#45;&gt;9 -->
<g id="edge21" class="edge"><title>6&#45;&gt;9</title>
<path fill="none" stroke="black" d="M259.473,-1323.95C256.516,-1314.78 253.581,-1305.02 250.91,-1295.49"/>
<polygon fill="black" stroke="black" points="254.243,-1294.4 248.234,-1285.68 247.49,-1296.25 254.243,-1294.4"/>
</g>
<!-- 10 -->
<g id="node11" class="node"><title>10</title>
<ellipse fill="none" stroke="black" cx="658" cy="-48.0833" rx="60.2083" ry="48.1667"/>
<text text-anchor="middle" x="658" y="-66.8833" font-family="Times New Roman,serif" font-size="14.00">State 10</text>
<text text-anchor="middle" x="658" y="-51.8833" font-family="Times New Roman,serif" font-size="14.00">Inflow + &#45;</text>
<text text-anchor="middle" x="658" y="-36.8833" font-family="Times New Roman,serif" font-size="14.00">Volume + 0</text>
<text text-anchor="middle" x="658" y="-21.8833" font-family="Times New Roman,serif" font-size="14.00">Outflow + 0</text>
</g>
<!-- 6&#45;&gt;10 -->
<g id="edge22" class="edge"><title>6&#45;&gt;10</title>
<path fill="none" stroke="black" d="M221.374,-1354.01C184.885,-1341.7 139.704,-1320.42 113,-1285.67 63.4375,-1221.16 76,-1187.76 76,-1106.42 76,-1106.42 76,-1106.42 76,-311.416 76,-89.3145 432.631,-54.1838 587.555,-49.4009"/>
<polygon fill="black" stroke="black" points="588.007,-52.89 597.908,-49.1174 587.816,-45.8926 588.007,-52.89"/>
</g>
<!-- 11 -->
<g id="node12" class="node"><title>11</title>
<ellipse fill="none" stroke="black" cx="441" cy="-1105.42" rx="71.3357" ry="48.1667"/>
<text text-anchor="middle" x="441" y="-1124.22" font-family="Times New Roman,serif" font-size="14.00">State 11</text>
<text text-anchor="middle" x="441" y="-1109.22" font-family="Times New Roman,serif" font-size="14.00">Inflow + &#45;</text>
<text text-anchor="middle" x="441" y="-1094.22" font-family="Times New Roman,serif" font-size="14.00">Volume Max 0</text>
<text text-anchor="middle" x="441" y="-1079.22" font-family="Times New Roman,serif" font-size="14.00">Outflow Max 0</text>
</g>
<!-- 6&#45;&gt;11 -->
<g id="edge23" class="edge"><title>6&#45;&gt;11</title>
<path fill="none" stroke="black" d="M319.797,-1333.76C334.39,-1319.83 350.142,-1303 362,-1285.67 388.177,-1247.4 408.876,-1199.06 422.509,-1162.23"/>
<polygon fill="black" stroke="black" points="425.866,-1163.24 425.993,-1152.64 419.287,-1160.85 425.866,-1163.24"/>
</g>
<!-- 7&#45;&gt;4 -->
<g id="edge25" class="edge"><title>7&#45;&gt;4</title>
<path fill="none" stroke="black" d="M448.158,-226.324C428.342,-277.89 400,-365.318 400,-443.583 400,-577.749 400,-577.749 400,-577.749 400,-657.862 391.056,-681.918 419,-756.999 425.795,-775.255 435.074,-775.685 444,-792.999 501.205,-903.959 517.571,-934.347 539,-1057.33 546.337,-1099.44 540.412,-1110.78 539,-1153.5 535.618,-1255.79 526.649,-1374.73 520.963,-1443.57"/>
<polygon fill="black" stroke="black" points="517.456,-1443.51 520.114,-1453.76 524.432,-1444.09 517.456,-1443.51"/>
</g>
<!-- 7&#45;&gt;7 -->
<g id="edge24" class="edge"><title>7&#45;&gt;7</title>
<path fill="none" stroke="black" d="M518.825,-204.903C533.663,-203.936 545.104,-195.719 545.104,-180.25 545.104,-168.527 538.534,-160.969 528.894,-157.575"/>
<polygon fill="black" stroke="black" points="529.313,-154.09 518.825,-155.596 527.963,-160.959 529.313,-154.09"/>
</g>
<!-- 7&#45;&gt;10 -->
<g id="edge26" class="edge"><title>7&#45;&gt;10</title>
<path fill="none" stroke="black" d="M512.264,-148.402C539.875,-129.585 575.319,-105.431 604.338,-85.6541"/>
<polygon fill="black" stroke="black" points="606.438,-88.4586 612.73,-79.9348 602.495,-82.6742 606.438,-88.4586"/>
</g>
<!-- 8&#45;&gt;5 -->
<g id="edge28" class="edge"><title>8&#45;&gt;5</title>
<path fill="none" stroke="black" d="M351.755,-925.991C350.274,-917.482 348.891,-908.504 347.701,-899.71"/>
<polygon fill="black" stroke="black" points="351.137,-898.986 346.399,-889.51 344.194,-899.873 351.137,-898.986"/>
</g>
<!-- 8&#45;&gt;8 -->
<g id="edge27" class="edge"><title>8&#45;&gt;8</title>
<path fill="none" stroke="black" d="M426.85,-997.703C442.597,-996.096 454.418,-987.944 454.418,-973.249 454.418,-961.883 447.346,-954.432 436.857,-950.895"/>
<polygon fill="black" stroke="black" points="437.356,-947.424 426.85,-948.795 435.918,-954.275 437.356,-947.424"/>
</g>
<!-- 8&#45;&gt;11 -->
<g id="edge29" class="edge"><title>8&#45;&gt;11</title>
<path fill="none" stroke="black" d="M396.289,-1016.91C402.846,-1027.52 409.664,-1039.03 415.964,-1050.12"/>
<polygon fill="black" stroke="black" points="412.942,-1051.88 420.89,-1058.89 419.045,-1048.46 412.942,-1051.88"/>
</g>
<!-- 9&#45;&gt;6 -->
<g id="edge33" class="edge"><title>9&#45;&gt;6</title>
<path fill="none" stroke="black" d="M260.512,-1283.33C263.481,-1292.54 266.429,-1302.34 269.108,-1311.91"/>
<polygon fill="black" stroke="black" points="265.786,-1313.03 271.794,-1321.76 272.539,-1311.19 265.786,-1313.03"/>
</g>
<!-- 9&#45;&gt;7 -->
<g id="edge34" class="edge"><title>9&#45;&gt;7</title>
<path fill="none" stroke="black" d="M237.133,-1189.5C227.225,-1042.52 212.787,-582.946 386,-264.333 394.284,-249.094 406.159,-234.708 418.272,-222.324"/>
<polygon fill="black" stroke="black" points="420.754,-224.792 425.405,-215.273 415.833,-219.813 420.754,-224.792"/>
</g>
<!-- 9&#45;&gt;8 -->
<g id="edge35" class="edge"><title>9&#45;&gt;8</title>
<path fill="none" stroke="black" d="M247.638,-1189.78C254.375,-1152.23 267.162,-1099.08 290,-1057.33 297.123,-1044.31 306.671,-1031.67 316.563,-1020.33"/>
<polygon fill="black" stroke="black" points="319.344,-1022.47 323.442,-1012.7 314.145,-1017.78 319.344,-1022.47"/>
</g>
<!-- 9&#45;&gt;9 -->
<g id="edge30" class="edge"><title>9&#45;&gt;9</title>
<path fill="none" stroke="black" d="M293.295,-1262.24C308.267,-1261.27 319.811,-1253.05 319.811,-1237.58 319.811,-1225.74 313.044,-1218.15 303.152,-1214.8"/>
<polygon fill="black" stroke="black" points="303.773,-1211.36 293.295,-1212.93 302.465,-1218.24 303.773,-1211.36"/>
</g>
<!-- 9&#45;&gt;10 -->
<g id="edge31" class="edge"><title>9&#45;&gt;10</title>
<path fill="none" stroke="black" d="M227.696,-1190.45C192.825,-1061.95 106.823,-690.104 187,-396.5 226.599,-251.489 269.518,-210.195 398,-132.167 457.674,-95.9263 534.776,-73.8812 589.483,-61.6955"/>
<polygon fill="black" stroke="black" points="590.399,-65.0781 599.428,-59.5337 588.912,-58.2378 590.399,-65.0781"/>
</g>
<!-- 9&#45;&gt;11 -->
<g id="edge32" class="edge"><title>9&#45;&gt;11</title>
<path fill="none" stroke="black" d="M287.387,-1206.39C315.429,-1188.14 351.457,-1164.69 381.573,-1145.09"/>
<polygon fill="black" stroke="black" points="383.833,-1147.8 390.305,-1139.41 380.015,-1141.93 383.833,-1147.8"/>
</g>
<!-- 12 -->
<g id="node13" class="node"><title>12</title>
<ellipse fill="none" stroke="black" cx="721" cy="-841.082" rx="58.8803" ry="48.1667"/>
<text text-anchor="middle" x="721" y="-859.882" font-family="Times New Roman,serif" font-size="14.00">State 12</text>
<text text-anchor="middle" x="721" y="-844.882" font-family="Times New Roman,serif" font-size="14.00">Inflow + &#45;</text>
<text text-anchor="middle" x="721" y="-829.882" font-family="Times New Roman,serif" font-size="14.00">Volume + &#45;</text>
<text text-anchor="middle" x="721" y="-814.882" font-family="Times New Roman,serif" font-size="14.00">Outflow + &#45;</text>
</g>
<!-- 10&#45;&gt;12 -->
<g id="edge36" class="edge"><title>10&#45;&gt;12</title>
<path fill="none" stroke="black" d="M696.128,-85.2809C738.019,-133.393 799,-222.703 799,-311.416 799,-577.749 799,-577.749 799,-577.749 799,-658.836 788.426,-679.37 765,-756.999 761.815,-767.554 757.733,-778.59 753.301,-789.044"/>
<polygon fill="black" stroke="black" points="749.985,-787.889 749.149,-798.45 756.389,-790.716 749.985,-787.889"/>
</g>
<!-- 13 -->
<g id="node14" class="node"><title>13</title>
<ellipse fill="none" stroke="black" cx="658" cy="-312.416" rx="58.8803" ry="48.1667"/>
<text text-anchor="middle" x="658" y="-331.216" font-family="Times New Roman,serif" font-size="14.00">State 13</text>
<text text-anchor="middle" x="658" y="-316.216" font-family="Times New Roman,serif" font-size="14.00">Inflow + 0</text>
<text text-anchor="middle" x="658" y="-301.216" font-family="Times New Roman,serif" font-size="14.00">Volume + &#45;</text>
<text text-anchor="middle" x="658" y="-286.216" font-family="Times New Roman,serif" font-size="14.00">Outflow + &#45;</text>
</g>
<!-- 10&#45;&gt;13 -->
<g id="edge37" class="edge"><title>10&#45;&gt;13</title>
<path fill="none" stroke="black" d="M663.317,-96.0186C665.097,-140.379 665.219,-207.015 663.681,-254.411"/>
<polygon fill="black" stroke="black" points="660.179,-254.396 663.316,-264.516 667.175,-254.649 660.179,-254.396"/>
</g>
<!-- 14 -->
<g id="node15" class="node"><title>14</title>
<ellipse fill="none" stroke="black" cx="886" cy="-708.916" rx="58.8803" ry="48.1667"/>
<text text-anchor="middle" x="886" y="-727.716" font-family="Times New Roman,serif" font-size="14.00">State 14</text>
<text text-anchor="middle" x="886" y="-712.716" font-family="Times New Roman,serif" font-size="14.00">Inflow 0 0</text>
<text text-anchor="middle" x="886" y="-697.716" font-family="Times New Roman,serif" font-size="14.00">Volume + &#45;</text>
<text text-anchor="middle" x="886" y="-682.716" font-family="Times New Roman,serif" font-size="14.00">Outflow + &#45;</text>
</g>
<!-- 10&#45;&gt;14 -->
<g id="edge38" class="edge"><title>10&#45;&gt;14</title>
<path fill="none" stroke="black" d="M713.871,-66.2994C747.233,-79.3199 787.872,-100.462 813,-132.167 864.228,-196.801 861,-228.943 861,-311.416 861,-445.583 861,-445.583 861,-445.583 861,-516.567 870.183,-597.871 877.418,-650.91"/>
<polygon fill="black" stroke="black" points="873.995,-651.705 878.836,-661.129 880.929,-650.743 873.995,-651.705"/>
</g>
<!-- 11&#45;&gt;8 -->
<g id="edge41" class="edge"><title>11&#45;&gt;8</title>
<path fill="none" stroke="black" d="M409.736,-1061.79C403.153,-1051.15 396.307,-1039.58 389.986,-1028.46"/>
<polygon fill="black" stroke="black" points="392.991,-1026.66 385.043,-1019.65 386.887,-1030.09 392.991,-1026.66"/>
</g>
<!-- 11&#45;&gt;11 -->
<g id="edge39" class="edge"><title>11&#45;&gt;11</title>
<path fill="none" stroke="black" d="M502.85,-1129.87C518.597,-1128.26 530.418,-1120.11 530.418,-1105.42 530.418,-1094.05 523.346,-1086.6 512.857,-1083.06"/>
<polygon fill="black" stroke="black" points="513.356,-1079.59 502.85,-1080.96 511.918,-1086.44 513.356,-1079.59"/>
</g>
<!-- 15 -->
<g id="node16" class="node"><title>15</title>
<ellipse fill="none" stroke="black" cx="732" cy="-973.249" rx="70.0071" ry="48.1667"/>
<text text-anchor="middle" x="732" y="-992.049" font-family="Times New Roman,serif" font-size="14.00">State 15</text>
<text text-anchor="middle" x="732" y="-977.049" font-family="Times New Roman,serif" font-size="14.00">Inflow + &#45;</text>
<text text-anchor="middle" x="732" y="-962.049" font-family="Times New Roman,serif" font-size="14.00">Volume Max &#45;</text>
<text text-anchor="middle" x="732" y="-947.049" font-family="Times New Roman,serif" font-size="14.00">Outflow Max &#45;</text>
</g>
<!-- 11&#45;&gt;15 -->
<g id="edge40" class="edge"><title>11&#45;&gt;15</title>
<path fill="none" stroke="black" d="M499.888,-1078.07C547.475,-1056.79 614.494,-1026.81 664.293,-1004.53"/>
<polygon fill="black" stroke="black" points="665.997,-1007.61 673.697,-1000.33 663.139,-1001.22 665.997,-1007.61"/>
</g>
<!-- 16 -->
<g id="node17" class="node"><title>16</title>
<ellipse fill="none" stroke="black" cx="498" cy="-708.916" rx="70.0071" ry="48.1667"/>
<text text-anchor="middle" x="498" y="-727.716" font-family="Times New Roman,serif" font-size="14.00">State 16</text>
<text text-anchor="middle" x="498" y="-712.716" font-family="Times New Roman,serif" font-size="14.00">Inflow + 0</text>
<text text-anchor="middle" x="498" y="-697.716" font-family="Times New Roman,serif" font-size="14.00">Volume Max &#45;</text>
<text text-anchor="middle" x="498" y="-682.716" font-family="Times New Roman,serif" font-size="14.00">Outflow Max &#45;</text>
</g>
<!-- 11&#45;&gt;16 -->
<g id="edge42" class="edge"><title>11&#45;&gt;16</title>
<path fill="none" stroke="black" d="M454.549,-1058.11C457.677,-1046.2 460.745,-1033.36 463,-1021.33 479.482,-933.448 489.227,-830.054 494.092,-767.286"/>
<polygon fill="black" stroke="black" points="497.591,-767.427 494.859,-757.191 490.611,-766.897 497.591,-767.427"/>
</g>
<!-- 17 -->
<g id="node18" class="node"><title>17</title>
<ellipse fill="none" stroke="black" cx="886" cy="-841.082" rx="70.0071" ry="48.1667"/>
<text text-anchor="middle" x="886" y="-859.882" font-family="Times New Roman,serif" font-size="14.00">State 17</text>
<text text-anchor="middle" x="886" y="-844.882" font-family="Times New Roman,serif" font-size="14.00">Inflow 0 0</text>
<text text-anchor="middle" x="886" y="-829.882" font-family="Times New Roman,serif" font-size="14.00">Volume Max &#45;</text>
<text text-anchor="middle" x="886" y="-814.882" font-family="Times New Roman,serif" font-size="14.00">Outflow Max &#45;</text>
</g>
<!-- 11&#45;&gt;17 -->
<g id="edge43" class="edge"><title>11&#45;&gt;17</title>
<path fill="none" stroke="black" d="M511.405,-1096.36C605.664,-1084.3 766.225,-1058.87 811,-1021.33 847.581,-990.664 866.637,-939.13 876.365,-899.17"/>
<polygon fill="black" stroke="black" points="879.809,-899.81 878.642,-889.28 872.987,-898.239 879.809,-899.81"/>
</g>
<!-- 12&#45;&gt;0 -->
<g id="edge49" class="edge"><title>12&#45;&gt;0</title>
<path fill="none" stroke="black" d="M762.964,-874.815C837.216,-936.771 984,-1079.16 984,-1236.58 984,-1767.25 984,-1767.25 984,-1767.25 984,-1837.7 984,-1918.79 984,-1971.94"/>
<polygon fill="black" stroke="black" points="980.5,-1972.19 984,-1982.19 987.5,-1972.19 980.5,-1972.19"/>
</g>
<!-- 12&#45;&gt;7 -->
<g id="edge47" class="edge"><title>12&#45;&gt;7</title>
<path fill="none" stroke="black" d="M687.07,-801.643C652.61,-760.618 600.15,-692.357 570,-624.833 511.458,-493.723 484.14,-325.384 473.207,-238.628"/>
<polygon fill="black" stroke="black" points="476.651,-237.957 471.954,-228.461 469.703,-238.814 476.651,-237.957"/>
</g>
<!-- 12&#45;&gt;10 -->
<g id="edge45" class="edge"><title>12&#45;&gt;10</title>
<path fill="none" stroke="black" d="M733.856,-793.704C738.489,-781.911 743.337,-769.137 747,-756.999 770.426,-679.37 781,-658.836 781,-577.749 781,-577.749 781,-577.749 781,-311.416 781,-230.279 729.99,-148.643 693.552,-98.4824"/>
<polygon fill="black" stroke="black" points="696.356,-96.3877 687.613,-90.4032 690.716,-100.534 696.356,-96.3877"/>
</g>
<!-- 12&#45;&gt;12 -->
<g id="edge44" class="edge"><title>12&#45;&gt;12</title>
<path fill="none" stroke="black" d="M771.522,-865.758C786.268,-864.905 797.69,-856.68 797.69,-841.082 797.69,-829.262 791.131,-821.676 781.536,-818.323"/>
<polygon fill="black" stroke="black" points="782.002,-814.849 771.522,-816.406 780.686,-821.724 782.002,-814.849"/>
</g>
<!-- 12&#45;&gt;13 -->
<g id="edge46" class="edge"><title>12&#45;&gt;13</title>
<path fill="none" stroke="black" d="M721.353,-792.952C726.215,-710.638 736.979,-536.138 697,-396.5 694.081,-386.305 689.646,-376.043 684.768,-366.378"/>
<polygon fill="black" stroke="black" points="687.75,-364.529 679.99,-357.316 681.558,-367.794 687.75,-364.529"/>
</g>
<!-- 12&#45;&gt;14 -->
<g id="edge48" class="edge"><title>12&#45;&gt;14</title>
<path fill="none" stroke="black" d="M763.063,-806.899C785.355,-789.313 812.88,-767.599 836.23,-749.179"/>
<polygon fill="black" stroke="black" points="838.616,-751.754 844.299,-742.813 834.281,-746.259 838.616,-751.754"/>
</g>
<!-- 13&#45;&gt;4 -->
<g id="edge53" class="edge"><title>13&#45;&gt;4</title>
<path fill="none" stroke="black" d="M715.597,-323.322C826.753,-346.094 1060,-413.241 1060,-575.749 1060,-974.249 1060,-974.249 1060,-974.249 1060,-1239.28 722.577,-1413.52 579.218,-1475.59"/>
<polygon fill="black" stroke="black" points="577.462,-1472.54 569.65,-1479.69 580.22,-1478.97 577.462,-1472.54"/>
</g>
<!-- 13&#45;&gt;7 -->
<g id="edge51" class="edge"><title>13&#45;&gt;7</title>
<path fill="none" stroke="black" d="M613.219,-280.898C585.521,-262.022 549.804,-237.681 520.605,-217.781"/>
<polygon fill="black" stroke="black" points="522.397,-214.767 512.162,-212.028 518.455,-220.552 522.397,-214.767"/>
</g>
<!-- 13&#45;&gt;10 -->
<g id="edge55" class="edge"><title>13&#45;&gt;10</title>
<path fill="none" stroke="black" d="M652.684,-264.516C650.903,-220.168 650.781,-153.532 652.318,-106.127"/>
<polygon fill="black" stroke="black" points="655.819,-106.138 652.683,-96.0186 648.824,-105.886 655.819,-106.138"/>
</g>
<!-- 13&#45;&gt;12 -->
<g id="edge54" class="edge"><title>13&#45;&gt;12</title>
<path fill="none" stroke="black" d="M693.374,-350.944C702.254,-364.627 710.461,-380.645 715,-396.5 753.519,-531.039 744.934,-697.941 733.479,-783.573"/>
<polygon fill="black" stroke="black" points="729.995,-783.216 732.071,-793.605 736.927,-784.189 729.995,-783.216"/>
</g>
<!-- 13&#45;&gt;13 -->
<g id="edge50" class="edge"><title>13&#45;&gt;13</title>
<path fill="none" stroke="black" d="M708.522,-337.092C723.268,-336.239 734.69,-328.014 734.69,-312.416 734.69,-300.596 728.131,-293.01 718.536,-289.657"/>
<polygon fill="black" stroke="black" points="719.002,-286.183 708.522,-287.74 717.686,-293.058 719.002,-286.183"/>
</g>
<!-- 18 -->
<g id="node19" class="node"><title>18</title>
<ellipse fill="none" stroke="black" cx="620" cy="-444.583" rx="58.8803" ry="48.1667"/>
<text text-anchor="middle" x="620" y="-463.383" font-family="Times New Roman,serif" font-size="14.00">State 18</text>
<text text-anchor="middle" x="620" y="-448.383" font-family="Times New Roman,serif" font-size="14.00">Inflow + +</text>
<text text-anchor="middle" x="620" y="-433.383" font-family="Times New Roman,serif" font-size="14.00">Volume + &#45;</text>
<text text-anchor="middle" x="620" y="-418.383" font-family="Times New Roman,serif" font-size="14.00">Outflow + &#45;</text>
</g>
<!-- 13&#45;&gt;18 -->
<g id="edge52" class="edge"><title>13&#45;&gt;18</title>
<path fill="none" stroke="black" d="M650.819,-360.313C648.304,-369.808 645.419,-379.864 642.427,-389.581"/>
<polygon fill="black" stroke="black" points="639.079,-388.561 639.41,-399.151 645.755,-390.666 639.079,-388.561"/>
</g>
<!-- 14&#45;&gt;0 -->
<g id="edge57" class="edge"><title>14&#45;&gt;0</title>
<path fill="none" stroke="black" d="M934.278,-736.541C955.286,-750.599 978.21,-769.779 992,-792.999 1033.25,-862.449 1022,-891.474 1022,-972.249 1022,-1767.25 1022,-1767.25 1022,-1767.25 1022,-1838.8 1007.98,-1920.2 996.976,-1973.1"/>
<polygon fill="black" stroke="black" points="993.535,-1972.45 994.889,-1982.96 1000.38,-1973.9 993.535,-1972.45"/>
</g>
<!-- 14&#45;&gt;1 -->
<g id="edge59" class="edge"><title>14&#45;&gt;1</title>
<path fill="none" stroke="black" d="M928.357,-742.674C942.842,-756.46 957.32,-773.777 965,-792.999 1038.21,-976.244 946,-1039.25 946,-1236.58 946,-1635.08 946,-1635.08 946,-1635.08 946,-1707.34 927.816,-1788.91 913.603,-1841.63"/>
<polygon fill="black" stroke="black" points="910.178,-1840.89 910.91,-1851.46 916.929,-1842.74 910.178,-1840.89"/>
</g>
<!-- 14&#45;&gt;14 -->
<g id="edge56" class="edge"><title>14&#45;&gt;14</title>
<path fill="none" stroke="black" d="M936.522,-733.592C951.268,-732.739 962.69,-724.514 962.69,-708.916 962.69,-697.096 956.131,-689.509 946.536,-686.157"/>
<polygon fill="black" stroke="black" points="947.002,-682.683 936.522,-684.24 945.686,-689.558 947.002,-682.683"/>
</g>
<!-- 19 -->
<g id="node20" class="node"><title>19</title>
<ellipse fill="none" stroke="black" cx="638" cy="-576.749" rx="58.8803" ry="48.1667"/>
<text text-anchor="middle" x="638" y="-595.549" font-family="Times New Roman,serif" font-size="14.00">State 19</text>
<text text-anchor="middle" x="638" y="-580.549" font-family="Times New Roman,serif" font-size="14.00">Inflow 0 +</text>
<text text-anchor="middle" x="638" y="-565.549" font-family="Times New Roman,serif" font-size="14.00">Volume + &#45;</text>
<text text-anchor="middle" x="638" y="-550.549" font-family="Times New Roman,serif" font-size="14.00">Outflow + &#45;</text>
</g>
<!-- 14&#45;&gt;19 -->
<g id="edge58" class="edge"><title>14&#45;&gt;19</title>
<path fill="none" stroke="black" d="M837.003,-682.199C796.413,-660.895 738.647,-630.575 695.8,-608.087"/>
<polygon fill="black" stroke="black" points="697.376,-604.961 686.895,-603.413 694.123,-611.159 697.376,-604.961"/>
</g>
<!-- 15&#45;&gt;12 -->
<g id="edge60" class="edge"><title>15&#45;&gt;12</title>
<path fill="none" stroke="black" d="M727.998,-924.888C727.299,-916.619 726.565,-907.937 725.847,-899.434"/>
<polygon fill="black" stroke="black" points="729.311,-898.86 724.981,-889.191 722.336,-899.45 729.311,-898.86"/>
</g>
<!-- 16&#45;&gt;13 -->
<g id="edge61" class="edge"><title>16&#45;&gt;13</title>
<path fill="none" stroke="black" d="M493.483,-660.639C491.15,-624.217 490.354,-572.796 499,-528.666 511.168,-466.559 514.018,-447.122 552,-396.5 565.934,-377.929 585.005,-361.265 603.132,-347.823"/>
<polygon fill="black" stroke="black" points="605.311,-350.567 611.373,-341.878 601.215,-344.89 605.311,-350.567"/>
</g>
<!-- 17&#45;&gt;14 -->
<g id="edge62" class="edge"><title>17&#45;&gt;14</title>
<path fill="none" stroke="black" d="M886,-792.721C886,-784.452 886,-775.771 886,-767.268"/>
<polygon fill="black" stroke="black" points="889.5,-767.024 886,-757.024 882.5,-767.024 889.5,-767.024"/>
</g>
<!-- 18&#45;&gt;4 -->
<g id="edge64" class="edge"><title>18&#45;&gt;4</title>
<path fill="none" stroke="black" d="M589.571,-486.239C581.602,-499.14 574.099,-513.905 570,-528.666 558.564,-569.848 565.902,-582.289 570,-624.833 571.563,-641.057 574.583,-644.713 577,-660.833 588.879,-740.06 596,-759.97 596,-840.082 596,-1238.58 596,-1238.58 596,-1238.58 596,-1318.96 600.547,-1342.69 572,-1417.83 567.466,-1429.76 560.93,-1441.68 553.913,-1452.61"/>
<polygon fill="black" stroke="black" points="550.854,-1450.89 548.21,-1461.15 556.675,-1454.78 550.854,-1450.89"/>
</g>
<!-- 18&#45;&gt;7 -->
<g id="edge66" class="edge"><title>18&#45;&gt;7</title>
<path fill="none" stroke="black" d="M603.703,-398.057C587.13,-352.87 561.839,-287.15 547,-264.333 537.779,-250.154 525.933,-236.286 514.199,-224.069"/>
<polygon fill="black" stroke="black" points="516.441,-221.357 506.931,-216.686 511.452,-226.268 516.441,-221.357"/>
</g>
<!-- 18&#45;&gt;13 -->
<g id="edge65" class="edge"><title>18&#45;&gt;13</title>
<path fill="none" stroke="black" d="M627.206,-396.59C629.67,-387.294 632.488,-377.463 635.412,-367.941"/>
<polygon fill="black" stroke="black" points="638.825,-368.756 638.488,-358.167 632.147,-366.655 638.825,-368.756"/>
</g>
<!-- 18&#45;&gt;18 -->
<g id="edge63" class="edge"><title>18&#45;&gt;18</title>
<path fill="none" stroke="black" d="M670.522,-469.259C685.268,-468.406 696.69,-460.18 696.69,-444.583 696.69,-432.763 690.131,-425.176 680.536,-421.824"/>
<polygon fill="black" stroke="black" points="681.002,-418.35 670.522,-419.907 679.686,-425.225 681.002,-418.35"/>
</g>
<!-- 19&#45;&gt;4 -->
<g id="edge68" class="edge"><title>19&#45;&gt;4</title>
<path fill="none" stroke="black" d="M636.843,-625.137C635.662,-677.672 634,-764.926 634,-840.082 634,-1238.58 634,-1238.58 634,-1238.58 634,-1318.96 647.83,-1346.91 610,-1417.83 600.485,-1435.67 585.512,-1451.49 570.29,-1464.42"/>
<polygon fill="black" stroke="black" points="567.871,-1461.88 562.335,-1470.91 572.296,-1467.3 567.871,-1461.88"/>
</g>
<!-- 19&#45;&gt;18 -->
<g id="edge67" class="edge"><title>19&#45;&gt;18</title>
<path fill="none" stroke="black" d="M631.502,-528.756C630.329,-520.277 629.095,-511.353 627.888,-502.625"/>
<polygon fill="black" stroke="black" points="631.326,-501.933 626.489,-492.507 624.392,-502.892 631.326,-501.933"/>
</g>
</g>
</svg>
