<?xml version="1.0" encoding="UTF-8" standalone="no"?>
<!DOCTYPE svg PUBLIC "-//W3C//DTD SVG 1.1//EN"
 "http://www.w3.org/Graphics/SVG/1.1/DTD/svg11.dtd">
<!-- Generated by graphviz version 2.38.0 (20140413.2041)
 -->
<!-- Title: %3 Pages: 1 -->
<svg width="1091pt" height="2087pt"
 viewBox="0.00 0.00 1090.69 2086.66" xmlns="http://www.w3.org/2000/svg" xmlns:xlink="http://www.w3.org/1999/xlink">
<g id="graph0" class="graph" transform="scale(1 1) rotate(0) translate(4 2082.66)">
<title>%3</title>
<polygon fill="white" stroke="none" points="-4,4 -4,-2082.66 1086.69,-2082.66 1086.69,4 -4,4"/>
<!-- 0 -->
<g id="node1" class="node"><title>0</title>
<ellipse fill="none" stroke="black" cx="1006" cy="-2030.58" rx="58.8803" ry="48.1667"/>
<text text-anchor="middle" x="1006" y="-2049.38" font-family="Times New Roman,serif" font-size="14.00">State 0</text>
<text text-anchor="middle" x="1006" y="-2034.38" font-family="Times New Roman,serif" font-size="14.00">Inflow 0 0</text>
<text text-anchor="middle" x="1006" y="-2019.38" font-family="Times New Roman,serif" font-size="14.00">Volume 0 0</text>
<text text-anchor="middle" x="1006" y="-2004.38" font-family="Times New Roman,serif" font-size="14.00">Outflow 0 0</text>
</g>
<!-- 0&#45;&gt;0 -->
<g id="edge1" class="edge"><title>0&#45;&gt;0</title>
<path fill="none" stroke="black" d="M1056.52,-2055.26C1071.27,-2054.4 1082.69,-2046.18 1082.69,-2030.58 1082.69,-2018.76 1076.13,-2011.17 1066.54,-2007.82"/>
<polygon fill="black" stroke="black" points="1067,-2004.35 1056.52,-2005.91 1065.69,-2011.22 1067,-2004.35"/>
</g>
<!-- 1 -->
<g id="node2" class="node"><title>1</title>
<ellipse fill="none" stroke="black" cx="919" cy="-1898.41" rx="58.8803" ry="48.1667"/>
<text text-anchor="middle" x="919" y="-1917.21" font-family="Times New Roman,serif" font-size="14.00">State 1</text>
<text text-anchor="middle" x="919" y="-1902.21" font-family="Times New Roman,serif" font-size="14.00">Inflow 0 +</text>
<text text-anchor="middle" x="919" y="-1887.21" font-family="Times New Roman,serif" font-size="14.00">Volume 0 0</text>
<text text-anchor="middle" x="919" y="-1872.21" font-family="Times New Roman,serif" font-size="14.00">Outflow 0 0</text>
</g>
<!-- 0&#45;&gt;1 -->
<g id="edge2" class="edge"><title>0&#45;&gt;1</title>
<path fill="none" stroke="black" d="M978.233,-1988.04C970.072,-1975.83 961.056,-1962.34 952.572,-1949.64"/>
<polygon fill="black" stroke="black" points="955.268,-1947.38 946.801,-1941.01 949.448,-1951.27 955.268,-1947.38"/>
</g>
<!-- 2 -->
<g id="node3" class="node"><title>2</title>
<ellipse fill="none" stroke="black" cx="595" cy="-1766.25" rx="60.2083" ry="48.1667"/>
<text text-anchor="middle" x="595" y="-1785.05" font-family="Times New Roman,serif" font-size="14.00">State 2</text>
<text text-anchor="middle" x="595" y="-1770.05" font-family="Times New Roman,serif" font-size="14.00">Inflow + +</text>
<text text-anchor="middle" x="595" y="-1755.05" font-family="Times New Roman,serif" font-size="14.00">Volume 0 +</text>
<text text-anchor="middle" x="595" y="-1740.05" font-family="Times New Roman,serif" font-size="14.00">Outflow 0 +</text>
</g>
<!-- 1&#45;&gt;2 -->
<g id="edge3" class="edge"><title>1&#45;&gt;2</title>
<path fill="none" stroke="black" d="M866.584,-1876.36C809.632,-1853.48 718.665,-1816.93 657.902,-1792.52"/>
<polygon fill="black" stroke="black" points="659.003,-1789.19 648.419,-1788.71 656.393,-1795.68 659.003,-1789.19"/>
</g>
<!-- 3 -->
<g id="node4" class="node"><title>3</title>
<ellipse fill="none" stroke="black" cx="347" cy="-1634.08" rx="60.623" ry="48.1667"/>
<text text-anchor="middle" x="347" y="-1652.88" font-family="Times New Roman,serif" font-size="14.00">State 3</text>
<text text-anchor="middle" x="347" y="-1637.88" font-family="Times New Roman,serif" font-size="14.00">Inflow + +</text>
<text text-anchor="middle" x="347" y="-1622.88" font-family="Times New Roman,serif" font-size="14.00">Volume + +</text>
<text text-anchor="middle" x="347" y="-1607.88" font-family="Times New Roman,serif" font-size="14.00">Outflow + +</text>
</g>
<!-- 2&#45;&gt;3 -->
<g id="edge4" class="edge"><title>2&#45;&gt;3</title>
<path fill="none" stroke="black" d="M545.112,-1739.06C505.052,-1718.04 448.691,-1688.46 406.322,-1666.22"/>
<polygon fill="black" stroke="black" points="407.714,-1663 397.233,-1661.45 404.461,-1669.19 407.714,-1663"/>
</g>
<!-- 3&#45;&gt;3 -->
<g id="edge5" class="edge"><title>3&#45;&gt;3</title>
<path fill="none" stroke="black" d="M399.295,-1658.73C414.267,-1657.77 425.811,-1649.55 425.811,-1634.08 425.811,-1622.24 419.044,-1614.65 409.152,-1611.3"/>
<polygon fill="black" stroke="black" points="409.773,-1607.86 399.295,-1609.43 408.465,-1614.73 409.773,-1607.86"/>
</g>
<!-- 4 -->
<g id="node5" class="node"><title>4</title>
<ellipse fill="none" stroke="black" cx="516" cy="-1501.92" rx="60.2083" ry="48.1667"/>
<text text-anchor="middle" x="516" y="-1520.72" font-family="Times New Roman,serif" font-size="14.00">State 4</text>
<text text-anchor="middle" x="516" y="-1505.72" font-family="Times New Roman,serif" font-size="14.00">Inflow + +</text>
<text text-anchor="middle" x="516" y="-1490.72" font-family="Times New Roman,serif" font-size="14.00">Volume + 0</text>
<text text-anchor="middle" x="516" y="-1475.72" font-family="Times New Roman,serif" font-size="14.00">Outflow + 0</text>
</g>
<!-- 3&#45;&gt;4 -->
<g id="edge6" class="edge"><title>3&#45;&gt;4</title>
<path fill="none" stroke="black" d="M387.089,-1597.51C409.584,-1579.52 437.878,-1557.72 462.257,-1539.58"/>
<polygon fill="black" stroke="black" points="464.407,-1542.34 470.361,-1533.58 460.242,-1536.72 464.407,-1542.34"/>
</g>
<!-- 5 -->
<g id="node6" class="node"><title>5</title>
<ellipse fill="none" stroke="black" cx="327" cy="-841.082" rx="71.3357" ry="48.1667"/>
<text text-anchor="middle" x="327" y="-859.882" font-family="Times New Roman,serif" font-size="14.00">State 5</text>
<text text-anchor="middle" x="327" y="-844.882" font-family="Times New Roman,serif" font-size="14.00">Inflow + +</text>
<text text-anchor="middle" x="327" y="-829.882" font-family="Times New Roman,serif" font-size="14.00">Volume Max 0</text>
<text text-anchor="middle" x="327" y="-814.882" font-family="Times New Roman,serif" font-size="14.00">Outflow Max 0</text>
</g>
<!-- 3&#45;&gt;5 -->
<g id="edge7" class="edge"><title>3&#45;&gt;5</title>
<path fill="none" stroke="black" d="M291.042,-1614.59C201.997,-1581.24 38,-1501.99 38,-1370.75 38,-1370.75 38,-1370.75 38,-1236.58 38,-1081.5 185.143,-946.874 269.443,-882.473"/>
<polygon fill="black" stroke="black" points="271.778,-885.095 277.648,-876.275 267.559,-879.51 271.778,-885.095"/>
</g>
<!-- 6 -->
<g id="node7" class="node"><title>6</title>
<ellipse fill="none" stroke="black" cx="279" cy="-1369.75" rx="60.623" ry="48.1667"/>
<text text-anchor="middle" x="279" y="-1388.55" font-family="Times New Roman,serif" font-size="14.00">State 6</text>
<text text-anchor="middle" x="279" y="-1373.55" font-family="Times New Roman,serif" font-size="14.00">Inflow + 0</text>
<text text-anchor="middle" x="279" y="-1358.55" font-family="Times New Roman,serif" font-size="14.00">Volume + +</text>
<text text-anchor="middle" x="279" y="-1343.55" font-family="Times New Roman,serif" font-size="14.00">Outflow + +</text>
</g>
<!-- 3&#45;&gt;6 -->
<g id="edge8" class="edge"><title>3&#45;&gt;6</title>
<path fill="none" stroke="black" d="M329.978,-1587.69C316.64,-1543.33 298.959,-1475.66 288.086,-1427.71"/>
<polygon fill="black" stroke="black" points="291.468,-1426.8 285.874,-1417.8 284.635,-1428.32 291.468,-1426.8"/>
</g>
<!-- 7 -->
<g id="node8" class="node"><title>7</title>
<ellipse fill="none" stroke="black" cx="461" cy="-180.25" rx="60.2083" ry="48.1667"/>
<text text-anchor="middle" x="461" y="-199.05" font-family="Times New Roman,serif" font-size="14.00">State 7</text>
<text text-anchor="middle" x="461" y="-184.05" font-family="Times New Roman,serif" font-size="14.00">Inflow + 0</text>
<text text-anchor="middle" x="461" y="-169.05" font-family="Times New Roman,serif" font-size="14.00">Volume + 0</text>
<text text-anchor="middle" x="461" y="-154.05" font-family="Times New Roman,serif" font-size="14.00">Outflow + 0</text>
</g>
<!-- 3&#45;&gt;7 -->
<g id="edge9" class="edge"><title>3&#45;&gt;7</title>
<path fill="none" stroke="black" d="M286.196,-1631.28C222.131,-1626.15 122.21,-1608.5 61,-1550 0.162387,-1491.86 0,-1454.9 0,-1370.75 0,-1370.75 0,-1370.75 0,-1236.58 0,-855.467 19.6191,-745.826 172,-396.5 199.092,-334.392 196.632,-308.523 248,-264.333 249.534,-263.013 335.599,-229.641 397.844,-205.6"/>
<polygon fill="black" stroke="black" points="399.159,-208.844 407.227,-201.977 396.638,-202.314 399.159,-208.844"/>
</g>
<!-- 8 -->
<g id="node9" class="node"><title>8</title>
<ellipse fill="none" stroke="black" cx="365" cy="-973.249" rx="71.3357" ry="48.1667"/>
<text text-anchor="middle" x="365" y="-992.049" font-family="Times New Roman,serif" font-size="14.00">State 8</text>
<text text-anchor="middle" x="365" y="-977.049" font-family="Times New Roman,serif" font-size="14.00">Inflow + 0</text>
<text text-anchor="middle" x="365" y="-962.049" font-family="Times New Roman,serif" font-size="14.00">Volume Max 0</text>
<text text-anchor="middle" x="365" y="-947.049" font-family="Times New Roman,serif" font-size="14.00">Outflow Max 0</text>
</g>
<!-- 3&#45;&gt;8 -->
<g id="edge10" class="edge"><title>3&#45;&gt;8</title>
<path fill="none" stroke="black" d="M352.625,-1586.14C357.543,-1542.59 364.306,-1475.94 367,-1417.83 372.442,-1300.45 363.095,-1270.99 361,-1153.5 360.238,-1110.76 359.972,-1100.06 361,-1057.33 361.198,-1049.12 361.505,-1040.46 361.863,-1031.95"/>
<polygon fill="black" stroke="black" points="365.372,-1031.83 362.322,-1021.69 358.379,-1031.52 365.372,-1031.83"/>
</g>
<!-- 4&#45;&gt;3 -->
<g id="edge11" class="edge"><title>4&#45;&gt;3</title>
<path fill="none" stroke="black" d="M476.34,-1538.14C453.864,-1556.13 425.497,-1577.99 401.026,-1596.21"/>
<polygon fill="black" stroke="black" points="398.843,-1593.47 392.891,-1602.23 403.01,-1599.09 398.843,-1593.47"/>
</g>
<!-- 4&#45;&gt;6 -->
<g id="edge12" class="edge"><title>4&#45;&gt;6</title>
<path fill="none" stroke="black" d="M465.138,-1475.97C426.881,-1455.79 374.577,-1427.17 335.112,-1404.87"/>
<polygon fill="black" stroke="black" points="336.816,-1401.82 326.39,-1399.93 333.363,-1407.9 336.816,-1401.82"/>
</g>
<!-- 5&#45;&gt;5 -->
<g id="edge13" class="edge"><title>5&#45;&gt;5</title>
<path fill="none" stroke="black" d="M388.85,-865.536C404.597,-863.929 416.418,-855.778 416.418,-841.082 416.418,-829.716 409.346,-822.265 398.857,-818.729"/>
<polygon fill="black" stroke="black" points="399.356,-815.257 388.85,-816.628 397.918,-822.108 399.356,-815.257"/>
</g>
<!-- 5&#45;&gt;8 -->
<g id="edge14" class="edge"><title>5&#45;&gt;8</title>
<path fill="none" stroke="black" d="M346.791,-887.7C349.659,-896.631 352.5,-906.101 355.091,-915.347"/>
<polygon fill="black" stroke="black" points="351.785,-916.529 357.794,-925.256 358.539,-914.687 351.785,-916.529"/>
</g>
<!-- 6&#45;&gt;3 -->
<g id="edge18" class="edge"><title>6&#45;&gt;3</title>
<path fill="none" stroke="black" d="M295.956,-1415.93C309.315,-1460.32 327.056,-1528.21 337.944,-1576.25"/>
<polygon fill="black" stroke="black" points="334.566,-1577.18 340.159,-1586.18 341.398,-1575.66 334.566,-1577.18"/>
</g>
<!-- 6&#45;&gt;4 -->
<g id="edge19" class="edge"><title>6&#45;&gt;4</title>
<path fill="none" stroke="black" d="M330.401,-1395.98C368.533,-1416.1 420.402,-1444.48 459.654,-1466.66"/>
<polygon fill="black" stroke="black" points="458.412,-1469.98 468.838,-1471.87 461.865,-1463.89 458.412,-1469.98"/>
</g>
<!-- 6&#45;&gt;5 -->
<g id="edge20" class="edge"><title>6&#45;&gt;5</title>
<path fill="none" stroke="black" d="M228.021,-1343.29C206.232,-1329.48 183.07,-1310.18 171,-1285.67 152.12,-1247.32 162.359,-1231.36 171,-1189.5 174.233,-1173.84 278.223,-939.651 285,-925.166 289.464,-915.625 294.377,-905.557 299.221,-895.849"/>
<polygon fill="black" stroke="black" points="302.466,-897.188 303.828,-886.681 296.211,-894.045 302.466,-897.188"/>
</g>
<!-- 6&#45;&gt;6 -->
<g id="edge15" class="edge"><title>6&#45;&gt;6</title>
<path fill="none" stroke="black" d="M331.295,-1394.4C346.267,-1393.44 357.811,-1385.22 357.811,-1369.75 357.811,-1357.91 351.044,-1350.31 341.152,-1346.97"/>
<polygon fill="black" stroke="black" points="341.773,-1343.53 331.295,-1345.1 340.465,-1350.4 341.773,-1343.53"/>
</g>
<!-- 6&#45;&gt;7 -->
<g id="edge16" class="edge"><title>6&#45;&gt;7</title>
<path fill="none" stroke="black" d="M226.77,-1344.57C202.135,-1330.64 174.396,-1310.87 157,-1285.67 110.458,-1218.24 114,-1188.34 114,-1106.42 114,-1106.42 114,-1106.42 114,-972.249 114,-644.32 116.64,-519.998 322,-264.333 341.923,-239.53 371.391,-220.421 398.074,-206.818"/>
<polygon fill="black" stroke="black" points="399.952,-209.795 407.376,-202.236 396.859,-203.515 399.952,-209.795"/>
</g>
<!-- 6&#45;&gt;8 -->
<g id="edge17" class="edge"><title>6&#45;&gt;8</title>
<path fill="none" stroke="black" d="M309.429,-1328.09C317.398,-1315.19 324.901,-1300.43 329,-1285.67 356.154,-1187.88 306.896,-1156.6 328,-1057.33 330.069,-1047.6 333.36,-1037.63 337.147,-1028.12"/>
<polygon fill="black" stroke="black" points="340.418,-1029.37 341.072,-1018.8 333.966,-1026.66 340.418,-1029.37"/>
</g>
<!-- 9 -->
<g id="node10" class="node"><title>9</title>
<ellipse fill="none" stroke="black" cx="241" cy="-1237.58" rx="60.623" ry="48.1667"/>
<text text-anchor="middle" x="241" y="-1256.38" font-family="Times New Roman,serif" font-size="14.00">State 9</text>
<text text-anchor="middle" x="241" y="-1241.38" font-family="Times New Roman,serif" font-size="14.00">Inflow + &#45;+</text>
<text text-anchor="middle" x="241" y="-1226.38" font-family="Times New Roman,serif" font-size="14.00">Volume + +</text>
<text text-anchor="middle" x="241" y="-1211.38" font-family="Times New Roman,serif" font-size="14.00">Outflow + +</text>
</g>
<!-- 6&#45;&gt;9 -->
<g id="edge21" class="edge"><title>6&#45;&gt;9</title>
<path fill="none" stroke="black" d="M259.473,-1323.95C256.516,-1314.78 253.581,-1305.02 250.91,-1295.49"/>
<polygon fill="black" stroke="black" points="254.243,-1294.4 248.234,-1285.68 247.49,-1296.25 254.243,-1294.4"/>
</g>
<!-- 10 -->
<g id="node11" class="node"><title>10</title>
<ellipse fill="none" stroke="black" cx="664" cy="-48.0833" rx="60.2083" ry="48.1667"/>
<text text-anchor="middle" x="664" y="-66.8833" font-family="Times New Roman,serif" font-size="14.00">State 10</text>
<text text-anchor="middle" x="664" y="-51.8833" font-family="Times New Roman,serif" font-size="14.00">Inflow + &#45;+</text>
<text text-anchor="middle" x="664" y="-36.8833" font-family="Times New Roman,serif" font-size="14.00">Volume + 0</text>
<text text-anchor="middle" x="664" y="-21.8833" font-family="Times New Roman,serif" font-size="14.00">Outflow + 0</text>
</g>
<!-- 6&#45;&gt;10 -->
<g id="edge22" class="edge"><title>6&#45;&gt;10</title>
<path fill="none" stroke="black" d="M221.374,-1354.01C184.885,-1341.7 139.704,-1320.42 113,-1285.67 63.4375,-1221.16 76,-1187.76 76,-1106.42 76,-1106.42 76,-1106.42 76,-311.416 76,-87.1367 437.187,-53.2736 593.401,-49.116"/>
<polygon fill="black" stroke="black" points="593.921,-52.605 603.837,-48.8746 593.759,-45.6069 593.921,-52.605"/>
</g>
<!-- 11 -->
<g id="node12" class="node"><title>11</title>
<ellipse fill="none" stroke="black" cx="441" cy="-1105.42" rx="71.3357" ry="48.1667"/>
<text text-anchor="middle" x="441" y="-1124.22" font-family="Times New Roman,serif" font-size="14.00">State 11</text>
<text text-anchor="middle" x="441" y="-1109.22" font-family="Times New Roman,serif" font-size="14.00">Inflow + &#45;+</text>
<text text-anchor="middle" x="441" y="-1094.22" font-family="Times New Roman,serif" font-size="14.00">Volume Max 0</text>
<text text-anchor="middle" x="441" y="-1079.22" font-family="Times New Roman,serif" font-size="14.00">Outflow Max 0</text>
</g>
<!-- 6&#45;&gt;11 -->
<g id="edge23" class="edge"><title>6&#45;&gt;11</title>
<path fill="none" stroke="black" d="M319.797,-1333.76C334.39,-1319.83 350.142,-1303 362,-1285.67 388.177,-1247.4 408.876,-1199.06 422.509,-1162.23"/>
<polygon fill="black" stroke="black" points="425.866,-1163.24 425.993,-1152.64 419.287,-1160.85 425.866,-1163.24"/>
</g>
<!-- 7&#45;&gt;4 -->
<g id="edge25" class="edge"><title>7&#45;&gt;4</title>
<path fill="none" stroke="black" d="M440.665,-225.698C419.065,-277.053 388,-364.635 388,-443.583 388,-577.749 388,-577.749 388,-577.749 388,-657.862 384.504,-680.109 407,-756.999 412.023,-774.168 417.455,-776.78 425,-792.999 478.963,-909.003 513.132,-932.033 539,-1057.33 547.641,-1099.19 540.412,-1110.78 539,-1153.5 535.618,-1255.79 526.649,-1374.73 520.963,-1443.57"/>
<polygon fill="black" stroke="black" points="517.456,-1443.51 520.114,-1453.76 524.432,-1444.09 517.456,-1443.51"/>
</g>
<!-- 7&#45;&gt;7 -->
<g id="edge24" class="edge"><title>7&#45;&gt;7</title>
<path fill="none" stroke="black" d="M512.825,-204.903C527.663,-203.936 539.104,-195.719 539.104,-180.25 539.104,-168.527 532.534,-160.969 522.894,-157.575"/>
<polygon fill="black" stroke="black" points="523.313,-154.09 512.825,-155.596 521.963,-160.959 523.313,-154.09"/>
</g>
<!-- 7&#45;&gt;10 -->
<g id="edge26" class="edge"><title>7&#45;&gt;10</title>
<path fill="none" stroke="black" d="M507.318,-149.55C537.481,-130.209 576.986,-104.878 608.781,-84.4905"/>
<polygon fill="black" stroke="black" points="611.001,-87.2246 617.53,-78.8804 607.223,-81.3319 611.001,-87.2246"/>
</g>
<!-- 8&#45;&gt;5 -->
<g id="edge28" class="edge"><title>8&#45;&gt;5</title>
<path fill="none" stroke="black" d="M345.238,-926.723C342.367,-917.786 339.522,-908.306 336.927,-899.049"/>
<polygon fill="black" stroke="black" points="340.229,-897.853 334.22,-889.127 333.476,-899.696 340.229,-897.853"/>
</g>
<!-- 8&#45;&gt;8 -->
<g id="edge27" class="edge"><title>8&#45;&gt;8</title>
<path fill="none" stroke="black" d="M426.85,-997.703C442.597,-996.096 454.418,-987.944 454.418,-973.249 454.418,-961.883 447.346,-954.432 436.857,-950.895"/>
<polygon fill="black" stroke="black" points="437.356,-947.424 426.85,-948.795 435.918,-954.275 437.356,-947.424"/>
</g>
<!-- 8&#45;&gt;11 -->
<g id="edge29" class="edge"><title>8&#45;&gt;11</title>
<path fill="none" stroke="black" d="M396.289,-1016.91C402.846,-1027.52 409.664,-1039.03 415.964,-1050.12"/>
<polygon fill="black" stroke="black" points="412.942,-1051.88 420.89,-1058.89 419.045,-1048.46 412.942,-1051.88"/>
</g>
<!-- 9&#45;&gt;6 -->
<g id="edge33" class="edge"><title>9&#45;&gt;6</title>
<path fill="none" stroke="black" d="M260.512,-1283.33C263.481,-1292.54 266.429,-1302.34 269.108,-1311.91"/>
<polygon fill="black" stroke="black" points="265.786,-1313.03 271.794,-1321.76 272.539,-1311.19 265.786,-1313.03"/>
</g>
<!-- 9&#45;&gt;7 -->
<g id="edge34" class="edge"><title>9&#45;&gt;7</title>
<path fill="none" stroke="black" d="M238.219,-1189.4C234.187,-1108.09 229.023,-936.479 247,-792.999 277.042,-553.226 253.492,-473.788 374,-264.333 383.227,-248.295 396.488,-233.407 409.884,-220.794"/>
<polygon fill="black" stroke="black" points="412.278,-223.348 417.316,-214.028 407.565,-218.172 412.278,-223.348"/>
</g>
<!-- 9&#45;&gt;8 -->
<g id="edge35" class="edge"><title>9&#45;&gt;8</title>
<path fill="none" stroke="black" d="M247.638,-1189.78C254.375,-1152.23 267.162,-1099.08 290,-1057.33 297.123,-1044.31 306.671,-1031.67 316.563,-1020.33"/>
<polygon fill="black" stroke="black" points="319.344,-1022.47 323.442,-1012.7 314.145,-1017.78 319.344,-1022.47"/>
</g>
<!-- 9&#45;&gt;9 -->
<g id="edge30" class="edge"><title>9&#45;&gt;9</title>
<path fill="none" stroke="black" d="M293.295,-1262.24C308.267,-1261.27 319.811,-1253.05 319.811,-1237.58 319.811,-1225.74 313.044,-1218.15 303.152,-1214.8"/>
<polygon fill="black" stroke="black" points="303.773,-1211.36 293.295,-1212.93 302.465,-1218.24 303.773,-1211.36"/>
</g>
<!-- 9&#45;&gt;10 -->
<g id="edge31" class="edge"><title>9&#45;&gt;10</title>
<path fill="none" stroke="black" d="M226.488,-1190.53C188.332,-1062.26 93.3809,-690.934 172,-396.5 211.431,-248.826 259.319,-208.049 392,-132.167 456.087,-95.5139 538.102,-73.3338 595.239,-61.2239"/>
<polygon fill="black" stroke="black" points="596.17,-64.6055 605.252,-59.1505 594.75,-57.7508 596.17,-64.6055"/>
</g>
<!-- 9&#45;&gt;11 -->
<g id="edge32" class="edge"><title>9&#45;&gt;11</title>
<path fill="none" stroke="black" d="M287.387,-1206.39C315.429,-1188.14 351.457,-1164.69 381.573,-1145.09"/>
<polygon fill="black" stroke="black" points="383.833,-1147.8 390.305,-1139.41 380.015,-1141.93 383.833,-1147.8"/>
</g>
<!-- 12 -->
<g id="node13" class="node"><title>12</title>
<ellipse fill="none" stroke="black" cx="726" cy="-841.082" rx="64.1938" ry="48.1667"/>
<text text-anchor="middle" x="726" y="-859.882" font-family="Times New Roman,serif" font-size="14.00">State 12</text>
<text text-anchor="middle" x="726" y="-844.882" font-family="Times New Roman,serif" font-size="14.00">Inflow + &#45;+</text>
<text text-anchor="middle" x="726" y="-829.882" font-family="Times New Roman,serif" font-size="14.00">Volume + &#45;+</text>
<text text-anchor="middle" x="726" y="-814.882" font-family="Times New Roman,serif" font-size="14.00">Outflow + &#45;+</text>
</g>
<!-- 10&#45;&gt;12 -->
<g id="edge36" class="edge"><title>10&#45;&gt;12</title>
<path fill="none" stroke="black" d="M703.338,-85.0688C746.709,-132.952 810,-222.014 810,-311.416 810,-577.749 810,-577.749 810,-577.749 810,-659.095 798.3,-679.687 773,-756.999 769.563,-767.502 765.182,-778.442 760.444,-788.803"/>
<polygon fill="black" stroke="black" points="757.144,-787.592 756.01,-798.126 763.466,-790.599 757.144,-787.592"/>
</g>
<!-- 13 -->
<g id="node14" class="node"><title>13</title>
<ellipse fill="none" stroke="black" cx="664" cy="-312.416" rx="64.1938" ry="48.1667"/>
<text text-anchor="middle" x="664" y="-331.216" font-family="Times New Roman,serif" font-size="14.00">State 13</text>
<text text-anchor="middle" x="664" y="-316.216" font-family="Times New Roman,serif" font-size="14.00">Inflow + 0</text>
<text text-anchor="middle" x="664" y="-301.216" font-family="Times New Roman,serif" font-size="14.00">Volume + &#45;+</text>
<text text-anchor="middle" x="664" y="-286.216" font-family="Times New Roman,serif" font-size="14.00">Outflow + &#45;+</text>
</g>
<!-- 10&#45;&gt;13 -->
<g id="edge37" class="edge"><title>10&#45;&gt;13</title>
<path fill="none" stroke="black" d="M669.331,-96.3489C671.095,-140.622 671.214,-206.873 669.69,-254.133"/>
<polygon fill="black" stroke="black" points="666.189,-254.094 669.328,-264.213 673.185,-254.346 666.189,-254.094"/>
</g>
<!-- 14 -->
<g id="node15" class="node"><title>14</title>
<ellipse fill="none" stroke="black" cx="902" cy="-708.916" rx="64.1938" ry="48.1667"/>
<text text-anchor="middle" x="902" y="-727.716" font-family="Times New Roman,serif" font-size="14.00">State 14</text>
<text text-anchor="middle" x="902" y="-712.716" font-family="Times New Roman,serif" font-size="14.00">Inflow 0 0</text>
<text text-anchor="middle" x="902" y="-697.716" font-family="Times New Roman,serif" font-size="14.00">Volume + &#45;+</text>
<text text-anchor="middle" x="902" y="-682.716" font-family="Times New Roman,serif" font-size="14.00">Outflow + &#45;+</text>
</g>
<!-- 10&#45;&gt;14 -->
<g id="edge38" class="edge"><title>10&#45;&gt;14</title>
<path fill="none" stroke="black" d="M720.31,-65.5676C754.886,-78.433 797.48,-99.6737 824,-132.167 876.373,-196.335 875,-228.588 875,-311.416 875,-445.583 875,-445.583 875,-445.583 875,-516.62 884.918,-597.912 892.732,-650.935"/>
<polygon fill="black" stroke="black" points="889.319,-651.78 894.263,-661.151 896.242,-650.742 889.319,-651.78"/>
</g>
<!-- 11&#45;&gt;8 -->
<g id="edge41" class="edge"><title>11&#45;&gt;8</title>
<path fill="none" stroke="black" d="M409.736,-1061.79C403.153,-1051.15 396.307,-1039.58 389.986,-1028.46"/>
<polygon fill="black" stroke="black" points="392.991,-1026.66 385.043,-1019.65 386.887,-1030.09 392.991,-1026.66"/>
</g>
<!-- 11&#45;&gt;11 -->
<g id="edge39" class="edge"><title>11&#45;&gt;11</title>
<path fill="none" stroke="black" d="M502.85,-1129.87C518.597,-1128.26 530.418,-1120.11 530.418,-1105.42 530.418,-1094.05 523.346,-1086.6 512.857,-1083.06"/>
<polygon fill="black" stroke="black" points="513.356,-1079.59 502.85,-1080.96 511.918,-1086.44 513.356,-1079.59"/>
</g>
<!-- 15 -->
<g id="node16" class="node"><title>15</title>
<ellipse fill="none" stroke="black" cx="738" cy="-973.249" rx="75.8212" ry="48.1667"/>
<text text-anchor="middle" x="738" y="-992.049" font-family="Times New Roman,serif" font-size="14.00">State 15</text>
<text text-anchor="middle" x="738" y="-977.049" font-family="Times New Roman,serif" font-size="14.00">Inflow + &#45;+</text>
<text text-anchor="middle" x="738" y="-962.049" font-family="Times New Roman,serif" font-size="14.00">Volume Max &#45;+</text>
<text text-anchor="middle" x="738" y="-947.049" font-family="Times New Roman,serif" font-size="14.00">Outflow Max &#45;+</text>
</g>
<!-- 11&#45;&gt;15 -->
<g id="edge40" class="edge"><title>11&#45;&gt;15</title>
<path fill="none" stroke="black" d="M500.389,-1078.39C548.436,-1057.33 616.235,-1027.62 667.12,-1005.31"/>
<polygon fill="black" stroke="black" points="668.662,-1008.46 676.416,-1001.24 665.852,-1002.05 668.662,-1008.46"/>
</g>
<!-- 16 -->
<g id="node17" class="node"><title>16</title>
<ellipse fill="none" stroke="black" cx="492" cy="-708.916" rx="75.8212" ry="48.1667"/>
<text text-anchor="middle" x="492" y="-727.716" font-family="Times New Roman,serif" font-size="14.00">State 16</text>
<text text-anchor="middle" x="492" y="-712.716" font-family="Times New Roman,serif" font-size="14.00">Inflow + 0</text>
<text text-anchor="middle" x="492" y="-697.716" font-family="Times New Roman,serif" font-size="14.00">Volume Max &#45;+</text>
<text text-anchor="middle" x="492" y="-682.716" font-family="Times New Roman,serif" font-size="14.00">Outflow Max &#45;+</text>
</g>
<!-- 11&#45;&gt;16 -->
<g id="edge42" class="edge"><title>11&#45;&gt;16</title>
<path fill="none" stroke="black" d="M454.708,-1058.14C457.833,-1046.23 460.859,-1033.38 463,-1021.33 478.613,-933.467 486.131,-830.068 489.514,-767.294"/>
<polygon fill="black" stroke="black" points="493.015,-767.366 490.041,-757.197 486.024,-767.001 493.015,-767.366"/>
</g>
<!-- 17 -->
<g id="node18" class="node"><title>17</title>
<ellipse fill="none" stroke="black" cx="902" cy="-841.082" rx="75.8212" ry="48.1667"/>
<text text-anchor="middle" x="902" y="-859.882" font-family="Times New Roman,serif" font-size="14.00">State 17</text>
<text text-anchor="middle" x="902" y="-844.882" font-family="Times New Roman,serif" font-size="14.00">Inflow 0 0</text>
<text text-anchor="middle" x="902" y="-829.882" font-family="Times New Roman,serif" font-size="14.00">Volume Max &#45;+</text>
<text text-anchor="middle" x="902" y="-814.882" font-family="Times New Roman,serif" font-size="14.00">Outflow Max &#45;+</text>
</g>
<!-- 11&#45;&gt;17 -->
<g id="edge43" class="edge"><title>11&#45;&gt;17</title>
<path fill="none" stroke="black" d="M511.526,-1096.77C608.407,-1085 776.022,-1059.71 823,-1021.33 860.392,-990.789 880.607,-938.995 891.197,-898.914"/>
<polygon fill="black" stroke="black" points="894.647,-899.547 893.687,-888.996 887.858,-897.843 894.647,-899.547"/>
</g>
<!-- 12&#45;&gt;0 -->
<g id="edge49" class="edge"><title>12&#45;&gt;0</title>
<path fill="none" stroke="black" d="M771.923,-875.164C851.358,-936.625 1006,-1076.8 1006,-1236.58 1006,-1767.25 1006,-1767.25 1006,-1767.25 1006,-1837.7 1006,-1918.79 1006,-1971.94"/>
<polygon fill="black" stroke="black" points="1002.5,-1972.19 1006,-1982.19 1009.5,-1972.19 1002.5,-1972.19"/>
</g>
<!-- 12&#45;&gt;7 -->
<g id="edge47" class="edge"><title>12&#45;&gt;7</title>
<path fill="none" stroke="black" d="M690.346,-800.568C655.093,-759.483 602.052,-691.904 571,-624.833 510.38,-493.892 480.376,-325.137 468.081,-238.371"/>
<polygon fill="black" stroke="black" points="471.512,-237.627 466.669,-228.204 464.578,-238.59 471.512,-237.627"/>
</g>
<!-- 12&#45;&gt;10 -->
<g id="edge45" class="edge"><title>12&#45;&gt;10</title>
<path fill="none" stroke="black" d="M740.678,-793.807C745.733,-782.011 751.004,-769.21 755,-756.999 780.3,-679.687 792,-659.095 792,-577.749 792,-577.749 792,-577.749 792,-311.416 792,-229.406 738.742,-147.681 700.82,-97.7665"/>
<polygon fill="black" stroke="black" points="703.511,-95.525 694.641,-89.7315 697.962,-99.7922 703.511,-95.525"/>
</g>
<!-- 12&#45;&gt;12 -->
<g id="edge44" class="edge"><title>12&#45;&gt;12</title>
<path fill="none" stroke="black" d="M781.42,-865.681C796.683,-864.493 808.347,-856.293 808.347,-841.082 808.347,-829.437 801.51,-821.901 791.455,-818.474"/>
<polygon fill="black" stroke="black" points="791.91,-814.997 781.42,-816.483 790.547,-821.863 791.91,-814.997"/>
</g>
<!-- 12&#45;&gt;13 -->
<g id="edge46" class="edge"><title>12&#45;&gt;13</title>
<path fill="none" stroke="black" d="M727.823,-792.811C735.072,-710.282 750.083,-535.463 708,-396.5 704.811,-385.969 699.879,-375.485 694.424,-365.69"/>
<polygon fill="black" stroke="black" points="697.363,-363.782 689.303,-356.907 691.316,-367.309 697.363,-363.782"/>
</g>
<!-- 12&#45;&gt;14 -->
<g id="edge48" class="edge"><title>12&#45;&gt;14</title>
<path fill="none" stroke="black" d="M771.324,-806.561C794.933,-789.101 823.949,-767.641 848.637,-749.382"/>
<polygon fill="black" stroke="black" points="850.87,-752.084 856.829,-743.323 846.708,-746.456 850.87,-752.084"/>
</g>
<!-- 13&#45;&gt;4 -->
<g id="edge53" class="edge"><title>13&#45;&gt;4</title>
<path fill="none" stroke="black" d="M727.031,-323.131C843.804,-345.091 1082,-410.178 1082,-575.749 1082,-974.249 1082,-974.249 1082,-974.249 1082,-1246.12 727.666,-1417.48 579.712,-1477.18"/>
<polygon fill="black" stroke="black" points="578.259,-1473.99 570.27,-1480.95 580.855,-1480.49 578.259,-1473.99"/>
</g>
<!-- 13&#45;&gt;7 -->
<g id="edge51" class="edge"><title>13&#45;&gt;7</title>
<path fill="none" stroke="black" d="M615.634,-280.404C585.727,-261.227 547.249,-236.554 516.158,-216.618"/>
<polygon fill="black" stroke="black" points="517.905,-213.58 507.598,-211.129 514.127,-219.473 517.905,-213.58"/>
</g>
<!-- 13&#45;&gt;10 -->
<g id="edge55" class="edge"><title>13&#45;&gt;10</title>
<path fill="none" stroke="black" d="M658.672,-264.213C656.906,-219.961 656.785,-153.711 658.308,-106.433"/>
<polygon fill="black" stroke="black" points="661.809,-106.468 658.669,-96.3489 654.813,-106.217 661.809,-106.468"/>
</g>
<!-- 13&#45;&gt;12 -->
<g id="edge54" class="edge"><title>13&#45;&gt;12</title>
<path fill="none" stroke="black" d="M702.587,-350.957C712.234,-364.516 721.14,-380.452 726,-396.5 766.6,-530.566 754.059,-698.006 740.163,-783.748"/>
<polygon fill="black" stroke="black" points="736.681,-783.348 738.465,-793.792 743.583,-784.515 736.681,-783.348"/>
</g>
<!-- 13&#45;&gt;13 -->
<g id="edge50" class="edge"><title>13&#45;&gt;13</title>
<path fill="none" stroke="black" d="M719.42,-337.015C734.683,-335.827 746.347,-327.627 746.347,-312.416 746.347,-300.77 739.51,-293.234 729.455,-289.808"/>
<polygon fill="black" stroke="black" points="729.91,-286.33 719.42,-287.817 728.547,-293.197 729.91,-286.33"/>
</g>
<!-- 18 -->
<g id="node19" class="node"><title>18</title>
<ellipse fill="none" stroke="black" cx="626" cy="-444.583" rx="64.1938" ry="48.1667"/>
<text text-anchor="middle" x="626" y="-463.383" font-family="Times New Roman,serif" font-size="14.00">State 18</text>
<text text-anchor="middle" x="626" y="-448.383" font-family="Times New Roman,serif" font-size="14.00">Inflow + +</text>
<text text-anchor="middle" x="626" y="-433.383" font-family="Times New Roman,serif" font-size="14.00">Volume + &#45;+</text>
<text text-anchor="middle" x="626" y="-418.383" font-family="Times New Roman,serif" font-size="14.00">Outflow + &#45;+</text>
</g>
<!-- 13&#45;&gt;18 -->
<g id="edge52" class="edge"><title>13&#45;&gt;18</title>
<path fill="none" stroke="black" d="M656.832,-360.266C654.389,-369.49 651.597,-379.245 648.696,-388.705"/>
<polygon fill="black" stroke="black" points="645.302,-387.833 645.645,-398.422 651.98,-389.93 645.302,-387.833"/>
</g>
<!-- 14&#45;&gt;0 -->
<g id="edge57" class="edge"><title>14&#45;&gt;0</title>
<path fill="none" stroke="black" d="M954.662,-736.566C976.743,-750.415 1000.59,-769.417 1015,-792.999 1057.09,-861.859 1044,-891.546 1044,-972.249 1044,-1767.25 1044,-1767.25 1044,-1767.25 1044,-1838.8 1029.98,-1920.2 1018.98,-1973.1"/>
<polygon fill="black" stroke="black" points="1015.53,-1972.45 1016.89,-1982.96 1022.38,-1973.9 1015.53,-1972.45"/>
</g>
<!-- 14&#45;&gt;1 -->
<g id="edge59" class="edge"><title>14&#45;&gt;1</title>
<path fill="none" stroke="black" d="M948.406,-742.88C963.682,-756.469 978.834,-773.599 987,-792.999 1063.55,-974.874 968,-1039.25 968,-1236.58 968,-1635.08 968,-1635.08 968,-1635.08 968,-1707.34 949.816,-1788.91 935.603,-1841.63"/>
<polygon fill="black" stroke="black" points="932.178,-1840.89 932.91,-1851.46 938.929,-1842.74 932.178,-1840.89"/>
</g>
<!-- 14&#45;&gt;14 -->
<g id="edge56" class="edge"><title>14&#45;&gt;14</title>
<path fill="none" stroke="black" d="M957.42,-733.515C972.683,-732.326 984.347,-724.127 984.347,-708.916 984.347,-697.27 977.51,-689.734 967.455,-686.308"/>
<polygon fill="black" stroke="black" points="967.91,-682.83 957.42,-684.317 966.547,-689.696 967.91,-682.83"/>
</g>
<!-- 19 -->
<g id="node20" class="node"><title>19</title>
<ellipse fill="none" stroke="black" cx="644" cy="-576.749" rx="64.1938" ry="48.1667"/>
<text text-anchor="middle" x="644" y="-595.549" font-family="Times New Roman,serif" font-size="14.00">State 19</text>
<text text-anchor="middle" x="644" y="-580.549" font-family="Times New Roman,serif" font-size="14.00">Inflow 0 +</text>
<text text-anchor="middle" x="644" y="-565.549" font-family="Times New Roman,serif" font-size="14.00">Volume + &#45;+</text>
<text text-anchor="middle" x="644" y="-550.549" font-family="Times New Roman,serif" font-size="14.00">Outflow + &#45;+</text>
</g>
<!-- 14&#45;&gt;19 -->
<g id="edge58" class="edge"><title>14&#45;&gt;19</title>
<path fill="none" stroke="black" d="M849.167,-681.261C807.602,-660.29 749.599,-631.026 705.866,-608.962"/>
<polygon fill="black" stroke="black" points="707.267,-605.749 696.762,-604.369 704.114,-611.998 707.267,-605.749"/>
</g>
<!-- 15&#45;&gt;12 -->
<g id="edge60" class="edge"><title>15&#45;&gt;12</title>
<path fill="none" stroke="black" d="M733.634,-924.888C732.863,-916.528 732.054,-907.746 731.261,-899.154"/>
<polygon fill="black" stroke="black" points="734.746,-898.827 730.343,-889.191 727.776,-899.47 734.746,-898.827"/>
</g>
<!-- 16&#45;&gt;13 -->
<g id="edge61" class="edge"><title>16&#45;&gt;13</title>
<path fill="none" stroke="black" d="M488.912,-660.743C487.098,-594.792 493.193,-474.39 553,-396.5 567.175,-378.039 586.477,-361.671 605.011,-348.449"/>
<polygon fill="black" stroke="black" points="607.226,-351.172 613.451,-342.598 603.239,-345.418 607.226,-351.172"/>
</g>
<!-- 17&#45;&gt;14 -->
<g id="edge62" class="edge"><title>17&#45;&gt;14</title>
<path fill="none" stroke="black" d="M902,-792.721C902,-784.452 902,-775.771 902,-767.268"/>
<polygon fill="black" stroke="black" points="905.5,-767.024 902,-757.024 898.5,-767.024 905.5,-767.024"/>
</g>
<!-- 18&#45;&gt;4 -->
<g id="edge64" class="edge"><title>18&#45;&gt;4</title>
<path fill="none" stroke="black" d="M592.563,-485.85C583.798,-498.737 575.537,-513.593 571,-528.666 558.681,-569.593 567.475,-582.238 571,-624.833 572.338,-640.998 574.811,-644.76 577,-660.833 587.812,-740.212 596,-759.97 596,-840.082 596,-1238.58 596,-1238.58 596,-1238.58 596,-1318.96 600.547,-1342.69 572,-1417.83 567.466,-1429.76 560.93,-1441.68 553.913,-1452.61"/>
<polygon fill="black" stroke="black" points="550.854,-1450.89 548.21,-1461.15 556.675,-1454.78 550.854,-1450.89"/>
</g>
<!-- 18&#45;&gt;7 -->
<g id="edge66" class="edge"><title>18&#45;&gt;7</title>
<path fill="none" stroke="black" d="M606.904,-398.489C585.17,-347.352 552.128,-270.247 548,-264.333 537.409,-249.161 523.729,-234.54 510.366,-221.905"/>
<polygon fill="black" stroke="black" points="512.718,-219.313 502.997,-215.099 507.969,-224.455 512.718,-219.313"/>
</g>
<!-- 18&#45;&gt;13 -->
<g id="edge65" class="edge"><title>18&#45;&gt;13</title>
<path fill="none" stroke="black" d="M633.206,-396.59C635.642,-387.402 638.422,-377.691 641.31,-368.274"/>
<polygon fill="black" stroke="black" points="644.691,-369.189 644.348,-358.6 638.013,-367.092 644.691,-369.189"/>
</g>
<!-- 18&#45;&gt;18 -->
<g id="edge63" class="edge"><title>18&#45;&gt;18</title>
<path fill="none" stroke="black" d="M681.42,-469.182C696.683,-467.993 708.347,-459.794 708.347,-444.583 708.347,-432.937 701.51,-425.401 691.455,-421.975"/>
<polygon fill="black" stroke="black" points="691.91,-418.497 681.42,-419.984 690.547,-425.363 691.91,-418.497"/>
</g>
<!-- 19&#45;&gt;4 -->
<g id="edge68" class="edge"><title>19&#45;&gt;4</title>
<path fill="none" stroke="black" d="M641.108,-625.12C638.154,-677.64 634,-764.88 634,-840.082 634,-1238.58 634,-1238.58 634,-1238.58 634,-1318.96 647.83,-1346.91 610,-1417.83 600.485,-1435.67 585.512,-1451.49 570.29,-1464.42"/>
<polygon fill="black" stroke="black" points="567.871,-1461.88 562.335,-1470.91 572.296,-1467.3 567.871,-1461.88"/>
</g>
<!-- 19&#45;&gt;18 -->
<g id="edge67" class="edge"><title>19&#45;&gt;18</title>
<path fill="none" stroke="black" d="M637.502,-528.756C636.329,-520.277 635.095,-511.353 633.888,-502.625"/>
<polygon fill="black" stroke="black" points="637.326,-501.933 632.489,-492.507 630.392,-502.892 637.326,-501.933"/>
</g>
</g>
</svg>
