<?xml version="1.0" encoding="UTF-8" standalone="no"?>
<!DOCTYPE svg PUBLIC "-//W3C//DTD SVG 1.1//EN"
 "http://www.w3.org/Graphics/SVG/1.1/DTD/svg11.dtd">
<!-- Generated by graphviz version 2.38.0 (20140413.2041)
 -->
<!-- Title: %3 Pages: 1 -->
<svg width="1108pt" height="2765pt"
 viewBox="0.00 0.00 1107.90 2765.49" xmlns="http://www.w3.org/2000/svg" xmlns:xlink="http://www.w3.org/1999/xlink">
<g id="graph0" class="graph" transform="scale(1 1) rotate(0) translate(4 2761.49)">
<title>%3</title>
<polygon fill="white" stroke="none" points="-4,4 -4,-2761.49 1103.9,-2761.49 1103.9,4 -4,4"/>
<!-- 0 -->
<g id="node1" class="node"><title>0</title>
<ellipse fill="none" stroke="black" cx="1021.09" cy="-2688.19" rx="60.623" ry="69.0935"/>
<text text-anchor="middle" x="1021.09" y="-2721.99" font-family="Times New Roman,serif" font-size="14.00">State 0</text>
<text text-anchor="middle" x="1021.09" y="-2706.99" font-family="Times New Roman,serif" font-size="14.00">Inflow 0 0</text>
<text text-anchor="middle" x="1021.09" y="-2691.99" font-family="Times New Roman,serif" font-size="14.00">Volume 0 0</text>
<text text-anchor="middle" x="1021.09" y="-2676.99" font-family="Times New Roman,serif" font-size="14.00">Outflow 0 0</text>
<text text-anchor="middle" x="1021.09" y="-2661.99" font-family="Times New Roman,serif" font-size="14.00">Pressure 0 0</text>
<text text-anchor="middle" x="1021.09" y="-2646.99" font-family="Times New Roman,serif" font-size="14.00">Height 0 0</text>
</g>
<!-- 0&#45;&gt;0 -->
<g id="edge1" class="edge"><title>0&#45;&gt;0</title>
<path fill="none" stroke="black" d="M1075.24,-2720.48C1089.3,-2718.49 1099.9,-2707.73 1099.9,-2688.19 1099.9,-2673.53 1093.94,-2663.82 1085.03,-2659.04"/>
<polygon fill="black" stroke="black" points="1085.83,-2655.62 1075.24,-2655.9 1083.7,-2662.29 1085.83,-2655.62"/>
</g>
<!-- 1 -->
<g id="node2" class="node"><title>1</title>
<ellipse fill="none" stroke="black" cx="932.092" cy="-2513.6" rx="60.623" ry="69.0935"/>
<text text-anchor="middle" x="932.092" y="-2547.4" font-family="Times New Roman,serif" font-size="14.00">State 1</text>
<text text-anchor="middle" x="932.092" y="-2532.4" font-family="Times New Roman,serif" font-size="14.00">Inflow 0 +</text>
<text text-anchor="middle" x="932.092" y="-2517.4" font-family="Times New Roman,serif" font-size="14.00">Volume 0 0</text>
<text text-anchor="middle" x="932.092" y="-2502.4" font-family="Times New Roman,serif" font-size="14.00">Outflow 0 0</text>
<text text-anchor="middle" x="932.092" y="-2487.4" font-family="Times New Roman,serif" font-size="14.00">Pressure 0 0</text>
<text text-anchor="middle" x="932.092" y="-2472.4" font-family="Times New Roman,serif" font-size="14.00">Height 0 0</text>
</g>
<!-- 0&#45;&gt;1 -->
<g id="edge2" class="edge"><title>0&#45;&gt;1</title>
<path fill="none" stroke="black" d="M990.463,-2627.79C983.009,-2613.34 974.979,-2597.77 967.33,-2582.93"/>
<polygon fill="black" stroke="black" points="970.32,-2581.09 962.626,-2573.81 964.099,-2584.3 970.32,-2581.09"/>
</g>
<!-- 2 -->
<g id="node3" class="node"><title>2</title>
<ellipse fill="none" stroke="black" cx="603.092" cy="-2339" rx="61.5366" ry="69.0935"/>
<text text-anchor="middle" x="603.092" y="-2372.8" font-family="Times New Roman,serif" font-size="14.00">State 2</text>
<text text-anchor="middle" x="603.092" y="-2357.8" font-family="Times New Roman,serif" font-size="14.00">Inflow + +</text>
<text text-anchor="middle" x="603.092" y="-2342.8" font-family="Times New Roman,serif" font-size="14.00">Volume 0 +</text>
<text text-anchor="middle" x="603.092" y="-2327.8" font-family="Times New Roman,serif" font-size="14.00">Outflow 0 +</text>
<text text-anchor="middle" x="603.092" y="-2312.8" font-family="Times New Roman,serif" font-size="14.00">Pressure 0 +</text>
<text text-anchor="middle" x="603.092" y="-2297.8" font-family="Times New Roman,serif" font-size="14.00">Height 0 +</text>
</g>
<!-- 1&#45;&gt;2 -->
<g id="edge3" class="edge"><title>1&#45;&gt;2</title>
<path fill="none" stroke="black" d="M877.025,-2483.71C819.345,-2453.45 728.816,-2405.96 667.773,-2373.94"/>
<polygon fill="black" stroke="black" points="669.095,-2370.68 658.614,-2369.13 665.843,-2376.88 669.095,-2370.68"/>
</g>
<!-- 3 -->
<g id="node4" class="node"><title>3</title>
<ellipse fill="none" stroke="black" cx="352.092" cy="-2164.41" rx="62.8651" ry="69.0935"/>
<text text-anchor="middle" x="352.092" y="-2198.21" font-family="Times New Roman,serif" font-size="14.00">State 3</text>
<text text-anchor="middle" x="352.092" y="-2183.21" font-family="Times New Roman,serif" font-size="14.00">Inflow + +</text>
<text text-anchor="middle" x="352.092" y="-2168.21" font-family="Times New Roman,serif" font-size="14.00">Volume + +</text>
<text text-anchor="middle" x="352.092" y="-2153.21" font-family="Times New Roman,serif" font-size="14.00">Outflow + +</text>
<text text-anchor="middle" x="352.092" y="-2138.21" font-family="Times New Roman,serif" font-size="14.00">Pressure + +</text>
<text text-anchor="middle" x="352.092" y="-2123.21" font-family="Times New Roman,serif" font-size="14.00">Height + +</text>
</g>
<!-- 2&#45;&gt;3 -->
<g id="edge4" class="edge"><title>2&#45;&gt;3</title>
<path fill="none" stroke="black" d="M550.779,-2302.03C510.859,-2274.58 455.751,-2236.69 413.697,-2207.77"/>
<polygon fill="black" stroke="black" points="415.424,-2204.71 405.201,-2201.93 411.458,-2210.48 415.424,-2204.71"/>
</g>
<!-- 3&#45;&gt;3 -->
<g id="edge5" class="edge"><title>3&#45;&gt;3</title>
<path fill="none" stroke="black" d="M408.073,-2196.65C422.325,-2194.53 433.024,-2183.78 433.024,-2164.41 433.024,-2149.73 426.88,-2140.01 417.701,-2135.23"/>
<polygon fill="black" stroke="black" points="418.663,-2131.87 408.073,-2132.18 416.545,-2138.54 418.663,-2131.87"/>
</g>
<!-- 4 -->
<g id="node5" class="node"><title>4</title>
<ellipse fill="none" stroke="black" cx="523.092" cy="-1989.82" rx="61.5366" ry="69.0935"/>
<text text-anchor="middle" x="523.092" y="-2023.62" font-family="Times New Roman,serif" font-size="14.00">State 4</text>
<text text-anchor="middle" x="523.092" y="-2008.62" font-family="Times New Roman,serif" font-size="14.00">Inflow + +</text>
<text text-anchor="middle" x="523.092" y="-1993.62" font-family="Times New Roman,serif" font-size="14.00">Volume + 0</text>
<text text-anchor="middle" x="523.092" y="-1978.62" font-family="Times New Roman,serif" font-size="14.00">Outflow + 0</text>
<text text-anchor="middle" x="523.092" y="-1963.62" font-family="Times New Roman,serif" font-size="14.00">Pressure + 0</text>
<text text-anchor="middle" x="523.092" y="-1948.62" font-family="Times New Roman,serif" font-size="14.00">Height + 0</text>
</g>
<!-- 3&#45;&gt;4 -->
<g id="edge6" class="edge"><title>3&#45;&gt;4</title>
<path fill="none" stroke="black" d="M395.366,-2113.49C417.404,-2090.48 444.387,-2063.25 467.894,-2040.3"/>
<polygon fill="black" stroke="black" points="470.34,-2042.81 475.069,-2033.32 465.46,-2037.79 470.34,-2042.81"/>
</g>
<!-- 5 -->
<g id="node6" class="node"><title>5</title>
<ellipse fill="none" stroke="black" cx="340.092" cy="-1116.85" rx="73.5782" ry="69.0935"/>
<text text-anchor="middle" x="340.092" y="-1150.65" font-family="Times New Roman,serif" font-size="14.00">State 5</text>
<text text-anchor="middle" x="340.092" y="-1135.65" font-family="Times New Roman,serif" font-size="14.00">Inflow + +</text>
<text text-anchor="middle" x="340.092" y="-1120.65" font-family="Times New Roman,serif" font-size="14.00">Volume Max 0</text>
<text text-anchor="middle" x="340.092" y="-1105.65" font-family="Times New Roman,serif" font-size="14.00">Outflow Max 0</text>
<text text-anchor="middle" x="340.092" y="-1090.65" font-family="Times New Roman,serif" font-size="14.00">Pressure Max 0</text>
<text text-anchor="middle" x="340.092" y="-1075.65" font-family="Times New Roman,serif" font-size="14.00">Height Max 0</text>
</g>
<!-- 3&#45;&gt;5 -->
<g id="edge7" class="edge"><title>3&#45;&gt;5</title>
<path fill="none" stroke="black" d="M295.41,-2134C205.212,-2082.67 39.0917,-1967.58 39.0917,-1816.23 39.0917,-1816.23 39.0917,-1816.23 39.0917,-1639.63 39.0917,-1447.89 193.485,-1263.16 281.12,-1173.75"/>
<polygon fill="black" stroke="black" points="283.808,-1176.01 288.348,-1166.44 278.829,-1171.09 283.808,-1176.01"/>
</g>
<!-- 6 -->
<g id="node7" class="node"><title>6</title>
<ellipse fill="none" stroke="black" cx="282.092" cy="-1815.23" rx="62.8651" ry="69.0935"/>
<text text-anchor="middle" x="282.092" y="-1849.03" font-family="Times New Roman,serif" font-size="14.00">State 6</text>
<text text-anchor="middle" x="282.092" y="-1834.03" font-family="Times New Roman,serif" font-size="14.00">Inflow + 0</text>
<text text-anchor="middle" x="282.092" y="-1819.03" font-family="Times New Roman,serif" font-size="14.00">Volume + +</text>
<text text-anchor="middle" x="282.092" y="-1804.03" font-family="Times New Roman,serif" font-size="14.00">Outflow + +</text>
<text text-anchor="middle" x="282.092" y="-1789.03" font-family="Times New Roman,serif" font-size="14.00">Pressure + +</text>
<text text-anchor="middle" x="282.092" y="-1774.03" font-family="Times New Roman,serif" font-size="14.00">Height + +</text>
</g>
<!-- 3&#45;&gt;6 -->
<g id="edge8" class="edge"><title>3&#45;&gt;6</title>
<path fill="none" stroke="black" d="M333.514,-2098.11C320.18,-2040.24 303.013,-1955.64 292.077,-1894.23"/>
<polygon fill="black" stroke="black" points="295.492,-1893.44 290.31,-1884.2 288.598,-1894.66 295.492,-1893.44"/>
</g>
<!-- 7 -->
<g id="node8" class="node"><title>7</title>
<ellipse fill="none" stroke="black" cx="466.092" cy="-243.889" rx="61.5366" ry="69.0935"/>
<text text-anchor="middle" x="466.092" y="-277.689" font-family="Times New Roman,serif" font-size="14.00">State 7</text>
<text text-anchor="middle" x="466.092" y="-262.689" font-family="Times New Roman,serif" font-size="14.00">Inflow + 0</text>
<text text-anchor="middle" x="466.092" y="-247.689" font-family="Times New Roman,serif" font-size="14.00">Volume + 0</text>
<text text-anchor="middle" x="466.092" y="-232.689" font-family="Times New Roman,serif" font-size="14.00">Outflow + 0</text>
<text text-anchor="middle" x="466.092" y="-217.689" font-family="Times New Roman,serif" font-size="14.00">Pressure + 0</text>
<text text-anchor="middle" x="466.092" y="-202.689" font-family="Times New Roman,serif" font-size="14.00">Height + 0</text>
</g>
<!-- 3&#45;&gt;7 -->
<g id="edge9" class="edge"><title>3&#45;&gt;7</title>
<path fill="none" stroke="black" d="M289.167,-2157.84C223.126,-2148.6 120.896,-2124.06 62.0917,-2059.12 -12.6133,-1976.61 1.09171,-1927.53 1.09171,-1816.23 1.09171,-1816.23 1.09171,-1816.23 1.09171,-1639.63 1.09171,-1135.95 63.8917,-1008.98 199.092,-523.779 220.825,-445.785 196.505,-408.983 251.092,-349.186 280.137,-317.368 302.119,-331.547 341.092,-313.186 361.559,-303.543 383.361,-292.07 402.931,-281.307"/>
<polygon fill="black" stroke="black" points="404.701,-284.327 411.753,-276.42 401.309,-278.204 404.701,-284.327"/>
</g>
<!-- 8 -->
<g id="node9" class="node"><title>8</title>
<ellipse fill="none" stroke="black" cx="369.092" cy="-1291.45" rx="73.5782" ry="69.0935"/>
<text text-anchor="middle" x="369.092" y="-1325.25" font-family="Times New Roman,serif" font-size="14.00">State 8</text>
<text text-anchor="middle" x="369.092" y="-1310.25" font-family="Times New Roman,serif" font-size="14.00">Inflow + 0</text>
<text text-anchor="middle" x="369.092" y="-1295.25" font-family="Times New Roman,serif" font-size="14.00">Volume Max 0</text>
<text text-anchor="middle" x="369.092" y="-1280.25" font-family="Times New Roman,serif" font-size="14.00">Outflow Max 0</text>
<text text-anchor="middle" x="369.092" y="-1265.25" font-family="Times New Roman,serif" font-size="14.00">Pressure Max 0</text>
<text text-anchor="middle" x="369.092" y="-1250.25" font-family="Times New Roman,serif" font-size="14.00">Height Max 0</text>
</g>
<!-- 3&#45;&gt;8 -->
<g id="edge10" class="edge"><title>3&#45;&gt;8</title>
<path fill="none" stroke="black" d="M358.345,-2095.29C363.195,-2038.87 369.512,-1956.56 372.092,-1884.52 377.648,-1729.36 365.775,-1690.55 362.092,-1535.34 360.63,-1473.76 360.028,-1458.31 362.092,-1396.74 362.374,-1388.33 362.783,-1379.55 363.264,-1370.8"/>
<polygon fill="black" stroke="black" points="366.772,-1370.76 363.859,-1360.58 359.784,-1370.36 366.772,-1370.76"/>
</g>
<!-- 4&#45;&gt;3 -->
<g id="edge11" class="edge"><title>4&#45;&gt;3</title>
<path fill="none" stroke="black" d="M480.444,-2040.09C458.493,-2063.02 431.513,-2090.26 407.934,-2113.3"/>
<polygon fill="black" stroke="black" points="405.461,-2110.82 400.735,-2120.3 410.343,-2115.84 405.461,-2110.82"/>
</g>
<!-- 4&#45;&gt;6 -->
<g id="edge12" class="edge"><title>4&#45;&gt;6</title>
<path fill="none" stroke="black" d="M469.974,-1954.72C431.772,-1928.4 380.337,-1891.7 340.904,-1862.69"/>
<polygon fill="black" stroke="black" points="342.806,-1859.74 332.681,-1856.62 338.65,-1865.37 342.806,-1859.74"/>
</g>
<!-- 5&#45;&gt;5 -->
<g id="edge13" class="edge"><title>5&#45;&gt;5</title>
<path fill="none" stroke="black" d="M405.507,-1148.76C420.567,-1146.01 431.631,-1135.38 431.631,-1116.85 431.631,-1102.53 425.013,-1092.92 415.045,-1088.03"/>
<polygon fill="black" stroke="black" points="416.098,-1084.69 405.507,-1084.95 413.945,-1091.35 416.098,-1084.69"/>
</g>
<!-- 5&#45;&gt;8 -->
<g id="edge14" class="edge"><title>5&#45;&gt;8</title>
<path fill="none" stroke="black" d="M357.82,-1184.16C359.511,-1193.32 361.15,-1202.8 362.661,-1212.16"/>
<polygon fill="black" stroke="black" points="359.235,-1212.9 364.247,-1222.23 366.15,-1211.81 359.235,-1212.9"/>
</g>
<!-- 6&#45;&gt;3 -->
<g id="edge18" class="edge"><title>6&#45;&gt;3</title>
<path fill="none" stroke="black" d="M300.656,-1881.47C314.006,-1939.4 331.205,-2024.16 342.143,-2085.61"/>
<polygon fill="black" stroke="black" points="338.729,-2086.4 343.91,-2095.65 345.623,-2085.19 338.729,-2086.4"/>
</g>
<!-- 6&#45;&gt;4 -->
<g id="edge19" class="edge"><title>6&#45;&gt;4</title>
<path fill="none" stroke="black" d="M336.424,-1851.16C374.775,-1877.61 426.005,-1914.18 465.133,-1942.98"/>
<polygon fill="black" stroke="black" points="463.166,-1945.88 473.29,-1949.01 467.323,-1940.25 463.166,-1945.88"/>
</g>
<!-- 6&#45;&gt;5 -->
<g id="edge20" class="edge"><title>6&#45;&gt;5</title>
<path fill="none" stroke="black" d="M228.462,-1778.53C206.645,-1760.77 183.836,-1737.25 172.092,-1709.93 147.765,-1653.34 162.121,-1632.12 172.092,-1571.34 188.08,-1473.87 212.677,-1454.72 243.092,-1360.74 262.951,-1299.38 261.614,-1281.82 286.092,-1222.15 290.763,-1210.76 296.234,-1198.95 301.867,-1187.54"/>
<polygon fill="black" stroke="black" points="305.05,-1189 306.408,-1178.49 298.794,-1185.86 305.05,-1189"/>
</g>
<!-- 6&#45;&gt;6 -->
<g id="edge15" class="edge"><title>6&#45;&gt;6</title>
<path fill="none" stroke="black" d="M338.073,-1847.46C352.325,-1845.34 363.024,-1834.6 363.024,-1815.23 363.024,-1800.55 356.88,-1790.82 347.701,-1786.05"/>
<polygon fill="black" stroke="black" points="348.663,-1782.68 338.073,-1782.99 346.545,-1789.35 348.663,-1782.68"/>
</g>
<!-- 6&#45;&gt;7 -->
<g id="edge16" class="edge"><title>6&#45;&gt;7</title>
<path fill="none" stroke="black" d="M226.806,-1782.08C200.933,-1764.15 172.128,-1739.46 155.092,-1709.93 100.424,-1615.16 115.092,-1576.44 115.092,-1467.04 115.092,-1467.04 115.092,-1467.04 115.092,-1290.45 115.092,-1076.37 197.562,-524.724 320.092,-349.186 340.693,-319.672 372.441,-295.553 401.076,-277.971"/>
<polygon fill="black" stroke="black" points="403.061,-280.863 409.847,-272.726 399.468,-274.855 403.061,-280.863"/>
</g>
<!-- 6&#45;&gt;8 -->
<g id="edge17" class="edge"><title>6&#45;&gt;8</title>
<path fill="none" stroke="black" d="M316.503,-1757.01C323.75,-1742.18 330.335,-1725.88 334.092,-1709.93 348.21,-1649.97 338.339,-1632.79 334.092,-1571.34 332.978,-1555.22 330.205,-1551.45 329.092,-1535.34 324.845,-1473.89 317.876,-1457.31 329.092,-1396.74 331.025,-1386.3 333.96,-1375.56 337.381,-1365.12"/>
<polygon fill="black" stroke="black" points="340.701,-1366.23 340.644,-1355.64 334.081,-1363.95 340.701,-1366.23"/>
</g>
<!-- 9 -->
<g id="node10" class="node"><title>9</title>
<ellipse fill="none" stroke="black" cx="244.092" cy="-1640.63" rx="62.8651" ry="69.0935"/>
<text text-anchor="middle" x="244.092" y="-1674.43" font-family="Times New Roman,serif" font-size="14.00">State 9</text>
<text text-anchor="middle" x="244.092" y="-1659.43" font-family="Times New Roman,serif" font-size="14.00">Inflow + &#45;+</text>
<text text-anchor="middle" x="244.092" y="-1644.43" font-family="Times New Roman,serif" font-size="14.00">Volume + +</text>
<text text-anchor="middle" x="244.092" y="-1629.43" font-family="Times New Roman,serif" font-size="14.00">Outflow + +</text>
<text text-anchor="middle" x="244.092" y="-1614.43" font-family="Times New Roman,serif" font-size="14.00">Pressure + +</text>
<text text-anchor="middle" x="244.092" y="-1599.43" font-family="Times New Roman,serif" font-size="14.00">Height + +</text>
</g>
<!-- 6&#45;&gt;9 -->
<g id="edge21" class="edge"><title>6&#45;&gt;9</title>
<path fill="none" stroke="black" d="M261.274,-1749.47C258.933,-1739.64 256.628,-1729.41 254.481,-1719.34"/>
<polygon fill="black" stroke="black" points="257.864,-1718.42 252.392,-1709.35 251.012,-1719.85 257.864,-1718.42"/>
</g>
<!-- 10 -->
<g id="node11" class="node"><title>10</title>
<ellipse fill="none" stroke="black" cx="673.092" cy="-69.2965" rx="61.5366" ry="69.0935"/>
<text text-anchor="middle" x="673.092" y="-103.096" font-family="Times New Roman,serif" font-size="14.00">State 10</text>
<text text-anchor="middle" x="673.092" y="-88.0965" font-family="Times New Roman,serif" font-size="14.00">Inflow + &#45;+</text>
<text text-anchor="middle" x="673.092" y="-73.0965" font-family="Times New Roman,serif" font-size="14.00">Volume + 0</text>
<text text-anchor="middle" x="673.092" y="-58.0965" font-family="Times New Roman,serif" font-size="14.00">Outflow + 0</text>
<text text-anchor="middle" x="673.092" y="-43.0965" font-family="Times New Roman,serif" font-size="14.00">Pressure + 0</text>
<text text-anchor="middle" x="673.092" y="-28.0965" font-family="Times New Roman,serif" font-size="14.00">Height + 0</text>
</g>
<!-- 6&#45;&gt;10 -->
<g id="edge22" class="edge"><title>6&#45;&gt;10</title>
<path fill="none" stroke="black" d="M222.153,-1793.5C183.741,-1777 136.326,-1749.94 110.092,-1709.93 50.3548,-1618.82 77.0917,-1575.98 77.0917,-1467.04 77.0917,-1467.04 77.0917,-1467.04 77.0917,-417.482 77.0917,-283.909 143.287,-249.186 254.092,-174.593 360.715,-102.815 512.472,-80.4002 601.074,-73.4233"/>
<polygon fill="black" stroke="black" points="601.581,-76.8954 611.295,-72.6651 601.063,-69.9146 601.581,-76.8954"/>
</g>
<!-- 11 -->
<g id="node12" class="node"><title>11</title>
<ellipse fill="none" stroke="black" cx="445.092" cy="-1466.04" rx="73.5782" ry="69.0935"/>
<text text-anchor="middle" x="445.092" y="-1499.84" font-family="Times New Roman,serif" font-size="14.00">State 11</text>
<text text-anchor="middle" x="445.092" y="-1484.84" font-family="Times New Roman,serif" font-size="14.00">Inflow + &#45;+</text>
<text text-anchor="middle" x="445.092" y="-1469.84" font-family="Times New Roman,serif" font-size="14.00">Volume Max 0</text>
<text text-anchor="middle" x="445.092" y="-1454.84" font-family="Times New Roman,serif" font-size="14.00">Outflow Max 0</text>
<text text-anchor="middle" x="445.092" y="-1439.84" font-family="Times New Roman,serif" font-size="14.00">Pressure Max 0</text>
<text text-anchor="middle" x="445.092" y="-1424.84" font-family="Times New Roman,serif" font-size="14.00">Height Max 0</text>
</g>
<!-- 6&#45;&gt;11 -->
<g id="edge23" class="edge"><title>6&#45;&gt;11</title>
<path fill="none" stroke="black" d="M327.221,-1766.55C341.462,-1749.64 356.283,-1729.84 367.092,-1709.93 395.455,-1657.67 415.521,-1593.43 428.192,-1544.14"/>
<polygon fill="black" stroke="black" points="431.653,-1544.72 430.706,-1534.17 424.866,-1543.01 431.653,-1544.72"/>
</g>
<!-- 7&#45;&gt;4 -->
<g id="edge25" class="edge"><title>7&#45;&gt;4</title>
<path fill="none" stroke="black" d="M443.792,-308.627C421.684,-377.597 391.092,-491.252 391.092,-592.075 391.092,-768.668 391.092,-768.668 391.092,-768.668 391.092,-876.949 368.476,-911.594 410.092,-1011.56 418.207,-1031.05 430.941,-1029.04 441.092,-1047.56 519,-1189.66 522.507,-1236.41 546.092,-1396.74 555.056,-1457.68 547.652,-1473.76 546.092,-1535.34 542.755,-1666.99 533.978,-1819.94 528.283,-1910.32"/>
<polygon fill="black" stroke="black" points="524.778,-1910.28 527.639,-1920.48 531.764,-1910.73 524.778,-1910.28"/>
</g>
<!-- 7&#45;&gt;7 -->
<g id="edge24" class="edge"><title>7&#45;&gt;7</title>
<path fill="none" stroke="black" d="M520.725,-276.178C534.912,-274.193 545.61,-263.43 545.61,-243.889 545.61,-229.081 539.467,-219.314 530.317,-214.588"/>
<polygon fill="black" stroke="black" points="531.314,-211.232 520.725,-211.601 529.232,-217.916 531.314,-211.232"/>
</g>
<!-- 7&#45;&gt;10 -->
<g id="edge26" class="edge"><title>7&#45;&gt;10</title>
<path fill="none" stroke="black" d="M515.148,-201.987C545.457,-176.716 584.475,-144.184 616.146,-117.777"/>
<polygon fill="black" stroke="black" points="618.59,-120.296 624.029,-111.204 614.108,-114.919 618.59,-120.296"/>
</g>
<!-- 8&#45;&gt;5 -->
<g id="edge28" class="edge"><title>8&#45;&gt;5</title>
<path fill="none" stroke="black" d="M351.286,-1223.72C349.617,-1214.66 348.001,-1205.3 346.51,-1196.07"/>
<polygon fill="black" stroke="black" points="349.956,-1195.45 344.944,-1186.12 343.041,-1196.54 349.956,-1195.45"/>
</g>
<!-- 8&#45;&gt;8 -->
<g id="edge27" class="edge"><title>8&#45;&gt;8</title>
<path fill="none" stroke="black" d="M434.507,-1323.35C449.567,-1320.6 460.631,-1309.97 460.631,-1291.45 460.631,-1277.12 454.013,-1267.51 444.045,-1262.62"/>
<polygon fill="black" stroke="black" points="445.098,-1259.29 434.507,-1259.54 442.945,-1265.95 445.098,-1259.29"/>
</g>
<!-- 8&#45;&gt;11 -->
<g id="edge29" class="edge"><title>8&#45;&gt;11</title>
<path fill="none" stroke="black" d="M402.471,-1353.52C407.987,-1365.46 413.627,-1378.12 418.938,-1390.44"/>
<polygon fill="black" stroke="black" points="415.783,-1391.97 422.928,-1399.79 422.221,-1389.22 415.783,-1391.97"/>
</g>
<!-- 9&#45;&gt;6 -->
<g id="edge33" class="edge"><title>9&#45;&gt;6</title>
<path fill="none" stroke="black" d="M264.895,-1706.33C267.24,-1716.17 269.549,-1726.41 271.699,-1736.5"/>
<polygon fill="black" stroke="black" points="268.319,-1737.44 273.791,-1746.51 275.171,-1736 268.319,-1737.44"/>
</g>
<!-- 9&#45;&gt;7 -->
<g id="edge34" class="edge"><title>9&#45;&gt;7</title>
<path fill="none" stroke="black" d="M236.062,-1571.8C215.552,-1372.86 176.126,-777.956 377.092,-349.186 385.904,-330.385 399.043,-312.288 412.538,-296.598"/>
<polygon fill="black" stroke="black" points="415.17,-298.905 419.174,-289.096 409.927,-294.267 415.17,-298.905"/>
</g>
<!-- 9&#45;&gt;8 -->
<g id="edge35" class="edge"><title>9&#45;&gt;8</title>
<path fill="none" stroke="black" d="M249.039,-1571.48C254.607,-1521.39 266.366,-1452.61 291.092,-1396.74 297.684,-1381.85 306.744,-1367.07 316.36,-1353.54"/>
<polygon fill="black" stroke="black" points="319.323,-1355.41 322.402,-1345.28 313.673,-1351.28 319.323,-1355.41"/>
</g>
<!-- 9&#45;&gt;9 -->
<g id="edge30" class="edge"><title>9&#45;&gt;9</title>
<path fill="none" stroke="black" d="M300.073,-1672.87C314.325,-1670.75 325.024,-1660 325.024,-1640.63 325.024,-1625.95 318.88,-1616.23 309.701,-1611.46"/>
<polygon fill="black" stroke="black" points="310.663,-1608.09 300.073,-1608.4 308.545,-1614.76 310.663,-1608.09"/>
</g>
<!-- 9&#45;&gt;10 -->
<g id="edge31" class="edge"><title>9&#45;&gt;10</title>
<path fill="none" stroke="black" d="M226.146,-1574.1C223.287,-1561.33 220.734,-1547.98 219.092,-1535.34 209.1,-1458.36 216.869,-1438.34 215.092,-1360.74 206.57,-988.789 145.431,-891.941 199.092,-523.779 224.76,-347.669 250.248,-278.003 395.092,-174.593 458.249,-129.502 543.261,-101.376 602.583,-85.8559"/>
<polygon fill="black" stroke="black" points="603.793,-89.1593 612.612,-83.288 602.056,-82.3781 603.793,-89.1593"/>
</g>
<!-- 9&#45;&gt;11 -->
<g id="edge32" class="edge"><title>9&#45;&gt;11</title>
<path fill="none" stroke="black" d="M293.519,-1597.19C320.729,-1573.83 354.741,-1544.62 383.647,-1519.8"/>
<polygon fill="black" stroke="black" points="385.959,-1522.43 391.266,-1513.26 381.399,-1517.12 385.959,-1522.43"/>
</g>
<!-- 12 -->
<g id="node13" class="node"><title>12</title>
<ellipse fill="none" stroke="black" cx="735.092" cy="-1116.85" rx="65.5227" ry="69.0935"/>
<text text-anchor="middle" x="735.092" y="-1150.65" font-family="Times New Roman,serif" font-size="14.00">State 12</text>
<text text-anchor="middle" x="735.092" y="-1135.65" font-family="Times New Roman,serif" font-size="14.00">Inflow + &#45;+</text>
<text text-anchor="middle" x="735.092" y="-1120.65" font-family="Times New Roman,serif" font-size="14.00">Volume + &#45;+</text>
<text text-anchor="middle" x="735.092" y="-1105.65" font-family="Times New Roman,serif" font-size="14.00">Outflow + &#45;+</text>
<text text-anchor="middle" x="735.092" y="-1090.65" font-family="Times New Roman,serif" font-size="14.00">Pressure + &#45;+</text>
<text text-anchor="middle" x="735.092" y="-1075.65" font-family="Times New Roman,serif" font-size="14.00">Height + &#45;+</text>
</g>
<!-- 10&#45;&gt;12 -->
<g id="edge36" class="edge"><title>10&#45;&gt;12</title>
<path fill="none" stroke="black" d="M714.055,-121.265C757.98,-186.783 821.092,-305.484 821.092,-417.482 821.092,-768.668 821.092,-768.668 821.092,-768.668 821.092,-877.734 814.444,-906.241 786.092,-1011.56 782.829,-1023.68 778.554,-1036.29 773.841,-1048.38"/>
<polygon fill="black" stroke="black" points="770.476,-1047.37 769.977,-1057.95 776.967,-1049.99 770.476,-1047.37"/>
</g>
<!-- 13 -->
<g id="node14" class="node"><title>13</title>
<ellipse fill="none" stroke="black" cx="673.092" cy="-418.482" rx="65.5227" ry="69.0935"/>
<text text-anchor="middle" x="673.092" y="-452.282" font-family="Times New Roman,serif" font-size="14.00">State 13</text>
<text text-anchor="middle" x="673.092" y="-437.282" font-family="Times New Roman,serif" font-size="14.00">Inflow + 0</text>
<text text-anchor="middle" x="673.092" y="-422.282" font-family="Times New Roman,serif" font-size="14.00">Volume + &#45;+</text>
<text text-anchor="middle" x="673.092" y="-407.282" font-family="Times New Roman,serif" font-size="14.00">Outflow + &#45;+</text>
<text text-anchor="middle" x="673.092" y="-392.282" font-family="Times New Roman,serif" font-size="14.00">Pressure + &#45;+</text>
<text text-anchor="middle" x="673.092" y="-377.282" font-family="Times New Roman,serif" font-size="14.00">Height + &#45;+</text>
</g>
<!-- 10&#45;&gt;13 -->
<g id="edge37" class="edge"><title>10&#45;&gt;13</title>
<path fill="none" stroke="black" d="M678.58,-138.319C680.169,-195.958 680.257,-278.633 678.844,-339.051"/>
<polygon fill="black" stroke="black" points="675.339,-339.218 678.584,-349.304 682.337,-339.396 675.339,-339.218"/>
</g>
<!-- 14 -->
<g id="node15" class="node"><title>14</title>
<ellipse fill="none" stroke="black" cx="915.092" cy="-942.261" rx="65.5227" ry="69.0935"/>
<text text-anchor="middle" x="915.092" y="-976.061" font-family="Times New Roman,serif" font-size="14.00">State 14</text>
<text text-anchor="middle" x="915.092" y="-961.061" font-family="Times New Roman,serif" font-size="14.00">Inflow 0 0</text>
<text text-anchor="middle" x="915.092" y="-946.061" font-family="Times New Roman,serif" font-size="14.00">Volume + &#45;+</text>
<text text-anchor="middle" x="915.092" y="-931.061" font-family="Times New Roman,serif" font-size="14.00">Outflow + &#45;+</text>
<text text-anchor="middle" x="915.092" y="-916.061" font-family="Times New Roman,serif" font-size="14.00">Pressure + &#45;+</text>
<text text-anchor="middle" x="915.092" y="-901.061" font-family="Times New Roman,serif" font-size="14.00">Height + &#45;+</text>
</g>
<!-- 10&#45;&gt;14 -->
<g id="edge38" class="edge"><title>10&#45;&gt;14</title>
<path fill="none" stroke="black" d="M731.035,-93.6595C766.413,-110.875 809.604,-137.722 835.092,-174.593 897.867,-265.404 887.092,-307.085 887.092,-417.482 887.092,-594.075 887.092,-594.075 887.092,-594.075 887.092,-686.87 897.152,-793.165 905.213,-863.434"/>
<polygon fill="black" stroke="black" points="901.755,-864.005 906.386,-873.534 908.709,-863.197 901.755,-864.005"/>
</g>
<!-- 11&#45;&gt;8 -->
<g id="edge41" class="edge"><title>11&#45;&gt;8</title>
<path fill="none" stroke="black" d="M411.815,-1404.19C406.277,-1392.2 400.611,-1379.5 395.276,-1367.11"/>
<polygon fill="black" stroke="black" points="398.413,-1365.55 391.268,-1357.73 391.975,-1368.3 398.413,-1365.55"/>
</g>
<!-- 11&#45;&gt;11 -->
<g id="edge39" class="edge"><title>11&#45;&gt;11</title>
<path fill="none" stroke="black" d="M510.507,-1497.95C525.567,-1495.2 536.631,-1484.56 536.631,-1466.04 536.631,-1451.71 530.013,-1442.11 520.045,-1437.22"/>
<polygon fill="black" stroke="black" points="521.098,-1433.88 510.507,-1434.13 518.945,-1440.54 521.098,-1433.88"/>
</g>
<!-- 15 -->
<g id="node16" class="node"><title>15</title>
<ellipse fill="none" stroke="black" cx="747.092" cy="-1291.45" rx="77.5641" ry="69.0935"/>
<text text-anchor="middle" x="747.092" y="-1325.25" font-family="Times New Roman,serif" font-size="14.00">State 15</text>
<text text-anchor="middle" x="747.092" y="-1310.25" font-family="Times New Roman,serif" font-size="14.00">Inflow + &#45;+</text>
<text text-anchor="middle" x="747.092" y="-1295.25" font-family="Times New Roman,serif" font-size="14.00">Volume Max &#45;+</text>
<text text-anchor="middle" x="747.092" y="-1280.25" font-family="Times New Roman,serif" font-size="14.00">Outflow Max &#45;+</text>
<text text-anchor="middle" x="747.092" y="-1265.25" font-family="Times New Roman,serif" font-size="14.00">Pressure Max &#45;+</text>
<text text-anchor="middle" x="747.092" y="-1250.25" font-family="Times New Roman,serif" font-size="14.00">Height Max &#45;+</text>
</g>
<!-- 11&#45;&gt;15 -->
<g id="edge40" class="edge"><title>11&#45;&gt;15</title>
<path fill="none" stroke="black" d="M507.666,-1429.28C555.746,-1401.8 622.294,-1363.77 673.029,-1334.77"/>
<polygon fill="black" stroke="black" points="675.044,-1337.65 681.989,-1329.65 671.57,-1331.58 675.044,-1337.65"/>
</g>
<!-- 16 -->
<g id="node17" class="node"><title>16</title>
<ellipse fill="none" stroke="black" cx="497.092" cy="-942.261" rx="77.5641" ry="69.0935"/>
<text text-anchor="middle" x="497.092" y="-976.061" font-family="Times New Roman,serif" font-size="14.00">State 16</text>
<text text-anchor="middle" x="497.092" y="-961.061" font-family="Times New Roman,serif" font-size="14.00">Inflow + 0</text>
<text text-anchor="middle" x="497.092" y="-946.061" font-family="Times New Roman,serif" font-size="14.00">Volume Max &#45;+</text>
<text text-anchor="middle" x="497.092" y="-931.061" font-family="Times New Roman,serif" font-size="14.00">Outflow Max &#45;+</text>
<text text-anchor="middle" x="497.092" y="-916.061" font-family="Times New Roman,serif" font-size="14.00">Pressure Max &#45;+</text>
<text text-anchor="middle" x="497.092" y="-901.061" font-family="Times New Roman,serif" font-size="14.00">Height Max &#45;+</text>
</g>
<!-- 11&#45;&gt;16 -->
<g id="edge42" class="edge"><title>11&#45;&gt;16</title>
<path fill="none" stroke="black" d="M462.804,-1398.61C465.628,-1386.1 468.228,-1373.08 470.092,-1360.74 487.813,-1243.42 493.912,-1105.83 496.006,-1021.62"/>
<polygon fill="black" stroke="black" points="499.505,-1021.7 496.242,-1011.62 492.507,-1021.53 499.505,-1021.7"/>
</g>
<!-- 17 -->
<g id="node18" class="node"><title>17</title>
<ellipse fill="none" stroke="black" cx="915.092" cy="-1116.85" rx="77.5641" ry="69.0935"/>
<text text-anchor="middle" x="915.092" y="-1150.65" font-family="Times New Roman,serif" font-size="14.00">State 17</text>
<text text-anchor="middle" x="915.092" y="-1135.65" font-family="Times New Roman,serif" font-size="14.00">Inflow 0 0</text>
<text text-anchor="middle" x="915.092" y="-1120.65" font-family="Times New Roman,serif" font-size="14.00">Volume Max &#45;+</text>
<text text-anchor="middle" x="915.092" y="-1105.65" font-family="Times New Roman,serif" font-size="14.00">Outflow Max &#45;+</text>
<text text-anchor="middle" x="915.092" y="-1090.65" font-family="Times New Roman,serif" font-size="14.00">Pressure Max &#45;+</text>
<text text-anchor="middle" x="915.092" y="-1075.65" font-family="Times New Roman,serif" font-size="14.00">Height Max &#45;+</text>
</g>
<!-- 11&#45;&gt;17 -->
<g id="edge43" class="edge"><title>11&#45;&gt;17</title>
<path fill="none" stroke="black" d="M518.765,-1465.19C605.255,-1461.38 747.816,-1442 834.092,-1360.74 879.312,-1318.16 899.299,-1249.69 908.127,-1196.28"/>
<polygon fill="black" stroke="black" points="911.624,-1196.58 909.699,-1186.16 904.707,-1195.5 911.624,-1196.58"/>
</g>
<!-- 12&#45;&gt;0 -->
<g id="edge49" class="edge"><title>12&#45;&gt;0</title>
<path fill="none" stroke="black" d="M784.334,-1162.96C801.506,-1180.34 819.989,-1201.1 834.092,-1222.15 947.246,-1391.06 1021.09,-1436.32 1021.09,-1639.63 1021.09,-2340 1021.09,-2340 1021.09,-2340 1021.09,-2432.21 1021.09,-2538.19 1021.09,-2608.56"/>
<polygon fill="black" stroke="black" points="1017.59,-2608.68 1021.09,-2618.68 1024.59,-2608.68 1017.59,-2608.68"/>
</g>
<!-- 12&#45;&gt;7 -->
<g id="edge47" class="edge"><title>12&#45;&gt;7</title>
<path fill="none" stroke="black" d="M696.742,-1060.53C660.767,-1006.07 608.134,-919.306 578.092,-836.965 513.44,-659.763 484.299,-438.462 472.719,-323.088"/>
<polygon fill="black" stroke="black" points="476.183,-322.544 471.718,-312.935 469.217,-323.231 476.183,-322.544"/>
</g>
<!-- 12&#45;&gt;10 -->
<g id="edge45" class="edge"><title>12&#45;&gt;10</title>
<path fill="none" stroke="black" d="M755.258,-1050.74C759.993,-1037.94 764.616,-1024.47 768.092,-1011.56 796.444,-906.241 803.092,-877.734 803.092,-768.668 803.092,-768.668 803.092,-768.668 803.092,-417.482 803.092,-314.025 749.238,-204.848 710.743,-137.155"/>
<polygon fill="black" stroke="black" points="713.67,-135.223 705.657,-128.292 707.599,-138.707 713.67,-135.223"/>
</g>
<!-- 12&#45;&gt;12 -->
<g id="edge44" class="edge"><title>12&#45;&gt;12</title>
<path fill="none" stroke="black" d="M793.416,-1149.03C807.973,-1146.78 818.853,-1136.06 818.853,-1116.85 818.853,-1102.3 812.605,-1092.62 803.243,-1087.8"/>
<polygon fill="black" stroke="black" points="804.007,-1084.37 793.416,-1084.68 801.885,-1091.04 804.007,-1084.37"/>
</g>
<!-- 12&#45;&gt;13 -->
<g id="edge46" class="edge"><title>12&#45;&gt;13</title>
<path fill="none" stroke="black" d="M738.928,-1047.48C748.651,-935.84 765.938,-708.36 719.092,-523.779 716.2,-512.385 711.838,-500.856 706.913,-489.824"/>
<polygon fill="black" stroke="black" points="710.055,-488.28 702.664,-480.689 703.708,-491.232 710.055,-488.28"/>
</g>
<!-- 12&#45;&gt;14 -->
<g id="edge48" class="edge"><title>12&#45;&gt;14</title>
<path fill="none" stroke="black" d="M783.328,-1069.6C806.733,-1047.16 834.98,-1020.08 859.307,-996.75"/>
<polygon fill="black" stroke="black" points="861.926,-999.088 866.722,-989.641 857.081,-994.035 861.926,-999.088"/>
</g>
<!-- 13&#45;&gt;4 -->
<g id="edge53" class="edge"><title>13&#45;&gt;4</title>
<path fill="none" stroke="black" d="M736.111,-438.386C854.224,-478.153 1097.09,-582.334 1097.09,-766.668 1097.09,-1292.45 1097.09,-1292.45 1097.09,-1292.45 1097.09,-1610.62 735.878,-1862.21 586.537,-1952.64"/>
<polygon fill="black" stroke="black" points="584.636,-1949.7 577.869,-1957.85 588.243,-1955.7 584.636,-1949.7"/>
</g>
<!-- 13&#45;&gt;7 -->
<g id="edge51" class="edge"><title>13&#45;&gt;7</title>
<path fill="none" stroke="black" d="M622.431,-373.981C612.72,-365.714 602.613,-357.158 593.092,-349.186 570.492,-330.262 545.45,-309.627 523.617,-291.742"/>
<polygon fill="black" stroke="black" points="525.684,-288.911 515.729,-285.286 521.25,-294.328 525.684,-288.911"/>
</g>
<!-- 13&#45;&gt;10 -->
<g id="edge55" class="edge"><title>13&#45;&gt;10</title>
<path fill="none" stroke="black" d="M667.599,-349.304C666.013,-291.62 665.927,-208.942 667.343,-148.565"/>
<polygon fill="black" stroke="black" points="670.848,-148.405 667.604,-138.319 663.85,-148.227 670.848,-148.405"/>
</g>
<!-- 13&#45;&gt;12 -->
<g id="edge54" class="edge"><title>13&#45;&gt;12</title>
<path fill="none" stroke="black" d="M715.37,-471.645C724.416,-487.729 732.56,-505.922 737.092,-523.779 782.811,-703.92 767.446,-924.92 751.302,-1039.22"/>
<polygon fill="black" stroke="black" points="747.815,-1038.88 749.839,-1049.28 754.742,-1039.88 747.815,-1038.88"/>
</g>
<!-- 13&#45;&gt;13 -->
<g id="edge50" class="edge"><title>13&#45;&gt;13</title>
<path fill="none" stroke="black" d="M731.416,-450.659C745.973,-448.409 756.853,-437.683 756.853,-418.482 756.853,-403.931 750.605,-394.248 741.243,-389.432"/>
<polygon fill="black" stroke="black" points="742.007,-386.002 731.416,-386.305 739.885,-392.672 742.007,-386.002"/>
</g>
<!-- 18 -->
<g id="node19" class="node"><title>18</title>
<ellipse fill="none" stroke="black" cx="635.092" cy="-593.075" rx="65.5227" ry="69.0935"/>
<text text-anchor="middle" x="635.092" y="-626.875" font-family="Times New Roman,serif" font-size="14.00">State 18</text>
<text text-anchor="middle" x="635.092" y="-611.875" font-family="Times New Roman,serif" font-size="14.00">Inflow + +</text>
<text text-anchor="middle" x="635.092" y="-596.875" font-family="Times New Roman,serif" font-size="14.00">Volume + &#45;+</text>
<text text-anchor="middle" x="635.092" y="-581.875" font-family="Times New Roman,serif" font-size="14.00">Outflow + &#45;+</text>
<text text-anchor="middle" x="635.092" y="-566.875" font-family="Times New Roman,serif" font-size="14.00">Pressure + &#45;+</text>
<text text-anchor="middle" x="635.092" y="-551.875" font-family="Times New Roman,serif" font-size="14.00">Height + &#45;+</text>
</g>
<!-- 13&#45;&gt;18 -->
<g id="edge52" class="edge"><title>13&#45;&gt;18</title>
<path fill="none" stroke="black" d="M664.733,-487.487C662.716,-497.323 660.504,-507.492 658.217,-517.45"/>
<polygon fill="black" stroke="black" points="654.779,-516.783 655.909,-527.317 661.595,-518.377 654.779,-516.783"/>
</g>
<!-- 14&#45;&gt;0 -->
<g id="edge57" class="edge"><title>14&#45;&gt;0</title>
<path fill="none" stroke="black" d="M971.142,-978.839C994.26,-996.57 1018.91,-1020.11 1033.09,-1047.56 1082.92,-1144.02 1059.09,-1181.88 1059.09,-1290.45 1059.09,-2340 1059.09,-2340 1059.09,-2340 1059.09,-2433.2 1045.4,-2539.63 1034.45,-2609.81"/>
<polygon fill="black" stroke="black" points="1030.96,-2609.47 1032.85,-2619.9 1037.87,-2610.57 1030.96,-2609.47"/>
</g>
<!-- 14&#45;&gt;1 -->
<g id="edge59" class="edge"><title>14&#45;&gt;1</title>
<path fill="none" stroke="black" d="M964.379,-988.321C979.476,-1005.25 994.18,-1025.72 1002.09,-1047.56 1091.78,-1295.09 983.092,-1376.35 983.092,-1639.63 983.092,-2165.41 983.092,-2165.41 983.092,-2165.41 983.092,-2259.48 964.538,-2366.38 949.813,-2436.4"/>
<polygon fill="black" stroke="black" points="946.33,-2435.95 947.671,-2446.46 953.177,-2437.41 946.33,-2435.95"/>
</g>
<!-- 14&#45;&gt;14 -->
<g id="edge56" class="edge"><title>14&#45;&gt;14</title>
<path fill="none" stroke="black" d="M973.416,-974.438C987.973,-972.188 998.853,-961.462 998.853,-942.261 998.853,-927.71 992.605,-918.027 983.243,-913.21"/>
<polygon fill="black" stroke="black" points="984.007,-909.781 973.416,-910.084 981.885,-916.451 984.007,-909.781"/>
</g>
<!-- 19 -->
<g id="node20" class="node"><title>19</title>
<ellipse fill="none" stroke="black" cx="653.092" cy="-767.668" rx="65.5227" ry="69.0935"/>
<text text-anchor="middle" x="653.092" y="-801.468" font-family="Times New Roman,serif" font-size="14.00">State 19</text>
<text text-anchor="middle" x="653.092" y="-786.468" font-family="Times New Roman,serif" font-size="14.00">Inflow 0 +</text>
<text text-anchor="middle" x="653.092" y="-771.468" font-family="Times New Roman,serif" font-size="14.00">Volume + &#45;+</text>
<text text-anchor="middle" x="653.092" y="-756.468" font-family="Times New Roman,serif" font-size="14.00">Outflow + &#45;+</text>
<text text-anchor="middle" x="653.092" y="-741.468" font-family="Times New Roman,serif" font-size="14.00">Pressure + &#45;+</text>
<text text-anchor="middle" x="653.092" y="-726.468" font-family="Times New Roman,serif" font-size="14.00">Height + &#45;+</text>
</g>
<!-- 14&#45;&gt;19 -->
<g id="edge58" class="edge"><title>14&#45;&gt;19</title>
<path fill="none" stroke="black" d="M859.528,-904.659C817.845,-877.2 760.704,-839.558 717.106,-810.837"/>
<polygon fill="black" stroke="black" points="718.851,-807.796 708.575,-805.218 715.001,-813.642 718.851,-807.796"/>
</g>
<!-- 15&#45;&gt;12 -->
<g id="edge60" class="edge"><title>15&#45;&gt;12</title>
<path fill="none" stroke="black" d="M742.349,-1222.23C741.756,-1213.7 741.145,-1204.92 740.542,-1196.25"/>
<polygon fill="black" stroke="black" points="744.025,-1195.87 739.839,-1186.14 737.041,-1196.36 744.025,-1195.87"/>
</g>
<!-- 16&#45;&gt;13 -->
<g id="edge61" class="edge"><title>16&#45;&gt;13</title>
<path fill="none" stroke="black" d="M491.47,-873.082C487.594,-785.426 492.432,-631.679 560.092,-523.779 573.679,-502.11 592.922,-482.054 611.684,-465.437"/>
<polygon fill="black" stroke="black" points="614.121,-467.957 619.396,-458.769 609.542,-462.662 614.121,-467.957"/>
</g>
<!-- 17&#45;&gt;14 -->
<g id="edge62" class="edge"><title>17&#45;&gt;14</title>
<path fill="none" stroke="black" d="M915.092,-1047.14C915.092,-1038.86 915.092,-1030.34 915.092,-1021.93"/>
<polygon fill="black" stroke="black" points="918.592,-1021.73 915.092,-1011.73 911.592,-1021.73 918.592,-1021.73"/>
</g>
<!-- 18&#45;&gt;4 -->
<g id="edge64" class="edge"><title>18&#45;&gt;4</title>
<path fill="none" stroke="black" d="M597.693,-650.403C589.632,-665.385 582.279,-681.978 578.092,-698.372 562.847,-758.052 573.011,-775.578 578.092,-836.965 579.43,-853.13 582.124,-856.864 584.092,-872.965 597.227,-980.446 603.092,-1007.57 603.092,-1115.85 603.092,-1641.63 603.092,-1641.63 603.092,-1641.63 603.092,-1750.11 610.695,-1780.75 579.092,-1884.52 575.069,-1897.73 569.3,-1911.19 562.978,-1923.86"/>
<polygon fill="black" stroke="black" points="559.773,-1922.44 558.295,-1932.93 565.993,-1925.65 559.773,-1922.44"/>
</g>
<!-- 18&#45;&gt;7 -->
<g id="edge66" class="edge"><title>18&#45;&gt;7</title>
<path fill="none" stroke="black" d="M611.89,-527.955C607.223,-514.705 602.424,-500.815 598.092,-487.779 577.751,-426.577 586.217,-405.671 555.092,-349.186 545.26,-331.344 532.055,-313.775 518.832,-298.291"/>
<polygon fill="black" stroke="black" points="521.147,-295.621 511.933,-290.393 515.876,-300.227 521.147,-295.621"/>
</g>
<!-- 18&#45;&gt;13 -->
<g id="edge65" class="edge"><title>18&#45;&gt;13</title>
<path fill="none" stroke="black" d="M643.494,-523.862C645.495,-514.11 647.687,-504.035 649.953,-494.167"/>
<polygon fill="black" stroke="black" points="653.371,-494.921 652.239,-484.387 646.555,-493.327 653.371,-494.921"/>
</g>
<!-- 18&#45;&gt;18 -->
<g id="edge63" class="edge"><title>18&#45;&gt;18</title>
<path fill="none" stroke="black" d="M693.416,-625.252C707.973,-623.002 718.853,-612.276 718.853,-593.075 718.853,-578.524 712.605,-568.841 703.243,-564.025"/>
<polygon fill="black" stroke="black" points="704.007,-560.595 693.416,-560.898 701.885,-567.265 704.007,-560.595"/>
</g>
<!-- 19&#45;&gt;4 -->
<g id="edge68" class="edge"><title>19&#45;&gt;4</title>
<path fill="none" stroke="black" d="M649.328,-837.154C645.809,-907.164 641.092,-1019.05 641.092,-1115.85 641.092,-1641.63 641.092,-1641.63 641.092,-1641.63 641.092,-1750.11 660.928,-1785.3 617.092,-1884.52 608.203,-1904.64 593.902,-1923.54 579.108,-1939.57"/>
<polygon fill="black" stroke="black" points="576.197,-1937.55 571.828,-1947.2 581.262,-1942.38 576.197,-1937.55"/>
</g>
<!-- 19&#45;&gt;18 -->
<g id="edge67" class="edge"><title>19&#45;&gt;18</title>
<path fill="none" stroke="black" d="M645.978,-698.455C645.081,-689.854 644.157,-681.002 643.246,-672.262"/>
<polygon fill="black" stroke="black" points="646.702,-671.659 642.184,-662.076 639.74,-672.385 646.702,-671.659"/>
</g>
</g>
</svg>
