<?xml version="1.0" encoding="UTF-8" standalone="no"?>
<!DOCTYPE svg PUBLIC "-//W3C//DTD SVG 1.1//EN"
 "http://www.w3.org/Graphics/SVG/1.1/DTD/svg11.dtd">
<!-- Generated by graphviz version 2.38.0 (20140413.2041)
 -->
<!-- Title: %3 Pages: 1 -->
<svg width="1083pt" height="2765pt"
 viewBox="0.00 0.00 1082.90 2765.49" xmlns="http://www.w3.org/2000/svg" xmlns:xlink="http://www.w3.org/1999/xlink">
<g id="graph0" class="graph" transform="scale(1 1) rotate(0) translate(4 2761.49)">
<title>%3</title>
<polygon fill="white" stroke="none" points="-4,4 -4,-2761.49 1078.9,-2761.49 1078.9,4 -4,4"/>
<!-- 0 -->
<g id="node1" class="node"><title>0</title>
<ellipse fill="none" stroke="black" cx="996.092" cy="-2688.19" rx="60.623" ry="69.0935"/>
<text text-anchor="middle" x="996.092" y="-2721.99" font-family="Times New Roman,serif" font-size="14.00">State 0</text>
<text text-anchor="middle" x="996.092" y="-2706.99" font-family="Times New Roman,serif" font-size="14.00">Inflow 0 0</text>
<text text-anchor="middle" x="996.092" y="-2691.99" font-family="Times New Roman,serif" font-size="14.00">Volume 0 0</text>
<text text-anchor="middle" x="996.092" y="-2676.99" font-family="Times New Roman,serif" font-size="14.00">Outflow 0 0</text>
<text text-anchor="middle" x="996.092" y="-2661.99" font-family="Times New Roman,serif" font-size="14.00">Pressure 0 0</text>
<text text-anchor="middle" x="996.092" y="-2646.99" font-family="Times New Roman,serif" font-size="14.00">Height 0 0</text>
</g>
<!-- 0&#45;&gt;0 -->
<g id="edge1" class="edge"><title>0&#45;&gt;0</title>
<path fill="none" stroke="black" d="M1050.24,-2720.48C1064.3,-2718.49 1074.9,-2707.73 1074.9,-2688.19 1074.9,-2673.53 1068.94,-2663.82 1060.03,-2659.04"/>
<polygon fill="black" stroke="black" points="1060.83,-2655.62 1050.24,-2655.9 1058.7,-2662.29 1060.83,-2655.62"/>
</g>
<!-- 1 -->
<g id="node2" class="node"><title>1</title>
<ellipse fill="none" stroke="black" cx="907.092" cy="-2513.6" rx="60.623" ry="69.0935"/>
<text text-anchor="middle" x="907.092" y="-2547.4" font-family="Times New Roman,serif" font-size="14.00">State 1</text>
<text text-anchor="middle" x="907.092" y="-2532.4" font-family="Times New Roman,serif" font-size="14.00">Inflow 0 +</text>
<text text-anchor="middle" x="907.092" y="-2517.4" font-family="Times New Roman,serif" font-size="14.00">Volume 0 0</text>
<text text-anchor="middle" x="907.092" y="-2502.4" font-family="Times New Roman,serif" font-size="14.00">Outflow 0 0</text>
<text text-anchor="middle" x="907.092" y="-2487.4" font-family="Times New Roman,serif" font-size="14.00">Pressure 0 0</text>
<text text-anchor="middle" x="907.092" y="-2472.4" font-family="Times New Roman,serif" font-size="14.00">Height 0 0</text>
</g>
<!-- 0&#45;&gt;1 -->
<g id="edge2" class="edge"><title>0&#45;&gt;1</title>
<path fill="none" stroke="black" d="M965.463,-2627.79C958.009,-2613.34 949.979,-2597.77 942.33,-2582.93"/>
<polygon fill="black" stroke="black" points="945.32,-2581.09 937.626,-2573.81 939.099,-2584.3 945.32,-2581.09"/>
</g>
<!-- 2 -->
<g id="node3" class="node"><title>2</title>
<ellipse fill="none" stroke="black" cx="591.092" cy="-2339" rx="61.5366" ry="69.0935"/>
<text text-anchor="middle" x="591.092" y="-2372.8" font-family="Times New Roman,serif" font-size="14.00">State 2</text>
<text text-anchor="middle" x="591.092" y="-2357.8" font-family="Times New Roman,serif" font-size="14.00">Inflow + +</text>
<text text-anchor="middle" x="591.092" y="-2342.8" font-family="Times New Roman,serif" font-size="14.00">Volume 0 +</text>
<text text-anchor="middle" x="591.092" y="-2327.8" font-family="Times New Roman,serif" font-size="14.00">Outflow 0 +</text>
<text text-anchor="middle" x="591.092" y="-2312.8" font-family="Times New Roman,serif" font-size="14.00">Pressure 0 +</text>
<text text-anchor="middle" x="591.092" y="-2297.8" font-family="Times New Roman,serif" font-size="14.00">Height 0 +</text>
</g>
<!-- 1&#45;&gt;2 -->
<g id="edge3" class="edge"><title>1&#45;&gt;2</title>
<path fill="none" stroke="black" d="M852.409,-2482.73C797.579,-2452.78 713.188,-2406.69 655.23,-2375.04"/>
<polygon fill="black" stroke="black" points="656.618,-2371.81 646.164,-2370.08 653.262,-2377.95 656.618,-2371.81"/>
</g>
<!-- 3 -->
<g id="node4" class="node"><title>3</title>
<ellipse fill="none" stroke="black" cx="352.092" cy="-2164.41" rx="62.8651" ry="69.0935"/>
<text text-anchor="middle" x="352.092" y="-2198.21" font-family="Times New Roman,serif" font-size="14.00">State 3</text>
<text text-anchor="middle" x="352.092" y="-2183.21" font-family="Times New Roman,serif" font-size="14.00">Inflow + +</text>
<text text-anchor="middle" x="352.092" y="-2168.21" font-family="Times New Roman,serif" font-size="14.00">Volume + +</text>
<text text-anchor="middle" x="352.092" y="-2153.21" font-family="Times New Roman,serif" font-size="14.00">Outflow + +</text>
<text text-anchor="middle" x="352.092" y="-2138.21" font-family="Times New Roman,serif" font-size="14.00">Pressure + +</text>
<text text-anchor="middle" x="352.092" y="-2123.21" font-family="Times New Roman,serif" font-size="14.00">Height + +</text>
</g>
<!-- 2&#45;&gt;3 -->
<g id="edge4" class="edge"><title>2&#45;&gt;3</title>
<path fill="none" stroke="black" d="M539.527,-2300.77C502.246,-2273.84 451.755,-2237.38 412.571,-2209.09"/>
<polygon fill="black" stroke="black" points="414.546,-2206.2 404.39,-2203.18 410.448,-2211.87 414.546,-2206.2"/>
</g>
<!-- 3&#45;&gt;3 -->
<g id="edge5" class="edge"><title>3&#45;&gt;3</title>
<path fill="none" stroke="black" d="M408.073,-2196.65C422.325,-2194.53 433.024,-2183.78 433.024,-2164.41 433.024,-2149.73 426.88,-2140.01 417.701,-2135.23"/>
<polygon fill="black" stroke="black" points="418.663,-2131.87 408.073,-2132.18 416.545,-2138.54 418.663,-2131.87"/>
</g>
<!-- 4 -->
<g id="node5" class="node"><title>4</title>
<ellipse fill="none" stroke="black" cx="523.092" cy="-1989.82" rx="61.5366" ry="69.0935"/>
<text text-anchor="middle" x="523.092" y="-2023.62" font-family="Times New Roman,serif" font-size="14.00">State 4</text>
<text text-anchor="middle" x="523.092" y="-2008.62" font-family="Times New Roman,serif" font-size="14.00">Inflow + +</text>
<text text-anchor="middle" x="523.092" y="-1993.62" font-family="Times New Roman,serif" font-size="14.00">Volume + 0</text>
<text text-anchor="middle" x="523.092" y="-1978.62" font-family="Times New Roman,serif" font-size="14.00">Outflow + 0</text>
<text text-anchor="middle" x="523.092" y="-1963.62" font-family="Times New Roman,serif" font-size="14.00">Pressure + 0</text>
<text text-anchor="middle" x="523.092" y="-1948.62" font-family="Times New Roman,serif" font-size="14.00">Height + 0</text>
</g>
<!-- 3&#45;&gt;4 -->
<g id="edge6" class="edge"><title>3&#45;&gt;4</title>
<path fill="none" stroke="black" d="M395.366,-2113.49C417.404,-2090.48 444.387,-2063.25 467.894,-2040.3"/>
<polygon fill="black" stroke="black" points="470.34,-2042.81 475.069,-2033.32 465.46,-2037.79 470.34,-2042.81"/>
</g>
<!-- 5 -->
<g id="node6" class="node"><title>5</title>
<ellipse fill="none" stroke="black" cx="350.092" cy="-1116.85" rx="73.5782" ry="69.0935"/>
<text text-anchor="middle" x="350.092" y="-1150.65" font-family="Times New Roman,serif" font-size="14.00">State 5</text>
<text text-anchor="middle" x="350.092" y="-1135.65" font-family="Times New Roman,serif" font-size="14.00">Inflow + +</text>
<text text-anchor="middle" x="350.092" y="-1120.65" font-family="Times New Roman,serif" font-size="14.00">Volume Max 0</text>
<text text-anchor="middle" x="350.092" y="-1105.65" font-family="Times New Roman,serif" font-size="14.00">Outflow Max 0</text>
<text text-anchor="middle" x="350.092" y="-1090.65" font-family="Times New Roman,serif" font-size="14.00">Pressure Max 0</text>
<text text-anchor="middle" x="350.092" y="-1075.65" font-family="Times New Roman,serif" font-size="14.00">Height Max 0</text>
</g>
<!-- 3&#45;&gt;5 -->
<g id="edge7" class="edge"><title>3&#45;&gt;5</title>
<path fill="none" stroke="black" d="M295.41,-2134C205.212,-2082.67 39.0917,-1967.58 39.0917,-1816.23 39.0917,-1816.23 39.0917,-1816.23 39.0917,-1639.63 39.0917,-1445.57 199.784,-1260.9 290.152,-1172.39"/>
<polygon fill="black" stroke="black" points="292.601,-1174.89 297.335,-1165.41 287.723,-1169.87 292.601,-1174.89"/>
</g>
<!-- 6 -->
<g id="node7" class="node"><title>6</title>
<ellipse fill="none" stroke="black" cx="282.092" cy="-1815.23" rx="62.8651" ry="69.0935"/>
<text text-anchor="middle" x="282.092" y="-1849.03" font-family="Times New Roman,serif" font-size="14.00">State 6</text>
<text text-anchor="middle" x="282.092" y="-1834.03" font-family="Times New Roman,serif" font-size="14.00">Inflow + 0</text>
<text text-anchor="middle" x="282.092" y="-1819.03" font-family="Times New Roman,serif" font-size="14.00">Volume + +</text>
<text text-anchor="middle" x="282.092" y="-1804.03" font-family="Times New Roman,serif" font-size="14.00">Outflow + +</text>
<text text-anchor="middle" x="282.092" y="-1789.03" font-family="Times New Roman,serif" font-size="14.00">Pressure + +</text>
<text text-anchor="middle" x="282.092" y="-1774.03" font-family="Times New Roman,serif" font-size="14.00">Height + +</text>
</g>
<!-- 3&#45;&gt;6 -->
<g id="edge8" class="edge"><title>3&#45;&gt;6</title>
<path fill="none" stroke="black" d="M333.514,-2098.11C320.18,-2040.24 303.013,-1955.64 292.077,-1894.23"/>
<polygon fill="black" stroke="black" points="295.492,-1893.44 290.31,-1884.2 288.598,-1894.66 295.492,-1893.44"/>
</g>
<!-- 7 -->
<g id="node8" class="node"><title>7</title>
<ellipse fill="none" stroke="black" cx="473.092" cy="-243.889" rx="61.5366" ry="69.0935"/>
<text text-anchor="middle" x="473.092" y="-277.689" font-family="Times New Roman,serif" font-size="14.00">State 7</text>
<text text-anchor="middle" x="473.092" y="-262.689" font-family="Times New Roman,serif" font-size="14.00">Inflow + 0</text>
<text text-anchor="middle" x="473.092" y="-247.689" font-family="Times New Roman,serif" font-size="14.00">Volume + 0</text>
<text text-anchor="middle" x="473.092" y="-232.689" font-family="Times New Roman,serif" font-size="14.00">Outflow + 0</text>
<text text-anchor="middle" x="473.092" y="-217.689" font-family="Times New Roman,serif" font-size="14.00">Pressure + 0</text>
<text text-anchor="middle" x="473.092" y="-202.689" font-family="Times New Roman,serif" font-size="14.00">Height + 0</text>
</g>
<!-- 3&#45;&gt;7 -->
<g id="edge9" class="edge"><title>3&#45;&gt;7</title>
<path fill="none" stroke="black" d="M289.167,-2157.84C223.126,-2148.6 120.896,-2124.06 62.0917,-2059.12 -12.6133,-1976.61 1.09171,-1927.53 1.09171,-1816.23 1.09171,-1816.23 1.09171,-1816.23 1.09171,-1639.63 1.09171,-1135.32 65.7219,-1007.87 207.092,-523.779 229.86,-445.812 206.251,-409.1 261.092,-349.186 289.623,-318.015 310.966,-331.409 349.092,-313.186 369.096,-303.624 390.4,-292.32 409.603,-281.69"/>
<polygon fill="black" stroke="black" points="411.525,-284.625 418.556,-276.699 408.117,-278.511 411.525,-284.625"/>
</g>
<!-- 8 -->
<g id="node9" class="node"><title>8</title>
<ellipse fill="none" stroke="black" cx="369.092" cy="-1291.45" rx="73.5782" ry="69.0935"/>
<text text-anchor="middle" x="369.092" y="-1325.25" font-family="Times New Roman,serif" font-size="14.00">State 8</text>
<text text-anchor="middle" x="369.092" y="-1310.25" font-family="Times New Roman,serif" font-size="14.00">Inflow + 0</text>
<text text-anchor="middle" x="369.092" y="-1295.25" font-family="Times New Roman,serif" font-size="14.00">Volume Max 0</text>
<text text-anchor="middle" x="369.092" y="-1280.25" font-family="Times New Roman,serif" font-size="14.00">Outflow Max 0</text>
<text text-anchor="middle" x="369.092" y="-1265.25" font-family="Times New Roman,serif" font-size="14.00">Pressure Max 0</text>
<text text-anchor="middle" x="369.092" y="-1250.25" font-family="Times New Roman,serif" font-size="14.00">Height Max 0</text>
</g>
<!-- 3&#45;&gt;8 -->
<g id="edge10" class="edge"><title>3&#45;&gt;8</title>
<path fill="none" stroke="black" d="M358.345,-2095.29C363.195,-2038.87 369.512,-1956.56 372.092,-1884.52 377.648,-1729.36 365.775,-1690.55 362.092,-1535.34 360.63,-1473.76 360.028,-1458.31 362.092,-1396.74 362.374,-1388.33 362.783,-1379.55 363.264,-1370.8"/>
<polygon fill="black" stroke="black" points="366.772,-1370.76 363.859,-1360.58 359.784,-1370.36 366.772,-1370.76"/>
</g>
<!-- 4&#45;&gt;3 -->
<g id="edge11" class="edge"><title>4&#45;&gt;3</title>
<path fill="none" stroke="black" d="M480.444,-2040.09C458.493,-2063.02 431.513,-2090.26 407.934,-2113.3"/>
<polygon fill="black" stroke="black" points="405.461,-2110.82 400.735,-2120.3 410.343,-2115.84 405.461,-2110.82"/>
</g>
<!-- 4&#45;&gt;6 -->
<g id="edge12" class="edge"><title>4&#45;&gt;6</title>
<path fill="none" stroke="black" d="M469.974,-1954.72C431.772,-1928.4 380.337,-1891.7 340.904,-1862.69"/>
<polygon fill="black" stroke="black" points="342.806,-1859.74 332.681,-1856.62 338.65,-1865.37 342.806,-1859.74"/>
</g>
<!-- 5&#45;&gt;5 -->
<g id="edge13" class="edge"><title>5&#45;&gt;5</title>
<path fill="none" stroke="black" d="M415.507,-1148.76C430.567,-1146.01 441.631,-1135.38 441.631,-1116.85 441.631,-1102.53 435.013,-1092.92 425.045,-1088.03"/>
<polygon fill="black" stroke="black" points="426.098,-1084.69 415.507,-1084.95 423.945,-1091.35 426.098,-1084.69"/>
</g>
<!-- 5&#45;&gt;8 -->
<g id="edge14" class="edge"><title>5&#45;&gt;8</title>
<path fill="none" stroke="black" d="M364.073,-1184.92C365.18,-1193.7 366.22,-1202.75 367.15,-1211.7"/>
<polygon fill="black" stroke="black" points="363.676,-1212.13 368.152,-1221.74 370.641,-1211.44 363.676,-1212.13"/>
</g>
<!-- 6&#45;&gt;3 -->
<g id="edge18" class="edge"><title>6&#45;&gt;3</title>
<path fill="none" stroke="black" d="M300.656,-1881.47C314.006,-1939.4 331.205,-2024.16 342.143,-2085.61"/>
<polygon fill="black" stroke="black" points="338.729,-2086.4 343.91,-2095.65 345.623,-2085.19 338.729,-2086.4"/>
</g>
<!-- 6&#45;&gt;4 -->
<g id="edge19" class="edge"><title>6&#45;&gt;4</title>
<path fill="none" stroke="black" d="M336.424,-1851.16C374.775,-1877.61 426.005,-1914.18 465.133,-1942.98"/>
<polygon fill="black" stroke="black" points="463.166,-1945.88 473.29,-1949.01 467.323,-1940.25 463.166,-1945.88"/>
</g>
<!-- 6&#45;&gt;5 -->
<g id="edge20" class="edge"><title>6&#45;&gt;5</title>
<path fill="none" stroke="black" d="M228.462,-1778.53C206.645,-1760.77 183.836,-1737.25 172.092,-1709.93 147.765,-1653.34 162.121,-1632.12 172.092,-1571.34 188.08,-1473.87 212.677,-1454.72 243.092,-1360.74 262.951,-1299.38 259.464,-1280.89 286.092,-1222.15 291.774,-1209.62 298.678,-1196.75 305.822,-1184.52"/>
<polygon fill="black" stroke="black" points="308.941,-1186.12 311.052,-1175.74 302.927,-1182.54 308.941,-1186.12"/>
</g>
<!-- 6&#45;&gt;6 -->
<g id="edge15" class="edge"><title>6&#45;&gt;6</title>
<path fill="none" stroke="black" d="M338.073,-1847.46C352.325,-1845.34 363.024,-1834.6 363.024,-1815.23 363.024,-1800.55 356.88,-1790.82 347.701,-1786.05"/>
<polygon fill="black" stroke="black" points="348.663,-1782.68 338.073,-1782.99 346.545,-1789.35 348.663,-1782.68"/>
</g>
<!-- 6&#45;&gt;7 -->
<g id="edge16" class="edge"><title>6&#45;&gt;7</title>
<path fill="none" stroke="black" d="M226.806,-1782.08C200.933,-1764.15 172.128,-1739.46 155.092,-1709.93 100.424,-1615.16 115.092,-1576.44 115.092,-1467.04 115.092,-1467.04 115.092,-1467.04 115.092,-1290.45 115.092,-1075.79 208.824,-524.919 332.092,-349.186 351.893,-320.957 381.766,-297.294 408.927,-279.681"/>
<polygon fill="black" stroke="black" points="411.051,-282.479 417.634,-274.177 407.311,-276.562 411.051,-282.479"/>
</g>
<!-- 6&#45;&gt;8 -->
<g id="edge17" class="edge"><title>6&#45;&gt;8</title>
<path fill="none" stroke="black" d="M316.503,-1757.01C323.75,-1742.18 330.335,-1725.88 334.092,-1709.93 348.21,-1649.97 338.339,-1632.79 334.092,-1571.34 332.978,-1555.22 330.205,-1551.45 329.092,-1535.34 324.845,-1473.89 317.876,-1457.31 329.092,-1396.74 331.025,-1386.3 333.96,-1375.56 337.381,-1365.12"/>
<polygon fill="black" stroke="black" points="340.701,-1366.23 340.644,-1355.64 334.081,-1363.95 340.701,-1366.23"/>
</g>
<!-- 9 -->
<g id="node10" class="node"><title>9</title>
<ellipse fill="none" stroke="black" cx="244.092" cy="-1640.63" rx="62.8651" ry="69.0935"/>
<text text-anchor="middle" x="244.092" y="-1674.43" font-family="Times New Roman,serif" font-size="14.00">State 9</text>
<text text-anchor="middle" x="244.092" y="-1659.43" font-family="Times New Roman,serif" font-size="14.00">Inflow + &#45;</text>
<text text-anchor="middle" x="244.092" y="-1644.43" font-family="Times New Roman,serif" font-size="14.00">Volume + +</text>
<text text-anchor="middle" x="244.092" y="-1629.43" font-family="Times New Roman,serif" font-size="14.00">Outflow + +</text>
<text text-anchor="middle" x="244.092" y="-1614.43" font-family="Times New Roman,serif" font-size="14.00">Pressure + +</text>
<text text-anchor="middle" x="244.092" y="-1599.43" font-family="Times New Roman,serif" font-size="14.00">Height + +</text>
</g>
<!-- 6&#45;&gt;9 -->
<g id="edge21" class="edge"><title>6&#45;&gt;9</title>
<path fill="none" stroke="black" d="M261.274,-1749.47C258.933,-1739.64 256.628,-1729.41 254.481,-1719.34"/>
<polygon fill="black" stroke="black" points="257.864,-1718.42 252.392,-1709.35 251.012,-1719.85 257.864,-1718.42"/>
</g>
<!-- 10 -->
<g id="node11" class="node"><title>10</title>
<ellipse fill="none" stroke="black" cx="667.092" cy="-69.2965" rx="61.5366" ry="69.0935"/>
<text text-anchor="middle" x="667.092" y="-103.096" font-family="Times New Roman,serif" font-size="14.00">State 10</text>
<text text-anchor="middle" x="667.092" y="-88.0965" font-family="Times New Roman,serif" font-size="14.00">Inflow + &#45;</text>
<text text-anchor="middle" x="667.092" y="-73.0965" font-family="Times New Roman,serif" font-size="14.00">Volume + 0</text>
<text text-anchor="middle" x="667.092" y="-58.0965" font-family="Times New Roman,serif" font-size="14.00">Outflow + 0</text>
<text text-anchor="middle" x="667.092" y="-43.0965" font-family="Times New Roman,serif" font-size="14.00">Pressure + 0</text>
<text text-anchor="middle" x="667.092" y="-28.0965" font-family="Times New Roman,serif" font-size="14.00">Height + 0</text>
</g>
<!-- 6&#45;&gt;10 -->
<g id="edge22" class="edge"><title>6&#45;&gt;10</title>
<path fill="none" stroke="black" d="M222.153,-1793.5C183.741,-1777 136.326,-1749.94 110.092,-1709.93 50.3548,-1618.82 77.0917,-1575.98 77.0917,-1467.04 77.0917,-1467.04 77.0917,-1467.04 77.0917,-417.482 77.0917,-179.221 438.906,-101.215 595.861,-78.5843"/>
<polygon fill="black" stroke="black" points="596.483,-82.0315 605.898,-77.1727 595.508,-75.0997 596.483,-82.0315"/>
</g>
<!-- 11 -->
<g id="node12" class="node"><title>11</title>
<ellipse fill="none" stroke="black" cx="445.092" cy="-1466.04" rx="73.5782" ry="69.0935"/>
<text text-anchor="middle" x="445.092" y="-1499.84" font-family="Times New Roman,serif" font-size="14.00">State 11</text>
<text text-anchor="middle" x="445.092" y="-1484.84" font-family="Times New Roman,serif" font-size="14.00">Inflow + &#45;</text>
<text text-anchor="middle" x="445.092" y="-1469.84" font-family="Times New Roman,serif" font-size="14.00">Volume Max 0</text>
<text text-anchor="middle" x="445.092" y="-1454.84" font-family="Times New Roman,serif" font-size="14.00">Outflow Max 0</text>
<text text-anchor="middle" x="445.092" y="-1439.84" font-family="Times New Roman,serif" font-size="14.00">Pressure Max 0</text>
<text text-anchor="middle" x="445.092" y="-1424.84" font-family="Times New Roman,serif" font-size="14.00">Height Max 0</text>
</g>
<!-- 6&#45;&gt;11 -->
<g id="edge23" class="edge"><title>6&#45;&gt;11</title>
<path fill="none" stroke="black" d="M327.221,-1766.55C341.462,-1749.64 356.283,-1729.84 367.092,-1709.93 395.455,-1657.67 415.521,-1593.43 428.192,-1544.14"/>
<polygon fill="black" stroke="black" points="431.653,-1544.72 430.706,-1534.17 424.866,-1543.01 431.653,-1544.72"/>
</g>
<!-- 7&#45;&gt;4 -->
<g id="edge25" class="edge"><title>7&#45;&gt;4</title>
<path fill="none" stroke="black" d="M452.689,-309.419C432.66,-378.582 405.092,-491.96 405.092,-592.075 405.092,-768.668 405.092,-768.668 405.092,-768.668 405.092,-876.949 385.868,-910.248 424.092,-1011.56 431.152,-1030.27 442.31,-1029.59 451.092,-1047.56 521.71,-1192.06 524.793,-1237.33 546.092,-1396.74 554.249,-1457.8 547.652,-1473.76 546.092,-1535.34 542.755,-1666.99 533.978,-1819.94 528.283,-1910.32"/>
<polygon fill="black" stroke="black" points="524.778,-1910.28 527.639,-1920.48 531.764,-1910.73 524.778,-1910.28"/>
</g>
<!-- 7&#45;&gt;7 -->
<g id="edge24" class="edge"><title>7&#45;&gt;7</title>
<path fill="none" stroke="black" d="M527.725,-276.178C541.912,-274.193 552.61,-263.43 552.61,-243.889 552.61,-229.081 546.467,-219.314 537.317,-214.588"/>
<polygon fill="black" stroke="black" points="538.314,-211.232 527.725,-211.601 536.232,-217.916 538.314,-211.232"/>
</g>
<!-- 7&#45;&gt;10 -->
<g id="edge26" class="edge"><title>7&#45;&gt;10</title>
<path fill="none" stroke="black" d="M521.047,-200.226C548.445,-175.851 582.927,-145.174 611.505,-119.749"/>
<polygon fill="black" stroke="black" points="613.871,-122.329 619.016,-113.067 609.218,-117.099 613.871,-122.329"/>
</g>
<!-- 8&#45;&gt;5 -->
<g id="edge28" class="edge"><title>8&#45;&gt;5</title>
<path fill="none" stroke="black" d="M355.09,-1223.22C353.982,-1214.42 352.941,-1205.34 352.01,-1196.37"/>
<polygon fill="black" stroke="black" points="355.482,-1195.92 351.008,-1186.32 348.517,-1196.61 355.482,-1195.92"/>
</g>
<!-- 8&#45;&gt;8 -->
<g id="edge27" class="edge"><title>8&#45;&gt;8</title>
<path fill="none" stroke="black" d="M434.507,-1323.35C449.567,-1320.6 460.631,-1309.97 460.631,-1291.45 460.631,-1277.12 454.013,-1267.51 444.045,-1262.62"/>
<polygon fill="black" stroke="black" points="445.098,-1259.29 434.507,-1259.54 442.945,-1265.95 445.098,-1259.29"/>
</g>
<!-- 8&#45;&gt;11 -->
<g id="edge29" class="edge"><title>8&#45;&gt;11</title>
<path fill="none" stroke="black" d="M402.471,-1353.52C407.987,-1365.46 413.627,-1378.12 418.938,-1390.44"/>
<polygon fill="black" stroke="black" points="415.783,-1391.97 422.928,-1399.79 422.221,-1389.22 415.783,-1391.97"/>
</g>
<!-- 9&#45;&gt;6 -->
<g id="edge33" class="edge"><title>9&#45;&gt;6</title>
<path fill="none" stroke="black" d="M264.895,-1706.33C267.24,-1716.17 269.549,-1726.41 271.699,-1736.5"/>
<polygon fill="black" stroke="black" points="268.319,-1737.44 273.791,-1746.51 275.171,-1736 268.319,-1737.44"/>
</g>
<!-- 9&#45;&gt;7 -->
<g id="edge34" class="edge"><title>9&#45;&gt;7</title>
<path fill="none" stroke="black" d="M245.751,-1571.31C247.009,-1522.63 248.893,-1455.66 251.092,-1396.74 268.608,-927.35 199.128,-777.89 391.092,-349.186 398.835,-331.892 410.07,-314.943 421.752,-299.902"/>
<polygon fill="black" stroke="black" points="424.757,-301.749 428.269,-291.753 419.29,-297.377 424.757,-301.749"/>
</g>
<!-- 9&#45;&gt;8 -->
<g id="edge35" class="edge"><title>9&#45;&gt;8</title>
<path fill="none" stroke="black" d="M249.039,-1571.48C254.607,-1521.39 266.366,-1452.61 291.092,-1396.74 297.684,-1381.85 306.744,-1367.07 316.36,-1353.54"/>
<polygon fill="black" stroke="black" points="319.323,-1355.41 322.402,-1345.28 313.673,-1351.28 319.323,-1355.41"/>
</g>
<!-- 9&#45;&gt;9 -->
<g id="edge30" class="edge"><title>9&#45;&gt;9</title>
<path fill="none" stroke="black" d="M300.073,-1672.87C314.325,-1670.75 325.024,-1660 325.024,-1640.63 325.024,-1625.95 318.88,-1616.23 309.701,-1611.46"/>
<polygon fill="black" stroke="black" points="310.663,-1608.09 300.073,-1608.4 308.545,-1614.76 310.663,-1608.09"/>
</g>
<!-- 9&#45;&gt;10 -->
<g id="edge31" class="edge"><title>9&#45;&gt;10</title>
<path fill="none" stroke="black" d="M233.345,-1572.16C207.38,-1397.62 147.611,-917.391 207.092,-523.779 233.651,-348.021 258.798,-279.774 402.092,-174.593 461.123,-131.263 540.549,-103.16 597.013,-87.1683"/>
<polygon fill="black" stroke="black" points="598.225,-90.4642 606.925,-84.4181 596.354,-83.719 598.225,-90.4642"/>
</g>
<!-- 9&#45;&gt;11 -->
<g id="edge32" class="edge"><title>9&#45;&gt;11</title>
<path fill="none" stroke="black" d="M293.519,-1597.19C320.729,-1573.83 354.741,-1544.62 383.647,-1519.8"/>
<polygon fill="black" stroke="black" points="385.959,-1522.43 391.266,-1513.26 381.399,-1517.12 385.959,-1522.43"/>
</g>
<!-- 12 -->
<g id="node13" class="node"><title>12</title>
<ellipse fill="none" stroke="black" cx="729.092" cy="-1116.85" rx="60.2083" ry="69.0935"/>
<text text-anchor="middle" x="729.092" y="-1150.65" font-family="Times New Roman,serif" font-size="14.00">State 12</text>
<text text-anchor="middle" x="729.092" y="-1135.65" font-family="Times New Roman,serif" font-size="14.00">Inflow + &#45;</text>
<text text-anchor="middle" x="729.092" y="-1120.65" font-family="Times New Roman,serif" font-size="14.00">Volume + &#45;</text>
<text text-anchor="middle" x="729.092" y="-1105.65" font-family="Times New Roman,serif" font-size="14.00">Outflow + &#45;</text>
<text text-anchor="middle" x="729.092" y="-1090.65" font-family="Times New Roman,serif" font-size="14.00">Pressure + &#45;</text>
<text text-anchor="middle" x="729.092" y="-1075.65" font-family="Times New Roman,serif" font-size="14.00">Height + &#45;</text>
</g>
<!-- 10&#45;&gt;12 -->
<g id="edge36" class="edge"><title>10&#45;&gt;12</title>
<path fill="none" stroke="black" d="M707.107,-122.334C749.228,-188.245 809.092,-306.623 809.092,-417.482 809.092,-768.668 809.092,-768.668 809.092,-768.668 809.092,-877.611 802.222,-905.795 776.092,-1011.56 773.101,-1023.66 769.194,-1036.31 764.881,-1048.46"/>
<polygon fill="black" stroke="black" points="761.513,-1047.47 761.344,-1058.07 768.082,-1049.89 761.513,-1047.47"/>
</g>
<!-- 13 -->
<g id="node14" class="node"><title>13</title>
<ellipse fill="none" stroke="black" cx="667.092" cy="-418.482" rx="60.2083" ry="69.0935"/>
<text text-anchor="middle" x="667.092" y="-452.282" font-family="Times New Roman,serif" font-size="14.00">State 13</text>
<text text-anchor="middle" x="667.092" y="-437.282" font-family="Times New Roman,serif" font-size="14.00">Inflow + 0</text>
<text text-anchor="middle" x="667.092" y="-422.282" font-family="Times New Roman,serif" font-size="14.00">Volume + &#45;</text>
<text text-anchor="middle" x="667.092" y="-407.282" font-family="Times New Roman,serif" font-size="14.00">Outflow + &#45;</text>
<text text-anchor="middle" x="667.092" y="-392.282" font-family="Times New Roman,serif" font-size="14.00">Pressure + &#45;</text>
<text text-anchor="middle" x="667.092" y="-377.282" font-family="Times New Roman,serif" font-size="14.00">Height + &#45;</text>
</g>
<!-- 10&#45;&gt;13 -->
<g id="edge37" class="edge"><title>10&#45;&gt;13</title>
<path fill="none" stroke="black" d="M672.58,-138.319C674.169,-195.958 674.257,-278.633 672.844,-339.051"/>
<polygon fill="black" stroke="black" points="669.339,-339.218 672.584,-349.304 676.337,-339.396 669.339,-339.218"/>
</g>
<!-- 14 -->
<g id="node15" class="node"><title>14</title>
<ellipse fill="none" stroke="black" cx="897.092" cy="-942.261" rx="60.2083" ry="69.0935"/>
<text text-anchor="middle" x="897.092" y="-976.061" font-family="Times New Roman,serif" font-size="14.00">State 14</text>
<text text-anchor="middle" x="897.092" y="-961.061" font-family="Times New Roman,serif" font-size="14.00">Inflow 0 0</text>
<text text-anchor="middle" x="897.092" y="-946.061" font-family="Times New Roman,serif" font-size="14.00">Volume + &#45;</text>
<text text-anchor="middle" x="897.092" y="-931.061" font-family="Times New Roman,serif" font-size="14.00">Outflow + &#45;</text>
<text text-anchor="middle" x="897.092" y="-916.061" font-family="Times New Roman,serif" font-size="14.00">Pressure + &#45;</text>
<text text-anchor="middle" x="897.092" y="-901.061" font-family="Times New Roman,serif" font-size="14.00">Height + &#45;</text>
</g>
<!-- 10&#45;&gt;14 -->
<g id="edge38" class="edge"><title>10&#45;&gt;14</title>
<path fill="none" stroke="black" d="M724.59,-94.8542C758.429,-112.253 799.156,-138.866 823.092,-174.593 884.386,-266.084 872.092,-307.357 872.092,-417.482 872.092,-594.075 872.092,-594.075 872.092,-594.075 872.092,-686.809 881.075,-793.117 888.271,-863.405"/>
<polygon fill="black" stroke="black" points="884.806,-863.922 889.319,-873.508 891.769,-863.2 884.806,-863.922"/>
</g>
<!-- 11&#45;&gt;8 -->
<g id="edge41" class="edge"><title>11&#45;&gt;8</title>
<path fill="none" stroke="black" d="M411.815,-1404.19C406.277,-1392.2 400.611,-1379.5 395.276,-1367.11"/>
<polygon fill="black" stroke="black" points="398.413,-1365.55 391.268,-1357.73 391.975,-1368.3 398.413,-1365.55"/>
</g>
<!-- 11&#45;&gt;11 -->
<g id="edge39" class="edge"><title>11&#45;&gt;11</title>
<path fill="none" stroke="black" d="M510.507,-1497.95C525.567,-1495.2 536.631,-1484.56 536.631,-1466.04 536.631,-1451.71 530.013,-1442.11 520.045,-1437.22"/>
<polygon fill="black" stroke="black" points="521.098,-1433.88 510.507,-1434.13 518.945,-1440.54 521.098,-1433.88"/>
</g>
<!-- 15 -->
<g id="node16" class="node"><title>15</title>
<ellipse fill="none" stroke="black" cx="740.092" cy="-1291.45" rx="71.3357" ry="69.0935"/>
<text text-anchor="middle" x="740.092" y="-1325.25" font-family="Times New Roman,serif" font-size="14.00">State 15</text>
<text text-anchor="middle" x="740.092" y="-1310.25" font-family="Times New Roman,serif" font-size="14.00">Inflow + &#45;</text>
<text text-anchor="middle" x="740.092" y="-1295.25" font-family="Times New Roman,serif" font-size="14.00">Volume Max &#45;</text>
<text text-anchor="middle" x="740.092" y="-1280.25" font-family="Times New Roman,serif" font-size="14.00">Outflow Max &#45;</text>
<text text-anchor="middle" x="740.092" y="-1265.25" font-family="Times New Roman,serif" font-size="14.00">Pressure Max &#45;</text>
<text text-anchor="middle" x="740.092" y="-1250.25" font-family="Times New Roman,serif" font-size="14.00">Height Max &#45;</text>
</g>
<!-- 11&#45;&gt;15 -->
<g id="edge40" class="edge"><title>11&#45;&gt;15</title>
<path fill="none" stroke="black" d="M507.293,-1428.65C555.054,-1400.71 620.994,-1362.13 670.505,-1333.16"/>
<polygon fill="black" stroke="black" points="672.374,-1336.12 679.238,-1328.05 668.84,-1330.08 672.374,-1336.12"/>
</g>
<!-- 16 -->
<g id="node17" class="node"><title>16</title>
<ellipse fill="none" stroke="black" cx="504.092" cy="-942.261" rx="71.3357" ry="69.0935"/>
<text text-anchor="middle" x="504.092" y="-976.061" font-family="Times New Roman,serif" font-size="14.00">State 16</text>
<text text-anchor="middle" x="504.092" y="-961.061" font-family="Times New Roman,serif" font-size="14.00">Inflow + 0</text>
<text text-anchor="middle" x="504.092" y="-946.061" font-family="Times New Roman,serif" font-size="14.00">Volume Max &#45;</text>
<text text-anchor="middle" x="504.092" y="-931.061" font-family="Times New Roman,serif" font-size="14.00">Outflow Max &#45;</text>
<text text-anchor="middle" x="504.092" y="-916.061" font-family="Times New Roman,serif" font-size="14.00">Pressure Max &#45;</text>
<text text-anchor="middle" x="504.092" y="-901.061" font-family="Times New Roman,serif" font-size="14.00">Height Max &#45;</text>
</g>
<!-- 11&#45;&gt;16 -->
<g id="edge42" class="edge"><title>11&#45;&gt;16</title>
<path fill="none" stroke="black" d="M462.636,-1398.58C465.476,-1386.08 468.126,-1373.06 470.092,-1360.74 488.814,-1243.43 497.487,-1105.84 501.312,-1021.62"/>
<polygon fill="black" stroke="black" points="504.809,-1021.76 501.755,-1011.62 497.816,-1021.45 504.809,-1021.76"/>
</g>
<!-- 17 -->
<g id="node18" class="node"><title>17</title>
<ellipse fill="none" stroke="black" cx="897.092" cy="-1116.85" rx="71.3357" ry="69.0935"/>
<text text-anchor="middle" x="897.092" y="-1150.65" font-family="Times New Roman,serif" font-size="14.00">State 17</text>
<text text-anchor="middle" x="897.092" y="-1135.65" font-family="Times New Roman,serif" font-size="14.00">Inflow 0 0</text>
<text text-anchor="middle" x="897.092" y="-1120.65" font-family="Times New Roman,serif" font-size="14.00">Volume Max &#45;</text>
<text text-anchor="middle" x="897.092" y="-1105.65" font-family="Times New Roman,serif" font-size="14.00">Outflow Max &#45;</text>
<text text-anchor="middle" x="897.092" y="-1090.65" font-family="Times New Roman,serif" font-size="14.00">Pressure Max &#45;</text>
<text text-anchor="middle" x="897.092" y="-1075.65" font-family="Times New Roman,serif" font-size="14.00">Height Max &#45;</text>
</g>
<!-- 11&#45;&gt;17 -->
<g id="edge43" class="edge"><title>11&#45;&gt;17</title>
<path fill="none" stroke="black" d="M518.976,-1464.46C602.831,-1459.79 738.517,-1439.45 820.092,-1360.74 864.503,-1317.89 883.377,-1249.61 891.358,-1196.34"/>
<polygon fill="black" stroke="black" points="894.852,-1196.63 892.769,-1186.24 887.919,-1195.66 894.852,-1196.63"/>
</g>
<!-- 12&#45;&gt;0 -->
<g id="edge49" class="edge"><title>12&#45;&gt;0</title>
<path fill="none" stroke="black" d="M774.17,-1163.1C790.026,-1180.58 807.109,-1201.36 820.092,-1222.15 926.744,-1392.95 996.092,-1438.27 996.092,-1639.63 996.092,-2340 996.092,-2340 996.092,-2340 996.092,-2432.21 996.092,-2538.19 996.092,-2608.56"/>
<polygon fill="black" stroke="black" points="992.592,-2608.68 996.092,-2618.68 999.592,-2608.68 992.592,-2608.68"/>
</g>
<!-- 12&#45;&gt;7 -->
<g id="edge47" class="edge"><title>12&#45;&gt;7</title>
<path fill="none" stroke="black" d="M692.747,-1061.42C658.046,-1006.91 606.901,-919.488 578.092,-836.965 516.134,-659.49 489.388,-438.754 478.972,-323.42"/>
<polygon fill="black" stroke="black" points="482.442,-322.921 478.073,-313.269 475.469,-323.539 482.442,-322.921"/>
</g>
<!-- 12&#45;&gt;10 -->
<g id="edge45" class="edge"><title>12&#45;&gt;10</title>
<path fill="none" stroke="black" d="M746.556,-1050.31C750.794,-1037.6 754.949,-1024.28 758.092,-1011.56 784.222,-905.795 791.092,-877.611 791.092,-768.668 791.092,-768.668 791.092,-768.668 791.092,-417.482 791.092,-314.939 739.872,-205.961 703.154,-138.026"/>
<polygon fill="black" stroke="black" points="706.163,-136.232 698.302,-129.128 700.017,-139.583 706.163,-136.232"/>
</g>
<!-- 12&#45;&gt;12 -->
<g id="edge44" class="edge"><title>12&#45;&gt;12</title>
<path fill="none" stroke="black" d="M782.389,-1149.19C796.505,-1147.34 807.196,-1136.56 807.196,-1116.85 807.196,-1102.07 801.182,-1092.31 792.22,-1087.58"/>
<polygon fill="black" stroke="black" points="792.978,-1084.15 782.389,-1084.52 790.897,-1090.83 792.978,-1084.15"/>
</g>
<!-- 12&#45;&gt;13 -->
<g id="edge46" class="edge"><title>12&#45;&gt;13</title>
<path fill="none" stroke="black" d="M731.074,-1047.22C737.994,-935.694 750.563,-708.954 707.092,-523.779 704.51,-512.782 700.684,-501.563 696.384,-490.754"/>
<polygon fill="black" stroke="black" points="699.561,-489.279 692.503,-481.377 693.093,-491.956 699.561,-489.279"/>
</g>
<!-- 12&#45;&gt;14 -->
<g id="edge48" class="edge"><title>12&#45;&gt;14</title>
<path fill="none" stroke="black" d="M773.672,-1070.06C795.783,-1047.34 822.609,-1019.78 845.594,-996.166"/>
<polygon fill="black" stroke="black" points="848.128,-998.581 852.595,-988.974 843.112,-993.699 848.128,-998.581"/>
</g>
<!-- 13&#45;&gt;4 -->
<g id="edge53" class="edge"><title>13&#45;&gt;4</title>
<path fill="none" stroke="black" d="M724.688,-438.308C836.502,-478.888 1072.09,-585.843 1072.09,-766.668 1072.09,-1292.45 1072.09,-1292.45 1072.09,-1292.45 1072.09,-1603.65 729.79,-1857.57 585.764,-1950.64"/>
<polygon fill="black" stroke="black" points="583.51,-1947.93 576.983,-1956.28 587.29,-1953.82 583.51,-1947.93"/>
</g>
<!-- 13&#45;&gt;7 -->
<g id="edge51" class="edge"><title>13&#45;&gt;7</title>
<path fill="none" stroke="black" d="M620.705,-374.279C611.595,-365.905 602.077,-357.234 593.092,-349.186 572.49,-330.733 549.632,-310.748 529.44,-293.256"/>
<polygon fill="black" stroke="black" points="531.694,-290.578 521.842,-286.683 527.114,-295.872 531.694,-290.578"/>
</g>
<!-- 13&#45;&gt;10 -->
<g id="edge55" class="edge"><title>13&#45;&gt;10</title>
<path fill="none" stroke="black" d="M661.599,-349.304C660.013,-291.62 659.927,-208.942 661.343,-148.565"/>
<polygon fill="black" stroke="black" points="664.848,-148.405 661.604,-138.319 657.85,-148.227 664.848,-148.405"/>
</g>
<!-- 13&#45;&gt;12 -->
<g id="edge54" class="edge"><title>13&#45;&gt;12</title>
<path fill="none" stroke="black" d="M705.6,-472.06C713.699,-488.156 720.977,-506.25 725.092,-523.779 767.517,-704.5 756.566,-924.812 743.268,-1038.98"/>
<polygon fill="black" stroke="black" points="739.779,-1038.67 742.059,-1049.02 746.729,-1039.51 739.779,-1038.67"/>
</g>
<!-- 13&#45;&gt;13 -->
<g id="edge50" class="edge"><title>13&#45;&gt;13</title>
<path fill="none" stroke="black" d="M720.389,-450.821C734.505,-448.973 745.196,-438.193 745.196,-418.482 745.196,-403.699 739.182,-393.94 730.22,-389.205"/>
<polygon fill="black" stroke="black" points="730.978,-385.775 720.389,-386.144 728.897,-392.458 730.978,-385.775"/>
</g>
<!-- 18 -->
<g id="node19" class="node"><title>18</title>
<ellipse fill="none" stroke="black" cx="629.092" cy="-593.075" rx="60.2083" ry="69.0935"/>
<text text-anchor="middle" x="629.092" y="-626.875" font-family="Times New Roman,serif" font-size="14.00">State 18</text>
<text text-anchor="middle" x="629.092" y="-611.875" font-family="Times New Roman,serif" font-size="14.00">Inflow + +</text>
<text text-anchor="middle" x="629.092" y="-596.875" font-family="Times New Roman,serif" font-size="14.00">Volume + &#45;</text>
<text text-anchor="middle" x="629.092" y="-581.875" font-family="Times New Roman,serif" font-size="14.00">Outflow + &#45;</text>
<text text-anchor="middle" x="629.092" y="-566.875" font-family="Times New Roman,serif" font-size="14.00">Pressure + &#45;</text>
<text text-anchor="middle" x="629.092" y="-551.875" font-family="Times New Roman,serif" font-size="14.00">Height + &#45;</text>
</g>
<!-- 13&#45;&gt;18 -->
<g id="edge52" class="edge"><title>13&#45;&gt;18</title>
<path fill="none" stroke="black" d="M658.777,-487.27C656.727,-497.279 654.473,-507.638 652.143,-517.771"/>
<polygon fill="black" stroke="black" points="648.665,-517.273 649.792,-527.808 655.481,-518.87 648.665,-517.273"/>
</g>
<!-- 14&#45;&gt;0 -->
<g id="edge57" class="edge"><title>14&#45;&gt;0</title>
<path fill="none" stroke="black" d="M948.466,-978.898C970.258,-996.865 993.678,-1020.58 1007.09,-1047.56 1055.44,-1144.82 1034.09,-1181.83 1034.09,-1290.45 1034.09,-2340 1034.09,-2340 1034.09,-2340 1034.09,-2433.2 1020.4,-2539.63 1009.45,-2609.81"/>
<polygon fill="black" stroke="black" points="1005.96,-2609.47 1007.85,-2619.9 1012.87,-2610.57 1005.96,-2609.47"/>
</g>
<!-- 14&#45;&gt;1 -->
<g id="edge59" class="edge"><title>14&#45;&gt;1</title>
<path fill="none" stroke="black" d="M942.049,-988.431C956.085,-1005.51 969.795,-1026.06 977.092,-1047.56 1061.7,-1296.87 958.092,-1376.35 958.092,-1639.63 958.092,-2165.41 958.092,-2165.41 958.092,-2165.41 958.092,-2259.48 939.538,-2366.38 924.813,-2436.4"/>
<polygon fill="black" stroke="black" points="921.33,-2435.95 922.671,-2446.46 928.177,-2437.41 921.33,-2435.95"/>
</g>
<!-- 14&#45;&gt;14 -->
<g id="edge56" class="edge"><title>14&#45;&gt;14</title>
<path fill="none" stroke="black" d="M950.389,-974.599C964.505,-972.751 975.196,-961.972 975.196,-942.261 975.196,-927.478 969.182,-917.719 960.22,-912.983"/>
<polygon fill="black" stroke="black" points="960.978,-909.554 950.389,-909.923 958.897,-916.237 960.978,-909.554"/>
</g>
<!-- 19 -->
<g id="node20" class="node"><title>19</title>
<ellipse fill="none" stroke="black" cx="647.092" cy="-767.668" rx="60.2083" ry="69.0935"/>
<text text-anchor="middle" x="647.092" y="-801.468" font-family="Times New Roman,serif" font-size="14.00">State 19</text>
<text text-anchor="middle" x="647.092" y="-786.468" font-family="Times New Roman,serif" font-size="14.00">Inflow 0 +</text>
<text text-anchor="middle" x="647.092" y="-771.468" font-family="Times New Roman,serif" font-size="14.00">Volume + &#45;</text>
<text text-anchor="middle" x="647.092" y="-756.468" font-family="Times New Roman,serif" font-size="14.00">Outflow + &#45;</text>
<text text-anchor="middle" x="647.092" y="-741.468" font-family="Times New Roman,serif" font-size="14.00">Pressure + &#45;</text>
<text text-anchor="middle" x="647.092" y="-726.468" font-family="Times New Roman,serif" font-size="14.00">Height + &#45;</text>
</g>
<!-- 14&#45;&gt;19 -->
<g id="edge58" class="edge"><title>14&#45;&gt;19</title>
<path fill="none" stroke="black" d="M845.897,-905.918C805.586,-878.088 749.32,-839.243 706.931,-809.979"/>
<polygon fill="black" stroke="black" points="708.865,-807.061 698.647,-804.26 704.888,-812.822 708.865,-807.061"/>
</g>
<!-- 15&#45;&gt;12 -->
<g id="edge60" class="edge"><title>15&#45;&gt;12</title>
<path fill="none" stroke="black" d="M735.744,-1222.23C735.2,-1213.7 734.641,-1204.92 734.088,-1196.25"/>
<polygon fill="black" stroke="black" points="737.573,-1195.89 733.444,-1186.14 730.587,-1196.34 737.573,-1195.89"/>
</g>
<!-- 16&#45;&gt;13 -->
<g id="edge61" class="edge"><title>16&#45;&gt;13</title>
<path fill="none" stroke="black" d="M497.248,-872.907C491.873,-785.406 494.158,-632.18 560.092,-523.779 573.244,-502.156 591.912,-481.866 609.982,-465.034"/>
<polygon fill="black" stroke="black" points="612.63,-467.356 617.671,-458.038 607.919,-462.178 612.63,-467.356"/>
</g>
<!-- 17&#45;&gt;14 -->
<g id="edge62" class="edge"><title>17&#45;&gt;14</title>
<path fill="none" stroke="black" d="M897.092,-1047.14C897.092,-1038.86 897.092,-1030.34 897.092,-1021.93"/>
<polygon fill="black" stroke="black" points="900.592,-1021.73 897.092,-1011.73 893.592,-1021.73 900.592,-1021.73"/>
</g>
<!-- 18&#45;&gt;4 -->
<g id="edge64" class="edge"><title>18&#45;&gt;4</title>
<path fill="none" stroke="black" d="M595.602,-650.808C588.39,-665.782 581.818,-682.269 578.092,-698.372 564.205,-758.383 573.011,-775.578 578.092,-836.965 579.43,-853.13 582.124,-856.864 584.092,-872.965 597.227,-980.446 603.092,-1007.57 603.092,-1115.85 603.092,-1641.63 603.092,-1641.63 603.092,-1641.63 603.092,-1750.11 610.695,-1780.75 579.092,-1884.52 575.069,-1897.73 569.3,-1911.19 562.978,-1923.86"/>
<polygon fill="black" stroke="black" points="559.773,-1922.44 558.295,-1932.93 565.993,-1925.65 559.773,-1922.44"/>
</g>
<!-- 18&#45;&gt;7 -->
<g id="edge66" class="edge"><title>18&#45;&gt;7</title>
<path fill="none" stroke="black" d="M609.725,-527.474C588.526,-456.918 557.236,-353.295 555.092,-349.186 546.415,-332.56 534.962,-315.959 523.378,-301.05"/>
<polygon fill="black" stroke="black" points="525.905,-298.605 516.945,-292.951 520.424,-302.959 525.905,-298.605"/>
</g>
<!-- 18&#45;&gt;13 -->
<g id="edge65" class="edge"><title>18&#45;&gt;13</title>
<path fill="none" stroke="black" d="M637.392,-524.357C639.473,-514.195 641.764,-503.671 644.132,-493.388"/>
<polygon fill="black" stroke="black" points="647.547,-494.156 646.422,-483.621 640.732,-492.558 647.547,-494.156"/>
</g>
<!-- 18&#45;&gt;18 -->
<g id="edge63" class="edge"><title>18&#45;&gt;18</title>
<path fill="none" stroke="black" d="M682.389,-625.414C696.505,-623.566 707.196,-612.786 707.196,-593.075 707.196,-578.292 701.182,-568.533 692.22,-563.798"/>
<polygon fill="black" stroke="black" points="692.978,-560.368 682.389,-560.737 690.897,-567.051 692.978,-560.368"/>
</g>
<!-- 19&#45;&gt;4 -->
<g id="edge68" class="edge"><title>19&#45;&gt;4</title>
<path fill="none" stroke="black" d="M645.21,-837.172C643.45,-907.196 641.092,-1019.1 641.092,-1115.85 641.092,-1641.63 641.092,-1641.63 641.092,-1641.63 641.092,-1750.11 660.928,-1785.3 617.092,-1884.52 608.203,-1904.64 593.902,-1923.54 579.108,-1939.57"/>
<polygon fill="black" stroke="black" points="576.197,-1937.55 571.828,-1947.2 581.262,-1942.38 576.197,-1937.55"/>
</g>
<!-- 19&#45;&gt;18 -->
<g id="edge67" class="edge"><title>19&#45;&gt;18</title>
<path fill="none" stroke="black" d="M639.978,-698.455C639.081,-689.854 638.157,-681.002 637.246,-672.262"/>
<polygon fill="black" stroke="black" points="640.702,-671.659 636.184,-662.076 633.74,-672.385 640.702,-671.659"/>
</g>
</g>
</svg>
