<?xml version="1.0" encoding="UTF-8" standalone="no"?>
<!DOCTYPE svg PUBLIC "-//W3C//DTD SVG 1.1//EN"
 "http://www.w3.org/Graphics/SVG/1.1/DTD/svg11.dtd">
<!-- Generated by graphviz version 2.38.0 (20140413.2041)
 -->
<!-- Title: %3 Pages: 1 -->
<svg width="1015pt" height="2351pt"
 viewBox="0.00 0.00 1015.20 2351.00" xmlns="http://www.w3.org/2000/svg" xmlns:xlink="http://www.w3.org/1999/xlink">
<g id="graph0" class="graph" transform="scale(1 1) rotate(0) translate(4 2347)">
<title>%3</title>
<polygon fill="white" stroke="none" points="-4,4 -4,-2347 1011.2,-2347 1011.2,4 -4,4"/>
<!-- 0 -->
<g id="node1" class="node"><title>0</title>
<ellipse fill="none" stroke="black" cx="875" cy="-2294.91" rx="58.8803" ry="48.1667"/>
<text text-anchor="middle" x="875" y="-2313.71" font-family="Times New Roman,serif" font-size="14.00">0</text>
<text text-anchor="middle" x="875" y="-2298.71" font-family="Times New Roman,serif" font-size="14.00">Inflow 0 0</text>
<text text-anchor="middle" x="875" y="-2283.71" font-family="Times New Roman,serif" font-size="14.00">Volume 0 0</text>
<text text-anchor="middle" x="875" y="-2268.71" font-family="Times New Roman,serif" font-size="14.00">Outflow 0 0</text>
</g>
<!-- 0&#45;&gt;0 -->
<g id="edge1" class="edge"><title>0&#45;&gt;0</title>
<path fill="none" stroke="black" d="M925.522,-2319.59C940.268,-2318.74 951.69,-2310.51 951.69,-2294.91 951.69,-2283.09 945.131,-2275.51 935.536,-2272.16"/>
<polygon fill="black" stroke="black" points="936.002,-2268.68 925.522,-2270.24 934.686,-2275.56 936.002,-2268.68"/>
</g>
<!-- 1 -->
<g id="node2" class="node"><title>1</title>
<ellipse fill="none" stroke="black" cx="875" cy="-2162.75" rx="58.8803" ry="48.1667"/>
<text text-anchor="middle" x="875" y="-2181.55" font-family="Times New Roman,serif" font-size="14.00">1</text>
<text text-anchor="middle" x="875" y="-2166.55" font-family="Times New Roman,serif" font-size="14.00">Inflow 0 1</text>
<text text-anchor="middle" x="875" y="-2151.55" font-family="Times New Roman,serif" font-size="14.00">Volume 0 0</text>
<text text-anchor="middle" x="875" y="-2136.55" font-family="Times New Roman,serif" font-size="14.00">Outflow 0 0</text>
</g>
<!-- 0&#45;&gt;1 -->
<g id="edge2" class="edge"><title>0&#45;&gt;1</title>
<path fill="none" stroke="black" d="M875,-2246.55C875,-2238.28 875,-2229.6 875,-2221.1"/>
<polygon fill="black" stroke="black" points="878.5,-2220.86 875,-2210.86 871.5,-2220.86 878.5,-2220.86"/>
</g>
<!-- 2 -->
<g id="node3" class="node"><title>2</title>
<ellipse fill="none" stroke="black" cx="486" cy="-2030.58" rx="58.8803" ry="48.1667"/>
<text text-anchor="middle" x="486" y="-2049.38" font-family="Times New Roman,serif" font-size="14.00">2</text>
<text text-anchor="middle" x="486" y="-2034.38" font-family="Times New Roman,serif" font-size="14.00">Inflow 1 1</text>
<text text-anchor="middle" x="486" y="-2019.38" font-family="Times New Roman,serif" font-size="14.00">Volume 0 1</text>
<text text-anchor="middle" x="486" y="-2004.38" font-family="Times New Roman,serif" font-size="14.00">Outflow 0 1</text>
</g>
<!-- 1&#45;&gt;2 -->
<g id="edge3" class="edge"><title>1&#45;&gt;2</title>
<path fill="none" stroke="black" d="M820.911,-2143.65C749.885,-2119.88 625.369,-2078.22 549.813,-2052.93"/>
<polygon fill="black" stroke="black" points="550.536,-2049.49 539.942,-2049.63 548.314,-2056.12 550.536,-2049.49"/>
</g>
<!-- 3 -->
<g id="node4" class="node"><title>3</title>
<ellipse fill="none" stroke="black" cx="253" cy="-1898.41" rx="58.8803" ry="48.1667"/>
<text text-anchor="middle" x="253" y="-1917.21" font-family="Times New Roman,serif" font-size="14.00">3</text>
<text text-anchor="middle" x="253" y="-1902.21" font-family="Times New Roman,serif" font-size="14.00">Inflow 1 1</text>
<text text-anchor="middle" x="253" y="-1887.21" font-family="Times New Roman,serif" font-size="14.00">Volume 1 1</text>
<text text-anchor="middle" x="253" y="-1872.21" font-family="Times New Roman,serif" font-size="14.00">Outflow 1 1</text>
</g>
<!-- 2&#45;&gt;3 -->
<g id="edge4" class="edge"><title>2&#45;&gt;3</title>
<path fill="none" stroke="black" d="M438.005,-2002.77C400.882,-1982.03 349.367,-1953.25 310.121,-1931.33"/>
<polygon fill="black" stroke="black" points="311.37,-1928.01 300.933,-1926.19 307.956,-1934.13 311.37,-1928.01"/>
</g>
<!-- 3&#45;&gt;3 -->
<g id="edge5" class="edge"><title>3&#45;&gt;3</title>
<path fill="none" stroke="black" d="M303.522,-1923.09C318.268,-1922.24 329.69,-1914.01 329.69,-1898.41 329.69,-1886.59 323.131,-1879.01 313.536,-1875.66"/>
<polygon fill="black" stroke="black" points="314.002,-1872.18 303.522,-1873.74 312.686,-1879.06 314.002,-1872.18"/>
</g>
<!-- 4 -->
<g id="node5" class="node"><title>4</title>
<ellipse fill="none" stroke="black" cx="253" cy="-1766.25" rx="58.8803" ry="48.1667"/>
<text text-anchor="middle" x="253" y="-1785.05" font-family="Times New Roman,serif" font-size="14.00">4</text>
<text text-anchor="middle" x="253" y="-1770.05" font-family="Times New Roman,serif" font-size="14.00">Inflow 1 1</text>
<text text-anchor="middle" x="253" y="-1755.05" font-family="Times New Roman,serif" font-size="14.00">Volume 1 0</text>
<text text-anchor="middle" x="253" y="-1740.05" font-family="Times New Roman,serif" font-size="14.00">Outflow 1 0</text>
</g>
<!-- 3&#45;&gt;4 -->
<g id="edge6" class="edge"><title>3&#45;&gt;4</title>
<path fill="none" stroke="black" d="M246.487,-1850.42C246.259,-1841.94 246.196,-1833.02 246.296,-1824.29"/>
<polygon fill="black" stroke="black" points="249.798,-1824.24 246.489,-1814.17 242.799,-1824.1 249.798,-1824.24"/>
</g>
<!-- 5 -->
<g id="node6" class="node"><title>5</title>
<ellipse fill="none" stroke="black" cx="275" cy="-180.25" rx="58.8803" ry="48.1667"/>
<text text-anchor="middle" x="275" y="-199.05" font-family="Times New Roman,serif" font-size="14.00">5</text>
<text text-anchor="middle" x="275" y="-184.05" font-family="Times New Roman,serif" font-size="14.00">Inflow 1 1</text>
<text text-anchor="middle" x="275" y="-169.05" font-family="Times New Roman,serif" font-size="14.00">Volume 2 0</text>
<text text-anchor="middle" x="275" y="-154.05" font-family="Times New Roman,serif" font-size="14.00">Outflow 2 0</text>
</g>
<!-- 3&#45;&gt;5 -->
<g id="edge7" class="edge"><title>3&#45;&gt;5</title>
<path fill="none" stroke="black" d="M200.275,-1876.86C169.012,-1862.74 130.131,-1841.63 102,-1814.33 36.2159,-1750.5 0,-1726.74 0,-1635.08 0,-1635.08 0,-1635.08 0,-1368.75 0,-1192.6 38,-1150.39 38,-974.249 38,-974.249 38,-974.249 38,-443.583 38,-337.046 146.955,-254.378 217.116,-212.189"/>
<polygon fill="black" stroke="black" points="219.067,-215.102 225.893,-207 215.504,-209.076 219.067,-215.102"/>
</g>
<!-- 6 -->
<g id="node7" class="node"><title>6</title>
<ellipse fill="none" stroke="black" cx="316" cy="-708.916" rx="58.8803" ry="48.1667"/>
<text text-anchor="middle" x="316" y="-727.716" font-family="Times New Roman,serif" font-size="14.00">6</text>
<text text-anchor="middle" x="316" y="-712.716" font-family="Times New Roman,serif" font-size="14.00">Inflow 1 0</text>
<text text-anchor="middle" x="316" y="-697.716" font-family="Times New Roman,serif" font-size="14.00">Volume 1 1</text>
<text text-anchor="middle" x="316" y="-682.716" font-family="Times New Roman,serif" font-size="14.00">Outflow 1 1</text>
</g>
<!-- 3&#45;&gt;6 -->
<g id="edge8" class="edge"><title>3&#45;&gt;6</title>
<path fill="none" stroke="black" d="M209.297,-1865.62C156.766,-1820.07 76,-1731.08 76,-1635.08 76,-1635.08 76,-1635.08 76,-972.249 76,-865.169 185.747,-781.071 256.897,-739.146"/>
<polygon fill="black" stroke="black" points="258.896,-742.033 265.803,-733.999 255.393,-735.972 258.896,-742.033"/>
</g>
<!-- 7 -->
<g id="node8" class="node"><title>7</title>
<ellipse fill="none" stroke="black" cx="413" cy="-973.249" rx="58.8803" ry="48.1667"/>
<text text-anchor="middle" x="413" y="-992.049" font-family="Times New Roman,serif" font-size="14.00">7</text>
<text text-anchor="middle" x="413" y="-977.049" font-family="Times New Roman,serif" font-size="14.00">Inflow 1 0</text>
<text text-anchor="middle" x="413" y="-962.049" font-family="Times New Roman,serif" font-size="14.00">Volume 1 0</text>
<text text-anchor="middle" x="413" y="-947.049" font-family="Times New Roman,serif" font-size="14.00">Outflow 1 0</text>
</g>
<!-- 3&#45;&gt;7 -->
<g id="edge9" class="edge"><title>3&#45;&gt;7</title>
<path fill="none" stroke="black" d="M310.066,-1886.71C419.565,-1863.28 648,-1796.07 648,-1635.08 648,-1635.08 648,-1635.08 648,-1368.75 648,-1288.12 656.593,-1261.35 620,-1189.5 582.676,-1116.21 511.108,-1052.6 462.613,-1013.92"/>
<polygon fill="black" stroke="black" points="464.754,-1011.15 454.739,-1007.69 460.412,-1016.64 464.754,-1011.15"/>
</g>
<!-- 8 -->
<g id="node9" class="node"><title>8</title>
<ellipse fill="none" stroke="black" cx="362" cy="-312.416" rx="58.8803" ry="48.1667"/>
<text text-anchor="middle" x="362" y="-331.216" font-family="Times New Roman,serif" font-size="14.00">8</text>
<text text-anchor="middle" x="362" y="-316.216" font-family="Times New Roman,serif" font-size="14.00">Inflow 1 0</text>
<text text-anchor="middle" x="362" y="-301.216" font-family="Times New Roman,serif" font-size="14.00">Volume 2 0</text>
<text text-anchor="middle" x="362" y="-286.216" font-family="Times New Roman,serif" font-size="14.00">Outflow 2 0</text>
</g>
<!-- 3&#45;&gt;8 -->
<g id="edge10" class="edge"><title>3&#45;&gt;8</title>
<path fill="none" stroke="black" d="M311.818,-1897.08C386.136,-1893.82 514.732,-1878.4 601,-1814.33 655.577,-1773.8 659.409,-1747.56 678,-1682.16 732.063,-1492.01 708.063,-981.971 650,-792.999 611.887,-668.957 621.643,-616.367 526,-528.666 491.8,-497.306 460.456,-525.827 428,-492.666 396.393,-460.373 410.678,-438.88 395,-396.5 391.567,-387.22 387.798,-377.41 384.072,-367.909"/>
<polygon fill="black" stroke="black" points="387.302,-366.559 380.375,-358.542 380.791,-369.129 387.302,-366.559"/>
</g>
<!-- 4&#45;&gt;3 -->
<g id="edge12" class="edge"><title>4&#45;&gt;3</title>
<path fill="none" stroke="black" d="M259.511,-1814.17C259.74,-1822.65 259.804,-1831.57 259.705,-1840.3"/>
<polygon fill="black" stroke="black" points="256.203,-1840.36 259.513,-1850.42 263.202,-1840.49 256.203,-1840.36"/>
</g>
<!-- 4&#45;&gt;4 -->
<g id="edge11" class="edge"><title>4&#45;&gt;4</title>
<path fill="none" stroke="black" d="M303.522,-1790.92C318.268,-1790.07 329.69,-1781.85 329.69,-1766.25 329.69,-1754.43 323.131,-1746.84 313.536,-1743.49"/>
<polygon fill="black" stroke="black" points="314.002,-1740.01 303.522,-1741.57 312.686,-1746.89 314.002,-1740.01"/>
</g>
<!-- 4&#45;&gt;6 -->
<g id="edge15" class="edge"><title>4&#45;&gt;6</title>
<path fill="none" stroke="black" d="M218.78,-1726.99C182.853,-1677.75 132,-1588.34 132,-1502.92 132,-1502.92 132,-1502.92 132,-1104.42 132,-968.337 220.079,-826.783 274.477,-756.013"/>
<polygon fill="black" stroke="black" points="277.541,-757.774 280.935,-747.738 272.023,-753.467 277.541,-757.774"/>
</g>
<!-- 4&#45;&gt;7 -->
<g id="edge14" class="edge"><title>4&#45;&gt;7</title>
<path fill="none" stroke="black" d="M231.241,-1721.3C212.117,-1669.68 188,-1581.15 188,-1502.92 188,-1502.92 188,-1502.92 188,-1236.58 188,-1155.95 166.894,-1121.29 216,-1057.33 246.912,-1017.07 301.514,-995.902 345.48,-985.037"/>
<polygon fill="black" stroke="black" points="346.321,-988.435 355.258,-982.745 344.723,-981.62 346.321,-988.435"/>
</g>
<!-- 9 -->
<g id="node10" class="node"><title>9</title>
<ellipse fill="none" stroke="black" cx="296" cy="-1105.42" rx="62.4516" ry="48.1667"/>
<text text-anchor="middle" x="296" y="-1124.22" font-family="Times New Roman,serif" font-size="14.00">9</text>
<text text-anchor="middle" x="296" y="-1109.22" font-family="Times New Roman,serif" font-size="14.00">Inflow 1 1</text>
<text text-anchor="middle" x="296" y="-1094.22" font-family="Times New Roman,serif" font-size="14.00">Volume 1 &#45;1</text>
<text text-anchor="middle" x="296" y="-1079.22" font-family="Times New Roman,serif" font-size="14.00">Outflow 1 &#45;1</text>
</g>
<!-- 4&#45;&gt;9 -->
<g id="edge13" class="edge"><title>4&#45;&gt;9</title>
<path fill="none" stroke="black" d="M246.432,-1718.33C244,-1665.85 244,-1578.29 244,-1502.92 244,-1502.92 244,-1502.92 244,-1368.75 244,-1296.34 260.15,-1214.16 274.727,-1161.37"/>
<polygon fill="black" stroke="black" points="278.153,-1162.12 277.521,-1151.54 271.42,-1160.21 278.153,-1162.12"/>
</g>
<!-- 10 -->
<g id="node11" class="node"><title>10</title>
<ellipse fill="none" stroke="black" cx="365" cy="-1634.08" rx="62.4516" ry="48.1667"/>
<text text-anchor="middle" x="365" y="-1652.88" font-family="Times New Roman,serif" font-size="14.00">10</text>
<text text-anchor="middle" x="365" y="-1637.88" font-family="Times New Roman,serif" font-size="14.00">Inflow 1 0</text>
<text text-anchor="middle" x="365" y="-1622.88" font-family="Times New Roman,serif" font-size="14.00">Volume 1 &#45;1</text>
<text text-anchor="middle" x="365" y="-1607.88" font-family="Times New Roman,serif" font-size="14.00">Outflow 1 &#45;1</text>
</g>
<!-- 4&#45;&gt;10 -->
<g id="edge16" class="edge"><title>4&#45;&gt;10</title>
<path fill="none" stroke="black" d="M282.109,-1724.06C293.599,-1710.11 307.023,-1694.46 319.704,-1680.22"/>
<polygon fill="black" stroke="black" points="322.582,-1682.25 326.656,-1672.47 317.372,-1677.57 322.582,-1682.25"/>
</g>
<!-- 5&#45;&gt;5 -->
<g id="edge17" class="edge"><title>5&#45;&gt;5</title>
<path fill="none" stroke="black" d="M325.522,-204.926C340.268,-204.073 351.69,-195.847 351.69,-180.25 351.69,-168.43 345.131,-160.843 335.536,-157.491"/>
<polygon fill="black" stroke="black" points="336.002,-154.017 325.522,-155.574 334.686,-160.892 336.002,-154.017"/>
</g>
<!-- 5&#45;&gt;8 -->
<g id="edge19" class="edge"><title>5&#45;&gt;8</title>
<path fill="none" stroke="black" d="M307.615,-220.681C316.163,-232.744 325.286,-246.208 333.597,-258.993"/>
<polygon fill="black" stroke="black" points="330.85,-261.193 339.204,-267.711 336.738,-257.407 330.85,-261.193"/>
</g>
<!-- 11 -->
<g id="node12" class="node"><title>11</title>
<ellipse fill="none" stroke="black" cx="231" cy="-48.0833" rx="62.4516" ry="48.1667"/>
<text text-anchor="middle" x="231" y="-66.8833" font-family="Times New Roman,serif" font-size="14.00">11</text>
<text text-anchor="middle" x="231" y="-51.8833" font-family="Times New Roman,serif" font-size="14.00">Inflow 1 1</text>
<text text-anchor="middle" x="231" y="-36.8833" font-family="Times New Roman,serif" font-size="14.00">Volume 2 &#45;1</text>
<text text-anchor="middle" x="231" y="-21.8833" font-family="Times New Roman,serif" font-size="14.00">Outflow 2 &#45;1</text>
</g>
<!-- 5&#45;&gt;11 -->
<g id="edge18" class="edge"><title>5&#45;&gt;11</title>
<path fill="none" stroke="black" d="M259.611,-133.724C256.414,-124.266 253.012,-114.202 249.711,-104.436"/>
<polygon fill="black" stroke="black" points="252.973,-103.156 246.455,-94.8035 246.341,-105.398 252.973,-103.156"/>
</g>
<!-- 12 -->
<g id="node13" class="node"><title>12</title>
<ellipse fill="none" stroke="black" cx="467" cy="-48.0833" rx="62.4516" ry="48.1667"/>
<text text-anchor="middle" x="467" y="-66.8833" font-family="Times New Roman,serif" font-size="14.00">12</text>
<text text-anchor="middle" x="467" y="-51.8833" font-family="Times New Roman,serif" font-size="14.00">Inflow 1 0</text>
<text text-anchor="middle" x="467" y="-36.8833" font-family="Times New Roman,serif" font-size="14.00">Volume 2 &#45;1</text>
<text text-anchor="middle" x="467" y="-21.8833" font-family="Times New Roman,serif" font-size="14.00">Outflow 2 &#45;1</text>
</g>
<!-- 5&#45;&gt;12 -->
<g id="edge20" class="edge"><title>5&#45;&gt;12</title>
<path fill="none" stroke="black" d="M320.015,-148.732C347.556,-130.06 382.983,-106.043 412.155,-86.2654"/>
<polygon fill="black" stroke="black" points="414.285,-89.0503 420.598,-80.5417 410.357,-83.2562 414.285,-89.0503"/>
</g>
<!-- 6&#45;&gt;3 -->
<g id="edge24" class="edge"><title>6&#45;&gt;3</title>
<path fill="none" stroke="black" d="M269.608,-738.757C204.428,-780.55 94,-864.838 94,-972.249 94,-1635.08 94,-1635.08 94,-1635.08 94,-1723.05 161.817,-1805.13 208.968,-1853.3"/>
<polygon fill="black" stroke="black" points="206.527,-1855.81 216.054,-1860.44 211.498,-1850.88 206.527,-1855.81"/>
</g>
<!-- 6&#45;&gt;4 -->
<g id="edge25" class="edge"><title>6&#45;&gt;4</title>
<path fill="none" stroke="black" d="M288.879,-751.851C241.638,-821.118 150,-965.615 150,-1104.42 150,-1502.92 150,-1502.92 150,-1502.92 150,-1580.93 192.416,-1662.27 222.945,-1713.3"/>
<polygon fill="black" stroke="black" points="220.132,-1715.42 228.303,-1722.16 226.121,-1711.79 220.132,-1715.42"/>
</g>
<!-- 6&#45;&gt;5 -->
<g id="edge26" class="edge"><title>6&#45;&gt;5</title>
<path fill="none" stroke="black" d="M312.325,-660.714C304.793,-563.954 287.624,-343.416 279.465,-238.611"/>
<polygon fill="black" stroke="black" points="282.947,-238.233 278.681,-228.535 275.968,-238.776 282.947,-238.233"/>
</g>
<!-- 6&#45;&gt;6 -->
<g id="edge21" class="edge"><title>6&#45;&gt;6</title>
<path fill="none" stroke="black" d="M366.522,-733.592C381.268,-732.739 392.69,-724.514 392.69,-708.916 392.69,-697.096 386.131,-689.509 376.536,-686.157"/>
<polygon fill="black" stroke="black" points="377.002,-682.683 366.522,-684.24 375.686,-689.558 377.002,-682.683"/>
</g>
<!-- 6&#45;&gt;7 -->
<g id="edge22" class="edge"><title>6&#45;&gt;7</title>
<path fill="none" stroke="black" d="M337.501,-754.002C355.905,-798.624 381.622,-867.769 397.94,-916.243"/>
<polygon fill="black" stroke="black" points="394.693,-917.571 401.173,-925.953 401.334,-915.359 394.693,-917.571"/>
</g>
<!-- 6&#45;&gt;8 -->
<g id="edge23" class="edge"><title>6&#45;&gt;8</title>
<path fill="none" stroke="black" d="M318.397,-660.645C320.483,-624.448 323.967,-573.313 329,-528.666 335.077,-474.757 344.71,-413.653 352.003,-370.358"/>
<polygon fill="black" stroke="black" points="355.487,-370.746 353.709,-360.301 348.586,-369.575 355.487,-370.746"/>
</g>
<!-- 13 -->
<g id="node14" class="node"><title>13</title>
<ellipse fill="none" stroke="black" cx="440" cy="-576.749" rx="58.8803" ry="48.1667"/>
<text text-anchor="middle" x="440" y="-595.549" font-family="Times New Roman,serif" font-size="14.00">13</text>
<text text-anchor="middle" x="440" y="-580.549" font-family="Times New Roman,serif" font-size="14.00">Inflow 1 &#45;1</text>
<text text-anchor="middle" x="440" y="-565.549" font-family="Times New Roman,serif" font-size="14.00">Volume 1 1</text>
<text text-anchor="middle" x="440" y="-550.549" font-family="Times New Roman,serif" font-size="14.00">Outflow 1 1</text>
</g>
<!-- 6&#45;&gt;13 -->
<g id="edge27" class="edge"><title>6&#45;&gt;13</title>
<path fill="none" stroke="black" d="M347.604,-668.154C361.45,-652.991 377.931,-635.655 393.14,-620.247"/>
<polygon fill="black" stroke="black" points="395.92,-622.416 400.488,-612.856 390.955,-617.481 395.92,-622.416"/>
</g>
<!-- 14 -->
<g id="node15" class="node"><title>14</title>
<ellipse fill="none" stroke="black" cx="564" cy="-841.082" rx="58.8803" ry="48.1667"/>
<text text-anchor="middle" x="564" y="-859.882" font-family="Times New Roman,serif" font-size="14.00">14</text>
<text text-anchor="middle" x="564" y="-844.882" font-family="Times New Roman,serif" font-size="14.00">Inflow 1 &#45;1</text>
<text text-anchor="middle" x="564" y="-829.882" font-family="Times New Roman,serif" font-size="14.00">Volume 1 0</text>
<text text-anchor="middle" x="564" y="-814.882" font-family="Times New Roman,serif" font-size="14.00">Outflow 1 0</text>
</g>
<!-- 6&#45;&gt;14 -->
<g id="edge28" class="edge"><title>6&#45;&gt;14</title>
<path fill="none" stroke="black" d="M366.687,-733.708C407.766,-754.409 465.489,-784.604 507.935,-807.54"/>
<polygon fill="black" stroke="black" points="506.289,-810.629 516.749,-812.318 509.625,-804.475 506.289,-810.629"/>
</g>
<!-- 15 -->
<g id="node16" class="node"><title>15</title>
<ellipse fill="none" stroke="black" cx="496" cy="-444.583" rx="58.8803" ry="48.1667"/>
<text text-anchor="middle" x="496" y="-463.383" font-family="Times New Roman,serif" font-size="14.00">15</text>
<text text-anchor="middle" x="496" y="-448.383" font-family="Times New Roman,serif" font-size="14.00">Inflow 1 &#45;1</text>
<text text-anchor="middle" x="496" y="-433.383" font-family="Times New Roman,serif" font-size="14.00">Volume 2 0</text>
<text text-anchor="middle" x="496" y="-418.383" font-family="Times New Roman,serif" font-size="14.00">Outflow 2 0</text>
</g>
<!-- 6&#45;&gt;15 -->
<g id="edge29" class="edge"><title>6&#45;&gt;15</title>
<path fill="none" stroke="black" d="M321.865,-660.934C328.63,-622.286 342.828,-567.714 372,-528.666 388.778,-506.208 413.519,-487.895 436.497,-474.233"/>
<polygon fill="black" stroke="black" points="438.275,-477.247 445.196,-469.226 434.784,-471.181 438.275,-477.247"/>
</g>
<!-- 7&#45;&gt;3 -->
<g id="edge34" class="edge"><title>7&#45;&gt;3</title>
<path fill="none" stroke="black" d="M460.429,-1002.36C513.375,-1039.08 596.676,-1108.36 638,-1189.5 674.593,-1261.35 666,-1288.12 666,-1368.75 666,-1635.08 666,-1635.08 666,-1635.08 666,-1795.98 437.82,-1863.2 320.609,-1886.68"/>
<polygon fill="black" stroke="black" points="319.797,-1883.27 310.652,-1888.62 321.137,-1890.14 319.797,-1883.27"/>
</g>
<!-- 7&#45;&gt;4 -->
<g id="edge33" class="edge"><title>7&#45;&gt;4</title>
<path fill="none" stroke="black" d="M356.259,-986.158C315.899,-997.335 263.882,-1018.42 234,-1057.33 184.894,-1121.29 206,-1155.95 206,-1236.58 206,-1502.92 206,-1502.92 206,-1502.92 206,-1575.1 226.532,-1656.05 240.733,-1708.69"/>
<polygon fill="black" stroke="black" points="237.399,-1709.76 243.393,-1718.5 244.155,-1707.93 237.399,-1709.76"/>
</g>
<!-- 7&#45;&gt;6 -->
<g id="edge31" class="edge"><title>7&#45;&gt;6</title>
<path fill="none" stroke="black" d="M391.573,-928.34C373.161,-883.719 347.392,-814.44 331.053,-765.9"/>
<polygon fill="black" stroke="black" points="334.296,-764.56 327.816,-756.178 327.654,-766.771 334.296,-764.56"/>
</g>
<!-- 7&#45;&gt;7 -->
<g id="edge30" class="edge"><title>7&#45;&gt;7</title>
<path fill="none" stroke="black" d="M463.522,-997.925C478.268,-997.072 489.69,-988.847 489.69,-973.249 489.69,-961.429 483.131,-953.842 473.536,-950.49"/>
<polygon fill="black" stroke="black" points="474.002,-947.016 463.522,-948.573 472.686,-953.891 474.002,-947.016"/>
</g>
<!-- 7&#45;&gt;9 -->
<g id="edge35" class="edge"><title>7&#45;&gt;9</title>
<path fill="none" stroke="black" d="M382.949,-1014.69C370.508,-1029.15 355.847,-1045.51 342.119,-1060.26"/>
<polygon fill="black" stroke="black" points="339.327,-1058.12 335.042,-1067.81 344.434,-1062.91 339.327,-1058.12"/>
</g>
<!-- 7&#45;&gt;10 -->
<g id="edge32" class="edge"><title>7&#45;&gt;10</title>
<path fill="none" stroke="black" d="M413.246,-1021.75C408.572,-1140.22 386.215,-1448.42 373.14,-1576.25"/>
<polygon fill="black" stroke="black" points="369.655,-1575.92 372.099,-1586.23 376.618,-1576.65 369.655,-1575.92"/>
</g>
<!-- 7&#45;&gt;13 -->
<g id="edge37" class="edge"><title>7&#45;&gt;13</title>
<path fill="none" stroke="black" d="M411.66,-925.055C413.852,-852.341 423.262,-713.142 431.172,-634.856"/>
<polygon fill="black" stroke="black" points="434.676,-634.999 432.227,-624.691 427.713,-634.276 434.676,-634.999"/>
</g>
<!-- 7&#45;&gt;14 -->
<g id="edge36" class="edge"><title>7&#45;&gt;14</title>
<path fill="none" stroke="black" d="M449.712,-935.297C468.81,-918.168 492.393,-897.821 513.199,-880.513"/>
<polygon fill="black" stroke="black" points="515.547,-883.113 521.022,-874.042 511.085,-877.719 515.547,-883.113"/>
</g>
<!-- 16 -->
<g id="node17" class="node"><title>16</title>
<ellipse fill="none" stroke="black" cx="802" cy="-1501.92" rx="62.4516" ry="48.1667"/>
<text text-anchor="middle" x="802" y="-1520.72" font-family="Times New Roman,serif" font-size="14.00">16</text>
<text text-anchor="middle" x="802" y="-1505.72" font-family="Times New Roman,serif" font-size="14.00">Inflow 1 &#45;1</text>
<text text-anchor="middle" x="802" y="-1490.72" font-family="Times New Roman,serif" font-size="14.00">Volume 1 &#45;1</text>
<text text-anchor="middle" x="802" y="-1475.72" font-family="Times New Roman,serif" font-size="14.00">Outflow 1 &#45;1</text>
</g>
<!-- 7&#45;&gt;16 -->
<g id="edge38" class="edge"><title>7&#45;&gt;16</title>
<path fill="none" stroke="black" d="M471.09,-980.172C524.724,-988.703 602.897,-1009.14 651,-1057.33 706.888,-1113.32 769.582,-1337.59 793.08,-1444.14"/>
<polygon fill="black" stroke="black" points="789.694,-1445.04 795.23,-1454.08 796.536,-1443.56 789.694,-1445.04"/>
</g>
<!-- 8&#45;&gt;5 -->
<g id="edge41" class="edge"><title>8&#45;&gt;5</title>
<path fill="none" stroke="black" d="M329.401,-272.009C320.872,-259.971 311.767,-246.538 303.469,-233.774"/>
<polygon fill="black" stroke="black" points="306.223,-231.586 297.869,-225.07 300.336,-235.374 306.223,-231.586"/>
</g>
<!-- 8&#45;&gt;8 -->
<g id="edge39" class="edge"><title>8&#45;&gt;8</title>
<path fill="none" stroke="black" d="M412.522,-337.092C427.268,-336.239 438.69,-328.014 438.69,-312.416 438.69,-300.596 432.131,-293.01 422.536,-289.657"/>
<polygon fill="black" stroke="black" points="423.002,-286.183 412.522,-287.74 421.686,-293.058 423.002,-286.183"/>
</g>
<!-- 8&#45;&gt;11 -->
<g id="edge42" class="edge"><title>8&#45;&gt;11</title>
<path fill="none" stroke="black" d="M373.355,-264.931C380.053,-226.834 383.387,-172.773 361,-132.167 346.834,-106.471 320.987,-87.5526 296.05,-74.3169"/>
<polygon fill="black" stroke="black" points="297.429,-71.0923 286.927,-69.6956 294.266,-77.3368 297.429,-71.0923"/>
</g>
<!-- 8&#45;&gt;12 -->
<g id="edge40" class="edge"><title>8&#45;&gt;12</title>
<path fill="none" stroke="black" d="M379.931,-266.618C397.997,-221.481 425.894,-151.782 445.222,-103.495"/>
<polygon fill="black" stroke="black" points="448.501,-104.721 448.967,-94.1362 442.002,-102.12 448.501,-104.721"/>
</g>
<!-- 8&#45;&gt;15 -->
<g id="edge43" class="edge"><title>8&#45;&gt;15</title>
<path fill="none" stroke="black" d="M402.923,-347.332C419.453,-362.624 438.448,-380.921 454.983,-397.436"/>
<polygon fill="black" stroke="black" points="452.855,-400.26 462.389,-404.881 457.818,-395.323 452.855,-400.26"/>
</g>
<!-- 17 -->
<g id="node18" class="node"><title>17</title>
<ellipse fill="none" stroke="black" cx="614" cy="-180.25" rx="62.4516" ry="48.1667"/>
<text text-anchor="middle" x="614" y="-199.05" font-family="Times New Roman,serif" font-size="14.00">17</text>
<text text-anchor="middle" x="614" y="-184.05" font-family="Times New Roman,serif" font-size="14.00">Inflow 1 &#45;1</text>
<text text-anchor="middle" x="614" y="-169.05" font-family="Times New Roman,serif" font-size="14.00">Volume 2 &#45;1</text>
<text text-anchor="middle" x="614" y="-154.05" font-family="Times New Roman,serif" font-size="14.00">Outflow 2 &#45;1</text>
</g>
<!-- 8&#45;&gt;17 -->
<g id="edge44" class="edge"><title>8&#45;&gt;17</title>
<path fill="none" stroke="black" d="M411.186,-286.01C451.972,-264.943 510.122,-234.906 553.707,-212.393"/>
<polygon fill="black" stroke="black" points="555.497,-215.408 562.775,-207.709 552.284,-209.189 555.497,-215.408"/>
</g>
<!-- 9&#45;&gt;4 -->
<g id="edge46" class="edge"><title>9&#45;&gt;4</title>
<path fill="none" stroke="black" d="M290.153,-1153.43C279.863,-1205.63 262,-1292.6 262,-1368.75 262,-1502.92 262,-1502.92 262,-1502.92 262,-1573.58 262,-1654.95 259.996,-1708.09"/>
<polygon fill="black" stroke="black" points="256.489,-1708.2 259.568,-1718.33 263.483,-1708.49 256.489,-1708.2"/>
</g>
<!-- 9&#45;&gt;7 -->
<g id="edge48" class="edge"><title>9&#45;&gt;7</title>
<path fill="none" stroke="black" d="M326.691,-1063.23C339.266,-1048.64 354.027,-1032.19 367.776,-1017.44"/>
<polygon fill="black" stroke="black" points="370.563,-1019.59 374.857,-1009.9 365.46,-1014.8 370.563,-1019.59"/>
</g>
<!-- 9&#45;&gt;9 -->
<g id="edge45" class="edge"><title>9&#45;&gt;9</title>
<path fill="none" stroke="black" d="M349.613,-1130.04C364.669,-1128.96 376.225,-1120.76 376.225,-1105.42 376.225,-1093.67 369.451,-1086.11 359.519,-1082.72"/>
<polygon fill="black" stroke="black" points="360.099,-1079.27 349.613,-1080.79 358.758,-1086.14 360.099,-1079.27"/>
</g>
<!-- 9&#45;&gt;10 -->
<g id="edge47" class="edge"><title>9&#45;&gt;10</title>
<path fill="none" stroke="black" d="M303.729,-1153.41C311.839,-1234.79 323.982,-1406.97 351,-1550 352.615,-1558.55 354.682,-1567.5 356.808,-1576.22"/>
<polygon fill="black" stroke="black" points="353.414,-1577.08 359.211,-1585.95 360.21,-1575.4 353.414,-1577.08"/>
</g>
<!-- 10&#45;&gt;4 -->
<g id="edge52" class="edge"><title>10&#45;&gt;4</title>
<path fill="none" stroke="black" d="M335.568,-1676.66C323.863,-1690.86 310.189,-1706.78 297.35,-1721.17"/>
<polygon fill="black" stroke="black" points="294.406,-1719.21 290.322,-1728.99 299.611,-1723.89 294.406,-1719.21"/>
</g>
<!-- 10&#45;&gt;7 -->
<g id="edge50" class="edge"><title>10&#45;&gt;7</title>
<path fill="none" stroke="black" d="M364.739,-1585.96C369.378,-1467.82 391.751,-1159.32 404.843,-1031.25"/>
<polygon fill="black" stroke="black" points="408.329,-1031.56 405.885,-1021.25 401.367,-1030.84 408.329,-1031.56"/>
</g>
<!-- 10&#45;&gt;9 -->
<g id="edge51" class="edge"><title>10&#45;&gt;9</title>
<path fill="none" stroke="black" d="M342.677,-1588.99C338.847,-1576.49 335.417,-1562.79 333,-1550 307.098,-1412.88 294.868,-1248.97 293.037,-1163.95"/>
<polygon fill="black" stroke="black" points="296.533,-1163.67 292.862,-1153.73 289.534,-1163.79 296.533,-1163.67"/>
</g>
<!-- 10&#45;&gt;10 -->
<g id="edge49" class="edge"><title>10&#45;&gt;10</title>
<path fill="none" stroke="black" d="M418.613,-1658.71C433.669,-1657.63 445.225,-1649.42 445.225,-1634.08 445.225,-1622.34 438.451,-1614.77 428.519,-1611.39"/>
<polygon fill="black" stroke="black" points="429.099,-1607.93 418.613,-1609.45 427.758,-1614.8 429.099,-1607.93"/>
</g>
<!-- 10&#45;&gt;14 -->
<g id="edge54" class="edge"><title>10&#45;&gt;14</title>
<path fill="none" stroke="black" d="M376.83,-1586.69C381.177,-1574.9 385.694,-1562.13 389,-1550 431.638,-1393.56 407.976,-1347.36 445,-1189.5 469.853,-1083.53 510.981,-963.089 538.016,-895.485"/>
<polygon fill="black" stroke="black" points="541.388,-896.484 541.899,-885.902 534.9,-893.855 541.388,-896.484"/>
</g>
<!-- 10&#45;&gt;16 -->
<g id="edge53" class="edge"><title>10&#45;&gt;16</title>
<path fill="none" stroke="black" d="M422.261,-1614.57C502.602,-1589.9 648.342,-1546.49 734.06,-1521.69"/>
<polygon fill="black" stroke="black" points="735.059,-1525.04 743.696,-1518.91 733.117,-1518.32 735.059,-1525.04"/>
</g>
<!-- 11&#45;&gt;4 -->
<g id="edge57" class="edge"><title>11&#45;&gt;4</title>
<path fill="none" stroke="black" d="M180.592,-76.6972C112.622,-118.053 0,-202.943 0,-311.416 0,-974.249 0,-974.249 0,-974.249 0,-1150.39 38,-1192.6 38,-1368.75 38,-1502.92 38,-1502.92 38,-1502.92 38,-1603.79 134.276,-1687.13 197.977,-1731.23"/>
<polygon fill="black" stroke="black" points="196.113,-1734.2 206.348,-1736.93 200.053,-1728.41 196.113,-1734.2"/>
</g>
<!-- 11&#45;&gt;9 -->
<g id="edge56" class="edge"><title>11&#45;&gt;9</title>
<path fill="none" stroke="black" d="M216.214,-94.8746C212.76,-106.904 209.395,-119.937 207,-132.167 191.602,-210.786 188,-231.303 188,-311.416 188,-842.082 188,-842.082 188,-842.082 188,-920.534 229.811,-1002.92 261.403,-1053.97"/>
<polygon fill="black" stroke="black" points="258.487,-1055.91 266.774,-1062.51 264.413,-1052.18 258.487,-1055.91"/>
</g>
<!-- 11&#45;&gt;11 -->
<g id="edge55" class="edge"><title>11&#45;&gt;11</title>
<path fill="none" stroke="black" d="M284.613,-72.7109C299.669,-71.6323 311.225,-63.4231 311.225,-48.0833 311.225,-36.3387 304.451,-28.774 294.519,-25.3891"/>
<polygon fill="black" stroke="black" points="295.099,-21.9363 284.613,-23.4556 293.758,-28.8066 295.099,-21.9363"/>
</g>
<!-- 12&#45;&gt;7 -->
<g id="edge60" class="edge"><title>12&#45;&gt;7</title>
<path fill="none" stroke="black" d="M529.242,-51.9266C585.024,-58.1708 663.903,-76.954 703,-132.167 727.7,-167.048 706.049,-185.701 703,-228.333 698.767,-287.526 700.394,-303.464 684,-360.5 667.433,-418.135 501.254,-780.852 437.615,-918.953"/>
<polygon fill="black" stroke="black" points="434.402,-917.563 433.394,-928.11 440.759,-920.494 434.402,-917.563"/>
</g>
<!-- 12&#45;&gt;10 -->
<g id="edge59" class="edge"><title>12&#45;&gt;10</title>
<path fill="none" stroke="black" d="M529.457,-49.8578C590.034,-54.3547 679.045,-71.6899 723,-132.167 851.746,-309.307 744.641,-407.729 716,-624.833 700.163,-744.88 693.896,-776.314 650,-889.166 594.944,-1030.71 535.397,-1045.54 487,-1189.5 435.352,-1343.13 497.351,-1401.68 432,-1550 426.228,-1563.1 417.839,-1575.86 408.938,-1587.29"/>
<polygon fill="black" stroke="black" points="405.971,-1585.39 402.395,-1595.36 411.41,-1589.8 405.971,-1585.39"/>
</g>
<!-- 12&#45;&gt;12 -->
<g id="edge58" class="edge"><title>12&#45;&gt;12</title>
<path fill="none" stroke="black" d="M520.613,-72.7109C535.669,-71.6323 547.225,-63.4231 547.225,-48.0833 547.225,-36.3387 540.451,-28.774 530.519,-25.3891"/>
<polygon fill="black" stroke="black" points="531.099,-21.9363 520.613,-23.4556 529.758,-28.8066 531.099,-21.9363"/>
</g>
<!-- 13&#45;&gt;6 -->
<g id="edge64" class="edge"><title>13&#45;&gt;6</title>
<path fill="none" stroke="black" d="M408.135,-617.796C394.27,-632.972 377.8,-650.289 362.619,-665.662"/>
<polygon fill="black" stroke="black" points="359.857,-663.475 355.287,-673.034 364.821,-668.411 359.857,-663.475"/>
</g>
<!-- 13&#45;&gt;7 -->
<g id="edge65" class="edge"><title>13&#45;&gt;7</title>
<path fill="none" stroke="black" d="M441.335,-625.105C439.133,-697.91 429.72,-837.093 421.813,-915.293"/>
<polygon fill="black" stroke="black" points="418.31,-915.137 420.758,-925.445 425.273,-915.861 418.31,-915.137"/>
</g>
<!-- 13&#45;&gt;8 -->
<g id="edge66" class="edge"><title>13&#45;&gt;8</title>
<path fill="none" stroke="black" d="M413.737,-533.386C406.777,-520.67 399.858,-506.434 395,-492.666 381.056,-453.15 372.708,-406.551 367.897,-370.771"/>
<polygon fill="black" stroke="black" points="371.324,-369.979 366.574,-360.508 364.382,-370.874 371.324,-369.979"/>
</g>
<!-- 13&#45;&gt;13 -->
<g id="edge61" class="edge"><title>13&#45;&gt;13</title>
<path fill="none" stroke="black" d="M490.522,-601.425C505.268,-600.572 516.69,-592.347 516.69,-576.749 516.69,-564.929 510.131,-557.343 500.536,-553.99"/>
<polygon fill="black" stroke="black" points="501.002,-550.516 490.522,-552.073 499.686,-557.391 501.002,-550.516"/>
</g>
<!-- 13&#45;&gt;14 -->
<g id="edge62" class="edge"><title>13&#45;&gt;14</title>
<path fill="none" stroke="black" d="M465.307,-620.419C488.557,-665.412 522.286,-736.443 543.796,-785.491"/>
<polygon fill="black" stroke="black" points="540.598,-786.913 547.797,-794.687 547.017,-784.121 540.598,-786.913"/>
</g>
<!-- 13&#45;&gt;15 -->
<g id="edge63" class="edge"><title>13&#45;&gt;15</title>
<path fill="none" stroke="black" d="M459.272,-530.953C463.584,-520.931 468.202,-510.196 472.659,-499.837"/>
<polygon fill="black" stroke="black" points="475.956,-501.031 476.692,-490.461 469.525,-498.264 475.956,-501.031"/>
</g>
<!-- 14&#45;&gt;6 -->
<g id="edge71" class="edge"><title>14&#45;&gt;6</title>
<path fill="none" stroke="black" d="M513.449,-816.359C472.418,-795.684 414.716,-765.502 372.239,-742.552"/>
<polygon fill="black" stroke="black" points="373.877,-739.459 363.418,-737.771 370.541,-745.613 373.877,-739.459"/>
</g>
<!-- 14&#45;&gt;7 -->
<g id="edge70" class="edge"><title>14&#45;&gt;7</title>
<path fill="none" stroke="black" d="M527.382,-878.951C508.345,-896.027 484.834,-916.316 464.056,-933.606"/>
<polygon fill="black" stroke="black" points="461.714,-931.001 456.242,-940.073 466.177,-936.394 461.714,-931.001"/>
</g>
<!-- 14&#45;&gt;10 -->
<g id="edge72" class="edge"><title>14&#45;&gt;10</title>
<path fill="none" stroke="black" d="M552.811,-888.372C531.971,-954.374 488.75,-1079.71 463,-1189.5 425.976,-1347.36 449.638,-1393.56 407,-1550 404.216,-1560.21 400.574,-1570.88 396.557,-1581.04"/>
<polygon fill="black" stroke="black" points="393.195,-1580.01 392.607,-1590.58 399.664,-1582.68 393.195,-1580.01"/>
</g>
<!-- 14&#45;&gt;13 -->
<g id="edge68" class="edge"><title>14&#45;&gt;13</title>
<path fill="none" stroke="black" d="M538.812,-797.642C515.571,-752.686 481.788,-681.551 460.24,-632.423"/>
<polygon fill="black" stroke="black" points="463.431,-630.985 456.232,-623.211 457.012,-633.777 463.431,-630.985"/>
</g>
<!-- 14&#45;&gt;14 -->
<g id="edge67" class="edge"><title>14&#45;&gt;14</title>
<path fill="none" stroke="black" d="M614.522,-865.758C629.268,-864.905 640.69,-856.68 640.69,-841.082 640.69,-829.262 634.131,-821.676 624.536,-818.323"/>
<polygon fill="black" stroke="black" points="625.002,-814.849 614.522,-816.406 623.686,-821.724 625.002,-814.849"/>
</g>
<!-- 14&#45;&gt;16 -->
<g id="edge69" class="edge"><title>14&#45;&gt;16</title>
<path fill="none" stroke="black" d="M596.249,-881.712C625.558,-924.277 668.588,-994.309 701,-1057.33 757.891,-1167.95 771.227,-1199.19 793,-1321.67 800.2,-1362.16 804.753,-1408.36 806.258,-1443.71"/>
<polygon fill="black" stroke="black" points="802.765,-1443.98 806.614,-1453.85 809.76,-1443.73 802.765,-1443.98"/>
</g>
<!-- 18 -->
<g id="node19" class="node"><title>18</title>
<ellipse fill="none" stroke="black" cx="906" cy="-1369.75" rx="62.4516" ry="48.1667"/>
<text text-anchor="middle" x="906" y="-1388.55" font-family="Times New Roman,serif" font-size="14.00">18</text>
<text text-anchor="middle" x="906" y="-1373.55" font-family="Times New Roman,serif" font-size="14.00">Inflow 0 0</text>
<text text-anchor="middle" x="906" y="-1358.55" font-family="Times New Roman,serif" font-size="14.00">Volume 1 &#45;1</text>
<text text-anchor="middle" x="906" y="-1343.55" font-family="Times New Roman,serif" font-size="14.00">Outflow 1 &#45;1</text>
</g>
<!-- 14&#45;&gt;18 -->
<g id="edge73" class="edge"><title>14&#45;&gt;18</title>
<path fill="none" stroke="black" d="M615.56,-864.475C634.988,-872.622 657.373,-881.665 678,-889.166 727.934,-907.324 755.8,-886.273 792,-925.166 904.224,-1045.74 832.54,-1127.34 878,-1285.67 880.619,-1294.79 883.623,-1304.39 886.669,-1313.71"/>
<polygon fill="black" stroke="black" points="883.373,-1314.88 889.844,-1323.27 890.016,-1312.68 883.373,-1314.88"/>
</g>
<!-- 15&#45;&gt;8 -->
<g id="edge76" class="edge"><title>15&#45;&gt;8</title>
<path fill="none" stroke="black" d="M455.137,-409.723C438.612,-394.437 419.615,-376.14 403.073,-359.62"/>
<polygon fill="black" stroke="black" points="405.198,-356.793 395.664,-352.172 400.235,-361.73 405.198,-356.793"/>
</g>
<!-- 15&#45;&gt;12 -->
<g id="edge77" class="edge"><title>15&#45;&gt;12</title>
<path fill="none" stroke="black" d="M492.531,-396.389C487.193,-323.773 476.98,-184.85 471.221,-106.506"/>
<polygon fill="black" stroke="black" points="474.697,-106.048 470.473,-96.3315 467.716,-106.561 474.697,-106.048"/>
</g>
<!-- 15&#45;&gt;15 -->
<g id="edge74" class="edge"><title>15&#45;&gt;15</title>
<path fill="none" stroke="black" d="M546.522,-469.259C561.268,-468.406 572.69,-460.18 572.69,-444.583 572.69,-432.763 566.131,-425.176 556.536,-421.824"/>
<polygon fill="black" stroke="black" points="557.002,-418.35 546.522,-419.907 555.686,-425.225 557.002,-418.35"/>
</g>
<!-- 15&#45;&gt;17 -->
<g id="edge75" class="edge"><title>15&#45;&gt;17</title>
<path fill="none" stroke="black" d="M495.04,-396.368C496.166,-358.583 502.13,-305.322 524,-264.333 532.869,-247.712 546.378,-232.644 560.253,-220.046"/>
<polygon fill="black" stroke="black" points="562.741,-222.52 567.973,-213.307 558.138,-217.247 562.741,-222.52"/>
</g>
<!-- 19 -->
<g id="node20" class="node"><title>19</title>
<ellipse fill="none" stroke="black" cx="595" cy="-312.416" rx="62.4516" ry="48.1667"/>
<text text-anchor="middle" x="595" y="-331.216" font-family="Times New Roman,serif" font-size="14.00">19</text>
<text text-anchor="middle" x="595" y="-316.216" font-family="Times New Roman,serif" font-size="14.00">Inflow 0 0</text>
<text text-anchor="middle" x="595" y="-301.216" font-family="Times New Roman,serif" font-size="14.00">Volume 2 &#45;1</text>
<text text-anchor="middle" x="595" y="-286.216" font-family="Times New Roman,serif" font-size="14.00">Outflow 2 &#45;1</text>
</g>
<!-- 15&#45;&gt;19 -->
<g id="edge78" class="edge"><title>15&#45;&gt;19</title>
<path fill="none" stroke="black" d="M526.511,-403.466C536.297,-390.6 547.25,-376.198 557.478,-362.751"/>
<polygon fill="black" stroke="black" points="560.467,-364.602 563.735,-354.524 554.896,-360.364 560.467,-364.602"/>
</g>
<!-- 16&#45;&gt;0 -->
<g id="edge84" class="edge"><title>16&#45;&gt;0</title>
<path fill="none" stroke="black" d="M797.951,-1550.27C793.816,-1602.77 788,-1689.99 788,-1765.25 788,-2031.58 788,-2031.58 788,-2031.58 788,-2111.69 776.117,-2136.91 807,-2210.83 812.78,-2224.67 821.641,-2238.01 831.076,-2249.8"/>
<polygon fill="black" stroke="black" points="828.577,-2252.27 837.67,-2257.71 833.952,-2247.79 828.577,-2252.27"/>
</g>
<!-- 16&#45;&gt;7 -->
<g id="edge82" class="edge"><title>16&#45;&gt;7</title>
<path fill="none" stroke="black" d="M786.087,-1455.22C756.122,-1354.02 690.907,-1115.35 633,-1057.33 591.927,-1016.18 528.93,-995.269 480.793,-984.724"/>
<polygon fill="black" stroke="black" points="481.265,-981.247 470.76,-982.628 479.833,-988.099 481.265,-981.247"/>
</g>
<!-- 16&#45;&gt;10 -->
<g id="edge81" class="edge"><title>16&#45;&gt;10</title>
<path fill="none" stroke="black" d="M744.89,-1521.38C664.693,-1546.01 519.121,-1589.37 433.301,-1614.2"/>
<polygon fill="black" stroke="black" points="432.288,-1610.85 423.652,-1616.99 434.231,-1617.58 432.288,-1610.85"/>
</g>
<!-- 16&#45;&gt;14 -->
<g id="edge80" class="edge"><title>16&#45;&gt;14</title>
<path fill="none" stroke="black" d="M791.895,-1454.22C787.658,-1417.89 782.938,-1366.32 775,-1321.67 753.227,-1199.19 739.891,-1167.95 683,-1057.33 653.762,-1000.48 615.883,-937.924 590.64,-894.972"/>
<polygon fill="black" stroke="black" points="593.526,-892.975 585.453,-886.114 587.486,-896.512 593.526,-892.975"/>
</g>
<!-- 16&#45;&gt;16 -->
<g id="edge79" class="edge"><title>16&#45;&gt;16</title>
<path fill="none" stroke="black" d="M855.613,-1526.54C870.669,-1525.46 882.225,-1517.25 882.225,-1501.92 882.225,-1490.17 875.451,-1482.61 865.519,-1479.22"/>
<polygon fill="black" stroke="black" points="866.099,-1475.77 855.613,-1477.29 864.758,-1482.64 866.099,-1475.77"/>
</g>
<!-- 16&#45;&gt;18 -->
<g id="edge83" class="edge"><title>16&#45;&gt;18</title>
<path fill="none" stroke="black" d="M834.336,-1460.44C844.804,-1447.34 856.518,-1432.68 867.393,-1419.07"/>
<polygon fill="black" stroke="black" points="870.176,-1421.19 873.684,-1411.2 864.707,-1416.82 870.176,-1421.19"/>
</g>
<!-- 17&#45;&gt;14 -->
<g id="edge87" class="edge"><title>17&#45;&gt;14</title>
<path fill="none" stroke="black" d="M653.165,-218.11C665.04,-231.498 676.827,-247.502 684,-264.333 715.409,-338.032 703,-363.47 703,-443.583 703,-577.749 703,-577.749 703,-577.749 703,-661.727 646.697,-745.071 605.758,-794.572"/>
<polygon fill="black" stroke="black" points="602.832,-792.613 599.076,-802.519 608.19,-797.118 602.832,-792.613"/>
</g>
<!-- 17&#45;&gt;16 -->
<g id="edge86" class="edge"><title>17&#45;&gt;16</title>
<path fill="none" stroke="black" d="M660.405,-212.751C677.88,-226.714 696.523,-244.484 709,-264.333 739.615,-313.037 974.135,-1158.36 995,-1321.67 1000.42,-1364.06 1018.5,-1382.13 995,-1417.83 968.112,-1458.68 916.459,-1479.53 873.352,-1490.13"/>
<polygon fill="black" stroke="black" points="872.402,-1486.75 863.45,-1492.42 873.982,-1493.57 872.402,-1486.75"/>
</g>
<!-- 17&#45;&gt;17 -->
<g id="edge85" class="edge"><title>17&#45;&gt;17</title>
<path fill="none" stroke="black" d="M667.613,-204.877C682.669,-203.799 694.225,-195.59 694.225,-180.25 694.225,-168.505 687.451,-160.94 677.519,-157.556"/>
<polygon fill="black" stroke="black" points="678.099,-154.103 667.613,-155.622 676.758,-160.973 678.099,-154.103"/>
</g>
<!-- 18&#45;&gt;0 -->
<g id="edge89" class="edge"><title>18&#45;&gt;0</title>
<path fill="none" stroke="black" d="M921.898,-1416.56C938.454,-1468.42 962,-1555.78 962,-1633.08 962,-2031.58 962,-2031.58 962,-2031.58 962,-2111.69 973.883,-2136.91 943,-2210.83 937.22,-2224.67 928.359,-2238.01 918.924,-2249.8"/>
<polygon fill="black" stroke="black" points="916.048,-2247.79 912.33,-2257.71 921.423,-2252.27 916.048,-2247.79"/>
</g>
<!-- 18&#45;&gt;1 -->
<g id="edge91" class="edge"><title>18&#45;&gt;1</title>
<path fill="none" stroke="black" d="M907.157,-1418.14C908.338,-1470.67 910,-1557.93 910,-1633.08 910,-1899.41 910,-1899.41 910,-1899.41 910,-1970.85 897.09,-2052.28 886.951,-2105.21"/>
<polygon fill="black" stroke="black" points="883.505,-2104.6 885.03,-2115.08 890.376,-2105.94 883.505,-2104.6"/>
</g>
<!-- 18&#45;&gt;18 -->
<g id="edge88" class="edge"><title>18&#45;&gt;18</title>
<path fill="none" stroke="black" d="M959.613,-1394.38C974.669,-1393.3 986.225,-1385.09 986.225,-1369.75 986.225,-1358 979.451,-1350.44 969.519,-1347.05"/>
<polygon fill="black" stroke="black" points="970.099,-1343.6 959.613,-1345.12 968.758,-1350.47 970.099,-1343.6"/>
</g>
<!-- 20 -->
<g id="node21" class="node"><title>20</title>
<ellipse fill="none" stroke="black" cx="558" cy="-1237.58" rx="62.4516" ry="48.1667"/>
<text text-anchor="middle" x="558" y="-1256.38" font-family="Times New Roman,serif" font-size="14.00">20</text>
<text text-anchor="middle" x="558" y="-1241.38" font-family="Times New Roman,serif" font-size="14.00">Inflow 0 1</text>
<text text-anchor="middle" x="558" y="-1226.38" font-family="Times New Roman,serif" font-size="14.00">Volume 1 &#45;1</text>
<text text-anchor="middle" x="558" y="-1211.38" font-family="Times New Roman,serif" font-size="14.00">Outflow 1 &#45;1</text>
</g>
<!-- 18&#45;&gt;20 -->
<g id="edge90" class="edge"><title>18&#45;&gt;20</title>
<path fill="none" stroke="black" d="M850.474,-1347.98C788.562,-1324.82 688.542,-1287.41 623.024,-1262.9"/>
<polygon fill="black" stroke="black" points="624.209,-1259.61 613.616,-1259.38 621.756,-1266.17 624.209,-1259.61"/>
</g>
<!-- 19&#45;&gt;18 -->
<g id="edge93" class="edge"><title>19&#45;&gt;18</title>
<path fill="none" stroke="black" d="M617.006,-357.52C676.441,-477.397 837.771,-808.05 868,-925.166 902.944,-1060.55 907.478,-1226.09 907.13,-1311.57"/>
<polygon fill="black" stroke="black" points="903.63,-1311.57 907.065,-1321.59 910.63,-1311.61 903.63,-1311.57"/>
</g>
<!-- 19&#45;&gt;19 -->
<g id="edge92" class="edge"><title>19&#45;&gt;19</title>
<path fill="none" stroke="black" d="M648.613,-337.044C663.669,-335.965 675.225,-327.756 675.225,-312.416 675.225,-300.672 668.451,-293.107 658.519,-289.722"/>
<polygon fill="black" stroke="black" points="659.099,-286.269 648.613,-287.789 657.758,-293.14 659.099,-286.269"/>
</g>
<!-- 20&#45;&gt;4 -->
<g id="edge95" class="edge"><title>20&#45;&gt;4</title>
<path fill="none" stroke="black" d="M560.188,-1285.85C561.708,-1374.3 552.495,-1566.31 454,-1682.16 420.349,-1721.75 364.806,-1742.78 320.625,-1753.77"/>
<polygon fill="black" stroke="black" points="319.735,-1750.39 310.811,-1756.1 321.348,-1757.2 319.735,-1750.39"/>
</g>
<!-- 20&#45;&gt;9 -->
<g id="edge94" class="edge"><title>20&#45;&gt;9</title>
<path fill="none" stroke="black" d="M506.237,-1210.87C463.405,-1189.59 402.47,-1159.31 357.221,-1136.83"/>
<polygon fill="black" stroke="black" points="358.616,-1133.62 348.103,-1132.3 355.501,-1139.89 358.616,-1133.62"/>
</g>
</g>
</svg>
