<?xml version="1.0" encoding="UTF-8" standalone="no"?>
<!DOCTYPE svg PUBLIC "-//W3C//DTD SVG 1.1//EN"
 "http://www.w3.org/Graphics/SVG/1.1/DTD/svg11.dtd">
<!-- Generated by graphviz version 2.38.0 (20140413.2041)
 -->
<!-- Title: %3 Pages: 1 -->
<svg width="1276pt" height="2080pt"
 viewBox="0.00 0.00 1276.25 2080.11" xmlns="http://www.w3.org/2000/svg" xmlns:xlink="http://www.w3.org/1999/xlink">
<g id="graph0" class="graph" transform="scale(1 1) rotate(0) translate(4 2076.11)">
<title>%3</title>
<polygon fill="white" stroke="none" points="-4,4 -4,-2076.11 1272.25,-2076.11 1272.25,4 -4,4"/>
<!-- 0 -->
<g id="node1" class="node"><title>0</title>
<ellipse fill="none" stroke="black" cx="170.249" cy="-2034.64" rx="58.8803" ry="37.4533"/>
<text text-anchor="middle" x="170.249" y="-2045.94" font-family="Times New Roman,serif" font-size="14.00">Inflow 0 0</text>
<text text-anchor="middle" x="170.249" y="-2030.94" font-family="Times New Roman,serif" font-size="14.00">Volume 0 0</text>
<text text-anchor="middle" x="170.249" y="-2015.94" font-family="Times New Roman,serif" font-size="14.00">Outflow 0 0</text>
</g>
<!-- 0&#45;&gt;0 -->
<g id="edge1" class="edge"><title>0&#45;&gt;0</title>
<path fill="none" stroke="black" d="M219.298,-2055.25C234.75,-2054.94 246.939,-2048.06 246.939,-2034.64 246.939,-2024.36 239.794,-2017.92 229.51,-2015.32"/>
<polygon fill="black" stroke="black" points="229.661,-2011.82 219.298,-2014.02 228.776,-2018.76 229.661,-2011.82"/>
</g>
<!-- 1 -->
<g id="node2" class="node"><title>1</title>
<ellipse fill="none" stroke="black" cx="257.249" cy="-1923.68" rx="58.8803" ry="37.4533"/>
<text text-anchor="middle" x="257.249" y="-1934.98" font-family="Times New Roman,serif" font-size="14.00">Inflow 0 1</text>
<text text-anchor="middle" x="257.249" y="-1919.98" font-family="Times New Roman,serif" font-size="14.00">Volume 0 0</text>
<text text-anchor="middle" x="257.249" y="-1904.98" font-family="Times New Roman,serif" font-size="14.00">Outflow 0 0</text>
</g>
<!-- 0&#45;&gt;1 -->
<g id="edge2" class="edge"><title>0&#45;&gt;1</title>
<path fill="none" stroke="black" d="M196.352,-2000.95C205.299,-1989.74 215.421,-1977.07 224.808,-1965.31"/>
<polygon fill="black" stroke="black" points="227.66,-1967.35 231.165,-1957.35 222.19,-1962.98 227.66,-1967.35"/>
</g>
<!-- 2 -->
<g id="node3" class="node"><title>2</title>
<ellipse fill="none" stroke="black" cx="901.249" cy="-1812.73" rx="58.8803" ry="37.4533"/>
<text text-anchor="middle" x="901.249" y="-1824.03" font-family="Times New Roman,serif" font-size="14.00">Inflow 1 1</text>
<text text-anchor="middle" x="901.249" y="-1809.03" font-family="Times New Roman,serif" font-size="14.00">Volume 0 1</text>
<text text-anchor="middle" x="901.249" y="-1794.03" font-family="Times New Roman,serif" font-size="14.00">Outflow 0 1</text>
</g>
<!-- 1&#45;&gt;2 -->
<g id="edge3" class="edge"><title>1&#45;&gt;2</title>
<path fill="none" stroke="black" d="M313.836,-1913.11C432.623,-1893.01 707.465,-1846.51 834.566,-1825.01"/>
<polygon fill="black" stroke="black" points="835.285,-1828.44 844.561,-1823.32 834.117,-1821.54 835.285,-1828.44"/>
</g>
<!-- 3 -->
<g id="node4" class="node"><title>3</title>
<ellipse fill="none" stroke="black" cx="1100.25" cy="-1701.78" rx="58.8803" ry="37.4533"/>
<text text-anchor="middle" x="1100.25" y="-1713.08" font-family="Times New Roman,serif" font-size="14.00">Inflow 1 1</text>
<text text-anchor="middle" x="1100.25" y="-1698.08" font-family="Times New Roman,serif" font-size="14.00">Volume 1 1</text>
<text text-anchor="middle" x="1100.25" y="-1683.08" font-family="Times New Roman,serif" font-size="14.00">Outflow 1 1</text>
</g>
<!-- 2&#45;&gt;3 -->
<g id="edge4" class="edge"><title>2&#45;&gt;3</title>
<path fill="none" stroke="black" d="M945.414,-1787.55C975.429,-1771.12 1015.29,-1749.29 1047.06,-1731.9"/>
<polygon fill="black" stroke="black" points="1049.12,-1734.76 1056.21,-1726.89 1045.76,-1728.62 1049.12,-1734.76"/>
</g>
<!-- 4 -->
<g id="node5" class="node"><title>4</title>
<ellipse fill="none" stroke="black" cx="901.249" cy="-1590.82" rx="58.8803" ry="37.4533"/>
<text text-anchor="middle" x="901.249" y="-1602.12" font-family="Times New Roman,serif" font-size="14.00">Inflow 1 0</text>
<text text-anchor="middle" x="901.249" y="-1587.12" font-family="Times New Roman,serif" font-size="14.00">Volume 1 1</text>
<text text-anchor="middle" x="901.249" y="-1572.12" font-family="Times New Roman,serif" font-size="14.00">Outflow 1 1</text>
</g>
<!-- 2&#45;&gt;4 -->
<g id="edge5" class="edge"><title>2&#45;&gt;4</title>
<path fill="none" stroke="black" d="M901.249,-1774.92C901.249,-1737.47 901.249,-1679.29 901.249,-1638.59"/>
<polygon fill="black" stroke="black" points="904.749,-1638.38 901.249,-1628.38 897.749,-1638.38 904.749,-1638.38"/>
</g>
<!-- 3&#45;&gt;3 -->
<g id="edge6" class="edge"><title>3&#45;&gt;3</title>
<path fill="none" stroke="black" d="M1149.3,-1722.39C1164.75,-1722.08 1176.94,-1715.2 1176.94,-1701.78 1176.94,-1691.5 1169.79,-1685.06 1159.51,-1682.46"/>
<polygon fill="black" stroke="black" points="1159.66,-1678.96 1149.3,-1681.16 1158.78,-1685.9 1159.66,-1678.96"/>
</g>
<!-- 3&#45;&gt;4 -->
<g id="edge9" class="edge"><title>3&#45;&gt;4</title>
<path fill="none" stroke="black" d="M1053.93,-1678.47C1023.19,-1662.37 982.947,-1640.45 951.452,-1622.68"/>
<polygon fill="black" stroke="black" points="952.825,-1619.43 942.399,-1617.55 949.373,-1625.52 952.825,-1619.43"/>
</g>
<!-- 5 -->
<g id="node6" class="node"><title>5</title>
<ellipse fill="none" stroke="black" cx="1051.25" cy="-925.103" rx="58.8803" ry="37.4533"/>
<text text-anchor="middle" x="1051.25" y="-936.403" font-family="Times New Roman,serif" font-size="14.00">Inflow 1 1</text>
<text text-anchor="middle" x="1051.25" y="-921.403" font-family="Times New Roman,serif" font-size="14.00">Volume 1 0</text>
<text text-anchor="middle" x="1051.25" y="-906.403" font-family="Times New Roman,serif" font-size="14.00">Outflow 1 0</text>
</g>
<!-- 3&#45;&gt;5 -->
<g id="edge7" class="edge"><title>3&#45;&gt;5</title>
<path fill="none" stroke="black" d="M1106.53,-1664.32C1117.89,-1621.11 1138.25,-1546.65 1138.25,-1480.87 1138.25,-1480.87 1138.25,-1480.87 1138.25,-1146.01 1138.25,-1080.28 1101.78,-1012.04 1075.91,-969.353"/>
<polygon fill="black" stroke="black" points="1078.78,-967.335 1070.56,-960.641 1072.81,-970.996 1078.78,-967.335"/>
</g>
<!-- 6 -->
<g id="node7" class="node"><title>6</title>
<ellipse fill="none" stroke="black" cx="919.249" cy="-1257.96" rx="58.8803" ry="37.4533"/>
<text text-anchor="middle" x="919.249" y="-1269.26" font-family="Times New Roman,serif" font-size="14.00">Inflow 1 1</text>
<text text-anchor="middle" x="919.249" y="-1254.26" font-family="Times New Roman,serif" font-size="14.00">Volume 2 0</text>
<text text-anchor="middle" x="919.249" y="-1239.26" font-family="Times New Roman,serif" font-size="14.00">Outflow 2 0</text>
</g>
<!-- 3&#45;&gt;6 -->
<g id="edge8" class="edge"><title>3&#45;&gt;6</title>
<path fill="none" stroke="black" d="M1085.74,-1665.37C1053.08,-1585.63 973.793,-1392.1 937.697,-1303.99"/>
<polygon fill="black" stroke="black" points="940.854,-1302.47 933.824,-1294.54 934.377,-1305.12 940.854,-1302.47"/>
</g>
<!-- 7 -->
<g id="node8" class="node"><title>7</title>
<ellipse fill="none" stroke="black" cx="870.249" cy="-259.383" rx="58.8803" ry="37.4533"/>
<text text-anchor="middle" x="870.249" y="-270.683" font-family="Times New Roman,serif" font-size="14.00">Inflow 1 0</text>
<text text-anchor="middle" x="870.249" y="-255.683" font-family="Times New Roman,serif" font-size="14.00">Volume 1 0</text>
<text text-anchor="middle" x="870.249" y="-240.683" font-family="Times New Roman,serif" font-size="14.00">Outflow 1 0</text>
</g>
<!-- 3&#45;&gt;7 -->
<g id="edge10" class="edge"><title>3&#45;&gt;7</title>
<path fill="none" stroke="black" d="M1134.49,-1671.12C1178.89,-1632.9 1250.25,-1561.67 1250.25,-1480.87 1250.25,-1480.87 1250.25,-1480.87 1250.25,-480.29 1250.25,-405.951 1230.24,-378.101 1171.25,-332.86 1103.71,-281.055 1005.23,-265.351 939.452,-261.061"/>
<polygon fill="black" stroke="black" points="939.37,-257.55 929.184,-260.466 938.965,-264.538 939.37,-257.55"/>
</g>
<!-- 8 -->
<g id="node9" class="node"><title>8</title>
<ellipse fill="none" stroke="black" cx="780.249" cy="-1368.92" rx="58.8803" ry="37.4533"/>
<text text-anchor="middle" x="780.249" y="-1380.22" font-family="Times New Roman,serif" font-size="14.00">Inflow 1 0</text>
<text text-anchor="middle" x="780.249" y="-1365.22" font-family="Times New Roman,serif" font-size="14.00">Volume 2 0</text>
<text text-anchor="middle" x="780.249" y="-1350.22" font-family="Times New Roman,serif" font-size="14.00">Outflow 2 0</text>
</g>
<!-- 3&#45;&gt;8 -->
<g id="edge11" class="edge"><title>3&#45;&gt;8</title>
<path fill="none" stroke="black" d="M1077.27,-1667.12C1055.55,-1636.26 1021.32,-1589.93 987.249,-1553.35 935.186,-1497.44 867.885,-1440.18 824.394,-1404.84"/>
<polygon fill="black" stroke="black" points="826.535,-1402.07 816.56,-1398.5 822.132,-1407.51 826.535,-1402.07"/>
</g>
<!-- 4&#45;&gt;3 -->
<g id="edge15" class="edge"><title>4&#45;&gt;3</title>
<path fill="none" stroke="black" d="M947.583,-1614.14C978.267,-1630.2 1018.42,-1652.08 1049.88,-1669.83"/>
<polygon fill="black" stroke="black" points="1048.5,-1673.07 1058.93,-1674.96 1051.95,-1666.98 1048.5,-1673.07"/>
</g>
<!-- 4&#45;&gt;4 -->
<g id="edge12" class="edge"><title>4&#45;&gt;4</title>
<path fill="none" stroke="black" d="M950.298,-1611.44C965.75,-1611.12 977.939,-1604.25 977.939,-1590.82 977.939,-1580.54 970.794,-1574.11 960.51,-1571.51"/>
<polygon fill="black" stroke="black" points="960.661,-1568 950.298,-1570.21 959.776,-1574.95 960.661,-1568"/>
</g>
<!-- 4&#45;&gt;5 -->
<g id="edge16" class="edge"><title>4&#45;&gt;5</title>
<path fill="none" stroke="black" d="M911.013,-1553.87C930.821,-1499.14 973.653,-1391.19 996.249,-1295.44 1023.18,-1181.34 1035.04,-1043.45 1042.87,-972.809"/>
<polygon fill="black" stroke="black" points="1046.4,-972.806 1044.05,-962.474 1039.44,-972.015 1046.4,-972.806"/>
</g>
<!-- 4&#45;&gt;6 -->
<g id="edge17" class="edge"><title>4&#45;&gt;6</title>
<path fill="none" stroke="black" d="M903.244,-1553.15C906.533,-1492.7 913.087,-1372.23 916.705,-1305.74"/>
<polygon fill="black" stroke="black" points="920.21,-1305.72 917.259,-1295.55 913.221,-1305.34 920.21,-1305.72"/>
</g>
<!-- 4&#45;&gt;7 -->
<g id="edge13" class="edge"><title>4&#45;&gt;7</title>
<path fill="none" stroke="black" d="M935.895,-1560.39C1013.59,-1495.66 1194.25,-1331.97 1194.25,-1148.01 1194.25,-1148.01 1194.25,-1148.01 1194.25,-480.29 1194.25,-405.74 1172.39,-379.522 1114.25,-332.86 1063.62,-292.224 991.248,-274.369 938.409,-266.525"/>
<polygon fill="black" stroke="black" points="938.836,-263.051 928.447,-265.13 937.865,-269.983 938.836,-263.051"/>
</g>
<!-- 4&#45;&gt;8 -->
<g id="edge14" class="edge"><title>4&#45;&gt;8</title>
<path fill="none" stroke="black" d="M882.076,-1554.98C860.968,-1516.62 827.004,-1454.89 804.17,-1413.39"/>
<polygon fill="black" stroke="black" points="807.22,-1411.67 799.332,-1404.6 801.087,-1415.05 807.22,-1411.67"/>
</g>
<!-- 9 -->
<g id="node10" class="node"><title>9</title>
<ellipse fill="none" stroke="black" cx="243.249" cy="-37.4767" rx="58.8803" ry="37.4533"/>
<text text-anchor="middle" x="243.249" y="-48.7767" font-family="Times New Roman,serif" font-size="14.00">Inflow 1 &#45;1</text>
<text text-anchor="middle" x="243.249" y="-33.7767" font-family="Times New Roman,serif" font-size="14.00">Volume 1 1</text>
<text text-anchor="middle" x="243.249" y="-18.7767" font-family="Times New Roman,serif" font-size="14.00">Outflow 1 1</text>
</g>
<!-- 4&#45;&gt;9 -->
<g id="edge18" class="edge"><title>4&#45;&gt;9</title>
<path fill="none" stroke="black" d="M842.355,-1588.47C712.055,-1584.47 404.479,-1569.48 317.249,-1517.35 -15.7034,-1318.34 0.249261,-1092.09 0.249261,-704.197 0.249261,-704.197 0.249261,-704.197 0.249261,-258.383 0.249261,-160.213 110.969,-93.0475 183.016,-60.683"/>
<polygon fill="black" stroke="black" points="184.722,-63.7569 192.473,-56.5345 181.91,-57.3466 184.722,-63.7569"/>
</g>
<!-- 10 -->
<g id="node11" class="node"><title>10</title>
<ellipse fill="none" stroke="black" cx="354.249" cy="-148.43" rx="58.8803" ry="37.4533"/>
<text text-anchor="middle" x="354.249" y="-159.73" font-family="Times New Roman,serif" font-size="14.00">Inflow 1 &#45;1</text>
<text text-anchor="middle" x="354.249" y="-144.73" font-family="Times New Roman,serif" font-size="14.00">Volume 1 0</text>
<text text-anchor="middle" x="354.249" y="-129.73" font-family="Times New Roman,serif" font-size="14.00">Outflow 1 0</text>
</g>
<!-- 4&#45;&gt;10 -->
<g id="edge19" class="edge"><title>4&#45;&gt;10</title>
<path fill="none" stroke="black" d="M842.527,-1587.93C755.386,-1583.43 588.395,-1568.26 457.249,-1517.35 372.794,-1484.56 346.265,-1474.26 286.249,-1406.39 215.294,-1326.16 56.2493,-868.631 56.2493,-704.197 56.2493,-704.197 56.2493,-704.197 56.2493,-591.243 56.2493,-413.052 92.6574,-354.005 212.249,-221.907 233.562,-198.365 264.363,-180.906 291.903,-169.03"/>
<polygon fill="black" stroke="black" points="293.587,-172.12 301.487,-165.061 290.909,-165.653 293.587,-172.12"/>
</g>
<!-- 11 -->
<g id="node12" class="node"><title>11</title>
<ellipse fill="none" stroke="black" cx="534.249" cy="-1479.87" rx="58.8803" ry="37.4533"/>
<text text-anchor="middle" x="534.249" y="-1491.17" font-family="Times New Roman,serif" font-size="14.00">Inflow 1 &#45;1</text>
<text text-anchor="middle" x="534.249" y="-1476.17" font-family="Times New Roman,serif" font-size="14.00">Volume 2 0</text>
<text text-anchor="middle" x="534.249" y="-1461.17" font-family="Times New Roman,serif" font-size="14.00">Outflow 2 0</text>
</g>
<!-- 4&#45;&gt;11 -->
<g id="edge20" class="edge"><title>4&#45;&gt;11</title>
<path fill="none" stroke="black" d="M848.276,-1574.1C781.637,-1554.31 667.379,-1520.39 596.598,-1499.38"/>
<polygon fill="black" stroke="black" points="597.491,-1495.99 586.909,-1496.5 595.499,-1502.7 597.491,-1495.99"/>
</g>
<!-- 5&#45;&gt;3 -->
<g id="edge22" class="edge"><title>5&#45;&gt;3</title>
<path fill="none" stroke="black" d="M1081.2,-957.735C1112.41,-998.851 1156.25,-1073.94 1156.25,-1146.01 1156.25,-1480.87 1156.25,-1480.87 1156.25,-1480.87 1156.25,-1542.75 1138.23,-1612.31 1122.37,-1656.32"/>
<polygon fill="black" stroke="black" points="1119.03,-1655.25 1118.82,-1665.85 1125.59,-1657.7 1119.03,-1655.25"/>
</g>
<!-- 5&#45;&gt;4 -->
<g id="edge25" class="edge"><title>5&#45;&gt;4</title>
<path fill="none" stroke="black" d="M1054.6,-962.737C1054.19,-1029.62 1042.52,-1175.64 1014.25,-1295.44 992.653,-1386.95 952.574,-1489.61 926.175,-1546.29"/>
<polygon fill="black" stroke="black" points="922.857,-1545.12 921.737,-1555.66 929.182,-1548.12 922.857,-1545.12"/>
</g>
<!-- 5&#45;&gt;5 -->
<g id="edge21" class="edge"><title>5&#45;&gt;5</title>
<path fill="none" stroke="black" d="M1100.3,-945.717C1115.75,-945.402 1127.94,-938.531 1127.94,-925.103 1127.94,-914.823 1120.79,-908.385 1110.51,-905.791"/>
<polygon fill="black" stroke="black" points="1110.66,-902.282 1100.3,-904.49 1109.78,-909.226 1110.66,-902.282"/>
</g>
<!-- 5&#45;&gt;7 -->
<g id="edge24" class="edge"><title>5&#45;&gt;7</title>
<path fill="none" stroke="black" d="M1060.51,-887.911C1075.12,-844.947 1100.25,-770.727 1100.25,-704.197 1100.25,-704.197 1100.25,-704.197 1100.25,-480.29 1100.25,-384.703 995.442,-319.279 927.25,-285.987"/>
<polygon fill="black" stroke="black" points="928.416,-282.665 917.886,-281.503 925.393,-288.978 928.416,-282.665"/>
</g>
<!-- 12 -->
<g id="node13" class="node"><title>12</title>
<ellipse fill="none" stroke="black" cx="870.249" cy="-370.337" rx="62.4516" ry="37.4533"/>
<text text-anchor="middle" x="870.249" y="-381.637" font-family="Times New Roman,serif" font-size="14.00">Inflow 1 1</text>
<text text-anchor="middle" x="870.249" y="-366.637" font-family="Times New Roman,serif" font-size="14.00">Volume 1 &#45;1</text>
<text text-anchor="middle" x="870.249" y="-351.637" font-family="Times New Roman,serif" font-size="14.00">Outflow 1 &#45;1</text>
</g>
<!-- 5&#45;&gt;12 -->
<g id="edge23" class="edge"><title>5&#45;&gt;12</title>
<path fill="none" stroke="black" d="M1045.37,-887.529C1043.38,-843.889 1044.25,-768.72 1044.25,-704.197 1044.25,-704.197 1044.25,-704.197 1044.25,-591.243 1044.25,-524.097 1052.97,-496.425 1011.25,-443.813 991.879,-419.386 962.227,-402.68 935.058,-391.524"/>
<polygon fill="black" stroke="black" points="936.16,-388.196 925.572,-387.805 933.605,-394.714 936.16,-388.196"/>
</g>
<!-- 13 -->
<g id="node14" class="node"><title>13</title>
<ellipse fill="none" stroke="black" cx="814.249" cy="-814.15" rx="62.4516" ry="37.4533"/>
<text text-anchor="middle" x="814.249" y="-825.45" font-family="Times New Roman,serif" font-size="14.00">Inflow 1 0</text>
<text text-anchor="middle" x="814.249" y="-810.45" font-family="Times New Roman,serif" font-size="14.00">Volume 1 &#45;1</text>
<text text-anchor="middle" x="814.249" y="-795.45" font-family="Times New Roman,serif" font-size="14.00">Outflow 1 &#45;1</text>
</g>
<!-- 5&#45;&gt;13 -->
<g id="edge26" class="edge"><title>5&#45;&gt;13</title>
<path fill="none" stroke="black" d="M1002.42,-904.119C963.871,-887.135 910.182,-862.552 869.972,-843.529"/>
<polygon fill="black" stroke="black" points="871.369,-840.318 860.835,-839.191 868.367,-846.641 871.369,-840.318"/>
</g>
<!-- 6&#45;&gt;6 -->
<g id="edge27" class="edge"><title>6&#45;&gt;6</title>
<path fill="none" stroke="black" d="M968.298,-1278.58C983.75,-1278.26 995.939,-1271.39 995.939,-1257.96 995.939,-1247.68 988.794,-1241.25 978.51,-1238.65"/>
<polygon fill="black" stroke="black" points="978.661,-1235.14 968.298,-1237.35 977.776,-1242.09 978.661,-1235.14"/>
</g>
<!-- 6&#45;&gt;8 -->
<g id="edge29" class="edge"><title>6&#45;&gt;8</title>
<path fill="none" stroke="black" d="M886.327,-1289.58C868.952,-1303.81 847.381,-1320.75 828.203,-1335.22"/>
<polygon fill="black" stroke="black" points="826.05,-1332.46 820.15,-1341.26 830.25,-1338.06 826.05,-1332.46"/>
</g>
<!-- 14 -->
<g id="node15" class="node"><title>14</title>
<ellipse fill="none" stroke="black" cx="928.249" cy="-1036.06" rx="62.4516" ry="37.4533"/>
<text text-anchor="middle" x="928.249" y="-1047.36" font-family="Times New Roman,serif" font-size="14.00">Inflow 1 1</text>
<text text-anchor="middle" x="928.249" y="-1032.36" font-family="Times New Roman,serif" font-size="14.00">Volume 2 &#45;1</text>
<text text-anchor="middle" x="928.249" y="-1017.36" font-family="Times New Roman,serif" font-size="14.00">Outflow 2 &#45;1</text>
</g>
<!-- 6&#45;&gt;14 -->
<g id="edge28" class="edge"><title>6&#45;&gt;14</title>
<path fill="none" stroke="black" d="M920.756,-1220.16C922.289,-1182.7 924.67,-1124.52 926.335,-1083.82"/>
<polygon fill="black" stroke="black" points="929.841,-1083.75 926.753,-1073.62 922.847,-1083.47 929.841,-1083.75"/>
</g>
<!-- 15 -->
<g id="node16" class="node"><title>15</title>
<ellipse fill="none" stroke="black" cx="724.249" cy="-1147.01" rx="62.4516" ry="37.4533"/>
<text text-anchor="middle" x="724.249" y="-1158.31" font-family="Times New Roman,serif" font-size="14.00">Inflow 1 0</text>
<text text-anchor="middle" x="724.249" y="-1143.31" font-family="Times New Roman,serif" font-size="14.00">Volume 2 &#45;1</text>
<text text-anchor="middle" x="724.249" y="-1128.31" font-family="Times New Roman,serif" font-size="14.00">Outflow 2 &#45;1</text>
</g>
<!-- 6&#45;&gt;15 -->
<g id="edge30" class="edge"><title>6&#45;&gt;15</title>
<path fill="none" stroke="black" d="M875.487,-1232.51C846.667,-1216.41 808.735,-1195.22 778.071,-1178.08"/>
<polygon fill="black" stroke="black" points="779.655,-1174.96 769.218,-1173.14 776.24,-1181.07 779.655,-1174.96"/>
</g>
<!-- 7&#45;&gt;3 -->
<g id="edge35" class="edge"><title>7&#45;&gt;3</title>
<path fill="none" stroke="black" d="M929.174,-259.948C998.48,-262.027 1113.38,-274.668 1189.25,-332.86 1248.24,-378.101 1268.25,-405.951 1268.25,-480.29 1268.25,-1480.87 1268.25,-1480.87 1268.25,-1480.87 1268.25,-1560.08 1199.66,-1630.11 1150.03,-1668.84"/>
<polygon fill="black" stroke="black" points="1147.76,-1666.17 1141.93,-1675.01 1152.01,-1671.73 1147.76,-1666.17"/>
</g>
<!-- 7&#45;&gt;4 -->
<g id="edge32" class="edge"><title>7&#45;&gt;4</title>
<path fill="none" stroke="black" d="M928.781,-263.565C986.415,-269.405 1073.81,-285.958 1132.25,-332.86 1190.39,-379.522 1212.25,-405.74 1212.25,-480.29 1212.25,-1148.01 1212.25,-1148.01 1212.25,-1148.01 1212.25,-1328.92 1037.53,-1490.23 949.92,-1557.09"/>
<polygon fill="black" stroke="black" points="947.605,-1554.45 941.722,-1563.27 951.816,-1560.05 947.605,-1554.45"/>
</g>
<!-- 7&#45;&gt;5 -->
<g id="edge34" class="edge"><title>7&#45;&gt;5</title>
<path fill="none" stroke="black" d="M921.397,-277.919C994.11,-307.957 1118.25,-376.26 1118.25,-480.29 1118.25,-704.197 1118.25,-704.197 1118.25,-704.197 1118.25,-767.098 1095.79,-836.874 1076.65,-880.609"/>
<polygon fill="black" stroke="black" points="1073.43,-879.247 1072.5,-889.802 1079.81,-882.127 1073.43,-879.247"/>
</g>
<!-- 7&#45;&gt;7 -->
<g id="edge31" class="edge"><title>7&#45;&gt;7</title>
<path fill="none" stroke="black" d="M919.298,-279.997C934.75,-279.682 946.939,-272.811 946.939,-259.383 946.939,-249.103 939.794,-242.665 929.51,-240.071"/>
<polygon fill="black" stroke="black" points="929.661,-236.562 919.298,-238.77 928.776,-243.506 929.661,-236.562"/>
</g>
<!-- 7&#45;&gt;9 -->
<g id="edge38" class="edge"><title>7&#45;&gt;9</title>
<path fill="none" stroke="black" d="M818.55,-241.584C703.158,-202.432 425.5,-105.107 302.974,-60.9275"/>
<polygon fill="black" stroke="black" points="303.961,-57.5629 293.367,-57.4574 301.583,-64.1466 303.961,-57.5629"/>
</g>
<!-- 7&#45;&gt;10 -->
<g id="edge37" class="edge"><title>7&#45;&gt;10</title>
<path fill="none" stroke="black" d="M814.151,-247.438C717.648,-227.723 521.024,-186.243 418.922,-164.096"/>
<polygon fill="black" stroke="black" points="419.559,-160.653 409.044,-161.949 418.073,-167.493 419.559,-160.653"/>
</g>
<!-- 7&#45;&gt;12 -->
<g id="edge36" class="edge"><title>7&#45;&gt;12</title>
<path fill="none" stroke="black" d="M876.661,-296.876C876.987,-305.252 877.077,-314.266 876.932,-322.996"/>
<polygon fill="black" stroke="black" points="873.432,-322.963 876.653,-333.057 880.429,-323.158 873.432,-322.963"/>
</g>
<!-- 7&#45;&gt;13 -->
<g id="edge33" class="edge"><title>7&#45;&gt;13</title>
<path fill="none" stroke="black" d="M917.811,-281.424C937.45,-293.701 957.899,-311.083 968.249,-332.86 982.549,-362.947 973.454,-374.91 968.249,-407.813 943.951,-561.433 919.794,-596.993 860.249,-740.673 856.067,-750.765 851.035,-761.374 845.801,-771.265"/>
<polygon fill="black" stroke="black" points="842.689,-769.661 840.955,-780.113 848.829,-773.023 842.689,-769.661"/>
</g>
<!-- 16 -->
<g id="node17" class="node"><title>16</title>
<ellipse fill="none" stroke="black" cx="578.249" cy="-703.197" rx="62.4516" ry="37.4533"/>
<text text-anchor="middle" x="578.249" y="-714.497" font-family="Times New Roman,serif" font-size="14.00">Inflow 1 &#45;1</text>
<text text-anchor="middle" x="578.249" y="-699.497" font-family="Times New Roman,serif" font-size="14.00">Volume 1 &#45;1</text>
<text text-anchor="middle" x="578.249" y="-684.497" font-family="Times New Roman,serif" font-size="14.00">Outflow 1 &#45;1</text>
</g>
<!-- 7&#45;&gt;16 -->
<g id="edge39" class="edge"><title>7&#45;&gt;16</title>
<path fill="none" stroke="black" d="M820.027,-279.147C792.578,-290.785 759.795,-308.283 737.249,-332.86 649.94,-428.035 610.212,-580.721 591.604,-656.491"/>
<polygon fill="black" stroke="black" points="588.201,-655.674 589.223,-666.219 595.001,-657.338 588.201,-655.674"/>
</g>
<!-- 8&#45;&gt;6 -->
<g id="edge42" class="edge"><title>8&#45;&gt;6</title>
<path fill="none" stroke="black" d="M812.845,-1337.57C830.191,-1323.35 851.785,-1306.39 871.012,-1291.87"/>
<polygon fill="black" stroke="black" points="873.19,-1294.61 879.088,-1285.81 868.989,-1289.01 873.19,-1294.61"/>
</g>
<!-- 8&#45;&gt;8 -->
<g id="edge40" class="edge"><title>8&#45;&gt;8</title>
<path fill="none" stroke="black" d="M829.298,-1389.53C844.75,-1389.22 856.939,-1382.34 856.939,-1368.92 856.939,-1358.64 849.794,-1352.2 839.51,-1349.6"/>
<polygon fill="black" stroke="black" points="839.661,-1346.1 829.298,-1348.3 838.776,-1353.04 839.661,-1346.1"/>
</g>
<!-- 8&#45;&gt;11 -->
<g id="edge44" class="edge"><title>8&#45;&gt;11</title>
<path fill="none" stroke="black" d="M734.596,-1392.62C694.578,-1411.01 636.296,-1436.83 592.855,-1455.42"/>
<polygon fill="black" stroke="black" points="591.371,-1452.25 583.545,-1459.39 594.117,-1458.69 591.371,-1452.25"/>
</g>
<!-- 8&#45;&gt;14 -->
<g id="edge43" class="edge"><title>8&#45;&gt;14</title>
<path fill="none" stroke="black" d="M796.088,-1332.51C823.203,-1271.89 878.462,-1148.36 908.215,-1081.84"/>
<polygon fill="black" stroke="black" points="911.524,-1083.02 912.413,-1072.46 905.135,-1080.16 911.524,-1083.02"/>
</g>
<!-- 8&#45;&gt;15 -->
<g id="edge41" class="edge"><title>8&#45;&gt;15</title>
<path fill="none" stroke="black" d="M771.002,-1331.6C761.416,-1293.96 746.404,-1235.01 735.988,-1194.11"/>
<polygon fill="black" stroke="black" points="739.37,-1193.2 733.51,-1184.38 732.586,-1194.93 739.37,-1193.2"/>
</g>
<!-- 17 -->
<g id="node18" class="node"><title>17</title>
<ellipse fill="none" stroke="black" cx="558.249" cy="-925.103" rx="62.4516" ry="37.4533"/>
<text text-anchor="middle" x="558.249" y="-936.403" font-family="Times New Roman,serif" font-size="14.00">Inflow 1 &#45;1</text>
<text text-anchor="middle" x="558.249" y="-921.403" font-family="Times New Roman,serif" font-size="14.00">Volume 2 &#45;1</text>
<text text-anchor="middle" x="558.249" y="-906.403" font-family="Times New Roman,serif" font-size="14.00">Outflow 2 &#45;1</text>
</g>
<!-- 8&#45;&gt;17 -->
<g id="edge45" class="edge"><title>8&#45;&gt;17</title>
<path fill="none" stroke="black" d="M753.965,-1335.3C713.484,-1283.26 636.461,-1176.76 597.249,-1073.53 584.719,-1040.54 574.664,-1001.94 567.904,-972.515"/>
<polygon fill="black" stroke="black" points="571.263,-971.499 565.652,-962.513 564.434,-973.037 571.263,-971.499"/>
</g>
<!-- 9&#45;&gt;4 -->
<g id="edge49" class="edge"><title>9&#45;&gt;4</title>
<path fill="none" stroke="black" d="M196.176,-60.1861C130.111,-92.357 18.2493,-159.707 18.2493,-258.383 18.2493,-704.197 18.2493,-704.197 18.2493,-704.197 18.2493,-1092.09 2.29656,-1318.34 335.249,-1517.35 418.181,-1566.91 700.286,-1582.9 832.256,-1587.79"/>
<polygon fill="black" stroke="black" points="832.521,-1591.31 842.64,-1588.17 832.772,-1584.31 832.521,-1591.31"/>
</g>
<!-- 9&#45;&gt;7 -->
<g id="edge50" class="edge"><title>9&#45;&gt;7</title>
<path fill="none" stroke="black" d="M295.055,-55.3126C410.55,-94.5005 688.221,-191.831 810.647,-235.977"/>
<polygon fill="black" stroke="black" points="809.651,-239.338 820.246,-239.444 812.03,-232.755 809.651,-239.338"/>
</g>
<!-- 9&#45;&gt;8 -->
<g id="edge51" class="edge"><title>9&#45;&gt;8</title>
<path fill="none" stroke="black" d="M235.659,-74.6547C220.572,-149.836 188.249,-328.597 188.249,-480.29 188.249,-704.197 188.249,-704.197 188.249,-704.197 188.249,-1025.2 578.676,-1262.56 725.399,-1340.42"/>
<polygon fill="black" stroke="black" points="723.81,-1343.54 734.289,-1345.1 727.071,-1337.35 723.81,-1343.54"/>
</g>
<!-- 9&#45;&gt;9 -->
<g id="edge46" class="edge"><title>9&#45;&gt;9</title>
<path fill="none" stroke="black" d="M292.298,-58.0903C307.75,-57.7756 319.939,-50.9044 319.939,-37.4767 319.939,-27.1961 312.794,-20.7587 302.51,-18.1648"/>
<polygon fill="black" stroke="black" points="302.661,-14.6557 292.298,-16.863 301.776,-21.5995 302.661,-14.6557"/>
</g>
<!-- 9&#45;&gt;10 -->
<g id="edge47" class="edge"><title>9&#45;&gt;10</title>
<path fill="none" stroke="black" d="M278.966,-67.5936C292.268,-79.9328 307.271,-94.5065 320.399,-107.802"/>
<polygon fill="black" stroke="black" points="317.981,-110.336 327.477,-115.035 322.985,-105.44 317.981,-110.336"/>
</g>
<!-- 9&#45;&gt;11 -->
<g id="edge48" class="edge"><title>9&#45;&gt;11</title>
<path fill="none" stroke="black" d="M225.992,-73.5477C220.869,-85.2088 215.708,-98.4207 212.249,-110.953 199.011,-158.921 203.148,-172.496 197.249,-221.907 164.07,-499.814 141.375,-576.595 193.249,-851.627 240.904,-1104.28 184.874,-1215.62 357.249,-1406.39 385.962,-1438.17 430.669,-1456.32 467.968,-1466.52"/>
<polygon fill="black" stroke="black" points="467.214,-1469.94 477.773,-1469.06 468.973,-1463.16 467.214,-1469.94"/>
</g>
<!-- 10&#45;&gt;4 -->
<g id="edge56" class="edge"><title>10&#45;&gt;4</title>
<path fill="none" stroke="black" d="M305.924,-170.004C280.706,-181.854 250.986,-199.001 230.249,-221.907 110.657,-354.005 74.2493,-413.052 74.2493,-591.243 74.2493,-704.197 74.2493,-704.197 74.2493,-704.197 74.2493,-868.631 233.294,-1326.16 304.249,-1406.39 364.265,-1474.26 390.794,-1484.56 475.249,-1517.35 595.613,-1564.08 746.173,-1580.69 832.336,-1586.59"/>
<polygon fill="black" stroke="black" points="832.31,-1590.09 842.518,-1587.26 832.768,-1583.11 832.31,-1590.09"/>
</g>
<!-- 10&#45;&gt;7 -->
<g id="edge55" class="edge"><title>10&#45;&gt;7</title>
<path fill="none" stroke="black" d="M409.941,-160.293C506.165,-179.947 702.793,-221.426 805.157,-243.626"/>
<polygon fill="black" stroke="black" points="804.547,-247.075 815.063,-245.779 806.034,-240.235 804.547,-247.075"/>
</g>
<!-- 10&#45;&gt;9 -->
<g id="edge53" class="edge"><title>10&#45;&gt;9</title>
<path fill="none" stroke="black" d="M318.754,-118.519C305.443,-106.178 290.403,-91.5736 277.234,-78.2405"/>
<polygon fill="black" stroke="black" points="279.629,-75.6844 270.133,-70.9864 274.627,-80.581 279.629,-75.6844"/>
</g>
<!-- 10&#45;&gt;10 -->
<g id="edge52" class="edge"><title>10&#45;&gt;10</title>
<path fill="none" stroke="black" d="M403.298,-169.044C418.75,-168.729 430.939,-161.858 430.939,-148.43 430.939,-138.149 423.794,-131.712 413.51,-129.118"/>
<polygon fill="black" stroke="black" points="413.661,-125.609 403.298,-127.816 412.776,-132.553 413.661,-125.609"/>
</g>
<!-- 10&#45;&gt;13 -->
<g id="edge57" class="edge"><title>10&#45;&gt;13</title>
<path fill="none" stroke="black" d="M389.412,-178.989C443.378,-230.101 547.362,-339.557 620.249,-443.813 697.227,-553.92 768.212,-696.08 798.88,-767.671"/>
<polygon fill="black" stroke="black" points="795.826,-769.439 802.936,-777.294 802.277,-766.719 795.826,-769.439"/>
</g>
<!-- 10&#45;&gt;16 -->
<g id="edge54" class="edge"><title>10&#45;&gt;16</title>
<path fill="none" stroke="black" d="M367.585,-185.054C387.331,-252.121 425.788,-400.979 478.249,-518.767 500.48,-568.679 533.278,-621.969 555.365,-658.175"/>
<polygon fill="black" stroke="black" points="552.548,-660.278 560.737,-667 558.527,-656.638 552.548,-660.278"/>
</g>
<!-- 18 -->
<g id="node19" class="node"><title>18</title>
<ellipse fill="none" stroke="black" cx="354.249" cy="-592.243" rx="62.4516" ry="37.4533"/>
<text text-anchor="middle" x="354.249" y="-603.543" font-family="Times New Roman,serif" font-size="14.00">Inflow 0 0</text>
<text text-anchor="middle" x="354.249" y="-588.543" font-family="Times New Roman,serif" font-size="14.00">Volume 1 &#45;1</text>
<text text-anchor="middle" x="354.249" y="-573.543" font-family="Times New Roman,serif" font-size="14.00">Outflow 1 &#45;1</text>
</g>
<!-- 10&#45;&gt;18 -->
<g id="edge58" class="edge"><title>10&#45;&gt;18</title>
<path fill="none" stroke="black" d="M354.249,-186.004C354.249,-265.989 354.249,-456.353 354.249,-544.71"/>
<polygon fill="black" stroke="black" points="350.749,-544.712 354.249,-554.712 357.749,-544.712 350.749,-544.712"/>
</g>
<!-- 11&#45;&gt;8 -->
<g id="edge61" class="edge"><title>11&#45;&gt;8</title>
<path fill="none" stroke="black" d="M579.916,-1456.16C619.865,-1437.8 678.006,-1412.04 721.419,-1393.46"/>
<polygon fill="black" stroke="black" points="722.899,-1396.63 730.724,-1389.49 720.153,-1390.2 722.899,-1396.63"/>
</g>
<!-- 11&#45;&gt;11 -->
<g id="edge59" class="edge"><title>11&#45;&gt;11</title>
<path fill="none" stroke="black" d="M583.298,-1500.48C598.75,-1500.17 610.939,-1493.3 610.939,-1479.87 610.939,-1469.59 603.794,-1463.15 593.51,-1460.56"/>
<polygon fill="black" stroke="black" points="593.661,-1457.05 583.298,-1459.26 592.776,-1463.99 593.661,-1457.05"/>
</g>
<!-- 11&#45;&gt;15 -->
<g id="edge62" class="edge"><title>11&#45;&gt;15</title>
<path fill="none" stroke="black" d="M554.045,-1444.4C588.858,-1383.78 660.966,-1258.21 699.194,-1191.64"/>
<polygon fill="black" stroke="black" points="702.411,-1193.07 704.356,-1182.65 696.34,-1189.58 702.411,-1193.07"/>
</g>
<!-- 11&#45;&gt;17 -->
<g id="edge60" class="edge"><title>11&#45;&gt;17</title>
<path fill="none" stroke="black" d="M504.473,-1447.45C469.516,-1407.14 416.249,-1333.49 416.249,-1258.96 416.249,-1258.96 416.249,-1258.96 416.249,-1146.01 416.249,-1072.06 473.627,-1003.26 515.436,-962.955"/>
<polygon fill="black" stroke="black" points="517.922,-965.421 522.783,-956.007 513.112,-960.335 517.922,-965.421"/>
</g>
<!-- 19 -->
<g id="node20" class="node"><title>19</title>
<ellipse fill="none" stroke="black" cx="392.249" cy="-814.15" rx="62.4516" ry="37.4533"/>
<text text-anchor="middle" x="392.249" y="-825.45" font-family="Times New Roman,serif" font-size="14.00">Inflow 0 0</text>
<text text-anchor="middle" x="392.249" y="-810.45" font-family="Times New Roman,serif" font-size="14.00">Volume 2 &#45;1</text>
<text text-anchor="middle" x="392.249" y="-795.45" font-family="Times New Roman,serif" font-size="14.00">Outflow 2 &#45;1</text>
</g>
<!-- 11&#45;&gt;19 -->
<g id="edge63" class="edge"><title>11&#45;&gt;19</title>
<path fill="none" stroke="black" d="M490.228,-1454.71C432.99,-1419.7 340.249,-1349.08 340.249,-1258.96 340.249,-1258.96 340.249,-1258.96 340.249,-1035.06 340.249,-973.235 359.952,-904.199 375.102,-860.254"/>
<polygon fill="black" stroke="black" points="378.436,-861.323 378.451,-850.728 371.832,-859.001 378.436,-861.323"/>
</g>
<!-- 12&#45;&gt;5 -->
<g id="edge65" class="edge"><title>12&#45;&gt;5</title>
<path fill="none" stroke="black" d="M928.637,-383.518C963.101,-394.057 1004.54,-412.653 1029.25,-443.813 1070.97,-496.425 1062.25,-524.097 1062.25,-591.243 1062.25,-704.197 1062.25,-704.197 1062.25,-704.197 1062.25,-763.932 1061.5,-832.79 1058.87,-877.308"/>
<polygon fill="black" stroke="black" points="1055.36,-877.321 1058.2,-887.529 1062.34,-877.779 1055.36,-877.321"/>
</g>
<!-- 12&#45;&gt;7 -->
<g id="edge67" class="edge"><title>12&#45;&gt;7</title>
<path fill="none" stroke="black" d="M863.846,-333.057C863.516,-324.692 863.421,-315.681 863.563,-306.947"/>
<polygon fill="black" stroke="black" points="867.064,-306.968 863.837,-296.876 860.066,-306.777 867.064,-306.968"/>
</g>
<!-- 12&#45;&gt;12 -->
<g id="edge64" class="edge"><title>12&#45;&gt;12</title>
<path fill="none" stroke="black" d="M922.333,-390.93C938.128,-390.414 950.475,-383.55 950.475,-370.337 950.475,-360.117 943.089,-353.696 932.434,-351.071"/>
<polygon fill="black" stroke="black" points="932.704,-347.577 922.333,-349.743 931.791,-354.517 932.704,-347.577"/>
</g>
<!-- 12&#45;&gt;13 -->
<g id="edge66" class="edge"><title>12&#45;&gt;13</title>
<path fill="none" stroke="black" d="M869.538,-407.992C862.996,-488.146 838.953,-678.87 824.423,-767.02"/>
<polygon fill="black" stroke="black" points="820.953,-766.552 822.744,-776.994 827.856,-767.714 820.953,-766.552"/>
</g>
<!-- 13&#45;&gt;5 -->
<g id="edge71" class="edge"><title>13&#45;&gt;5</title>
<path fill="none" stroke="black" d="M864.959,-835.961C903.856,-853.13 957.34,-877.638 997.069,-896.455"/>
<polygon fill="black" stroke="black" points="995.81,-899.731 1006.34,-900.864 998.815,-893.409 995.81,-899.731"/>
</g>
<!-- 13&#45;&gt;7 -->
<g id="edge69" class="edge"><title>13&#45;&gt;7</title>
<path fill="none" stroke="black" d="M825.462,-777.181C830.961,-765.695 837.219,-752.811 842.249,-740.673 901.794,-596.993 925.951,-561.433 950.249,-407.813 955.454,-374.91 964.549,-362.947 950.249,-332.86 942.953,-317.509 930.638,-304.341 917.793,-293.607"/>
<polygon fill="black" stroke="black" points="919.775,-290.712 909.766,-287.239 915.425,-296.196 919.775,-290.712"/>
</g>
<!-- 13&#45;&gt;10 -->
<g id="edge73" class="edge"><title>13&#45;&gt;10</title>
<path fill="none" stroke="black" d="M793.25,-778.605C757.838,-711.482 683.371,-559.848 602.249,-443.813 533.936,-346.099 438.305,-243.817 387.965,-189.284"/>
<polygon fill="black" stroke="black" points="390.521,-186.893 381.17,-181.911 385.373,-191.637 390.521,-186.893"/>
</g>
<!-- 13&#45;&gt;12 -->
<g id="edge70" class="edge"><title>13&#45;&gt;12</title>
<path fill="none" stroke="black" d="M814.951,-776.619C821.474,-696.573 845.516,-505.836 860.055,-417.588"/>
<polygon fill="black" stroke="black" points="863.528,-418.043 861.736,-407.601 856.625,-416.881 863.528,-418.043"/>
</g>
<!-- 13&#45;&gt;13 -->
<g id="edge68" class="edge"><title>13&#45;&gt;13</title>
<path fill="none" stroke="black" d="M866.333,-834.743C882.128,-834.227 894.475,-827.363 894.475,-814.15 894.475,-803.931 887.089,-797.509 876.434,-794.885"/>
<polygon fill="black" stroke="black" points="876.704,-791.39 866.333,-793.556 875.791,-798.33 876.704,-791.39"/>
</g>
<!-- 13&#45;&gt;16 -->
<g id="edge72" class="edge"><title>13&#45;&gt;16</title>
<path fill="none" stroke="black" d="M763.579,-792.272C725.379,-775.339 673.125,-751.302 633.796,-732.616"/>
<polygon fill="black" stroke="black" points="635.134,-729.376 624.601,-728.231 632.121,-735.694 635.134,-729.376"/>
</g>
<!-- 14&#45;&gt;5 -->
<g id="edge76" class="edge"><title>14&#45;&gt;5</title>
<path fill="none" stroke="black" d="M962.512,-1004.71C977.16,-991.731 994.393,-976.467 1009.76,-962.858"/>
<polygon fill="black" stroke="black" points="1012.43,-965.164 1017.6,-955.913 1007.79,-959.924 1012.43,-965.164"/>
</g>
<!-- 14&#45;&gt;7 -->
<g id="edge79" class="edge"><title>14&#45;&gt;7</title>
<path fill="none" stroke="black" d="M990.285,-1030.65C1038.01,-1023.78 1101.64,-1006.39 1137.25,-962.58 1178.92,-911.316 1156.25,-881.216 1156.25,-815.15 1156.25,-815.15 1156.25,-815.15 1156.25,-480.29 1156.25,-405.527 1132.23,-381.258 1075.25,-332.86 1036.01,-299.533 980.402,-281.146 936.999,-271.239"/>
<polygon fill="black" stroke="black" points="937.609,-267.789 927.092,-269.075 936.115,-274.628 937.609,-267.789"/>
</g>
<!-- 14&#45;&gt;12 -->
<g id="edge75" class="edge"><title>14&#45;&gt;12</title>
<path fill="none" stroke="black" d="M940.547,-999.298C966.43,-918.834 1021.06,-717.818 982.249,-554.767 969.33,-500.496 933.298,-447.05 905.558,-411.976"/>
<polygon fill="black" stroke="black" points="908.058,-409.501 899.062,-403.904 902.605,-413.889 908.058,-409.501"/>
</g>
<!-- 14&#45;&gt;13 -->
<g id="edge78" class="edge"><title>14&#45;&gt;13</title>
<path fill="none" stroke="black" d="M909.933,-999.725C890.097,-961.46 858.426,-900.367 837.006,-859.048"/>
<polygon fill="black" stroke="black" points="840.041,-857.298 832.332,-850.031 833.827,-860.52 840.041,-857.298"/>
</g>
<!-- 14&#45;&gt;14 -->
<g id="edge74" class="edge"><title>14&#45;&gt;14</title>
<path fill="none" stroke="black" d="M980.333,-1056.65C996.128,-1056.13 1008.47,-1049.27 1008.47,-1036.06 1008.47,-1025.84 1001.09,-1019.42 990.434,-1016.79"/>
<polygon fill="black" stroke="black" points="990.704,-1013.3 980.333,-1015.46 989.791,-1020.24 990.704,-1013.3"/>
</g>
<!-- 14&#45;&gt;15 -->
<g id="edge77" class="edge"><title>14&#45;&gt;15</title>
<path fill="none" stroke="black" d="M884.956,-1063.31C854.837,-1080.01 814.451,-1101.6 781.661,-1118.53"/>
<polygon fill="black" stroke="black" points="779.922,-1115.48 772.629,-1123.17 783.123,-1121.71 779.922,-1115.48"/>
</g>
<!-- 15&#45;&gt;5 -->
<g id="edge85" class="edge"><title>15&#45;&gt;5</title>
<path fill="none" stroke="black" d="M765.148,-1118.21C781.624,-1105.77 800.048,-1090.16 814.249,-1073.53 839.191,-1044.33 827.968,-1023.43 857.249,-998.58 877.638,-981.276 939.833,-959.611 988.367,-944.495"/>
<polygon fill="black" stroke="black" points="989.66,-947.759 998.185,-941.468 987.598,-941.07 989.66,-947.759"/>
</g>
<!-- 15&#45;&gt;7 -->
<g id="edge82" class="edge"><title>15&#45;&gt;7</title>
<path fill="none" stroke="black" d="M724.249,-1109.43C724.249,-1065.79 724.249,-990.624 724.249,-926.103 724.249,-926.103 724.249,-926.103 724.249,-813.15 724.249,-597.101 702.367,-525.969 799.249,-332.86 805.988,-319.428 816.12,-306.9 826.636,-296.164"/>
<polygon fill="black" stroke="black" points="829.232,-298.521 833.94,-289.029 824.341,-293.513 829.232,-298.521"/>
</g>
<!-- 15&#45;&gt;10 -->
<g id="edge88" class="edge"><title>15&#45;&gt;10</title>
<path fill="none" stroke="black" d="M673.975,-1124.82C586.575,-1085.17 407.706,-990.956 321.249,-851.627 259.245,-751.703 264.249,-710.841 264.249,-593.243 264.249,-593.243 264.249,-593.243 264.249,-369.337 264.249,-303.673 299.045,-234.647 325.365,-191.826"/>
<polygon fill="black" stroke="black" points="328.492,-193.429 330.838,-183.097 322.561,-189.711 328.492,-193.429"/>
</g>
<!-- 15&#45;&gt;12 -->
<g id="edge84" class="edge"><title>15&#45;&gt;12</title>
<path fill="none" stroke="black" d="M745.643,-1111.79C753.147,-1099.72 761.608,-1086.05 769.249,-1073.53 789.498,-1040.37 794.185,-1031.85 814.249,-998.58 853.679,-933.191 882.715,-925.171 903.249,-851.627 946.437,-696.95 906.205,-503.896 883.447,-417.209"/>
<polygon fill="black" stroke="black" points="886.794,-416.179 880.832,-407.421 880.031,-417.986 886.794,-416.179"/>
</g>
<!-- 15&#45;&gt;13 -->
<g id="edge81" class="edge"><title>15&#45;&gt;13</title>
<path fill="none" stroke="black" d="M734.052,-1109.97C750.497,-1049.52 783.616,-927.763 801.724,-861.194"/>
<polygon fill="black" stroke="black" points="805.142,-861.963 804.39,-851.395 798.388,-860.125 805.142,-861.963"/>
</g>
<!-- 15&#45;&gt;14 -->
<g id="edge83" class="edge"><title>15&#45;&gt;14</title>
<path fill="none" stroke="black" d="M767.253,-1119.91C797.449,-1103.17 838.067,-1081.46 870.989,-1064.46"/>
<polygon fill="black" stroke="black" points="872.761,-1067.49 880.055,-1059.8 869.561,-1061.26 872.761,-1067.49"/>
</g>
<!-- 15&#45;&gt;15 -->
<g id="edge80" class="edge"><title>15&#45;&gt;15</title>
<path fill="none" stroke="black" d="M776.333,-1167.6C792.128,-1167.09 804.475,-1160.22 804.475,-1147.01 804.475,-1136.79 797.089,-1130.37 786.434,-1127.74"/>
<polygon fill="black" stroke="black" points="786.704,-1124.25 776.333,-1126.42 785.791,-1131.19 786.704,-1124.25"/>
</g>
<!-- 15&#45;&gt;16 -->
<g id="edge87" class="edge"><title>15&#45;&gt;16</title>
<path fill="none" stroke="black" d="M714.328,-1109.81C700.372,-1059.61 673.681,-966.147 647.249,-887.627 631.207,-839.969 610.69,-786.202 596.212,-749.264"/>
<polygon fill="black" stroke="black" points="599.4,-747.807 592.483,-739.781 592.886,-750.368 599.4,-747.807"/>
</g>
<!-- 15&#45;&gt;17 -->
<g id="edge86" class="edge"><title>15&#45;&gt;17</title>
<path fill="none" stroke="black" d="M685.069,-1117.73C670.993,-1104.85 655.66,-1089.04 643.249,-1073.53 617.21,-1040.99 592.064,-1000.95 575.731,-970.812"/>
<polygon fill="black" stroke="black" points="578.728,-968.993 570.953,-961.796 572.543,-972.271 578.728,-968.993"/>
</g>
<!-- 16&#45;&gt;0 -->
<g id="edge94" class="edge"><title>16&#45;&gt;0</title>
<path fill="none" stroke="black" d="M559.73,-739.18C530.942,-793.964 474.199,-903.57 430.249,-998.58 258.628,-1369.59 259.515,-1483.51 189.249,-1886.21 183.402,-1919.72 178.539,-1957.8 175.197,-1986.87"/>
<polygon fill="black" stroke="black" points="171.681,-1986.82 174.035,-1997.15 178.637,-1987.6 171.681,-1986.82"/>
</g>
<!-- 16&#45;&gt;7 -->
<g id="edge92" class="edge"><title>16&#45;&gt;7</title>
<path fill="none" stroke="black" d="M579.253,-665.666C588.942,-593.716 628.254,-432.053 719.249,-332.86 742.548,-307.462 776.779,-289.624 806.83,-278"/>
<polygon fill="black" stroke="black" points="808.262,-281.202 816.42,-274.443 805.827,-274.639 808.262,-281.202"/>
</g>
<!-- 16&#45;&gt;10 -->
<g id="edge90" class="edge"><title>16&#45;&gt;10</title>
<path fill="none" stroke="black" d="M549.319,-669.982C522.979,-634.298 485.042,-574.432 460.249,-518.767 410.508,-407.085 373.356,-267.471 359.279,-196.127"/>
<polygon fill="black" stroke="black" points="362.68,-195.277 357.37,-186.108 355.803,-196.587 362.68,-195.277"/>
</g>
<!-- 16&#45;&gt;13 -->
<g id="edge91" class="edge"><title>16&#45;&gt;13</title>
<path fill="none" stroke="black" d="M628.882,-725.058C667.078,-741.988 719.339,-766.028 758.678,-784.719"/>
<polygon fill="black" stroke="black" points="757.343,-787.96 767.876,-789.105 760.356,-781.642 757.343,-787.96"/>
</g>
<!-- 16&#45;&gt;16 -->
<g id="edge89" class="edge"><title>16&#45;&gt;16</title>
<path fill="none" stroke="black" d="M630.333,-723.79C646.128,-723.274 658.475,-716.409 658.475,-703.197 658.475,-692.977 651.089,-686.556 640.434,-683.931"/>
<polygon fill="black" stroke="black" points="640.704,-680.437 630.333,-682.603 639.791,-687.377 640.704,-680.437"/>
</g>
<!-- 16&#45;&gt;18 -->
<g id="edge93" class="edge"><title>16&#45;&gt;18</title>
<path fill="none" stroke="black" d="M530.47,-678.957C495.527,-661.961 447.988,-638.838 411.092,-620.891"/>
<polygon fill="black" stroke="black" points="412.478,-617.674 401.955,-616.447 409.416,-623.969 412.478,-617.674"/>
</g>
<!-- 17&#45;&gt;7 -->
<g id="edge100" class="edge"><title>17&#45;&gt;7</title>
<path fill="none" stroke="black" d="M582.381,-890.548C606.961,-854.937 644.592,-796.242 667.249,-740.673 737.67,-567.963 660.911,-486.781 766.249,-332.86 778.693,-314.677 797.31,-299.631 815.369,-288.05"/>
<polygon fill="black" stroke="black" points="817.474,-290.864 824.159,-282.644 813.808,-284.901 817.474,-290.864"/>
</g>
<!-- 17&#45;&gt;10 -->
<g id="edge97" class="edge"><title>17&#45;&gt;10</title>
<path fill="none" stroke="black" d="M496.471,-920.222C443.65,-913.75 368.839,-896.644 321.249,-851.627 232.363,-767.546 226.249,-715.596 226.249,-593.243 226.249,-593.243 226.249,-593.243 226.249,-369.337 226.249,-302.95 214.886,-278.091 250.249,-221.907 261.986,-203.26 280.449,-188.113 298.582,-176.58"/>
<polygon fill="black" stroke="black" points="300.696,-179.392 307.426,-171.209 297.062,-173.408 300.696,-179.392"/>
</g>
<!-- 17&#45;&gt;13 -->
<g id="edge99" class="edge"><title>17&#45;&gt;13</title>
<path fill="none" stroke="black" d="M608.521,-902.708C650.528,-884.83 710.509,-859.302 754.874,-840.42"/>
<polygon fill="black" stroke="black" points="756.262,-843.633 764.092,-836.497 753.52,-837.192 756.262,-843.633"/>
</g>
<!-- 17&#45;&gt;15 -->
<g id="edge98" class="edge"><title>17&#45;&gt;15</title>
<path fill="none" stroke="black" d="M583.683,-959.387C603.412,-990.2 631.758,-1036.68 661.249,-1073.53 670.077,-1084.57 680.383,-1095.75 690.121,-1105.92"/>
<polygon fill="black" stroke="black" points="687.619,-1108.37 697.082,-1113.14 692.656,-1103.51 687.619,-1108.37"/>
</g>
<!-- 17&#45;&gt;16 -->
<g id="edge96" class="edge"><title>17&#45;&gt;16</title>
<path fill="none" stroke="black" d="M561.597,-887.296C565.003,-849.84 570.295,-791.66 573.996,-750.963"/>
<polygon fill="black" stroke="black" points="577.504,-751.033 574.924,-740.758 570.533,-750.399 577.504,-751.033"/>
</g>
<!-- 17&#45;&gt;17 -->
<g id="edge95" class="edge"><title>17&#45;&gt;17</title>
<path fill="none" stroke="black" d="M610.333,-945.697C626.128,-945.181 638.475,-938.316 638.475,-925.103 638.475,-914.884 631.089,-908.462 620.434,-905.838"/>
<polygon fill="black" stroke="black" points="620.704,-902.344 610.333,-904.51 619.791,-909.284 620.704,-902.344"/>
</g>
<!-- 17&#45;&gt;18 -->
<g id="edge102" class="edge"><title>17&#45;&gt;18</title>
<path fill="none" stroke="black" d="M540.838,-888.817C525.724,-858.675 502.921,-814.343 481.249,-776.673 452.173,-726.134 444.872,-713.355 411.249,-665.72 403.893,-655.297 395.592,-644.34 387.649,-634.191"/>
<polygon fill="black" stroke="black" points="390.323,-631.93 381.379,-626.251 384.829,-636.268 390.323,-631.93"/>
</g>
<!-- 17&#45;&gt;19 -->
<g id="edge101" class="edge"><title>17&#45;&gt;19</title>
<path fill="none" stroke="black" d="M516.789,-896.891C494.209,-882.071 466.104,-863.624 442.31,-848.007"/>
<polygon fill="black" stroke="black" points="444.037,-844.954 433.757,-842.393 440.196,-850.806 444.037,-844.954"/>
</g>
<!-- 18&#45;&gt;0 -->
<g id="edge104" class="edge"><title>18&#45;&gt;0</title>
<path fill="none" stroke="black" d="M313.126,-620.41C297.246,-632.645 280.09,-648.27 268.249,-665.72 113.115,-894.337 76.2493,-980.68 76.2493,-1256.96 76.2493,-1813.73 76.2493,-1813.73 76.2493,-1813.73 76.2493,-1880.15 112.958,-1949.44 140.496,-1992.07"/>
<polygon fill="black" stroke="black" points="137.619,-1994.06 146.042,-2000.49 143.465,-1990.21 137.619,-1994.06"/>
</g>
<!-- 18&#45;&gt;1 -->
<g id="edge106" class="edge"><title>18&#45;&gt;1</title>
<path fill="none" stroke="black" d="M331.365,-627.293C294.548,-685.476 226.249,-808.93 226.249,-924.103 226.249,-1037.06 226.249,-1037.06 226.249,-1037.06 226.249,-1186.2 170.249,-1218.78 170.249,-1367.92 170.249,-1591.82 170.249,-1591.82 170.249,-1591.82 170.249,-1696.97 211.853,-1814.91 237.52,-1877.67"/>
<polygon fill="black" stroke="black" points="234.432,-1879.36 241.494,-1887.26 240.899,-1876.68 234.432,-1879.36"/>
</g>
<!-- 18&#45;&gt;18 -->
<g id="edge103" class="edge"><title>18&#45;&gt;18</title>
<path fill="none" stroke="black" d="M406.333,-612.837C422.128,-612.321 434.475,-605.456 434.475,-592.243 434.475,-582.024 427.089,-575.602 416.434,-572.978"/>
<polygon fill="black" stroke="black" points="416.704,-569.484 406.333,-571.65 415.791,-576.424 416.704,-569.484"/>
</g>
<!-- 20 -->
<g id="node21" class="node"><title>20</title>
<ellipse fill="none" stroke="black" cx="540.249" cy="-481.29" rx="62.4516" ry="37.4533"/>
<text text-anchor="middle" x="540.249" y="-492.59" font-family="Times New Roman,serif" font-size="14.00">Inflow 0 1</text>
<text text-anchor="middle" x="540.249" y="-477.59" font-family="Times New Roman,serif" font-size="14.00">Volume 1 &#45;1</text>
<text text-anchor="middle" x="540.249" y="-462.59" font-family="Times New Roman,serif" font-size="14.00">Outflow 1 &#45;1</text>
</g>
<!-- 18&#45;&gt;20 -->
<g id="edge105" class="edge"><title>18&#45;&gt;20</title>
<path fill="none" stroke="black" d="M398.329,-565.423C424.986,-549.808 459.14,-529.801 487.263,-513.328"/>
<polygon fill="black" stroke="black" points="489.305,-516.188 496.164,-508.114 485.767,-510.148 489.305,-516.188"/>
</g>
<!-- 19&#45;&gt;18 -->
<g id="edge108" class="edge"><title>19&#45;&gt;18</title>
<path fill="none" stroke="black" d="M397.511,-776.795C400.7,-746.578 402.568,-702.702 393.249,-665.72 390.736,-655.744 386.551,-645.646 381.834,-636.285"/>
<polygon fill="black" stroke="black" points="384.78,-634.372 376.982,-627.2 378.606,-637.67 384.78,-634.372"/>
</g>
<!-- 19&#45;&gt;19 -->
<g id="edge107" class="edge"><title>19&#45;&gt;19</title>
<path fill="none" stroke="black" d="M444.333,-834.743C460.128,-834.227 472.475,-827.363 472.475,-814.15 472.475,-803.931 465.089,-797.509 454.434,-794.885"/>
<polygon fill="black" stroke="black" points="454.704,-791.39 444.333,-793.556 453.791,-798.33 454.704,-791.39"/>
</g>
<!-- 19&#45;&gt;20 -->
<g id="edge110" class="edge"><title>19&#45;&gt;20</title>
<path fill="none" stroke="black" d="M408.088,-777.742C435.203,-717.125 490.462,-593.59 520.215,-527.078"/>
<polygon fill="black" stroke="black" points="523.524,-528.25 524.413,-517.693 517.135,-525.392 523.524,-528.25"/>
</g>
<!-- 21 -->
<g id="node22" class="node"><title>21</title>
<ellipse fill="none" stroke="black" cx="357.249" cy="-703.197" rx="27" ry="18"/>
<text text-anchor="middle" x="357.249" y="-699.497" font-family="Times New Roman,serif" font-size="14.00">21</text>
</g>
<!-- 19&#45;&gt;21 -->
<g id="edge109" class="edge"><title>19&#45;&gt;21</title>
<path fill="none" stroke="black" d="M380.692,-777.173C375.837,-762.058 370.289,-744.788 365.809,-730.844"/>
<polygon fill="black" stroke="black" points="369.012,-729.37 362.621,-720.919 362.348,-731.511 369.012,-729.37"/>
</g>
<!-- 20&#45;&gt;5 -->
<g id="edge112" class="edge"><title>20&#45;&gt;5</title>
<path fill="none" stroke="black" d="M578.396,-511.156C645.707,-562.541 789.223,-674.128 903.249,-776.673 942.528,-811.997 985.021,-854.851 1014.36,-885.232"/>
<polygon fill="black" stroke="black" points="1012.06,-887.897 1021.52,-892.675 1017.11,-883.043 1012.06,-887.897"/>
</g>
<!-- 20&#45;&gt;12 -->
<g id="edge111" class="edge"><title>20&#45;&gt;12</title>
<path fill="none" stroke="black" d="M594.373,-462.421C652.604,-443.195 745.127,-412.647 806.755,-392.3"/>
<polygon fill="black" stroke="black" points="807.972,-395.584 816.371,-389.125 805.777,-388.937 807.972,-395.584"/>
</g>
</g>
</svg>
