<?xml version="1.0" encoding="UTF-8" standalone="no"?>
<!DOCTYPE svg PUBLIC "-//W3C//DTD SVG 1.1//EN"
 "http://www.w3.org/Graphics/SVG/1.1/DTD/svg11.dtd">
<!-- Generated by graphviz version 2.38.0 (20140413.2041)
 -->
<!-- Title: %3 Pages: 1 -->
<svg width="1280pt" height="2483pt"
 viewBox="0.00 0.00 1279.54 2483.16" xmlns="http://www.w3.org/2000/svg" xmlns:xlink="http://www.w3.org/1999/xlink">
<g id="graph0" class="graph" transform="scale(1 1) rotate(0) translate(4 2479.16)">
<title>%3</title>
<polygon fill="white" stroke="none" points="-4,4 -4,-2479.16 1275.54,-2479.16 1275.54,4 -4,4"/>
<!-- 0 -->
<g id="node1" class="node"><title>0</title>
<ellipse fill="none" stroke="black" cx="173.536" cy="-2427.08" rx="58.8803" ry="48.1667"/>
<text text-anchor="middle" x="173.536" y="-2445.88" font-family="Times New Roman,serif" font-size="14.00">0</text>
<text text-anchor="middle" x="173.536" y="-2430.88" font-family="Times New Roman,serif" font-size="14.00">Inflow 0 0</text>
<text text-anchor="middle" x="173.536" y="-2415.88" font-family="Times New Roman,serif" font-size="14.00">Volume 0 0</text>
<text text-anchor="middle" x="173.536" y="-2400.88" font-family="Times New Roman,serif" font-size="14.00">Outflow 0 0</text>
</g>
<!-- 0&#45;&gt;0 -->
<g id="edge1" class="edge"><title>0&#45;&gt;0</title>
<path fill="none" stroke="black" d="M224.058,-2451.76C238.804,-2450.9 250.225,-2442.68 250.225,-2427.08 250.225,-2415.26 243.666,-2407.67 234.072,-2404.32"/>
<polygon fill="black" stroke="black" points="234.538,-2400.85 224.058,-2402.4 233.221,-2407.72 234.538,-2400.85"/>
</g>
<!-- 1 -->
<g id="node2" class="node"><title>1</title>
<ellipse fill="none" stroke="black" cx="260.536" cy="-2294.91" rx="58.8803" ry="48.1667"/>
<text text-anchor="middle" x="260.536" y="-2313.71" font-family="Times New Roman,serif" font-size="14.00">1</text>
<text text-anchor="middle" x="260.536" y="-2298.71" font-family="Times New Roman,serif" font-size="14.00">Inflow 0 1</text>
<text text-anchor="middle" x="260.536" y="-2283.71" font-family="Times New Roman,serif" font-size="14.00">Volume 0 0</text>
<text text-anchor="middle" x="260.536" y="-2268.71" font-family="Times New Roman,serif" font-size="14.00">Outflow 0 0</text>
</g>
<!-- 0&#45;&gt;1 -->
<g id="edge2" class="edge"><title>0&#45;&gt;1</title>
<path fill="none" stroke="black" d="M201.302,-2384.54C209.464,-2372.33 218.48,-2358.84 226.963,-2346.14"/>
<polygon fill="black" stroke="black" points="230.087,-2347.77 232.734,-2337.51 224.268,-2343.88 230.087,-2347.77"/>
</g>
<!-- 2 -->
<g id="node3" class="node"><title>2</title>
<ellipse fill="none" stroke="black" cx="904.536" cy="-2162.75" rx="58.8803" ry="48.1667"/>
<text text-anchor="middle" x="904.536" y="-2181.55" font-family="Times New Roman,serif" font-size="14.00">2</text>
<text text-anchor="middle" x="904.536" y="-2166.55" font-family="Times New Roman,serif" font-size="14.00">Inflow 1 1</text>
<text text-anchor="middle" x="904.536" y="-2151.55" font-family="Times New Roman,serif" font-size="14.00">Volume 0 1</text>
<text text-anchor="middle" x="904.536" y="-2136.55" font-family="Times New Roman,serif" font-size="14.00">Outflow 0 1</text>
</g>
<!-- 1&#45;&gt;2 -->
<g id="edge3" class="edge"><title>1&#45;&gt;2</title>
<path fill="none" stroke="black" d="M317.404,-2282.42C436.217,-2258.41 710.267,-2203.01 837.446,-2177.31"/>
<polygon fill="black" stroke="black" points="838.341,-2180.7 847.45,-2175.29 836.954,-2173.84 838.341,-2180.7"/>
</g>
<!-- 3 -->
<g id="node4" class="node"><title>3</title>
<ellipse fill="none" stroke="black" cx="1103.54" cy="-2030.58" rx="58.8803" ry="48.1667"/>
<text text-anchor="middle" x="1103.54" y="-2049.38" font-family="Times New Roman,serif" font-size="14.00">3</text>
<text text-anchor="middle" x="1103.54" y="-2034.38" font-family="Times New Roman,serif" font-size="14.00">Inflow 1 1</text>
<text text-anchor="middle" x="1103.54" y="-2019.38" font-family="Times New Roman,serif" font-size="14.00">Volume 1 1</text>
<text text-anchor="middle" x="1103.54" y="-2004.38" font-family="Times New Roman,serif" font-size="14.00">Outflow 1 1</text>
</g>
<!-- 2&#45;&gt;3 -->
<g id="edge4" class="edge"><title>2&#45;&gt;3</title>
<path fill="none" stroke="black" d="M950.19,-2131.88C979.769,-2112.54 1018.43,-2087.25 1049.53,-2066.9"/>
<polygon fill="black" stroke="black" points="1051.64,-2069.71 1058.09,-2061.3 1047.81,-2063.85 1051.64,-2069.71"/>
</g>
<!-- 4 -->
<g id="node5" class="node"><title>4</title>
<ellipse fill="none" stroke="black" cx="904.536" cy="-1898.41" rx="58.8803" ry="48.1667"/>
<text text-anchor="middle" x="904.536" y="-1917.21" font-family="Times New Roman,serif" font-size="14.00">4</text>
<text text-anchor="middle" x="904.536" y="-1902.21" font-family="Times New Roman,serif" font-size="14.00">Inflow 1 0</text>
<text text-anchor="middle" x="904.536" y="-1887.21" font-family="Times New Roman,serif" font-size="14.00">Volume 1 1</text>
<text text-anchor="middle" x="904.536" y="-1872.21" font-family="Times New Roman,serif" font-size="14.00">Outflow 1 1</text>
</g>
<!-- 2&#45;&gt;4 -->
<g id="edge5" class="edge"><title>2&#45;&gt;4</title>
<path fill="none" stroke="black" d="M904.536,-2114.54C904.536,-2070.29 904.536,-2004.04 904.536,-1956.76"/>
<polygon fill="black" stroke="black" points="908.036,-1956.68 904.536,-1946.68 901.036,-1956.68 908.036,-1956.68"/>
</g>
<!-- 3&#45;&gt;3 -->
<g id="edge6" class="edge"><title>3&#45;&gt;3</title>
<path fill="none" stroke="black" d="M1154.06,-2055.26C1168.8,-2054.4 1180.23,-2046.18 1180.23,-2030.58 1180.23,-2018.76 1173.67,-2011.17 1164.07,-2007.82"/>
<polygon fill="black" stroke="black" points="1164.54,-2004.35 1154.06,-2005.91 1163.22,-2011.22 1164.54,-2004.35"/>
</g>
<!-- 3&#45;&gt;4 -->
<g id="edge9" class="edge"><title>3&#45;&gt;4</title>
<path fill="none" stroke="black" d="M1055.95,-2002.14C1025.8,-1983.25 986.89,-1957.92 956.025,-1937.14"/>
<polygon fill="black" stroke="black" points="957.792,-1934.11 947.547,-1931.41 953.872,-1939.91 957.792,-1934.11"/>
</g>
<!-- 5 -->
<g id="node6" class="node"><title>5</title>
<ellipse fill="none" stroke="black" cx="1054.54" cy="-1105.42" rx="58.8803" ry="48.1667"/>
<text text-anchor="middle" x="1054.54" y="-1124.22" font-family="Times New Roman,serif" font-size="14.00">5</text>
<text text-anchor="middle" x="1054.54" y="-1109.22" font-family="Times New Roman,serif" font-size="14.00">Inflow 1 1</text>
<text text-anchor="middle" x="1054.54" y="-1094.22" font-family="Times New Roman,serif" font-size="14.00">Volume 1 0</text>
<text text-anchor="middle" x="1054.54" y="-1079.22" font-family="Times New Roman,serif" font-size="14.00">Outflow 1 0</text>
</g>
<!-- 3&#45;&gt;5 -->
<g id="edge7" class="edge"><title>3&#45;&gt;5</title>
<path fill="none" stroke="black" d="M1110.54,-1982.64C1122.01,-1930.5 1141.54,-1843.59 1141.54,-1767.25 1141.54,-1767.25 1141.54,-1767.25 1141.54,-1368.75 1141.54,-1292.57 1105.4,-1211.12 1079.54,-1159.54"/>
<polygon fill="black" stroke="black" points="1082.65,-1157.92 1075.01,-1150.58 1076.4,-1161.08 1082.65,-1157.92"/>
</g>
<!-- 6 -->
<g id="node7" class="node"><title>6</title>
<ellipse fill="none" stroke="black" cx="922.536" cy="-1501.92" rx="58.8803" ry="48.1667"/>
<text text-anchor="middle" x="922.536" y="-1520.72" font-family="Times New Roman,serif" font-size="14.00">6</text>
<text text-anchor="middle" x="922.536" y="-1505.72" font-family="Times New Roman,serif" font-size="14.00">Inflow 1 1</text>
<text text-anchor="middle" x="922.536" y="-1490.72" font-family="Times New Roman,serif" font-size="14.00">Volume 2 0</text>
<text text-anchor="middle" x="922.536" y="-1475.72" font-family="Times New Roman,serif" font-size="14.00">Outflow 2 0</text>
</g>
<!-- 3&#45;&gt;6 -->
<g id="edge8" class="edge"><title>3&#45;&gt;6</title>
<path fill="none" stroke="black" d="M1087.95,-1984.22C1054.8,-1887.78 977.428,-1662.64 941.496,-1558.08"/>
<polygon fill="black" stroke="black" points="944.711,-1556.67 938.151,-1548.35 938.091,-1558.95 944.711,-1556.67"/>
</g>
<!-- 7 -->
<g id="node8" class="node"><title>7</title>
<ellipse fill="none" stroke="black" cx="873.536" cy="-312.416" rx="58.8803" ry="48.1667"/>
<text text-anchor="middle" x="873.536" y="-331.216" font-family="Times New Roman,serif" font-size="14.00">7</text>
<text text-anchor="middle" x="873.536" y="-316.216" font-family="Times New Roman,serif" font-size="14.00">Inflow 1 0</text>
<text text-anchor="middle" x="873.536" y="-301.216" font-family="Times New Roman,serif" font-size="14.00">Volume 1 0</text>
<text text-anchor="middle" x="873.536" y="-286.216" font-family="Times New Roman,serif" font-size="14.00">Outflow 1 0</text>
</g>
<!-- 3&#45;&gt;7 -->
<g id="edge10" class="edge"><title>3&#45;&gt;7</title>
<path fill="none" stroke="black" d="M1138.55,-1991.73C1183.01,-1944.27 1253.54,-1858.05 1253.54,-1767.25 1253.54,-1767.25 1253.54,-1767.25 1253.54,-575.749 1253.54,-488.689 1240.63,-453.167 1174.54,-396.5 1108.85,-340.184 1008.8,-321.618 942.243,-315.727"/>
<polygon fill="black" stroke="black" points="942.517,-312.238 932.267,-314.916 941.95,-319.215 942.517,-312.238"/>
</g>
<!-- 8 -->
<g id="node9" class="node"><title>8</title>
<ellipse fill="none" stroke="black" cx="783.536" cy="-1634.08" rx="58.8803" ry="48.1667"/>
<text text-anchor="middle" x="783.536" y="-1652.88" font-family="Times New Roman,serif" font-size="14.00">8</text>
<text text-anchor="middle" x="783.536" y="-1637.88" font-family="Times New Roman,serif" font-size="14.00">Inflow 1 0</text>
<text text-anchor="middle" x="783.536" y="-1622.88" font-family="Times New Roman,serif" font-size="14.00">Volume 2 0</text>
<text text-anchor="middle" x="783.536" y="-1607.88" font-family="Times New Roman,serif" font-size="14.00">Outflow 2 0</text>
</g>
<!-- 3&#45;&gt;8 -->
<g id="edge11" class="edge"><title>3&#45;&gt;8</title>
<path fill="none" stroke="black" d="M1079.59,-1986.3C1058.16,-1948.94 1024.89,-1894.22 990.536,-1850.33 940.235,-1786.08 873.539,-1719.47 829.622,-1677.69"/>
<polygon fill="black" stroke="black" points="831.903,-1675.03 822.236,-1670.69 827.089,-1680.11 831.903,-1675.03"/>
</g>
<!-- 4&#45;&gt;3 -->
<g id="edge15" class="edge"><title>4&#45;&gt;3</title>
<path fill="none" stroke="black" d="M952.057,-1926.82C982.133,-1945.66 1020.94,-1970.92 1051.79,-1991.68"/>
<polygon fill="black" stroke="black" points="1050.02,-1994.71 1060.26,-1997.41 1053.93,-1988.91 1050.02,-1994.71"/>
</g>
<!-- 4&#45;&gt;4 -->
<g id="edge12" class="edge"><title>4&#45;&gt;4</title>
<path fill="none" stroke="black" d="M955.058,-1923.09C969.804,-1922.24 981.225,-1914.01 981.225,-1898.41 981.225,-1886.59 974.666,-1879.01 965.072,-1875.66"/>
<polygon fill="black" stroke="black" points="965.538,-1872.18 955.058,-1873.74 964.221,-1879.06 965.538,-1872.18"/>
</g>
<!-- 4&#45;&gt;5 -->
<g id="edge16" class="edge"><title>4&#45;&gt;5</title>
<path fill="none" stroke="black" d="M915.53,-1850.92C935.883,-1784.93 977.59,-1659.9 999.536,-1550 1026.93,-1412.79 1038.57,-1248.26 1046.22,-1163.34"/>
<polygon fill="black" stroke="black" points="1049.72,-1163.42 1047.15,-1153.14 1042.75,-1162.78 1049.72,-1163.42"/>
</g>
<!-- 4&#45;&gt;6 -->
<g id="edge17" class="edge"><title>4&#45;&gt;6</title>
<path fill="none" stroke="black" d="M906.689,-1850.22C910.002,-1777.6 916.341,-1638.68 919.916,-1560.34"/>
<polygon fill="black" stroke="black" points="923.42,-1560.31 920.38,-1550.16 916.428,-1559.99 923.42,-1560.31"/>
</g>
<!-- 4&#45;&gt;7 -->
<g id="edge13" class="edge"><title>4&#45;&gt;7</title>
<path fill="none" stroke="black" d="M940.068,-1859.78C1018.24,-1778.85 1197.54,-1578.65 1197.54,-1370.75 1197.54,-1370.75 1197.54,-1370.75 1197.54,-575.749 1197.54,-487.957 1180.01,-454.98 1114.54,-396.5 1065.98,-353.138 994.144,-332.31 941.465,-322.364"/>
<polygon fill="black" stroke="black" points="941.992,-318.902 931.529,-320.573 940.75,-325.791 941.992,-318.902"/>
</g>
<!-- 4&#45;&gt;8 -->
<g id="edge14" class="edge"><title>4&#45;&gt;8</title>
<path fill="none" stroke="black" d="M884.146,-1853.21C863.203,-1807.8 830.587,-1737.09 808.203,-1688.56"/>
<polygon fill="black" stroke="black" points="811.375,-1687.08 804.008,-1679.47 805.019,-1690.01 811.375,-1687.08"/>
</g>
<!-- 9 -->
<g id="node10" class="node"><title>9</title>
<ellipse fill="none" stroke="black" cx="246.536" cy="-48.0833" rx="58.8803" ry="48.1667"/>
<text text-anchor="middle" x="246.536" y="-66.8833" font-family="Times New Roman,serif" font-size="14.00">9</text>
<text text-anchor="middle" x="246.536" y="-51.8833" font-family="Times New Roman,serif" font-size="14.00">Inflow 1 &#45;1</text>
<text text-anchor="middle" x="246.536" y="-36.8833" font-family="Times New Roman,serif" font-size="14.00">Volume 1 1</text>
<text text-anchor="middle" x="246.536" y="-21.8833" font-family="Times New Roman,serif" font-size="14.00">Outflow 1 1</text>
</g>
<!-- 4&#45;&gt;9 -->
<g id="edge18" class="edge"><title>4&#45;&gt;9</title>
<path fill="none" stroke="black" d="M845.785,-1895.82C714.205,-1891.11 401.302,-1873.65 317.536,-1814.33 -53.0343,-1551.89 3.53562,-1296.17 3.53562,-842.082 3.53562,-842.082 3.53562,-842.082 3.53562,-311.416 3.53562,-203.581 115.01,-119.631 187.037,-77.9665"/>
<polygon fill="black" stroke="black" points="189.079,-80.8321 196.05,-72.854 185.625,-74.7433 189.079,-80.8321"/>
</g>
<!-- 10 -->
<g id="node11" class="node"><title>10</title>
<ellipse fill="none" stroke="black" cx="357.536" cy="-180.25" rx="58.8803" ry="48.1667"/>
<text text-anchor="middle" x="357.536" y="-199.05" font-family="Times New Roman,serif" font-size="14.00">10</text>
<text text-anchor="middle" x="357.536" y="-184.05" font-family="Times New Roman,serif" font-size="14.00">Inflow 1 &#45;1</text>
<text text-anchor="middle" x="357.536" y="-169.05" font-family="Times New Roman,serif" font-size="14.00">Volume 1 0</text>
<text text-anchor="middle" x="357.536" y="-154.05" font-family="Times New Roman,serif" font-size="14.00">Outflow 1 0</text>
</g>
<!-- 4&#45;&gt;10 -->
<g id="edge19" class="edge"><title>4&#45;&gt;10</title>
<path fill="none" stroke="black" d="M845.503,-1897.21C718.17,-1893.43 419.233,-1864.96 289.536,-1682.16 261.728,-1642.97 59.5356,-1022.15 59.5356,-842.082 59.5356,-842.082 59.5356,-842.082 59.5356,-707.916 59.5356,-499.225 82.8596,-427.047 213.536,-264.333 234.605,-238.098 266.344,-217.971 294.734,-204.102"/>
<polygon fill="black" stroke="black" points="296.264,-207.25 303.816,-199.819 293.279,-200.919 296.264,-207.25"/>
</g>
<!-- 11 -->
<g id="node12" class="node"><title>11</title>
<ellipse fill="none" stroke="black" cx="537.536" cy="-1766.25" rx="58.8803" ry="48.1667"/>
<text text-anchor="middle" x="537.536" y="-1785.05" font-family="Times New Roman,serif" font-size="14.00">11</text>
<text text-anchor="middle" x="537.536" y="-1770.05" font-family="Times New Roman,serif" font-size="14.00">Inflow 1 &#45;1</text>
<text text-anchor="middle" x="537.536" y="-1755.05" font-family="Times New Roman,serif" font-size="14.00">Volume 2 0</text>
<text text-anchor="middle" x="537.536" y="-1740.05" font-family="Times New Roman,serif" font-size="14.00">Outflow 2 0</text>
</g>
<!-- 4&#45;&gt;11 -->
<g id="edge20" class="edge"><title>4&#45;&gt;11</title>
<path fill="none" stroke="black" d="M850.778,-1878.35C784.319,-1854.78 671.375,-1814.72 600.806,-1789.69"/>
<polygon fill="black" stroke="black" points="601.734,-1786.3 591.139,-1786.26 599.394,-1792.9 601.734,-1786.3"/>
</g>
<!-- 5&#45;&gt;3 -->
<g id="edge22" class="edge"><title>5&#45;&gt;3</title>
<path fill="none" stroke="black" d="M1085.58,-1146.54C1116.7,-1196.63 1159.54,-1285.82 1159.54,-1368.75 1159.54,-1767.25 1159.54,-1767.25 1159.54,-1767.25 1159.54,-1840.06 1141.78,-1922.47 1126,-1975.18"/>
<polygon fill="black" stroke="black" points="1122.58,-1974.4 1122.98,-1984.99 1129.27,-1976.46 1122.58,-1974.4"/>
</g>
<!-- 5&#45;&gt;4 -->
<g id="edge25" class="edge"><title>5&#45;&gt;4</title>
<path fill="none" stroke="black" d="M1057.99,-1153.47C1057.49,-1234.94 1046.04,-1407.26 1017.54,-1550 996.325,-1656.22 956.654,-1776.57 930.182,-1844.09"/>
<polygon fill="black" stroke="black" points="926.819,-1843.08 926.376,-1853.66 933.324,-1845.67 926.819,-1843.08"/>
</g>
<!-- 5&#45;&gt;5 -->
<g id="edge21" class="edge"><title>5&#45;&gt;5</title>
<path fill="none" stroke="black" d="M1105.06,-1130.09C1119.8,-1129.24 1131.23,-1121.01 1131.23,-1105.42 1131.23,-1093.6 1124.67,-1086.01 1115.07,-1082.66"/>
<polygon fill="black" stroke="black" points="1115.54,-1079.18 1105.06,-1080.74 1114.22,-1086.06 1115.54,-1079.18"/>
</g>
<!-- 5&#45;&gt;7 -->
<g id="edge24" class="edge"><title>5&#45;&gt;7</title>
<path fill="none" stroke="black" d="M1064.72,-1057.71C1079.44,-1005.78 1103.54,-919.045 1103.54,-842.082 1103.54,-842.082 1103.54,-842.082 1103.54,-575.749 1103.54,-470.727 997.571,-389.255 929.414,-346.534"/>
<polygon fill="black" stroke="black" points="931.234,-343.545 920.887,-341.267 927.555,-349.5 931.234,-343.545"/>
</g>
<!-- 12 -->
<g id="node13" class="node"><title>12</title>
<ellipse fill="none" stroke="black" cx="873.536" cy="-444.583" rx="62.4516" ry="48.1667"/>
<text text-anchor="middle" x="873.536" y="-463.383" font-family="Times New Roman,serif" font-size="14.00">12</text>
<text text-anchor="middle" x="873.536" y="-448.383" font-family="Times New Roman,serif" font-size="14.00">Inflow 1 1</text>
<text text-anchor="middle" x="873.536" y="-433.383" font-family="Times New Roman,serif" font-size="14.00">Volume 1 &#45;1</text>
<text text-anchor="middle" x="873.536" y="-418.383" font-family="Times New Roman,serif" font-size="14.00">Outflow 1 &#45;1</text>
</g>
<!-- 5&#45;&gt;12 -->
<g id="edge23" class="edge"><title>5&#45;&gt;12</title>
<path fill="none" stroke="black" d="M1048.54,-1057.5C1046.7,-1005.02 1047.54,-917.46 1047.54,-842.082 1047.54,-842.082 1047.54,-842.082 1047.54,-707.916 1047.54,-626.91 1061.83,-594.429 1014.54,-528.666 995.717,-502.502 965.989,-483.608 938.625,-470.515"/>
<polygon fill="black" stroke="black" points="940.002,-467.296 929.454,-466.295 937.076,-473.655 940.002,-467.296"/>
</g>
<!-- 13 -->
<g id="node14" class="node"><title>13</title>
<ellipse fill="none" stroke="black" cx="817.536" cy="-973.249" rx="62.4516" ry="48.1667"/>
<text text-anchor="middle" x="817.536" y="-992.049" font-family="Times New Roman,serif" font-size="14.00">13</text>
<text text-anchor="middle" x="817.536" y="-977.049" font-family="Times New Roman,serif" font-size="14.00">Inflow 1 0</text>
<text text-anchor="middle" x="817.536" y="-962.049" font-family="Times New Roman,serif" font-size="14.00">Volume 1 &#45;1</text>
<text text-anchor="middle" x="817.536" y="-947.049" font-family="Times New Roman,serif" font-size="14.00">Outflow 1 &#45;1</text>
</g>
<!-- 5&#45;&gt;13 -->
<g id="edge26" class="edge"><title>5&#45;&gt;13</title>
<path fill="none" stroke="black" d="M1004.55,-1079.93C966.48,-1059.87 914.143,-1031.24 874.475,-1008.84"/>
<polygon fill="black" stroke="black" points="876.13,-1005.76 865.704,-1003.87 872.679,-1011.85 876.13,-1005.76"/>
</g>
<!-- 6&#45;&gt;6 -->
<g id="edge27" class="edge"><title>6&#45;&gt;6</title>
<path fill="none" stroke="black" d="M973.058,-1526.59C987.804,-1525.74 999.225,-1517.51 999.225,-1501.92 999.225,-1490.09 992.666,-1482.51 983.072,-1479.16"/>
<polygon fill="black" stroke="black" points="983.538,-1475.68 973.058,-1477.24 982.221,-1482.56 983.538,-1475.68"/>
</g>
<!-- 6&#45;&gt;8 -->
<g id="edge29" class="edge"><title>6&#45;&gt;8</title>
<path fill="none" stroke="black" d="M887.958,-1541.11C871.231,-1557.42 850.915,-1576.47 832.635,-1592.99"/>
<polygon fill="black" stroke="black" points="830.043,-1590.61 824.941,-1599.9 834.72,-1595.82 830.043,-1590.61"/>
</g>
<!-- 14 -->
<g id="node15" class="node"><title>14</title>
<ellipse fill="none" stroke="black" cx="931.536" cy="-1237.58" rx="62.4516" ry="48.1667"/>
<text text-anchor="middle" x="931.536" y="-1256.38" font-family="Times New Roman,serif" font-size="14.00">14</text>
<text text-anchor="middle" x="931.536" y="-1241.38" font-family="Times New Roman,serif" font-size="14.00">Inflow 1 1</text>
<text text-anchor="middle" x="931.536" y="-1226.38" font-family="Times New Roman,serif" font-size="14.00">Volume 2 &#45;1</text>
<text text-anchor="middle" x="931.536" y="-1211.38" font-family="Times New Roman,serif" font-size="14.00">Outflow 2 &#45;1</text>
</g>
<!-- 6&#45;&gt;14 -->
<g id="edge28" class="edge"><title>6&#45;&gt;14</title>
<path fill="none" stroke="black" d="M924.155,-1453.71C925.673,-1409.46 927.946,-1343.21 929.568,-1295.93"/>
<polygon fill="black" stroke="black" points="933.069,-1295.96 929.914,-1285.85 926.073,-1295.72 933.069,-1295.96"/>
</g>
<!-- 15 -->
<g id="node16" class="node"><title>15</title>
<ellipse fill="none" stroke="black" cx="727.536" cy="-1369.75" rx="62.4516" ry="48.1667"/>
<text text-anchor="middle" x="727.536" y="-1388.55" font-family="Times New Roman,serif" font-size="14.00">15</text>
<text text-anchor="middle" x="727.536" y="-1373.55" font-family="Times New Roman,serif" font-size="14.00">Inflow 1 0</text>
<text text-anchor="middle" x="727.536" y="-1358.55" font-family="Times New Roman,serif" font-size="14.00">Volume 2 &#45;1</text>
<text text-anchor="middle" x="727.536" y="-1343.55" font-family="Times New Roman,serif" font-size="14.00">Outflow 2 &#45;1</text>
</g>
<!-- 6&#45;&gt;15 -->
<g id="edge30" class="edge"><title>6&#45;&gt;15</title>
<path fill="none" stroke="black" d="M877.309,-1470.73C849.148,-1451.93 812.728,-1427.62 782.853,-1407.67"/>
<polygon fill="black" stroke="black" points="784.472,-1404.55 774.212,-1401.91 780.586,-1410.37 784.472,-1404.55"/>
</g>
<!-- 7&#45;&gt;3 -->
<g id="edge35" class="edge"><title>7&#45;&gt;3</title>
<path fill="none" stroke="black" d="M932.4,-314.12C1002.51,-317.736 1119.04,-333.485 1192.54,-396.5 1258.63,-453.167 1271.54,-488.689 1271.54,-575.749 1271.54,-1767.25 1271.54,-1767.25 1271.54,-1767.25 1271.54,-1856.91 1202.77,-1942.1 1153.12,-1989.92"/>
<polygon fill="black" stroke="black" points="1150.51,-1987.57 1145.64,-1996.98 1155.31,-1992.66 1150.51,-1987.57"/>
</g>
<!-- 7&#45;&gt;4 -->
<g id="edge32" class="edge"><title>7&#45;&gt;4</title>
<path fill="none" stroke="black" d="M931.887,-318.499C989.461,-326.429 1076.51,-346.458 1132.54,-396.5 1198.01,-454.98 1215.54,-487.957 1215.54,-575.749 1215.54,-1370.75 1215.54,-1370.75 1215.54,-1370.75 1215.54,-1576.09 1040.63,-1773.92 953.067,-1856.74"/>
<polygon fill="black" stroke="black" points="950.553,-1854.3 945.64,-1863.68 955.334,-1859.41 950.553,-1854.3"/>
</g>
<!-- 7&#45;&gt;5 -->
<g id="edge34" class="edge"><title>7&#45;&gt;5</title>
<path fill="none" stroke="black" d="M924.388,-336.616C997.059,-375.76 1121.54,-461.923 1121.54,-575.749 1121.54,-842.082 1121.54,-842.082 1121.54,-842.082 1121.54,-915.852 1099.4,-998.598 1080.35,-1051.07"/>
<polygon fill="black" stroke="black" points="1077.05,-1049.92 1076.84,-1060.51 1083.61,-1052.36 1077.05,-1049.92"/>
</g>
<!-- 7&#45;&gt;7 -->
<g id="edge31" class="edge"><title>7&#45;&gt;7</title>
<path fill="none" stroke="black" d="M924.058,-337.092C938.804,-336.239 950.225,-328.014 950.225,-312.416 950.225,-300.596 943.666,-293.01 934.072,-289.657"/>
<polygon fill="black" stroke="black" points="934.538,-286.183 924.058,-287.74 933.221,-293.058 934.538,-286.183"/>
</g>
<!-- 7&#45;&gt;9 -->
<g id="edge38" class="edge"><title>7&#45;&gt;9</title>
<path fill="none" stroke="black" d="M820.763,-290.941C704.964,-244.049 429.518,-128.87 306.999,-76.1831"/>
<polygon fill="black" stroke="black" points="308.309,-72.9366 297.74,-72.1949 305.539,-79.3655 308.309,-72.9366"/>
</g>
<!-- 7&#45;&gt;10 -->
<g id="edge37" class="edge"><title>7&#45;&gt;10</title>
<path fill="none" stroke="black" d="M816.944,-298.219C720.474,-274.669 524.984,-225.399 422.871,-198.943"/>
<polygon fill="black" stroke="black" points="423.546,-195.502 412.988,-196.378 421.787,-202.278 423.546,-195.502"/>
</g>
<!-- 7&#45;&gt;12 -->
<g id="edge36" class="edge"><title>7&#45;&gt;12</title>
<path fill="none" stroke="black" d="M880.046,-360.34C880.275,-368.817 880.34,-377.741 880.24,-386.47"/>
<polygon fill="black" stroke="black" points="876.739,-386.525 880.048,-396.59 883.738,-386.658 876.739,-386.525"/>
</g>
<!-- 7&#45;&gt;13 -->
<g id="edge33" class="edge"><title>7&#45;&gt;13</title>
<path fill="none" stroke="black" d="M922.205,-339.511C941.576,-353.855 961.512,-373.429 971.536,-396.5 988.568,-435.7 977.202,-450.303 971.536,-492.666 947.322,-673.696 924.866,-717.129 863.536,-889.166 859.763,-899.749 855.229,-910.867 850.455,-921.406"/>
<polygon fill="black" stroke="black" points="847.273,-919.949 846.211,-930.491 853.615,-922.912 847.273,-919.949"/>
</g>
<!-- 16 -->
<g id="node17" class="node"><title>16</title>
<ellipse fill="none" stroke="black" cx="581.536" cy="-841.082" rx="62.4516" ry="48.1667"/>
<text text-anchor="middle" x="581.536" y="-859.882" font-family="Times New Roman,serif" font-size="14.00">16</text>
<text text-anchor="middle" x="581.536" y="-844.882" font-family="Times New Roman,serif" font-size="14.00">Inflow 1 &#45;1</text>
<text text-anchor="middle" x="581.536" y="-829.882" font-family="Times New Roman,serif" font-size="14.00">Volume 1 &#45;1</text>
<text text-anchor="middle" x="581.536" y="-814.882" font-family="Times New Roman,serif" font-size="14.00">Outflow 1 &#45;1</text>
</g>
<!-- 7&#45;&gt;16 -->
<g id="edge39" class="edge"><title>7&#45;&gt;16</title>
<path fill="none" stroke="black" d="M822.293,-336.351C794.742,-350.013 762.187,-369.929 740.536,-396.5 645.595,-513.009 609.551,-692.58 593.462,-783.368"/>
<polygon fill="black" stroke="black" points="589.972,-783.005 591.689,-793.46 596.867,-784.217 589.972,-783.005"/>
</g>
<!-- 8&#45;&gt;6 -->
<g id="edge42" class="edge"><title>8&#45;&gt;6</title>
<path fill="none" stroke="black" d="M817.913,-1595.08C834.602,-1578.8 854.9,-1559.76 873.189,-1543.23"/>
<polygon fill="black" stroke="black" points="875.787,-1545.6 880.888,-1536.31 871.109,-1540.39 875.787,-1545.6"/>
</g>
<!-- 8&#45;&gt;8 -->
<g id="edge40" class="edge"><title>8&#45;&gt;8</title>
<path fill="none" stroke="black" d="M834.058,-1658.76C848.804,-1657.9 860.225,-1649.68 860.225,-1634.08 860.225,-1622.26 853.666,-1614.68 844.072,-1611.32"/>
<polygon fill="black" stroke="black" points="844.538,-1607.85 834.058,-1609.41 843.221,-1614.72 844.538,-1607.85"/>
</g>
<!-- 8&#45;&gt;11 -->
<g id="edge44" class="edge"><title>8&#45;&gt;11</title>
<path fill="none" stroke="black" d="M736.242,-1663.1C696.609,-1684.83 639.923,-1714.83 597.189,-1736.7"/>
<polygon fill="black" stroke="black" points="595.339,-1733.71 588.02,-1741.37 598.519,-1739.95 595.339,-1733.71"/>
</g>
<!-- 8&#45;&gt;14 -->
<g id="edge43" class="edge"><title>8&#45;&gt;14</title>
<path fill="none" stroke="black" d="M800.513,-1587.83C827.818,-1515.05 881.405,-1372.21 910.883,-1293.63"/>
<polygon fill="black" stroke="black" points="914.293,-1294.51 914.529,-1283.91 907.739,-1292.05 914.293,-1294.51"/>
</g>
<!-- 8&#45;&gt;15 -->
<g id="edge41" class="edge"><title>8&#45;&gt;15</title>
<path fill="none" stroke="black" d="M773.588,-1586.48C764.081,-1541.95 749.734,-1474.74 739.583,-1427.19"/>
<polygon fill="black" stroke="black" points="742.995,-1426.4 737.484,-1417.35 736.149,-1427.86 742.995,-1426.4"/>
</g>
<!-- 17 -->
<g id="node18" class="node"><title>17</title>
<ellipse fill="none" stroke="black" cx="561.536" cy="-1105.42" rx="62.4516" ry="48.1667"/>
<text text-anchor="middle" x="561.536" y="-1124.22" font-family="Times New Roman,serif" font-size="14.00">17</text>
<text text-anchor="middle" x="561.536" y="-1109.22" font-family="Times New Roman,serif" font-size="14.00">Inflow 1 &#45;1</text>
<text text-anchor="middle" x="561.536" y="-1094.22" font-family="Times New Roman,serif" font-size="14.00">Volume 2 &#45;1</text>
<text text-anchor="middle" x="561.536" y="-1079.22" font-family="Times New Roman,serif" font-size="14.00">Outflow 2 &#45;1</text>
</g>
<!-- 8&#45;&gt;17 -->
<g id="edge45" class="edge"><title>8&#45;&gt;17</title>
<path fill="none" stroke="black" d="M755.042,-1591.99C713.011,-1529.15 635.301,-1403.96 597.536,-1285.67 584.795,-1245.76 575.624,-1199.36 569.727,-1163.77"/>
<polygon fill="black" stroke="black" points="573.128,-1162.87 568.076,-1153.56 566.217,-1163.99 573.128,-1162.87"/>
</g>
<!-- 9&#45;&gt;4 -->
<g id="edge49" class="edge"><title>9&#45;&gt;4</title>
<path fill="none" stroke="black" d="M199.742,-77.5736C133.714,-119.102 21.5356,-203.241 21.5356,-311.416 21.5356,-842.082 21.5356,-842.082 21.5356,-842.082 21.5356,-1296.17 -35.0343,-1551.89 335.536,-1814.33 415.261,-1870.79 702.543,-1889.33 835.837,-1895.04"/>
<polygon fill="black" stroke="black" points="835.798,-1898.55 845.935,-1895.47 836.09,-1891.55 835.798,-1898.55"/>
</g>
<!-- 9&#45;&gt;7 -->
<g id="edge50" class="edge"><title>9&#45;&gt;7</title>
<path fill="none" stroke="black" d="M299.436,-69.6107C415.358,-116.555 690.826,-231.744 813.224,-284.382"/>
<polygon fill="black" stroke="black" points="811.904,-287.624 822.473,-288.366 814.674,-281.195 811.904,-287.624"/>
</g>
<!-- 9&#45;&gt;8 -->
<g id="edge51" class="edge"><title>9&#45;&gt;8</title>
<path fill="none" stroke="black" d="M238.361,-95.766C223.04,-187.45 191.536,-397.63 191.536,-575.749 191.536,-842.082 191.536,-842.082 191.536,-842.082 191.536,-1199.04 582.741,-1498.36 729.123,-1597.86"/>
<polygon fill="black" stroke="black" points="727.329,-1600.87 737.575,-1603.57 731.247,-1595.07 727.329,-1600.87"/>
</g>
<!-- 9&#45;&gt;9 -->
<g id="edge46" class="edge"><title>9&#45;&gt;9</title>
<path fill="none" stroke="black" d="M297.058,-72.7592C311.804,-71.9062 323.225,-63.6809 323.225,-48.0833 323.225,-36.2632 316.666,-28.6768 307.072,-25.3243"/>
<polygon fill="black" stroke="black" points="307.538,-21.85 297.058,-23.4073 306.221,-28.7252 307.538,-21.85"/>
</g>
<!-- 9&#45;&gt;10 -->
<g id="edge47" class="edge"><title>9&#45;&gt;10</title>
<path fill="none" stroke="black" d="M283.812,-85.6016C296.187,-99.3717 309.889,-115.27 322.118,-130.013"/>
<polygon fill="black" stroke="black" points="319.686,-132.566 328.743,-138.064 325.091,-128.118 319.686,-132.566"/>
</g>
<!-- 9&#45;&gt;11 -->
<g id="edge48" class="edge"><title>9&#45;&gt;11</title>
<path fill="none" stroke="black" d="M227.662,-93.7511C223.088,-106.021 218.631,-119.452 215.536,-132.167 173.662,-304.172 184.884,-351.789 177.536,-528.666 166.769,-787.844 191.616,-1481.94 356.536,-1682.16 385.413,-1717.22 432.316,-1738.18 471.14,-1750.27"/>
<polygon fill="black" stroke="black" points="470.237,-1753.66 480.82,-1753.16 472.238,-1746.95 470.237,-1753.66"/>
</g>
<!-- 10&#45;&gt;4 -->
<g id="edge56" class="edge"><title>10&#45;&gt;4</title>
<path fill="none" stroke="black" d="M307.658,-205.753C281.885,-219.55 251.784,-239.121 231.536,-264.333 100.86,-427.047 77.5356,-499.225 77.5356,-707.916 77.5356,-842.082 77.5356,-842.082 77.5356,-842.082 77.5356,-1022.15 279.728,-1642.97 307.536,-1682.16 430.668,-1855.71 706.341,-1890.15 835.465,-1896.43"/>
<polygon fill="black" stroke="black" points="835.482,-1899.93 845.627,-1896.88 835.792,-1892.94 835.482,-1899.93"/>
</g>
<!-- 10&#45;&gt;7 -->
<g id="edge55" class="edge"><title>10&#45;&gt;7</title>
<path fill="none" stroke="black" d="M413.88,-194.387C510.187,-217.895 705.692,-267.167 807.959,-293.661"/>
<polygon fill="black" stroke="black" points="807.3,-297.105 817.858,-296.23 809.058,-290.33 807.3,-297.105"/>
</g>
<!-- 10&#45;&gt;9 -->
<g id="edge53" class="edge"><title>10&#45;&gt;9</title>
<path fill="none" stroke="black" d="M320.181,-142.645C307.868,-128.94 294.248,-113.138 282.075,-98.4667"/>
<polygon fill="black" stroke="black" points="284.537,-95.9497 275.479,-90.4532 279.132,-100.398 284.537,-95.9497"/>
</g>
<!-- 10&#45;&gt;10 -->
<g id="edge52" class="edge"><title>10&#45;&gt;10</title>
<path fill="none" stroke="black" d="M408.058,-204.926C422.804,-204.073 434.225,-195.847 434.225,-180.25 434.225,-168.43 427.666,-160.843 418.072,-157.491"/>
<polygon fill="black" stroke="black" points="418.538,-154.017 408.058,-155.574 417.221,-160.892 418.538,-154.017"/>
</g>
<!-- 10&#45;&gt;13 -->
<g id="edge57" class="edge"><title>10&#45;&gt;13</title>
<path fill="none" stroke="black" d="M394.316,-218.013C449.087,-279.541 552.624,-408.48 623.536,-528.666 702.064,-661.762 771.779,-830.481 802.09,-916.424"/>
<polygon fill="black" stroke="black" points="798.825,-917.691 805.417,-925.985 805.436,-915.39 798.825,-917.691"/>
</g>
<!-- 10&#45;&gt;16 -->
<g id="edge54" class="edge"><title>10&#45;&gt;16</title>
<path fill="none" stroke="black" d="M371.425,-227.269C390.94,-308.965 428.327,-483.987 481.536,-624.833 503.05,-681.782 535.267,-743.445 557.454,-786.115"/>
<polygon fill="black" stroke="black" points="554.453,-787.93 562.168,-795.191 560.665,-784.703 554.453,-787.93"/>
</g>
<!-- 18 -->
<g id="node19" class="node"><title>18</title>
<ellipse fill="none" stroke="black" cx="357.536" cy="-708.916" rx="62.4516" ry="48.1667"/>
<text text-anchor="middle" x="357.536" y="-727.716" font-family="Times New Roman,serif" font-size="14.00">18</text>
<text text-anchor="middle" x="357.536" y="-712.716" font-family="Times New Roman,serif" font-size="14.00">Inflow 0 0</text>
<text text-anchor="middle" x="357.536" y="-697.716" font-family="Times New Roman,serif" font-size="14.00">Volume 1 &#45;1</text>
<text text-anchor="middle" x="357.536" y="-682.716" font-family="Times New Roman,serif" font-size="14.00">Outflow 1 &#45;1</text>
</g>
<!-- 10&#45;&gt;18 -->
<g id="edge58" class="edge"><title>10&#45;&gt;18</title>
<path fill="none" stroke="black" d="M357.536,-228.535C357.536,-325.367 357.536,-545.906 357.536,-650.645"/>
<polygon fill="black" stroke="black" points="354.036,-650.714 357.536,-660.714 361.036,-650.714 354.036,-650.714"/>
</g>
<!-- 11&#45;&gt;8 -->
<g id="edge61" class="edge"><title>11&#45;&gt;8</title>
<path fill="none" stroke="black" d="M584.651,-1737.32C624.329,-1715.56 681.189,-1685.47 724,-1663.57"/>
<polygon fill="black" stroke="black" points="725.592,-1666.69 732.911,-1659.03 722.413,-1660.45 725.592,-1666.69"/>
</g>
<!-- 11&#45;&gt;11 -->
<g id="edge59" class="edge"><title>11&#45;&gt;11</title>
<path fill="none" stroke="black" d="M588.058,-1790.92C602.804,-1790.07 614.225,-1781.85 614.225,-1766.25 614.225,-1754.43 607.666,-1746.84 598.072,-1743.49"/>
<polygon fill="black" stroke="black" points="598.538,-1740.01 588.058,-1741.57 597.221,-1746.89 598.538,-1740.01"/>
</g>
<!-- 11&#45;&gt;15 -->
<g id="edge62" class="edge"><title>11&#45;&gt;15</title>
<path fill="none" stroke="black" d="M558.778,-1721.14C593.859,-1648.3 663.784,-1503.12 701.681,-1424.43"/>
<polygon fill="black" stroke="black" points="704.953,-1425.7 706.139,-1415.17 698.647,-1422.66 704.953,-1425.7"/>
</g>
<!-- 11&#45;&gt;17 -->
<g id="edge60" class="edge"><title>11&#45;&gt;17</title>
<path fill="none" stroke="black" d="M506.533,-1725.07C471.571,-1675.64 419.536,-1587.81 419.536,-1502.92 419.536,-1502.92 419.536,-1502.92 419.536,-1368.75 419.536,-1284.69 476.622,-1201.76 518.404,-1152.33"/>
<polygon fill="black" stroke="black" points="521.107,-1154.55 524.967,-1144.68 515.796,-1149.99 521.107,-1154.55"/>
</g>
<!-- 19 -->
<g id="node20" class="node"><title>19</title>
<ellipse fill="none" stroke="black" cx="395.536" cy="-973.249" rx="62.4516" ry="48.1667"/>
<text text-anchor="middle" x="395.536" y="-992.049" font-family="Times New Roman,serif" font-size="14.00">19</text>
<text text-anchor="middle" x="395.536" y="-977.049" font-family="Times New Roman,serif" font-size="14.00">Inflow 0 0</text>
<text text-anchor="middle" x="395.536" y="-962.049" font-family="Times New Roman,serif" font-size="14.00">Volume 2 &#45;1</text>
<text text-anchor="middle" x="395.536" y="-947.049" font-family="Times New Roman,serif" font-size="14.00">Outflow 2 &#45;1</text>
</g>
<!-- 11&#45;&gt;19 -->
<g id="edge63" class="edge"><title>11&#45;&gt;19</title>
<path fill="none" stroke="black" d="M491.146,-1736.33C470.687,-1721.91 447.494,-1703.08 430.536,-1682.16 374.77,-1613.37 343.536,-1591.47 343.536,-1502.92 343.536,-1502.92 343.536,-1502.92 343.536,-1236.58 343.536,-1164.17 362.833,-1082.63 377.916,-1029.96"/>
<polygon fill="black" stroke="black" points="381.339,-1030.72 380.774,-1020.14 374.618,-1028.77 381.339,-1030.72"/>
</g>
<!-- 12&#45;&gt;5 -->
<g id="edge65" class="edge"><title>12&#45;&gt;5</title>
<path fill="none" stroke="black" d="M932.065,-461.008C966.834,-473.777 1008.55,-495.315 1032.54,-528.666 1079.83,-594.429 1065.54,-626.91 1065.54,-707.916 1065.54,-842.082 1065.54,-842.082 1065.54,-842.082 1065.54,-912.749 1064.8,-994.12 1062.22,-1047.26"/>
<polygon fill="black" stroke="black" points="1058.71,-1047.33 1061.68,-1057.5 1065.7,-1047.7 1058.71,-1047.33"/>
</g>
<!-- 12&#45;&gt;7 -->
<g id="edge67" class="edge"><title>12&#45;&gt;7</title>
<path fill="none" stroke="black" d="M867.023,-396.59C866.795,-388.111 866.731,-379.186 866.832,-370.458"/>
<polygon fill="black" stroke="black" points="870.333,-370.405 867.025,-360.34 863.334,-370.272 870.333,-370.405"/>
</g>
<!-- 12&#45;&gt;12 -->
<g id="edge64" class="edge"><title>12&#45;&gt;12</title>
<path fill="none" stroke="black" d="M927.149,-469.21C942.204,-468.132 953.761,-459.923 953.761,-444.583 953.761,-432.838 946.987,-425.274 937.054,-421.889"/>
<polygon fill="black" stroke="black" points="937.634,-418.436 927.149,-419.955 936.293,-425.306 937.634,-418.436"/>
</g>
<!-- 12&#45;&gt;13 -->
<g id="edge66" class="edge"><title>12&#45;&gt;13</title>
<path fill="none" stroke="black" d="M872.567,-492.973C865.714,-590.011 842.325,-810.966 827.957,-915.467"/>
<polygon fill="black" stroke="black" points="824.471,-915.122 826.552,-925.511 831.403,-916.092 824.471,-915.122"/>
</g>
<!-- 13&#45;&gt;5 -->
<g id="edge71" class="edge"><title>13&#45;&gt;5</title>
<path fill="none" stroke="black" d="M869.703,-999.881C908.053,-1020.13 959.988,-1048.56 999.083,-1070.66"/>
<polygon fill="black" stroke="black" points="997.799,-1073.96 1008.22,-1075.85 1001.25,-1067.87 997.799,-1073.96"/>
</g>
<!-- 13&#45;&gt;7 -->
<g id="edge69" class="edge"><title>13&#45;&gt;7</title>
<path fill="none" stroke="black" d="M830.849,-926.18C835.829,-914.269 841.188,-901.362 845.536,-889.166 906.866,-717.129 929.322,-673.696 953.536,-492.666 959.202,-450.303 970.568,-435.7 953.536,-396.5 946.565,-380.455 934.8,-366.102 922.373,-354.023"/>
<polygon fill="black" stroke="black" points="924.718,-351.424 915.011,-347.178 919.951,-356.55 924.718,-351.424"/>
</g>
<!-- 13&#45;&gt;10 -->
<g id="edge73" class="edge"><title>13&#45;&gt;10</title>
<path fill="none" stroke="black" d="M795.556,-927.925C760.279,-846.337 687.737,-667.986 605.536,-528.666 539.086,-416.043 443.989,-295.734 392.896,-230.41"/>
<polygon fill="black" stroke="black" points="395.501,-228.061 386.587,-222.335 389.985,-232.37 395.501,-228.061"/>
</g>
<!-- 13&#45;&gt;12 -->
<g id="edge70" class="edge"><title>13&#45;&gt;12</title>
<path fill="none" stroke="black" d="M818.491,-925.047C825.323,-828.164 848.71,-607.192 863.089,-502.548"/>
<polygon fill="black" stroke="black" points="866.577,-502.878 864.495,-492.49 859.645,-501.909 866.577,-502.878"/>
</g>
<!-- 13&#45;&gt;13 -->
<g id="edge68" class="edge"><title>13&#45;&gt;13</title>
<path fill="none" stroke="black" d="M871.149,-997.877C886.204,-996.798 897.761,-988.589 897.761,-973.249 897.761,-961.504 890.987,-953.94 881.054,-950.555"/>
<polygon fill="black" stroke="black" points="881.634,-947.102 871.149,-948.621 880.293,-953.972 881.634,-947.102"/>
</g>
<!-- 13&#45;&gt;16 -->
<g id="edge72" class="edge"><title>13&#45;&gt;16</title>
<path fill="none" stroke="black" d="M765.406,-946.532C727.891,-926.641 677.393,-898.89 638.771,-876.992"/>
<polygon fill="black" stroke="black" points="640.146,-873.748 629.724,-871.846 636.685,-879.833 640.146,-873.748"/>
</g>
<!-- 14&#45;&gt;5 -->
<g id="edge76" class="edge"><title>14&#45;&gt;5</title>
<path fill="none" stroke="black" d="M967.774,-1198.23C981.659,-1183.54 997.623,-1166.64 1012.04,-1151.39"/>
<polygon fill="black" stroke="black" points="1014.66,-1153.72 1018.98,-1144.04 1009.57,-1148.91 1014.66,-1153.72"/>
</g>
<!-- 14&#45;&gt;7 -->
<g id="edge79" class="edge"><title>14&#45;&gt;7</title>
<path fill="none" stroke="black" d="M993.094,-1229.28C1041.21,-1220.11 1105.61,-1199.54 1140.54,-1153.5 1188.96,-1089.67 1159.54,-1054.36 1159.54,-974.249 1159.54,-974.249 1159.54,-974.249 1159.54,-575.749 1159.54,-486.803 1135.34,-457.423 1070.54,-396.5 1034.11,-362.253 981.472,-341.043 939.771,-328.633"/>
<polygon fill="black" stroke="black" points="940.545,-325.213 929.967,-325.815 938.611,-331.941 940.545,-325.213"/>
</g>
<!-- 14&#45;&gt;12 -->
<g id="edge75" class="edge"><title>14&#45;&gt;12</title>
<path fill="none" stroke="black" d="M944.889,-1190.57C971.433,-1092.32 1025,-855.145 985.536,-660.833 973.063,-599.424 937.27,-536.704 909.469,-494.931"/>
<polygon fill="black" stroke="black" points="912.343,-492.932 903.847,-486.602 906.541,-496.849 912.343,-492.932"/>
</g>
<!-- 14&#45;&gt;13 -->
<g id="edge78" class="edge"><title>14&#45;&gt;13</title>
<path fill="none" stroke="black" d="M912.068,-1191.78C892.453,-1146.65 862.165,-1076.95 841.181,-1028.66"/>
<polygon fill="black" stroke="black" points="844.31,-1027.08 837.114,-1019.3 837.89,-1029.87 844.31,-1027.08"/>
</g>
<!-- 14&#45;&gt;14 -->
<g id="edge74" class="edge"><title>14&#45;&gt;14</title>
<path fill="none" stroke="black" d="M985.149,-1262.21C1000.2,-1261.13 1011.76,-1252.92 1011.76,-1237.58 1011.76,-1225.84 1004.99,-1218.27 995.054,-1214.89"/>
<polygon fill="black" stroke="black" points="995.634,-1211.43 985.149,-1212.95 994.293,-1218.31 995.634,-1211.43"/>
</g>
<!-- 14&#45;&gt;15 -->
<g id="edge77" class="edge"><title>14&#45;&gt;15</title>
<path fill="none" stroke="black" d="M886.697,-1270.97C857.093,-1290.55 818.08,-1315.46 786.052,-1335.23"/>
<polygon fill="black" stroke="black" points="783.902,-1332.44 777.217,-1340.66 787.569,-1338.41 783.902,-1332.44"/>
</g>
<!-- 15&#45;&gt;5 -->
<g id="edge85" class="edge"><title>15&#45;&gt;5</title>
<path fill="none" stroke="black" d="M770.938,-1335.06C787.028,-1321.04 804.509,-1303.8 817.536,-1285.67 844.85,-1247.64 827.169,-1222.34 860.536,-1189.5 879.936,-1170.4 942.177,-1145.48 990.988,-1127.93"/>
<polygon fill="black" stroke="black" points="992.309,-1131.18 1000.55,-1124.53 989.96,-1124.58 992.309,-1131.18"/>
</g>
<!-- 15&#45;&gt;7 -->
<g id="edge82" class="edge"><title>15&#45;&gt;7</title>
<path fill="none" stroke="black" d="M727.536,-1321.36C727.536,-1268.82 727.536,-1181.56 727.536,-1106.42 727.536,-1106.42 727.536,-1106.42 727.536,-972.249 727.536,-843.224 750.12,-514.398 802.536,-396.5 808.858,-382.277 818.419,-368.639 828.494,-356.67"/>
<polygon fill="black" stroke="black" points="831.206,-358.887 835.16,-349.057 825.939,-354.275 831.206,-358.887"/>
</g>
<!-- 15&#45;&gt;10 -->
<g id="edge88" class="edge"><title>15&#45;&gt;10</title>
<path fill="none" stroke="black" d="M676.8,-1341.84C588.261,-1291.89 407.116,-1175.68 324.536,-1021.33 258.157,-897.267 267.536,-850.622 267.536,-709.916 267.536,-709.916 267.536,-709.916 267.536,-443.583 267.536,-367.273 302.029,-284.905 328.307,-233.227"/>
<polygon fill="black" stroke="black" points="331.461,-234.749 332.943,-224.258 325.242,-231.535 331.461,-234.749"/>
</g>
<!-- 15&#45;&gt;12 -->
<g id="edge84" class="edge"><title>15&#45;&gt;12</title>
<path fill="none" stroke="black" d="M751.164,-1324.94C757.856,-1312.32 765.074,-1298.49 771.536,-1285.67 792.849,-1243.35 796.228,-1231.82 817.536,-1189.5 855.566,-1113.97 886.157,-1103.4 906.536,-1021.33 952.652,-835.606 911.51,-606.266 887.7,-501.97"/>
<polygon fill="black" stroke="black" points="891.05,-500.925 885.383,-491.974 884.231,-502.506 891.05,-500.925"/>
</g>
<!-- 15&#45;&gt;13 -->
<g id="edge81" class="edge"><title>15&#45;&gt;13</title>
<path fill="none" stroke="black" d="M738.124,-1322.33C754.689,-1249.72 786.685,-1109.48 804.593,-1030.98"/>
<polygon fill="black" stroke="black" points="808.105,-1031.32 806.917,-1020.79 801.281,-1029.76 808.105,-1031.32"/>
</g>
<!-- 15&#45;&gt;14 -->
<g id="edge83" class="edge"><title>15&#45;&gt;14</title>
<path fill="none" stroke="black" d="M772.553,-1336.24C802.12,-1316.69 841.015,-1291.86 872.969,-1272.13"/>
<polygon fill="black" stroke="black" points="875.1,-1274.93 881.784,-1266.71 871.433,-1268.97 875.1,-1274.93"/>
</g>
<!-- 15&#45;&gt;15 -->
<g id="edge80" class="edge"><title>15&#45;&gt;15</title>
<path fill="none" stroke="black" d="M781.149,-1394.38C796.204,-1393.3 807.761,-1385.09 807.761,-1369.75 807.761,-1358 800.987,-1350.44 791.054,-1347.05"/>
<polygon fill="black" stroke="black" points="791.634,-1343.6 781.149,-1345.12 790.293,-1350.47 791.634,-1343.6"/>
</g>
<!-- 15&#45;&gt;16 -->
<g id="edge87" class="edge"><title>15&#45;&gt;16</title>
<path fill="none" stroke="black" d="M717.093,-1322.32C703.118,-1261.24 677.01,-1150.7 650.536,-1057.33 635.009,-1002.58 614.929,-940.777 600.439,-897.488"/>
<polygon fill="black" stroke="black" points="603.752,-896.361 597.251,-887.995 597.116,-898.589 603.752,-896.361"/>
</g>
<!-- 15&#45;&gt;17 -->
<g id="edge86" class="edge"><title>15&#45;&gt;17</title>
<path fill="none" stroke="black" d="M685.725,-1333.82C672.238,-1319.5 657.935,-1302.38 646.536,-1285.67 619.729,-1246.36 594.983,-1198.49 578.948,-1162.11"/>
<polygon fill="black" stroke="black" points="582.04,-1160.44 574.863,-1152.64 575.613,-1163.21 582.04,-1160.44"/>
</g>
<!-- 16&#45;&gt;0 -->
<g id="edge94" class="edge"><title>16&#45;&gt;0</title>
<path fill="none" stroke="black" d="M561.495,-886.695C532.185,-952.471 476.45,-1079.57 433.536,-1189.5 258.26,-1638.48 261.914,-1769.87 192.536,-2246.83 186.632,-2287.42 181.793,-2333.43 178.476,-2368.67"/>
<polygon fill="black" stroke="black" points="174.977,-2368.5 177.539,-2378.78 181.947,-2369.15 174.977,-2368.5"/>
</g>
<!-- 16&#45;&gt;7 -->
<g id="edge92" class="edge"><title>16&#45;&gt;7</title>
<path fill="none" stroke="black" d="M581.342,-792.779C589.044,-705.531 624.192,-517.184 722.536,-396.5 745.101,-368.808 779.508,-348.344 809.851,-334.655"/>
<polygon fill="black" stroke="black" points="811.345,-337.822 819.119,-330.624 808.553,-331.403 811.345,-337.822"/>
</g>
<!-- 16&#45;&gt;10 -->
<g id="edge90" class="edge"><title>16&#45;&gt;10</title>
<path fill="none" stroke="black" d="M550.73,-799.22C524.336,-756.792 487.369,-687.92 463.536,-624.833 412.675,-490.204 376.272,-324.349 362.465,-238.622"/>
<polygon fill="black" stroke="black" points="365.896,-237.911 360.894,-228.572 358.98,-238.993 365.896,-237.911"/>
</g>
<!-- 16&#45;&gt;13 -->
<g id="edge91" class="edge"><title>16&#45;&gt;13</title>
<path fill="none" stroke="black" d="M633.478,-867.7C671.042,-887.615 721.696,-915.45 760.395,-937.393"/>
<polygon fill="black" stroke="black" points="759.037,-940.646 769.459,-942.549 762.498,-934.562 759.037,-940.646"/>
</g>
<!-- 16&#45;&gt;16 -->
<g id="edge89" class="edge"><title>16&#45;&gt;16</title>
<path fill="none" stroke="black" d="M635.149,-865.71C650.204,-864.631 661.761,-856.422 661.761,-841.082 661.761,-829.338 654.987,-821.773 645.054,-818.388"/>
<polygon fill="black" stroke="black" points="645.634,-814.935 635.149,-816.455 644.293,-821.806 645.634,-814.935"/>
</g>
<!-- 16&#45;&gt;18 -->
<g id="edge93" class="edge"><title>16&#45;&gt;18</title>
<path fill="none" stroke="black" d="M532.378,-811.517C498.067,-791.579 452.122,-764.88 415.94,-743.855"/>
<polygon fill="black" stroke="black" points="417.37,-740.638 406.965,-738.639 413.853,-746.69 417.37,-740.638"/>
</g>
<!-- 17&#45;&gt;7 -->
<g id="edge100" class="edge"><title>17&#45;&gt;7</title>
<path fill="none" stroke="black" d="M587.701,-1061.43C612.427,-1019.04 648.869,-951.702 670.536,-889.166 707.094,-783.649 711.403,-491.845 769.536,-396.5 781.481,-376.908 799.805,-360.015 817.764,-346.675"/>
<polygon fill="black" stroke="black" points="819.874,-349.468 825.965,-340.798 815.797,-343.778 819.874,-349.468"/>
</g>
<!-- 17&#45;&gt;10 -->
<g id="edge97" class="edge"><title>17&#45;&gt;10</title>
<path fill="none" stroke="black" d="M499.744,-1098.26C446.36,-1089.74 370.727,-1069.46 324.536,-1021.33 224.338,-916.931 229.536,-854.62 229.536,-709.916 229.536,-709.916 229.536,-709.916 229.536,-443.583 229.536,-363.205 213.953,-334.288 253.536,-264.333 264.885,-244.275 283.175,-227.236 301.275,-213.908"/>
<polygon fill="black" stroke="black" points="303.413,-216.683 309.552,-208.048 299.368,-210.97 303.413,-216.683"/>
</g>
<!-- 17&#45;&gt;13 -->
<g id="edge99" class="edge"><title>17&#45;&gt;13</title>
<path fill="none" stroke="black" d="M613.033,-1078.23C654.608,-1057.09 713.192,-1027.3 757.006,-1005.03"/>
<polygon fill="black" stroke="black" points="758.793,-1008.04 766.12,-1000.39 755.62,-1001.8 758.793,-1008.04"/>
</g>
<!-- 17&#45;&gt;15 -->
<g id="edge98" class="edge"><title>17&#45;&gt;15</title>
<path fill="none" stroke="black" d="M587.688,-1149.28C606.946,-1186.62 634.443,-1241.54 664.536,-1285.67 672.41,-1297.21 681.671,-1308.95 690.67,-1319.83"/>
<polygon fill="black" stroke="black" points="688.053,-1322.15 697.153,-1327.58 693.423,-1317.66 688.053,-1322.15"/>
</g>
<!-- 17&#45;&gt;16 -->
<g id="edge96" class="edge"><title>17&#45;&gt;16</title>
<path fill="none" stroke="black" d="M565.134,-1057.21C568.508,-1012.96 573.559,-946.711 577.163,-899.433"/>
<polygon fill="black" stroke="black" points="580.662,-899.585 577.932,-889.348 573.682,-899.053 580.662,-899.585"/>
</g>
<!-- 17&#45;&gt;17 -->
<g id="edge95" class="edge"><title>17&#45;&gt;17</title>
<path fill="none" stroke="black" d="M615.149,-1130.04C630.204,-1128.96 641.761,-1120.76 641.761,-1105.42 641.761,-1093.67 634.987,-1086.11 625.054,-1082.72"/>
<polygon fill="black" stroke="black" points="625.634,-1079.27 615.149,-1080.79 624.293,-1086.14 625.634,-1079.27"/>
</g>
<!-- 17&#45;&gt;18 -->
<g id="edge102" class="edge"><title>17&#45;&gt;18</title>
<path fill="none" stroke="black" d="M543.617,-1059.09C518.343,-997.101 469.167,-883.278 414.536,-792.999 407.961,-782.135 400.532,-770.752 393.261,-760.017"/>
<polygon fill="black" stroke="black" points="396.018,-757.848 387.484,-751.569 390.24,-761.799 396.018,-757.848"/>
</g>
<!-- 17&#45;&gt;19 -->
<g id="edge101" class="edge"><title>17&#45;&gt;19</title>
<path fill="none" stroke="black" d="M518.354,-1070.56C496.442,-1053.37 469.676,-1032.39 446.731,-1014.39"/>
<polygon fill="black" stroke="black" points="448.818,-1011.58 438.789,-1008.17 444.498,-1017.09 448.818,-1011.58"/>
</g>
<!-- 18&#45;&gt;0 -->
<g id="edge104" class="edge"><title>18&#45;&gt;0</title>
<path fill="none" stroke="black" d="M313.836,-743.794C298.55,-757.598 282.489,-774.635 271.536,-792.999 240.289,-845.387 250.687,-866.344 234.536,-925.166 164.37,-1180.71 79.5356,-1235.92 79.5356,-1500.92 79.5356,-2163.75 79.5356,-2163.75 79.5356,-2163.75 79.5356,-2240.65 115.777,-2323.19 143.253,-2374.72"/>
<polygon fill="black" stroke="black" points="140.256,-2376.54 148.098,-2383.66 146.41,-2373.2 140.256,-2376.54"/>
</g>
<!-- 18&#45;&gt;1 -->
<g id="edge106" class="edge"><title>18&#45;&gt;1</title>
<path fill="none" stroke="black" d="M333.46,-753.379C296.381,-824.506 229.536,-971.207 229.536,-1104.42 229.536,-1238.58 229.536,-1238.58 229.536,-1238.58 229.536,-1415.67 173.536,-1455.99 173.536,-1633.08 173.536,-1899.41 173.536,-1899.41 173.536,-1899.41 173.536,-2023.09 214.812,-2163.56 240.503,-2239.01"/>
<polygon fill="black" stroke="black" points="237.299,-2240.45 243.864,-2248.77 243.918,-2238.18 237.299,-2240.45"/>
</g>
<!-- 18&#45;&gt;18 -->
<g id="edge103" class="edge"><title>18&#45;&gt;18</title>
<path fill="none" stroke="black" d="M411.149,-733.544C426.204,-732.465 437.761,-724.256 437.761,-708.916 437.761,-697.171 430.987,-689.607 421.054,-686.222"/>
<polygon fill="black" stroke="black" points="421.634,-682.769 411.149,-684.288 420.293,-689.639 421.634,-682.769"/>
</g>
<!-- 20 -->
<g id="node21" class="node"><title>20</title>
<ellipse fill="none" stroke="black" cx="543.536" cy="-576.749" rx="62.4516" ry="48.1667"/>
<text text-anchor="middle" x="543.536" y="-595.549" font-family="Times New Roman,serif" font-size="14.00">20</text>
<text text-anchor="middle" x="543.536" y="-580.549" font-family="Times New Roman,serif" font-size="14.00">Inflow 0 1</text>
<text text-anchor="middle" x="543.536" y="-565.549" font-family="Times New Roman,serif" font-size="14.00">Volume 1 &#45;1</text>
<text text-anchor="middle" x="543.536" y="-550.549" font-family="Times New Roman,serif" font-size="14.00">Outflow 1 &#45;1</text>
</g>
<!-- 18&#45;&gt;20 -->
<g id="edge105" class="edge"><title>18&#45;&gt;20</title>
<path fill="none" stroke="black" d="M403.036,-676.074C429.157,-657.794 462.112,-634.731 489.539,-615.537"/>
<polygon fill="black" stroke="black" points="491.674,-618.315 497.86,-609.714 487.66,-612.58 491.674,-618.315"/>
</g>
<!-- 19&#45;&gt;18 -->
<g id="edge108" class="edge"><title>19&#45;&gt;18</title>
<path fill="none" stroke="black" d="M401.477,-925.214C404.733,-888.698 406.358,-837.041 396.536,-792.999 394.275,-782.863 390.638,-772.504 386.472,-762.691"/>
<polygon fill="black" stroke="black" points="389.626,-761.171 382.343,-753.476 383.237,-764.033 389.626,-761.171"/>
</g>
<!-- 19&#45;&gt;19 -->
<g id="edge107" class="edge"><title>19&#45;&gt;19</title>
<path fill="none" stroke="black" d="M449.149,-997.877C464.204,-996.798 475.761,-988.589 475.761,-973.249 475.761,-961.504 468.987,-953.94 459.054,-950.555"/>
<polygon fill="black" stroke="black" points="459.634,-947.102 449.149,-948.621 458.293,-953.972 459.634,-947.102"/>
</g>
<!-- 19&#45;&gt;20 -->
<g id="edge110" class="edge"><title>19&#45;&gt;20</title>
<path fill="none" stroke="black" d="M412.658,-926.609C439.985,-853.768 493.37,-711.467 522.811,-632.991"/>
<polygon fill="black" stroke="black" points="526.218,-633.874 526.454,-623.282 519.664,-631.416 526.218,-633.874"/>
</g>
<!-- 21 -->
<g id="node22" class="node"><title>21</title>
<ellipse fill="none" stroke="black" cx="360.536" cy="-841.082" rx="27" ry="18"/>
<text text-anchor="middle" x="360.536" y="-837.382" font-family="Times New Roman,serif" font-size="14.00">21</text>
</g>
<!-- 19&#45;&gt;21 -->
<g id="edge109" class="edge"><title>19&#45;&gt;21</title>
<path fill="none" stroke="black" d="M383.097,-925.991C377.972,-906.929 372.213,-885.51 367.796,-869.083"/>
<polygon fill="black" stroke="black" points="371.084,-867.833 365.107,-859.085 364.324,-869.651 371.084,-867.833"/>
</g>
<!-- 20&#45;&gt;5 -->
<g id="edge112" class="edge"><title>20&#45;&gt;5</title>
<path fill="none" stroke="black" d="M583.956,-613.571C652.603,-675.026 795.342,-805.511 906.536,-925.166 946.123,-967.766 988.038,-1019.2 1017.12,-1056.03"/>
<polygon fill="black" stroke="black" points="1014.55,-1058.43 1023.49,-1064.12 1020.05,-1054.1 1014.55,-1058.43"/>
</g>
<!-- 20&#45;&gt;12 -->
<g id="edge111" class="edge"><title>20&#45;&gt;12</title>
<path fill="none" stroke="black" d="M598.77,-553.962C656.68,-531.12 747.603,-495.256 808.834,-471.104"/>
<polygon fill="black" stroke="black" points="810.378,-474.258 818.396,-467.332 807.809,-467.746 810.378,-474.258"/>
</g>
</g>
</svg>
